<svg width="374" height="235" viewBox="0 0 374 235" fill="none" xmlns="http://www.w3.org/2000/svg">
<g clip-path="url(#clip0)">
<rect width="374" height="235" fill="#FEF9EE"/>
<path d="M229.835 144.47C238.703 151.47 247.398 158.382 254.701 168.532C261.918 178.769 267.917 192.332 263.483 201.432C259.048 210.531 244.355 215.169 232.443 222.256C220.618 229.431 211.663 238.968 202.012 239.931C192.361 240.806 182.014 233.194 168.711 226.544C155.409 219.981 139.15 214.381 131.846 203.094C124.63 191.894 126.369 175.007 131.238 159.082C136.107 143.07 144.193 127.933 156.626 122.07C169.146 116.208 185.927 119.62 198.882 124.958C211.837 130.208 220.966 137.47 229.835 144.47Z" fill="#D5FFD0"/>
<path d="M107.38 57.6616C112.835 65.0321 109.458 79.2559 109.653 93.609C109.783 108.027 113.484 122.574 108.029 131.496C102.575 140.418 87.9634 143.716 73.0275 143.974C58.1566 144.297 42.896 141.647 32.4409 132.724C22.0507 123.802 16.401 108.609 17.0504 94.1909C17.7648 79.7085 24.7781 65.8726 35.1683 58.5021C45.6234 51.1963 59.5203 50.2265 73.547 50.0325C87.6387 49.8386 101.925 50.2911 107.38 57.6616Z" fill="#D5FFD0"/>
<path d="M337.079 35.6538C348.279 46.7538 354.179 65.1538 352.679 85.9538C351.179 106.654 342.279 129.854 325.479 138.854C308.679 147.854 283.879 142.754 267.479 130.854C251.179 118.854 243.279 100.054 239.079 80.6538C234.879 61.1538 234.279 41.1538 243.779 30.4538C253.279 19.6538 272.979 18.2538 291.079 19.3538C309.179 20.5538 325.879 24.4538 337.079 35.6538Z" fill="#D5FFD0"/>
<path d="M96.6712 78.4718C96.6885 76.5902 96.3417 74.6945 95.7303 72.9216C94.775 70.1518 93.0418 67.7048 90.6344 66.0312C90.3682 65.8461 90.017 65.8353 89.7402 66.0043C87.2717 67.511 85.4106 69.8088 84.2884 72.4726C83.3758 74.6384 82.8064 77.0875 83.0577 79.4527C83.4581 83.2196 85.0668 86.9747 88.0004 89.4835C88.4194 89.8417 88.8893 90.1814 89.3502 90.4822C89.6194 90.6579 89.9674 90.6589 90.2374 90.4844C90.9259 90.0393 91.5721 89.5287 92.1651 88.9623C94.9462 86.3063 96.6356 82.3342 96.6712 78.4718V78.4718Z" fill="#91DEB6"/>
<path d="M96.6714 78.4721C96.635 82.3335 94.9469 86.306 92.1653 88.9611C91.5726 89.5278 90.9261 90.0391 90.2381 90.4846C89.9676 90.6596 89.6193 90.6579 89.3507 90.4829C89.1375 90.3443 88.9173 90.1987 88.8671 90.1639C88.7423 90.0737 88.621 89.982 88.4997 89.8901C88.6314 89.7757 88.7598 89.6561 88.8862 89.5365C91.668 86.8796 93.3577 82.9073 93.3923 79.0459C93.4096 77.1636 93.0631 75.2676 92.4512 73.4947C91.6003 71.0267 90.1322 68.8153 88.1183 67.1809C88.6244 66.7476 89.1669 66.3542 89.7405 66.0041C90.0162 65.836 90.3679 65.8464 90.6348 66.0318C93.0421 67.7043 94.7752 70.1514 95.7303 72.9211C96.342 74.694 96.6887 76.59 96.6714 78.4721Z" fill="#6ED5A1"/>
<path d="M101.232 91.015C102.893 90.131 104.392 88.9205 105.658 87.5361C107.634 85.3733 108.955 82.6813 109.275 79.7669C109.31 79.4445 109.152 79.1309 108.871 78.9685C106.368 77.5203 103.46 76.9834 100.584 77.2707C98.2454 77.5042 95.8218 78.1743 93.8643 79.5255C90.7468 81.6773 88.2169 84.885 87.4152 88.6608C87.2841 89.2774 86.817 90.6749 87.6051 91.1041C88.3252 91.4961 89.0826 91.8198 89.8636 92.0701C93.5253 93.2438 97.822 92.8296 101.232 91.015V91.015Z" fill="#00C27A"/>
<path d="M109.275 79.7669C108.956 82.682 107.634 85.3737 105.658 87.5366C104.393 88.9197 102.893 90.131 101.231 91.0151C97.8222 92.8296 93.5257 93.2438 89.8636 92.0706C89.0819 91.8193 88.3245 91.497 87.6053 91.1034C87.4251 91.0063 87.2898 90.8452 87.224 90.658C90.8202 91.7168 94.9764 91.2784 98.2936 89.5124C99.9557 88.6286 101.455 87.417 102.72 86.0339C104.696 83.871 106.018 81.1776 106.337 78.2642C106.354 78.11 106.327 77.9575 106.263 77.824C107.166 78.1082 108.041 78.4878 108.871 78.9678C109.152 79.1308 109.31 79.4445 109.275 79.7669Z" fill="#08B865"/>
<path d="M78.4381 91.015C76.7769 90.131 75.2776 88.9205 74.0124 87.5361C72.0359 85.3733 70.7147 82.6813 70.395 79.7669C70.3596 79.4445 70.5182 79.1309 70.7988 78.9685C73.3021 77.5203 76.2098 76.9834 79.0861 77.2707C81.4245 77.5042 83.8482 78.1743 85.8057 79.5255C88.9232 81.6773 91.4531 84.885 92.2548 88.6608C92.3875 89.2853 92.8696 90.6658 92.0649 91.1041C91.3448 91.4961 90.5874 91.8198 89.8063 92.0701C86.1445 93.2438 81.8478 92.8296 78.4381 91.015V91.015Z" fill="#00C27A"/>
<path d="M92.0647 91.1034C91.5811 91.3686 91.0785 91.6007 90.5637 91.8018C90.5447 91.7099 90.5256 91.618 90.5064 91.5261C89.7057 87.7497 87.1753 84.5433 84.0574 82.3907C82.1008 81.0388 79.6778 80.3698 77.338 80.1358C75.0416 79.9054 72.7244 80.2017 70.6082 81.0699C70.5146 80.6418 70.4436 80.2069 70.395 79.7666C70.3586 79.4443 70.5182 79.1305 70.7988 78.9676C73.3016 77.5204 76.2098 76.9832 79.0851 77.2708C81.4249 77.5031 83.8478 78.1738 85.8062 79.5256C88.9223 81.6765 91.4528 84.8845 92.2552 88.6609C92.3314 89.0197 92.392 89.3819 92.4371 89.7477C92.4439 89.8083 92.4665 90.07 92.4873 90.3232C92.5118 90.644 92.3472 90.9508 92.0647 91.1034Z" fill="#08B865"/>
<path d="M42.9711 87.3681C41.6529 86.0253 40.0671 84.9302 38.381 84.1088C35.7471 82.8257 32.791 82.3211 29.9055 82.8398C29.5862 82.8972 29.3304 83.1379 29.2541 83.4532C28.574 86.264 28.8827 89.2048 29.9728 91.8819C30.859 94.0586 32.1882 96.1931 34.0384 97.6877C36.9842 100.068 40.7756 101.585 44.6227 101.286C45.2896 101.234 46.7331 101.262 46.9155 100.412C47.0877 99.6098 47.1834 98.7918 47.2024 97.9719C47.2913 94.1276 45.6771 90.1243 42.9711 87.3681V87.3681Z" fill="#91DEB6"/>
<path d="M47.2023 97.9718C47.1833 98.7917 47.0879 99.6097 46.9164 100.412C46.8488 100.726 46.6009 100.972 46.2872 101.038C46.0392 101.09 45.7811 101.143 45.7204 101.154C45.5142 101.187 45.3062 101.216 45.0983 101.24C45.1122 101.048 45.1208 100.854 45.126 100.66C45.2143 96.8157 43.6008 92.8121 40.8937 90.0548C39.5765 88.7134 37.9907 87.6181 36.3043 86.7965C34.0078 85.6787 31.4688 85.1501 28.9435 85.377C28.9973 84.7324 29.0996 84.0894 29.2538 83.4533C29.33 83.1378 29.5865 82.897 29.9055 82.8397C32.7912 82.3215 35.748 82.8257 38.3805 84.1083C40.0669 84.9299 41.6527 86.0252 42.9716 87.3685C45.6771 90.1241 47.2906 94.1277 47.2023 97.9718V97.9718Z" fill="#6ED5A1"/>
<path d="M55.0652 93.0127C55.6146 91.2129 55.8189 89.2967 55.7346 87.4232C55.6029 84.4963 54.6335 81.6585 52.7988 79.3716C52.5959 79.1186 52.2621 79.009 51.9487 79.0926C49.1545 79.8386 46.719 81.5151 44.8883 83.7521C43.3998 85.5707 42.16 87.7583 41.7312 90.0979C41.34 92.2325 41.3296 94.4502 41.7812 96.5763C42.0516 97.8497 42.4311 99.1279 43.045 100.281C43.4075 100.962 44.5458 102.99 45.4927 102.711C46.2791 102.479 47.0433 102.173 47.7727 101.797C51.192 100.038 53.9373 96.7067 55.0652 93.0127V93.0127Z" fill="#00C27A"/>
<path d="M55.0656 93.0134C53.9373 96.7067 51.192 100.038 47.7725 101.797C47.0429 102.173 46.2786 102.48 45.4934 102.71C45.1848 102.802 44.8504 102.703 44.6424 102.457C44.4778 102.265 44.308 102.064 44.2699 102.015C44.2249 101.958 44.1815 101.899 44.1382 101.842C44.1694 101.828 44.1988 101.813 44.2301 101.797C47.6496 100.038 50.3948 96.7068 51.5231 93.0135C52.0725 91.2127 52.2769 89.2977 52.1921 87.4242C52.0708 84.7327 51.2424 82.1156 49.6825 79.9353C50.4053 79.587 51.1643 79.3028 51.9494 79.093C52.2632 79.0098 52.5959 79.119 52.7986 79.372C54.634 81.658 55.6029 84.4969 55.7346 87.4242C55.8194 89.2974 55.615 91.2126 55.0656 93.0134V93.0134Z" fill="#08B865"/>
<path d="M38.9479 109.13C37.1481 109.68 35.232 109.884 33.3584 109.799C30.4316 109.668 27.5937 108.698 25.3069 106.864C25.0539 106.661 24.9442 106.327 25.0279 106.014C25.7738 103.219 27.4503 100.784 29.6873 98.9532C31.5059 97.4647 33.6935 96.2249 36.0332 95.7961C39.7592 95.1133 43.8163 95.5927 47.0531 97.6955C47.529 98.0047 47.9637 98.3413 48.3932 98.7071C48.638 98.9156 48.7375 99.249 48.6464 99.5574C48.4145 100.344 48.1078 101.108 47.7325 101.837C45.9732 105.257 42.6421 108.002 38.9479 109.13V109.13Z" fill="#00C27A"/>
<path d="M48.6459 99.5576C48.4484 100.228 48.1953 100.883 47.8938 101.513C47.8175 101.46 47.7396 101.41 47.6633 101.36C44.4276 99.2577 40.3703 98.7777 36.6441 99.4605C34.3043 99.8903 32.1172 101.129 30.2974 102.618C28.6266 103.986 27.2679 105.693 26.377 107.634C26.0096 107.398 25.6525 107.142 25.3077 106.865C25.0547 106.66 24.9437 106.327 25.0287 106.014C25.774 103.22 27.45 100.785 29.6873 98.9527C31.5054 97.464 33.6944 96.2247 36.0323 95.7968C39.7586 95.114 43.8158 95.5922 47.0534 97.6963C47.362 97.8957 47.66 98.1088 47.9512 98.3358C47.9981 98.3722 48.2008 98.542 48.3932 98.7066C48.6374 98.9164 48.7378 99.2492 48.6459 99.5576V99.5576Z" fill="#08B865"/>
<path d="M111 105.027C111 93.3377 101.524 83.8617 89.8349 83.8617C78.1458 83.8617 68.6698 93.3377 68.6698 105.027C68.6698 108.781 69.705 112.035 71.36 115.358C73.6848 120.027 78.7397 128.532 86.5496 133.205C88.5675 134.413 91.0894 134.419 93.1101 133.216C97.7778 130.437 101.567 126.232 104.582 121.764C105.371 120.594 106.114 119.392 106.813 118.165C109.147 114.063 111 109.849 111 105.027V105.027Z" fill="#E94444"/>
<path d="M110.999 105.027C110.999 109.849 109.148 114.062 106.812 118.165C106.115 119.392 105.372 120.594 104.581 121.764C101.568 126.232 97.7771 130.437 93.1096 133.217C91.153 134.382 88.7282 134.413 86.7438 133.317C87.7039 133.243 88.6519 132.95 89.5099 132.439C94.1772 129.661 97.9676 125.456 100.982 120.988C101.772 119.818 102.514 118.615 103.212 117.388C105.547 113.286 107.4 109.072 107.4 104.251C107.4 94.7429 101.131 86.6994 92.5014 84.0287C102.933 85.3407 110.999 94.2403 110.999 105.027V105.027Z" fill="#D83131"/>
<path d="M95.5643 114.408C94.8686 114.408 94.3046 113.844 94.3046 113.148V110.828C94.3046 110.132 94.8686 109.568 95.5643 109.568C96.2601 109.568 96.8241 110.132 96.8241 110.828V113.148C96.8241 113.844 96.2602 114.408 95.5643 114.408Z" fill="#CC2121"/>
<path d="M84.1053 114.408C83.4096 114.408 82.8456 113.843 82.8456 113.148V110.828C82.8456 110.132 83.4096 109.568 84.1053 109.568C84.8011 109.568 85.3651 110.132 85.3651 110.828V113.148C85.3651 113.843 84.8011 114.408 84.1053 114.408Z" fill="#CC2121"/>
<path d="M89.8349 105.403C89.1392 105.403 88.5751 104.839 88.5751 104.143V101.823C88.5751 101.128 89.1392 100.564 89.8349 100.564C90.5306 100.564 91.0947 101.128 91.0947 101.823V104.143C91.0947 104.839 90.5306 105.403 89.8349 105.403Z" fill="#CC2121"/>
<path d="M102.073 105.403C101.377 105.403 100.813 104.839 100.813 104.143V101.823C100.813 101.128 101.377 100.564 102.073 100.564C102.769 100.564 103.333 101.128 103.333 101.823V104.143C103.333 104.839 102.769 105.403 102.073 105.403Z" fill="#CC2121"/>
<path d="M89.8349 122.227C89.1392 122.227 88.5751 121.663 88.5751 120.967V118.648C88.5751 117.952 89.1392 117.388 89.8349 117.388C90.5306 117.388 91.0947 117.952 91.0947 118.648V120.967C91.0947 121.663 90.5306 122.227 89.8349 122.227Z" fill="#CC2121"/>
<path d="M71.8804 96.0133C63.615 87.7479 50.2139 87.7479 41.9485 96.0133C33.6831 104.279 33.6831 117.68 41.9485 125.945C44.6034 128.6 47.6358 130.169 51.1562 131.348C56.101 133.005 65.6897 135.445 74.5166 133.228C76.7973 132.654 78.5852 130.876 79.1633 128.596C80.499 123.331 80.2052 117.678 79.1773 112.387C78.908 111.001 78.5837 109.626 78.2099 108.264C76.9599 103.713 75.2903 99.4234 71.8804 96.0133V96.0133Z" fill="#E94444"/>
<path d="M79.1632 128.597C78.5844 130.875 76.7975 132.654 74.5167 133.227C73.0713 133.591 71.6085 133.829 70.1456 133.966C70.3917 133.912 70.6378 133.855 70.884 133.792C73.1649 133.219 74.9517 131.441 75.5306 129.162C76.8667 123.896 76.5721 118.243 75.5445 112.951C75.2759 111.565 74.9517 110.19 74.5773 108.83C73.3278 104.277 71.657 99.9892 68.2479 96.5783C63.7487 92.0791 57.7277 90.0287 51.8419 90.4273C58.7953 88.7184 66.4471 90.5798 71.8806 96.0133C75.2897 99.4223 76.9605 103.712 78.21 108.265C78.5844 109.625 78.9084 111 79.1772 112.386C80.2048 117.678 80.4994 123.331 79.1632 128.597Z" fill="#D83131"/>
<path d="M66.7081 113.93C66.3858 113.93 66.0633 113.807 65.8174 113.561L64.1772 111.921C63.6852 111.429 63.6852 110.631 64.1772 110.139C64.6691 109.647 65.4668 109.647 65.9586 110.139L67.5988 111.78C68.0908 112.272 68.0908 113.069 67.5988 113.561C67.3529 113.807 67.0306 113.93 66.7081 113.93V113.93Z" fill="#CC2121"/>
<path d="M58.6053 122.033C58.283 122.033 57.9605 121.91 57.7146 121.664L56.0744 120.023C55.5824 119.531 55.5824 118.734 56.0744 118.242C56.5663 117.75 57.364 117.75 57.8558 118.242L59.4961 119.882C59.988 120.374 59.988 121.172 59.4961 121.664C59.2502 121.91 58.9277 122.033 58.6053 122.033V122.033Z" fill="#CC2121"/>
<path d="M56.2895 111.614C55.9672 111.614 55.6447 111.491 55.3988 111.245L53.7586 109.605C53.2666 109.113 53.2666 108.315 53.7586 107.824C54.2506 107.332 55.0482 107.332 55.5401 107.824L57.1803 109.464C57.6723 109.956 57.6723 110.753 57.1803 111.245C56.9344 111.491 56.6119 111.614 56.2895 111.614V111.614Z" fill="#CC2121"/>
<path d="M64.9433 102.96C64.6209 102.96 64.2984 102.838 64.0525 102.591L62.4123 100.951C61.9203 100.459 61.9203 99.6616 62.4123 99.1698C62.9043 98.6778 63.702 98.6778 64.1938 99.1698L65.834 100.81C66.326 101.302 66.326 102.1 65.834 102.591C65.5881 102.837 65.2656 102.96 64.9433 102.96V102.96Z" fill="#CC2121"/>
<path d="M47.6358 120.268C47.3134 120.268 46.9909 120.145 46.745 119.899L45.1048 118.259C44.6128 117.767 44.6128 116.969 45.1048 116.477C45.5968 115.985 46.3945 115.985 46.8863 116.477L48.5265 118.117C49.0185 118.609 49.0185 119.407 48.5265 119.899C48.2806 120.145 47.9583 120.268 47.6358 120.268Z" fill="#CC2121"/>
<path d="M68.1861 123.511C67.8637 123.511 67.5412 123.388 67.2953 123.142L65.6551 121.501C65.1631 121.009 65.1631 120.212 65.6551 119.72C66.1471 119.228 66.9448 119.228 67.4366 119.72L69.0768 121.36C69.5688 121.852 69.5688 122.65 69.0768 123.142C68.8309 123.388 68.5084 123.511 68.1861 123.511Z" fill="#CC2121"/>
<g clip-path="url(#clip1)">
<path d="M304.568 83.2152C309.926 63.8011 298.532 43.7185 279.118 38.3596C259.704 33.0008 239.622 44.3948 234.263 63.809C228.904 83.2232 240.298 103.306 259.712 108.665C279.126 114.023 299.209 102.629 304.568 83.2152Z" fill="#FE9738"/>
<path d="M279.119 38.3591C298.533 43.7179 309.926 63.8011 304.567 83.2151C303.538 86.942 301.968 90.3732 299.962 93.4465C301.113 91.225 302.051 88.8513 302.743 86.3441C308.102 66.9303 296.707 46.8465 277.293 41.4877C261.606 37.1576 245.481 43.7674 237.043 56.7064C244.798 41.7308 262.212 33.6924 279.119 38.3591Z" fill="#FE860A"/>
<path d="M239.516 51.6241C239.152 49.9978 238.472 48.4328 237.589 47.0267C236.208 44.83 234.222 43.0681 231.81 42.1086C231.543 42.0025 231.238 42.0638 231.033 42.2651C229.207 44.0604 228.064 46.416 227.632 48.9388C227.28 50.9898 227.281 53.2164 227.973 55.2057C229.075 58.3737 231.217 61.2887 234.251 62.8627C234.703 63.0974 235.835 63.8426 236.381 63.2764C236.886 62.754 237.34 62.1839 237.738 61.5763C239.603 58.7271 240.261 54.962 239.516 51.6241V51.6241Z" fill="#00C27A"/>
<path d="M231.81 42.1076C234.222 43.0676 236.208 44.8291 237.588 47.0262C238.473 48.4333 239.153 49.9975 239.515 51.6234C240.26 54.9617 239.603 58.7274 237.738 61.5756C237.34 62.1829 236.885 62.7538 236.381 63.2758C236.182 63.4812 235.883 63.5501 235.616 63.452C235.405 63.3751 235.185 63.2957 235.135 63.2743C235.111 63.264 235.089 63.2561 235.066 63.2441C236.799 60.4325 237.394 56.7977 236.671 53.5645C236.309 51.9386 235.628 50.3744 234.745 48.9679C233.455 46.9133 231.633 45.2383 229.429 44.2461C229.885 43.5312 230.421 42.8663 231.033 42.2638C231.238 42.064 231.543 42.0023 231.81 42.1076V42.1076Z" fill="#08B865"/>
<path d="M237.001 67.9236C233.781 67.5213 225.237 65.816 220.26 63.8337C218.019 62.9411 217.137 60.2359 218.439 58.205C218.457 58.1759 218.476 58.1468 218.494 58.1177C219.532 56.4901 221.622 55.8977 223.365 56.7262C226.442 58.1883 233.962 61.0599 238.155 62.2735C239.68 62.7152 240.573 64.2932 240.15 65.824C239.768 67.2091 238.427 68.1016 237.001 67.9236V67.9236Z" fill="#D77F4A"/>
<path d="M223.365 56.7264C226.443 58.1881 233.962 61.0594 238.155 62.273C239.681 62.7147 240.573 64.2924 240.15 65.8235C239.972 66.4673 239.587 67.007 239.082 67.3788C238.755 66.5958 238.085 65.9633 237.206 65.7095C233.014 64.4959 225.494 61.6246 222.417 60.1628C220.863 59.4231 219.032 59.8146 217.92 61.0619C217.715 60.1197 217.866 59.0978 218.439 58.2053C218.458 58.1769 218.476 58.1462 218.495 58.1178C219.532 56.4904 221.622 55.897 223.365 56.7264V56.7264Z" fill="#C86D36"/>
<path d="M246.433 67.6322C245.933 69.4416 244.844 71.0874 243.272 72.1542C242.654 72.5741 241.812 72.4133 241.392 71.7946C240.972 71.1763 241.133 70.3342 241.752 69.9142C243.844 68.4932 244.656 65.381 243.525 63.1183C243.19 62.4499 243.461 61.6368 244.13 61.3018C244.799 60.9675 245.612 61.2384 245.946 61.9068C246.833 63.6791 246.954 65.7446 246.433 67.6322V67.6322Z" fill="#E57917"/>
</g>
<g clip-path="url(#clip2)">
<path d="M215.46 192.897C215.46 192.897 232.567 176.236 234.181 148.895C234.31 146.725 232.853 144.778 230.73 144.309L222.147 142.412L220.966 143.133L154.828 128.63C152.559 128.128 151.499 129.458 151.969 131.734L165.705 197.644L164.887 198.894L166.667 207.502C167.107 209.632 169.033 211.115 171.206 211.016C198.566 209.776 215.46 192.897 215.46 192.897V192.897Z" fill="#FE9738"/>
<path d="M166.667 207.502L150.91 131.29C150.439 129.015 152.472 127.009 154.74 127.512L155.538 127.688C154.746 128.412 154.318 129.528 154.569 130.722L170.824 207.71C171.128 209.154 172.11 210.307 173.386 210.881C172.667 210.938 171.94 210.982 171.205 211.016C169.033 211.115 167.107 209.632 166.667 207.502V207.502Z" fill="#FE860A"/>
<path d="M206.018 183.325C206.018 183.325 222.024 167.737 222.147 142.412L214.19 140.653L213.551 141.004L154.334 128.129C152.065 127.628 151.499 129.458 151.969 131.734L163.955 189.244L163.237 190.914L164.887 198.893C189.925 200.553 206.018 183.325 206.018 183.325V183.325Z" fill="#FEE45A"/>
<path d="M164.886 198.894L150.91 131.29C150.439 129.015 152.472 127.009 154.74 127.512L155.538 127.688C154.746 128.412 154.318 129.528 154.569 130.722L168.986 199.001C167.647 199.02 166.281 198.986 164.886 198.894V198.894Z" fill="#FEDF30"/>
<path d="M199.838 177.06C199.838 177.06 214.081 163.189 214.19 140.653L154.74 127.511C152.471 127.01 150.439 129.014 150.909 131.289L163.237 190.914C185.391 192.878 199.838 177.06 199.838 177.06V177.06Z" fill="#FDB97E"/>
<path d="M163.237 190.913L150.91 131.29C150.439 129.014 152.472 127.009 154.74 127.512L155.538 127.688C154.746 128.412 154.317 129.528 154.568 130.722L167.313 191.081C165.986 191.089 164.626 191.036 163.237 190.913Z" fill="#FEA95C"/>
<path d="M186.973 141.87C184.881 139.749 184.088 136.833 184.59 134.11L201.729 137.898C201.346 139.389 200.567 140.797 199.392 141.956C195.939 145.361 190.38 145.323 186.973 141.87V141.87Z" fill="#E94444"/>
<path d="M186.973 141.87C184.881 139.749 184.088 136.833 184.59 134.11L189.152 135.119C189.453 136.807 190.25 138.426 191.545 139.738C193.585 141.807 196.398 142.649 199.066 142.261C195.598 145.356 190.275 145.217 186.973 141.87V141.87Z" fill="#D83131"/>
<path d="M156.991 160.703L153.446 143.559C156.45 142.68 159.825 143.436 162.176 145.819C165.581 149.271 165.543 154.831 162.09 158.238C160.654 159.654 158.85 160.476 156.991 160.703Z" fill="#E94444"/>
<path d="M156.991 160.703L153.446 143.559C154.676 143.2 155.965 143.114 157.224 143.301L160.624 159.404C159.505 160.114 158.261 160.547 156.991 160.703Z" fill="#D83131"/>
<path d="M178.597 162.467C175.145 165.873 175.107 171.432 178.512 174.885C181.918 178.337 187.477 178.375 190.93 174.97C194.382 171.564 194.42 166.004 191.015 162.552C187.609 159.099 182.05 159.061 178.597 162.467Z" fill="#E94444"/>
<path d="M178.512 174.885C175.107 171.433 175.145 165.874 178.598 162.467C181.153 159.947 184.862 159.313 187.998 160.554C186.289 160.846 184.651 161.646 183.324 162.955C179.872 166.361 179.834 171.92 183.239 175.372C184.124 176.269 185.155 176.937 186.256 177.372C183.521 177.842 180.607 177.01 178.512 174.885V174.885Z" fill="#D83131"/>
<path d="M165.135 170.946C165.45 170.636 165.911 170.488 166.374 170.593L168.778 171.14C169.499 171.305 169.95 172.022 169.786 172.743C169.622 173.464 168.904 173.915 168.183 173.751L165.779 173.204C165.058 173.04 164.607 172.322 164.771 171.601C164.83 171.343 164.959 171.119 165.135 170.946V170.946Z" fill="#E57917"/>
<path d="M170.866 180.766C171.038 180.595 171.259 180.47 171.513 180.413C172.235 180.252 172.951 180.706 173.112 181.428L173.65 183.834C173.811 184.556 173.357 185.272 172.635 185.433C171.913 185.594 171.198 185.14 171.036 184.418L170.499 182.012C170.394 181.544 170.548 181.079 170.866 180.766Z" fill="#E57917"/>
<path d="M203.327 151.682C203.573 151.44 203.911 151.292 204.284 151.296C205.023 151.305 205.615 151.912 205.606 152.651L205.576 155.117C205.567 155.856 204.961 156.449 204.221 156.44C203.482 156.43 202.89 155.824 202.899 155.084L202.929 152.619C202.933 152.252 203.085 151.921 203.327 151.682V151.682Z" fill="#E57917"/>
<path d="M191.422 155.434C191.802 155.059 192.388 154.934 192.906 155.164L195.16 156.164C195.835 156.463 196.14 157.254 195.84 157.93C195.541 158.606 194.75 158.911 194.073 158.611L191.82 157.611C191.144 157.312 190.839 156.52 191.139 155.845C191.209 155.686 191.306 155.549 191.422 155.434Z" fill="#E57917"/>
<path d="M176.361 150.458C176.567 150.255 176.839 150.117 177.149 150.082L179.599 149.802C180.334 149.718 180.997 150.246 181.081 150.981C181.165 151.716 180.637 152.379 179.902 152.463L177.452 152.742C176.718 152.826 176.054 152.298 175.97 151.563C175.922 151.138 176.078 150.737 176.361 150.458Z" fill="#E57917"/>
<path d="M168.715 158.786C168.924 158.579 169.202 158.44 169.517 158.408C170.253 158.332 170.91 158.866 170.986 159.602L171.24 162.054C171.316 162.79 170.782 163.448 170.046 163.524C169.311 163.6 168.653 163.065 168.577 162.33L168.323 159.877C168.28 159.457 168.436 159.061 168.715 158.786Z" fill="#E57917"/>
<path d="M162.349 137.634C162.555 137.431 162.827 137.293 163.137 137.257L165.587 136.978C166.321 136.895 166.985 137.422 167.069 138.157C167.152 138.892 166.625 139.555 165.89 139.639L163.44 139.918C162.705 140.001 162.042 139.474 161.958 138.739C161.909 138.314 162.066 137.913 162.349 137.634V137.634Z" fill="#E57917"/>
<path d="M174.793 139.671C174.994 139.472 175.261 139.335 175.563 139.297C176.297 139.203 176.967 139.723 177.06 140.456L177.371 142.902C177.464 143.636 176.945 144.306 176.212 144.399C175.478 144.492 174.808 143.973 174.715 143.24L174.404 140.794C174.349 140.363 174.506 139.954 174.793 139.671Z" fill="#E57917"/>
</g>
</g>
<defs>
<clipPath id="clip0">
<rect width="374" height="235" fill="white"/>
</clipPath>
<clipPath id="clip1">
<rect width="89.8528" height="89.8528" fill="white" transform="translate(206 102.614) rotate(-74.5689)"/>
</clipPath>
<clipPath id="clip2">
<rect width="91.4005" height="91.4005" fill="white" transform="translate(248.257 161.07) rotate(135.392)"/>
</clipPath>
</defs>
</svg>
