<svg width="374" height="235" viewBox="0 0 374 235" fill="none" xmlns="http://www.w3.org/2000/svg">
<g clip-path="url(#clip0)">
<rect width="374" height="235" fill="#FEF9EE"/>
<path d="M309.616 24.8972C315.07 32.2677 311.694 46.4915 311.888 60.8446C312.018 75.2624 315.72 89.8094 310.265 98.7316C304.81 107.654 290.199 110.951 275.263 111.21C260.392 111.533 245.132 108.882 234.676 99.96C224.286 91.0378 218.637 75.8443 219.286 61.4265C220 46.9441 227.014 33.1082 237.404 25.7377C247.859 18.4319 261.756 17.4621 275.783 17.2681C289.874 17.0742 304.161 17.5267 309.616 24.8972Z" fill="#D5FFD0"/>
<path d="M131.648 46.2156C138.206 55.0759 134.146 72.1747 134.381 89.429C134.537 106.761 138.986 124.248 132.429 134.974C125.872 145.7 108.307 149.663 90.3522 149.974C72.4755 150.363 54.1303 147.176 41.5619 136.451C29.0716 125.725 22.28 107.46 23.0606 90.1285C23.9193 72.7188 32.3503 56.0863 44.8406 47.226C57.409 38.4435 74.1148 37.2776 90.9767 37.0445C107.917 36.8113 125.091 37.3554 131.648 46.2156Z" fill="#D5FFD0"/>
<path d="M282.5 147.5C293.7 158.6 299.6 177 298.1 197.8C296.6 218.5 287.7 241.7 270.9 250.7C254.1 259.7 229.3 254.6 212.9 242.7C196.6 230.7 188.7 211.9 184.5 192.5C180.3 173 179.7 153 189.2 142.3C198.7 131.5 218.4 130.1 236.5 131.2C254.6 132.4 271.3 136.3 282.5 147.5Z" fill="#D5FFD0"/>
<g clip-path="url(#clip1)">
<path d="M102.527 127.76L97.1414 123.524L90.5326 125.332L85.1482 121.096L78.54 122.904L73.1555 118.668L66.5478 120.476L61.1642 116.241L54.5565 118.049L49.1721 113.813L42.5644 115.621L44.1475 107.801L104.11 119.94L102.527 127.76Z" fill="#CBC4CC"/>
<path d="M103.972 120.622L102.527 127.76L99.6364 125.488L100.753 119.971L103.972 120.622Z" fill="#B5ADB6"/>
<path d="M117.727 52.6705L111.119 54.4784L105.733 50.2424L99.1254 52.0506L93.7407 47.8147L87.1327 49.6228L81.7485 45.3871L75.1414 47.1954L69.7572 42.9596L63.1493 44.7677L57.7651 40.532L56.2225 48.1524L116.185 60.2908L117.727 52.6705Z" fill="#CBC4CC"/>
<path d="M117.728 52.6698L116.283 59.8078L113.064 59.1563L114.181 53.6396L117.728 52.6698Z" fill="#B5ADB6"/>
<path d="M109.921 69.3563C110.15 68.2282 110.761 67.2138 111.652 66.4852L114.203 64.4003C115.094 63.6718 115.706 62.6575 115.934 61.5294L116.282 59.8077L56.3203 47.6693L55.9718 49.3909C55.7434 50.519 55.9123 51.6914 56.4499 52.7092L57.9885 55.6219C58.5262 56.6396 58.6951 57.812 58.4668 58.9401L56.7178 67.5798L56.8628 68.1621L54.6711 78.9888L52.4847 89.7311L52.1372 90.2072L50.3703 98.9355C50.1419 100.064 49.5303 101.078 48.6392 101.806L46.0889 103.891C45.1977 104.62 44.5861 105.634 44.3578 106.762L44.0093 108.484L103.972 120.622L104.32 118.901C104.548 117.773 104.38 116.6 103.842 115.582L102.303 112.67C101.766 111.652 101.597 110.48 101.825 109.352L103.592 100.623L103.463 99.8796L105.613 89.3013L107.814 78.4286L108.172 77.996L109.921 69.3563Z" fill="#E94444"/>
<path d="M101.825 109.352C101.597 110.48 101.766 111.652 102.304 112.67L103.842 115.583C104.38 116.601 104.548 117.772 104.32 118.901L103.972 120.622L100.756 119.971L101.105 118.25C101.333 117.121 101.163 115.95 100.625 114.932L99.0866 112.019C98.5502 111.001 98.3801 109.829 98.6086 108.7L106.705 68.7057C106.933 67.577 107.546 66.5622 108.436 65.8347L110.986 63.7493C111.878 63.0206 112.49 62.0059 112.719 60.8786L113.067 59.1562L116.283 59.8072L115.934 61.5297C115.706 62.6569 115.094 63.672 114.203 64.4007L111.653 66.4861C110.762 67.2133 110.15 68.2283 109.922 69.357L101.825 109.352Z" fill="#D83131"/>
<path d="M56.7179 67.5797L108.172 77.9959L103.592 100.623L52.1373 90.2072L56.7179 67.5797Z" fill="#F3F0F3"/>
<path d="M104.956 77.3448L108.172 77.9959L103.592 100.623L100.375 99.9723L104.956 77.3448Z" fill="#E2DEE2"/>
<path d="M81.6152 80.2887C81.614 80.2812 81.6128 80.2735 81.6112 80.266C81.5381 79.888 81.2472 79.5945 80.8698 79.5181C80.8694 79.518 80.869 79.5179 80.8687 79.5178C80.4906 79.4418 80.1082 79.5999 79.8944 79.9208C79.8909 79.9259 79.8876 79.9311 79.8842 79.9366L75.5161 86.8477C75.2886 87.2075 75.3959 87.6835 75.7558 87.9111C76.1157 88.138 76.5918 88.0311 76.8192 87.6712L77.6233 86.399L81.1628 87.1155L81.4037 88.5971C81.4567 88.9228 81.7064 89.1674 82.0116 89.2291C82.1002 89.247 82.1936 89.2496 82.2881 89.2342C82.7082 89.1659 82.9936 88.77 82.9252 88.3497L81.6152 80.2887ZM78.5048 85.0045L80.3462 82.091L80.8985 85.4891L78.5048 85.0045Z" fill="#CBC4CC"/>
<path d="M74.5656 78.2185C74.1475 78.1382 73.7434 78.4118 73.6629 78.83L72.6443 84.1247L69.8585 77.6201C69.7257 77.3101 69.4067 77.1223 69.071 77.1568C68.7355 77.1913 68.4614 77.4399 68.3944 77.7706L66.8551 85.3745C66.7707 85.7917 67.0405 86.1984 67.4576 86.2828C67.8748 86.3673 68.2816 86.0976 68.366 85.6803L69.4147 80.5001L72.0755 86.7129C72.2381 87.0915 72.5896 87.3107 72.9709 87.271C73.3618 87.2306 73.6701 86.9296 73.7577 86.4968L75.1768 79.121C75.2573 78.703 74.9896 78.3012 74.5656 78.2185V78.2185Z" fill="#CBC4CC"/>
<path d="M99.8032 91.4781L96.9586 87.3519L100.816 85.0211C101.18 84.8009 101.297 84.327 101.077 83.9627C100.857 83.5981 100.383 83.4814 100.018 83.7016L96.6748 85.7221L97.1061 83.5914C97.1906 83.1742 96.9209 82.7675 96.5036 82.683C96.0864 82.5986 95.6797 82.8683 95.5952 83.2855L94.0577 90.881C93.9732 91.2983 94.2429 91.7049 94.6602 91.7894C95.0774 91.8739 95.4841 91.6041 95.5686 91.1869L96.0591 88.7634L98.534 92.3533C98.652 92.5243 98.8268 92.633 99.0155 92.6712C99.2135 92.7113 99.4267 92.674 99.6063 92.5503C99.9566 92.3087 100.045 91.8287 99.8032 91.4781V91.4781Z" fill="#CBC4CC"/>
<path d="M90.7362 88.5871C90.6466 88.6586 90.5521 88.7233 90.4557 88.7796C89.9607 89.0683 89.3901 89.1497 88.7599 89.0222C87.0824 88.6826 85.994 87.0415 86.3335 85.3641C86.6731 83.6867 88.3142 82.5982 89.9916 82.9377C90.6012 83.0612 91.153 83.3596 91.5869 83.801C91.8849 84.1047 92.3734 84.1088 92.6769 83.8104C92.9805 83.512 92.9846 83.024 92.6863 82.7203C92.0361 82.0588 91.2101 81.6116 90.2976 81.4269C87.7869 80.9186 85.3308 82.5477 84.8226 85.0584C84.3143 87.5691 85.9434 90.0251 88.4541 90.5334C89.4518 90.7354 90.4127 90.5894 91.2325 90.1114C91.3931 90.0177 91.5494 89.9104 91.697 89.7929C92.0299 89.5276 92.0846 89.0427 91.8193 88.7097C91.5541 88.3765 91.0691 88.3217 90.7362 88.5871Z" fill="#CBC4CC"/>
<path d="M64.0669 80.1816C63.1745 79.6307 62.3575 79.0613 62.1385 78.9071C61.9568 78.703 61.9046 78.4278 61.9997 78.1608C62.1229 77.8152 62.4576 77.5845 62.8951 77.5438C64.1447 77.4277 65.043 78.5027 65.0593 78.5223C65.3249 78.8527 65.8077 78.9065 66.1399 78.6423C66.4731 78.3774 66.5282 77.8924 66.2631 77.5593C66.2063 77.4879 64.8487 75.813 62.7522 76.009C61.7173 76.1053 60.8725 76.7316 60.5476 77.6434C59.8494 79.6025 61.9024 80.6573 63.2572 81.4937C63.9981 81.951 64.3139 82.4894 64.1237 82.9705C63.932 83.4555 63.2344 83.8558 62.3989 83.6867C61.5901 83.5229 60.8764 83.0368 60.4896 82.3864C60.2721 82.0205 59.7992 81.9002 59.4331 82.1179C59.0673 82.3354 58.9469 82.8083 59.1646 83.1744C59.7701 84.1927 60.8649 84.9491 62.0932 85.1978C63.5755 85.4978 65.0648 84.7841 65.5577 83.5373C65.9314 82.5908 65.7363 81.2123 64.0669 80.1816V80.1816Z" fill="#CBC4CC"/>
</g>
<g clip-path="url(#clip2)">
<path d="M311.866 57.5984C311.089 56.3511 309.88 55.5365 308.554 55.2272C308.86 53.9001 308.661 52.4561 307.884 51.2089C306.328 48.711 303.041 47.9478 300.543 49.5044C298.045 51.0609 297.282 54.3478 298.838 56.8456C299.616 58.0929 300.824 58.9075 302.151 59.2168C301.844 60.544 302.043 61.9878 302.82 63.235C304.376 65.7329 307.663 66.496 310.161 64.9395C312.659 63.383 313.422 60.0962 311.866 57.5984V57.5984Z" fill="#9E5528"/>
<path d="M310.162 64.9398C307.664 66.4967 304.377 65.7335 302.82 63.2352C302.208 62.2528 301.954 61.1491 302.025 60.0748C303.644 62.3555 306.781 63.0085 309.185 61.5102C310.7 60.5663 311.577 58.9856 311.686 57.3303C311.748 57.4176 311.808 57.5066 311.865 57.5989C313.422 60.0972 312.659 63.3838 310.162 64.9398V64.9398Z" fill="#904D24"/>
<path d="M209.887 43.9853C211.135 43.2081 211.949 41.9994 212.259 40.673C213.586 40.9797 215.03 40.781 216.277 40.0038C218.775 38.4473 219.538 35.1604 217.981 32.6625C216.425 30.1647 213.138 29.4014 210.64 30.9579C209.393 31.7351 208.578 32.9438 208.269 34.2702C206.942 33.9635 205.498 34.1622 204.251 34.9394C201.753 36.4959 200.99 39.7828 202.546 42.2807C204.103 44.7786 207.39 45.5418 209.887 43.9853Z" fill="#9E5528"/>
<path d="M209.89 43.9827L209.888 43.9844C207.389 45.5413 204.103 44.7781 202.547 42.2813C200.99 39.7828 201.753 36.4963 204.251 34.9395C205.369 34.2433 206.644 34.0103 207.852 34.1917C205.356 35.7491 204.595 39.0348 206.15 41.5303C207.01 42.9113 208.399 43.7619 209.89 43.9827Z" fill="#904D24"/>
<path d="M207.75 52.7811C205.468 47.4981 207.456 41.2273 212.56 38.2785C218.058 35.1016 225.091 36.9837 228.268 42.482C232.657 50.0802 236.789 54.826 242.083 58.3509C249.675 63.4058 257.961 63.8987 263.576 63.4219C271.351 62.7617 279.479 59.8474 286.462 55.2161C291.754 51.7063 298.889 53.1513 302.399 58.4433C305.91 63.734 304.464 70.8705 299.172 74.3801C288.88 81.2055 277.244 85.3395 265.521 86.335C252.234 87.4634 239.723 84.4054 229.339 77.4919C221.02 71.9528 214.548 64.7033 208.356 53.986C208.129 53.5919 207.927 53.1891 207.75 52.7811V52.7811Z" fill="#D77F4A"/>
<path d="M265.522 86.3345C252.234 87.464 239.722 84.405 229.339 77.4919C221.02 71.9526 214.548 64.7026 208.357 53.9863C208.13 53.5924 207.927 53.1894 207.75 52.7807C206.54 49.9804 206.53 46.903 207.548 44.1886C207.491 45.8397 207.791 47.5196 208.479 49.1102C208.656 49.5188 208.858 49.9204 209.086 50.3158C215.277 61.0321 221.749 68.2822 230.068 73.8216C240.452 80.7346 252.963 83.7937 266.25 82.6651C277.972 81.6685 289.609 77.5356 299.901 70.709C301.997 69.3194 303.491 67.3588 304.309 65.1712C304.192 68.7618 302.394 72.2433 299.172 74.3795C288.88 81.2059 277.244 85.3403 265.522 86.3345V86.3345Z" fill="#C86D36"/>
<path d="M292.083 66.7496C291.036 65.0701 290.48 63.2146 290.39 62.9024C290.199 62.2337 290.586 61.5361 291.255 61.3446C291.923 61.1531 292.62 61.5399 292.812 62.2076C293.239 63.6872 294.383 66.2856 295.636 66.9612C296.248 67.2912 296.477 68.0555 296.147 68.6678C295.816 69.2802 295.052 69.5092 294.44 69.179C293.482 68.6627 292.698 67.7365 292.083 66.7496V66.7496Z" fill="#AF5827"/>
<path d="M283.087 71.4988C281.914 69.6161 281.383 67.3093 281.306 66.9556C281.158 66.2757 281.59 65.6046 282.27 65.4573C282.949 65.3096 283.62 65.7407 283.768 66.4198C284.097 67.924 285.069 70.5914 286.275 71.3471C286.865 71.7166 287.044 72.4939 286.674 73.0834C286.305 73.673 285.528 73.8516 284.938 73.4823C284.197 73.018 283.584 72.2963 283.087 71.4988V71.4988Z" fill="#AF5827"/>
<path d="M272.437 75.6472C271.106 73.5105 270.788 70.4437 270.75 70.0278C270.687 69.3349 271.198 68.7221 271.891 68.6593C272.583 68.5964 273.196 69.1072 273.259 69.7988C273.401 71.332 274.038 74.0989 275.142 74.997C275.682 75.4361 275.763 76.2294 275.324 76.7692C274.885 77.3089 274.092 77.3907 273.552 76.9517C273.118 76.5992 272.75 76.1487 272.437 75.6472Z" fill="#AF5827"/>
<path d="M260.176 77.4601C258.657 75.0218 259.36 70.7547 259.448 70.2626C259.57 69.5777 260.224 69.1214 260.909 69.2436C261.594 69.3657 262.05 70.02 261.928 70.7044C261.661 72.2211 261.546 75.0617 262.373 76.2148C262.778 76.7812 262.646 77.5675 262.081 77.9723C261.515 78.3771 260.728 78.2464 260.323 77.6804C260.272 77.6089 260.223 77.5352 260.176 77.4601V77.4601Z" fill="#AF5827"/>
<path d="M247.012 75.7037C246.977 75.6475 246.946 75.588 246.92 75.5252C245.778 72.8155 247.501 68.5716 247.701 68.0967C247.971 67.4555 248.71 67.1549 249.351 67.425C249.992 67.6949 250.293 68.4333 250.023 69.0742C249.428 70.4945 248.69 73.2359 249.242 74.5471C249.512 75.1883 249.211 75.9271 248.57 76.1972C247.991 76.4407 247.334 76.2198 247.012 75.7037Z" fill="#AF5827"/>
<path d="M234.383 70.8168C234.27 70.6346 234.201 70.4211 234.194 70.1909C234.101 67.252 237.233 63.9095 237.59 63.5381C238.072 63.0366 238.87 63.0212 239.371 63.5035C239.872 63.986 239.888 64.7824 239.406 65.2839C238.341 66.3957 236.668 68.6895 236.712 70.1117C236.734 70.807 236.188 71.3886 235.493 71.4105C235.027 71.4252 234.613 71.1855 234.383 70.8168V70.8168Z" fill="#AF5827"/>
<path d="M224.305 63.1187C224.134 62.8427 224.068 62.5009 224.149 62.1596C224.833 59.2999 228.733 56.8982 229.175 56.6337C229.766 56.2808 230.528 56.4672 230.89 57.0484C230.895 57.0552 230.899 57.0619 230.903 57.0687C231.26 57.6657 231.065 58.4387 230.469 58.7957C229.149 59.5884 226.931 61.3612 226.6 62.7452C226.438 63.4217 225.759 63.8392 225.082 63.6775C224.746 63.5976 224.475 63.3902 224.305 63.1187V63.1187Z" fill="#AF5827"/>
<path d="M216.131 53.757C215.9 53.3858 215.868 52.9045 216.091 52.4919C217.486 49.9035 221.872 48.5842 222.367 48.4423C223.036 48.2507 223.734 48.6377 223.925 49.3065C224.117 49.9752 223.73 50.6728 223.061 50.8644C221.581 51.2913 218.984 52.435 218.309 53.6872C217.978 54.2998 217.214 54.5286 216.602 54.1984C216.402 54.091 216.243 53.9369 216.131 53.757V53.757Z" fill="#AF5827"/>
</g>
<g clip-path="url(#clip3)">
<path d="M242.162 176.179C242.242 175.136 242.099 174.1 241.742 173.131L235.42 155.988C233.505 150.797 228.672 147.462 223.196 146.926C221.765 146.787 220.534 145.856 220.036 144.507L217.674 138.101L208.206 141.593L210.569 147.999C211.066 149.348 210.735 150.855 209.737 151.89C205.92 155.853 204.41 161.528 206.325 166.719L212.648 183.862C213.005 184.83 213.569 185.712 214.307 186.453L214.841 186.989C216.444 188.598 217.252 190.812 216.948 193.07C216.789 194.252 216.918 195.439 217.324 196.54L223.674 213.758L225.653 219.123C226.746 222.086 230.225 223.531 233.425 222.351C234.824 221.835 235.936 220.902 236.655 219.769C236.948 219.307 237.523 219.095 238.046 219.256C239.329 219.651 240.78 219.638 242.179 219.122C243.577 218.606 244.69 217.674 245.409 216.54C245.702 216.078 246.277 215.866 246.799 216.027C248.082 216.423 249.534 216.41 250.932 215.894C254.132 214.714 255.84 211.355 254.747 208.392L246.459 185.92C246.044 184.795 245.386 183.765 244.479 182.952C242.793 181.439 241.924 179.277 242.097 177.026L242.162 176.179Z" fill="#F3F0F3"/>
<path d="M242.096 177.025C241.924 179.277 242.792 181.439 244.479 182.952C245.386 183.766 246.045 184.796 246.459 185.92L254.748 208.393C255.294 209.874 255.14 211.454 254.449 212.812C253.758 214.169 252.531 215.304 250.932 215.894C250.333 216.115 249.725 216.244 249.124 216.286C249.934 215.69 250.576 214.93 251.008 214.082C251.697 212.724 251.851 211.144 251.305 209.663L243.016 187.19C242.602 186.066 241.943 185.036 241.036 184.221C239.351 182.708 238.481 180.546 238.655 178.294L238.719 177.448C238.799 176.406 238.656 175.369 238.299 174.401L231.977 157.258C231.162 155.049 229.741 153.123 227.79 151.791C225.88 150.487 223.619 149.796 221.348 149.459C220.202 149.289 219.126 149.015 218.194 148.308C217.353 147.669 216.952 146.745 216.595 145.776L214.62 140.421L218.061 139.152L220.036 144.507C220.534 145.856 221.764 146.787 223.196 146.927C228.672 147.462 233.505 150.798 235.42 155.988L241.743 173.131C242.1 174.099 242.243 175.137 242.161 176.179L242.096 177.025Z" fill="#E2DEE2"/>
<path d="M242.097 177.026C241.924 179.277 242.793 181.439 244.478 182.952C245.384 183.766 246.043 184.797 246.458 185.922L254.746 208.393C255.292 209.874 255.139 211.454 254.448 212.811C253.759 214.168 252.533 215.304 250.933 215.894C249.533 216.41 248.082 216.422 246.798 216.028C246.276 215.867 245.701 216.079 245.408 216.541C245.048 217.106 244.591 217.623 244.048 218.063C243.505 218.504 242.877 218.865 242.178 219.123C240.78 219.639 239.328 219.651 238.045 219.257C237.523 219.095 236.948 219.307 236.655 219.769C235.934 220.903 234.824 221.836 233.424 222.352C230.224 223.532 226.745 222.086 225.653 219.124L217.324 196.541C216.917 195.439 216.788 194.252 216.947 193.07C217.251 190.812 216.442 188.598 214.84 186.99L214.307 186.453C213.569 185.712 213.005 184.831 212.647 183.862L206.325 166.719C205.046 163.253 205.294 159.572 206.737 156.328L228.358 148.354C231.561 149.884 234.139 152.523 235.418 155.989L241.74 173.131C242.098 174.1 242.241 175.137 242.161 176.18L242.097 177.026Z" fill="#685E68"/>
<path d="M242.096 177.025C241.918 179.38 242.731 181.384 244.477 182.952C245.384 183.766 246.043 184.797 246.458 185.921L254.746 208.394C255.053 209.226 255.14 210.091 255.033 210.928C254.962 211.488 254.806 212.037 254.572 212.553C254.497 212.718 254.406 212.899 254.314 213.063C253.605 214.307 252.433 215.34 250.932 215.894C250.481 216.06 250.009 216.181 249.534 216.244C249.402 216.261 249.272 216.274 249.141 216.283C249.136 216.285 249.13 216.285 249.124 216.285C249.934 215.69 250.576 214.929 251.008 214.081C251.697 212.724 251.851 211.144 251.305 209.663L243.016 187.19C242.602 186.066 241.943 185.036 241.036 184.221C239.351 182.708 238.481 180.546 238.655 178.294L238.719 177.448C238.799 176.406 238.656 175.369 238.299 174.401L231.977 157.258C231.162 155.049 229.741 153.122 227.79 151.79C226.598 150.976 225.269 150.402 223.888 150.002L228.357 148.354C228.376 148.362 228.393 148.372 228.41 148.381C229.571 149.014 230.659 149.64 231.663 150.527C232.387 151.168 233.099 151.943 233.666 152.719C234.4 153.722 234.988 154.822 235.418 155.988L241.741 173.132C242.031 173.918 242.18 174.75 242.183 175.593C242.184 176.071 242.133 176.549 242.096 177.025V177.025Z" fill="#554E56"/>
<path d="M220.045 137.378C220.232 137.884 219.94 138.458 219.393 138.66L213.327 140.898L207.26 143.135C206.713 143.337 206.119 143.09 205.932 142.583L203.97 137.264C203.783 136.758 204.075 136.184 204.622 135.983L216.755 131.507C217.302 131.306 217.896 131.553 218.083 132.059L220.045 137.378L220.045 137.378Z" fill="#E94444"/>
<path d="M218.083 132.06L220.045 137.379C220.231 137.885 219.94 138.459 219.394 138.66L215.961 139.926C216.507 139.725 216.799 139.151 216.612 138.645L214.65 133.326C214.463 132.819 213.869 132.573 213.323 132.774L216.756 131.508C217.302 131.307 217.896 131.553 218.083 132.06V132.06Z" fill="#D83131"/>
<path d="M206.467 167.108L235.562 156.377L241.809 173.315L212.715 184.046L206.467 167.108Z" fill="#E94444"/>
<path d="M232.129 157.643L235.562 156.377L241.809 173.315L238.377 174.581L232.129 157.643Z" fill="#D83131"/>
</g>
</g>
<defs>
<clipPath id="clip0">
<rect width="374" height="235" fill="white"/>
</clipPath>
<clipPath id="clip1">
<rect width="76.6139" height="76.6139" fill="white" transform="translate(50.201 39) rotate(11.444)"/>
</clipPath>
<clipPath id="clip2">
<rect width="86" height="86" fill="white" transform="translate(270.989 -8) rotate(58.0713)"/>
</clipPath>
<clipPath id="clip3">
<rect width="91" height="91" fill="white" transform="translate(168 149.49) rotate(-20.2452)"/>
</clipPath>
</defs>
</svg>
