<svg width="374" height="235" viewBox="0 0 374 235" fill="none" xmlns="http://www.w3.org/2000/svg">
<rect width="374" height="235" fill="#FEF9EE"/>
<path d="M225.38 24.6616C230.835 32.0321 227.458 46.2559 227.653 60.609C227.783 75.0268 231.484 89.5738 226.029 98.496C220.575 107.418 205.963 110.716 191.028 110.974C176.157 111.297 160.896 108.647 150.441 99.7244C140.051 90.8022 134.401 75.6087 135.05 61.1909C135.765 46.7085 142.778 32.8726 153.168 25.5021C163.623 18.1963 177.52 17.2265 191.547 17.0325C205.639 16.8386 219.925 17.2911 225.38 24.6616Z" fill="#D5FFD0"/>
<path d="M118.905 118.611C130.105 129.711 136.005 148.111 134.505 168.911C133.005 189.611 124.105 212.811 107.305 221.811C90.5054 230.811 65.7054 225.711 49.3054 213.811C33.0054 201.811 25.1054 183.011 20.9054 163.611C16.7054 144.111 16.1054 124.111 25.6054 113.411C35.1054 102.611 54.8054 101.211 72.9054 102.311C91.0054 103.511 107.705 107.411 118.905 118.611Z" fill="#D5FFD0"/>
<path d="M332.908 124.47C340.835 131.47 348.605 138.382 355.133 148.532C361.583 158.769 366.944 172.332 362.981 181.432C359.018 190.531 345.886 195.169 335.24 202.256C324.671 209.431 316.667 218.968 308.042 219.931C299.416 220.806 290.169 213.194 278.28 206.544C266.39 199.981 251.859 194.381 245.331 183.094C238.882 171.894 240.436 155.007 244.787 139.082C249.139 123.07 256.366 107.933 267.478 102.07C278.668 96.208 293.666 99.6204 305.244 104.958C316.823 110.208 324.982 117.47 332.908 124.47Z" fill="#D5FFD0"/>
<g clip-path="url(#clip0)">
<path d="M215.064 37.9781L225.838 62.7218C227.454 66.4342 225.757 70.7535 222.046 72.3692L213.412 76.129L210.995 70.5781L218.829 67.1667C220.233 66.5553 220.876 64.9207 220.264 63.5157L210.685 41.5176C210.074 40.114 208.439 39.4693 207.035 40.0808L199.201 43.4922L196.784 37.9428L205.42 34.1824C209.13 32.5672 213.448 34.2664 215.064 37.9781Z" fill="#62DBFB"/>
<path d="M215.064 37.9776L225.839 62.7218C227.455 66.4342 225.757 70.7536 222.047 72.3694L219.666 73.4062C223.376 71.7905 225.073 67.4716 223.456 63.7592L212.682 39.015C211.066 35.3039 206.749 33.6036 203.039 35.2187L205.42 34.1819C209.13 32.5668 213.448 34.2665 215.064 37.9776V37.9776Z" fill="#01D0FB"/>
<path d="M188.347 26.9179L156.406 40.8258L155.269 47.0721C155.054 48.2498 155.195 49.4648 155.673 50.5626L173.232 90.8882C174.794 94.4755 178.967 96.118 182.553 94.5567L209.869 82.6624C213.455 81.1011 215.095 76.9274 213.533 73.34L195.974 33.0142C195.496 31.9165 194.702 30.9858 193.694 30.3404L188.347 26.9179Z" fill="#C8EFFE"/>
<path d="M195.974 33.0147L213.533 73.3404C215.095 76.927 213.455 81.1016 209.87 82.6626L207.161 83.8423C210.746 82.2813 212.385 78.1067 210.824 74.52L193.265 34.1944C192.786 33.096 191.994 32.1656 190.986 31.5198L185.638 28.0968L188.346 26.9177L193.694 30.3407C194.703 30.9858 195.495 31.9161 195.974 33.0147V33.0147Z" fill="#99E6FC"/>
<path d="M210.109 82.1527L182.016 94.3854L183.523 97.8449C183.956 98.8404 185.114 99.2962 186.109 98.863L210.599 88.1997C211.594 87.7664 212.05 86.6081 211.616 85.6126L210.109 82.1526L210.109 82.1527Z" fill="#62DBFB"/>
<path d="M210.109 82.1537L211.616 85.6132C212.049 86.6085 211.595 87.7667 210.599 88.2005L207.805 89.417C208.796 88.9824 209.249 87.8261 208.816 86.8321L207.31 83.3726L210.109 82.1537Z" fill="#01D0FB"/>
<path d="M174.057 15.7672C175.486 15.145 177.131 15.9573 177.507 17.4705L185.237 48.5919L180.575 50.6222L172.619 18.6856C172.321 17.492 172.929 16.2581 174.057 15.7672V15.7672Z" fill="#F3F0F3"/>
<path d="M177.506 17.4697L185.237 48.5919L182.773 49.6647L175.044 18.5419C174.787 17.5127 173.945 16.808 172.981 16.6578C173.241 16.2749 173.607 15.9622 174.057 15.7663C175.485 15.1443 177.131 15.9563 177.506 17.4697Z" fill="#E2DEE2"/>
<path d="M189.508 26.367L155.212 41.3006C153.647 41.9819 151.826 41.2657 151.145 39.7011L151.145 39.6998C150.463 38.1352 151.179 36.3144 152.744 35.6331L187.04 20.6995C188.605 20.0182 190.426 20.7343 191.107 22.299L191.107 22.3003C191.789 23.8651 191.073 25.6856 189.508 26.367Z" fill="#62DBFB"/>
<path d="M191.106 22.2994C191.448 23.0829 191.44 23.9286 191.15 24.6657C190.861 25.4007 190.292 26.0266 189.509 26.3676L186.68 27.5991C187.463 27.2581 188.033 26.6323 188.322 25.8972C188.612 25.1602 188.619 24.3145 188.278 23.5309C187.597 21.9666 185.777 21.2491 184.212 21.9305L187.04 20.6989C188.605 20.0175 190.425 20.7349 191.106 22.2994Z" fill="#01D0FB"/>
<path d="M196.869 35.0714L213.533 73.3404C215.095 76.927 213.455 81.1016 209.87 82.6626L182.553 94.5574C178.968 96.1183 174.795 94.4747 173.233 90.8881L155.674 50.5625C155.663 50.5374 155.652 50.5122 155.643 50.4865C160.684 48.5227 166.355 48.0797 171.765 47.6212C178.772 47.0276 186.314 46.0535 191.844 41.6555C194.088 39.8705 195.795 37.5669 196.869 35.0714V35.0714Z" fill="#FE93D3"/>
<path d="M196.869 35.0714L213.533 73.3404C215.095 76.927 213.455 81.1016 209.87 82.6626L207.161 83.8423C210.746 82.2813 212.385 78.1067 210.824 74.5201L195.047 38.288C195.777 37.2758 196.387 36.1931 196.869 35.0714V35.0714Z" fill="#FE73C5"/>
<path d="M168.064 59.6405C168.893 59.2797 169.272 58.3151 168.911 57.4861C168.55 56.6571 167.586 56.2775 166.757 56.6383C165.929 56.9991 165.549 57.9637 165.91 58.7927C166.271 59.6218 167.236 60.0013 168.064 59.6405Z" fill="#FE4FB7"/>
<path d="M175.483 61.7674C176.312 61.4066 176.691 60.442 176.33 59.613C175.969 58.784 175.005 58.4044 174.176 58.7652C173.348 59.126 172.968 60.0906 173.329 60.9196C173.69 61.7487 174.655 62.1282 175.483 61.7674Z" fill="#FE4FB7"/>
<path d="M196.699 61.9109C197.527 61.5501 197.906 60.5855 197.545 59.7565C197.184 58.9275 196.22 58.5479 195.391 58.9087C194.563 59.2695 194.184 60.2341 194.544 61.0631C194.905 61.8922 195.87 62.2717 196.699 61.9109Z" fill="#FE4FB7"/>
<path d="M188.964 78.5504C189.793 78.1896 190.172 77.225 189.811 76.396C189.45 75.5669 188.486 75.1873 187.657 75.5482C186.828 75.909 186.449 76.8735 186.81 77.7026C187.171 78.5316 188.136 78.9112 188.964 78.5504Z" fill="#FE4FB7"/>
<path d="M187.021 54.9578C187.85 54.597 188.229 53.6325 187.868 52.8034C187.507 51.9744 186.543 51.5948 185.714 51.9556C184.885 52.3164 184.506 53.281 184.867 54.1101C185.228 54.9391 186.193 55.3187 187.021 54.9578Z" fill="#FE4FB7"/>
<path d="M190.208 73.208C191.036 72.8472 191.415 71.8826 191.054 71.0536C190.693 70.2245 189.729 69.8449 188.9 70.2058C188.072 70.5666 187.693 71.5311 188.054 72.3602C188.415 73.1892 189.379 73.5688 190.208 73.208Z" fill="#FE4FB7"/>
<path d="M206.072 75.2391C206.901 74.8783 207.28 73.9137 206.919 73.0847C206.558 72.2556 205.593 71.8761 204.765 72.2369C203.936 72.5977 203.557 73.5623 203.918 74.3913C204.279 75.2203 205.243 75.5999 206.072 75.2391Z" fill="#FE4FB7"/>
<path d="M175.54 76.8077C176.368 76.4468 176.747 75.4823 176.386 74.6532C176.025 73.8242 175.061 73.4446 174.232 73.8054C173.404 74.1662 173.025 75.1308 173.386 75.9599C173.747 76.7889 174.711 77.1685 175.54 76.8077Z" fill="#FE4FB7"/>
</g>
<g clip-path="url(#clip1)">
<path d="M351.967 154.313C351.986 154.681 352.034 155.04 352.107 155.39L334.118 156.293L334.519 164.289L352.509 163.386C352.47 163.741 352.459 164.104 352.477 164.472C352.668 168.264 355.896 171.183 359.688 170.993C363.48 170.803 366.4 167.574 366.21 163.782C366.108 161.769 365.151 160.002 363.708 158.816C365.025 157.49 365.801 155.636 365.7 153.623C365.509 149.831 362.281 146.912 358.489 147.102C354.697 147.292 351.777 150.52 351.967 154.313V154.313Z" fill="#F3F0F3"/>
<path d="M364.98 150.886C364.058 150.5 363.038 150.307 361.973 150.361C358.18 150.55 355.26 153.778 355.452 157.571C355.452 157.574 355.452 157.578 355.452 157.581C355.483 158.169 355.045 158.675 354.457 158.704L334.289 159.717L334.118 156.293L352.108 155.39C352.034 155.039 351.985 154.68 351.967 154.313C351.778 150.52 354.697 147.292 358.489 147.102C361.296 146.961 363.795 148.524 364.98 150.886Z" fill="#E2DEE2"/>
<path d="M282.139 132.556L283.657 162.803L283.66 162.864L285.178 193.111C285.178 193.111 311.341 193.475 327.897 178.383C328.996 177.381 330.041 176.321 331.024 175.205C333.145 172.796 335.155 170.422 337.533 168.236C338.167 167.653 338.816 167.085 339.478 166.533C340.783 165.444 342.179 164.554 343.712 163.827C343.712 163.827 343.324 155.83 343.324 155.83C341.727 155.261 340.235 154.516 338.827 153.563C338.113 153.08 337.411 152.58 336.721 152.064C334.137 150.126 331.899 147.966 329.547 145.781C328.458 144.769 327.312 143.819 326.118 142.932C308.134 129.574 282.139 132.556 282.139 132.556V132.556Z" fill="#D77F4A"/>
<path d="M343.324 155.829C343.324 155.829 343.428 158.006 343.49 159.255C342.554 158.749 340.884 158.27 340.291 158.13C338.268 157.651 336.765 156.942 335.043 155.745C334.265 155.203 333.514 154.62 332.783 154.016C331.378 152.856 330.049 151.611 328.707 150.382C325.748 147.675 322.742 144.889 319.205 142.949C316.896 141.683 314.487 140.603 312.016 139.695C307.429 138.007 302.632 136.906 297.787 136.271C297.023 136.17 287.051 135.544 282.295 135.653L282.14 132.556C282.14 132.556 308.133 129.574 326.118 142.932C327.312 143.819 328.457 144.769 329.547 145.78C331.899 147.966 334.136 150.126 336.722 152.063C337.411 152.58 338.113 153.078 338.827 153.563C340.235 154.517 341.727 155.26 343.324 155.829Z" fill="#C86D36"/>
<path d="M300.452 161.994C299.612 145.258 291.411 132.068 282.134 132.534C272.858 133 266.018 146.944 266.858 163.68C267.698 180.416 275.899 193.606 285.176 193.14C294.453 192.675 301.292 178.73 300.452 161.994Z" fill="#E8AD8C"/>
<path d="M300.458 161.99C301.064 174.079 297.665 184.713 292.234 189.861C296.32 184.169 298.718 174.918 298.2 164.606C297.36 147.867 289.158 134.676 279.881 135.142C277.303 135.271 274.914 136.439 272.826 138.42C275.372 134.871 278.576 132.705 282.138 132.526C291.415 132.06 299.618 145.251 300.458 161.99V161.99Z" fill="#E19974"/>
<path d="M295.556 162.24C294.892 149.014 289.026 138.561 282.453 138.891C275.88 139.22 271.09 150.209 271.754 163.434C272.418 176.66 278.284 187.114 284.857 186.784C291.43 186.454 296.22 175.465 295.556 162.24Z" fill="#9E5528"/>
<path d="M295.561 162.236C296.162 174.219 292.288 184.368 286.664 186.414C290.66 182.492 293.158 173.925 292.667 164.134C292.003 150.907 286.136 140.451 279.562 140.782C278.945 140.813 278.342 140.938 277.761 141.15C279.163 139.775 280.75 138.968 282.457 138.882C289.031 138.553 294.897 149.009 295.561 162.236V162.236Z" fill="#904D24"/>
<path d="M286.802 152.905C286.449 149.13 284.569 146.219 282.604 146.402C280.638 146.586 279.331 149.796 279.685 153.571C280.038 157.346 281.918 160.258 283.883 160.074C285.848 159.89 287.155 156.68 286.802 152.905Z" fill="#ECBBA3"/>
<path d="M286.794 152.903C287.146 156.678 285.841 159.888 283.875 160.071C283.266 160.128 282.662 159.887 282.112 159.414C282.996 158.11 283.456 155.914 283.228 153.482C282.985 150.879 282.014 148.686 280.792 147.638C281.277 146.916 281.894 146.467 282.592 146.402C284.559 146.217 286.439 149.129 286.794 152.903V152.903Z" fill="#E8AD8C"/>
</g>
<g clip-path="url(#clip2)">
<path d="M70.9718 146.925C66.348 137.778 55.0048 130.976 44.7591 134.758C41.3549 136.015 38.3204 138.25 36.0895 141.109C32.8073 145.316 30.5018 151.06 30.5666 156.439C30.602 159.382 31.2132 162.306 32.5646 164.934C34.7303 169.143 38.5796 172.56 42.8614 174.496C46.5375 176.158 50.6152 176.47 54.5423 175.64C59.805 174.528 64.9065 171.024 68.2949 166.902C72.8349 161.378 74.2549 153.419 70.9718 146.925V146.925Z" fill="#E94444"/>
<path d="M68.2948 166.902C64.9071 171.024 59.8051 174.528 54.5426 175.641C50.6155 176.47 46.5378 176.158 42.8611 174.497C38.9897 172.745 35.4718 169.782 33.2325 166.118C35.318 168.477 37.9467 170.391 40.7628 171.663C44.4384 173.326 48.5162 173.638 52.4433 172.809C57.706 171.696 62.8079 168.192 66.1956 164.069C70.7368 158.546 72.1559 150.588 68.8734 144.092C68.5371 143.427 68.1645 142.773 67.7599 142.136C69.0288 143.617 70.1151 145.232 70.9718 146.926C74.2552 153.42 72.835 161.379 68.2948 166.902V166.902Z" fill="#D83131"/>
<path d="M58.9264 149.812C58.1538 149.194 57.4767 148.41 56.9538 147.574C55.0956 144.606 55.2492 141.444 57.327 139.885C57.8584 139.486 58.6123 139.594 59.0107 140.125C59.4094 140.656 59.302 141.41 58.7708 141.808C57.9224 142.445 57.63 144.122 58.9924 146.298C60.0077 147.92 61.7185 149.21 63.0243 148.539C63.615 148.235 64.3399 148.467 64.6437 149.058C64.9473 149.649 64.7147 150.374 64.1239 150.678C62.3242 151.603 60.4421 151.026 58.9264 149.812V149.812Z" fill="#CC2121"/>
<path d="M98.8295 169.235C94.2057 160.089 82.8625 153.286 72.6167 157.069C69.2125 158.325 66.178 160.56 63.9471 163.42C60.665 167.627 58.3594 173.371 58.4243 178.749C58.4597 181.693 59.0708 184.616 60.4223 187.244C62.588 191.453 66.4373 194.87 70.719 196.806C74.3951 198.468 78.4728 198.78 82.3999 197.951C87.6626 196.839 92.7642 193.334 96.1525 189.212C100.693 183.689 102.113 175.729 98.8295 169.235V169.235Z" fill="#E94444"/>
<path d="M96.1521 189.212C92.7644 193.334 87.6624 196.839 82.3999 197.951C78.4728 198.78 74.3951 198.468 70.7183 196.807C67.5197 195.36 64.5614 193.086 62.3671 190.272C64.2062 192.029 66.355 193.47 68.6239 194.496C72.2996 196.159 76.3774 196.471 80.3055 195.64C85.5671 194.529 90.669 191.025 94.0567 186.903C98.5978 181.379 100.018 173.42 96.7345 166.925C96.0015 165.474 95.0975 164.081 94.0564 162.78C96.0039 164.682 97.6385 166.881 98.8288 169.236C102.112 175.73 100.692 183.69 96.1521 189.212V189.212Z" fill="#D83131"/>
<path d="M87.9022 159.558C89.0012 156.601 89.6313 153.504 89.7752 150.352C89.8668 148.342 89.7565 146.373 89.6496 144.469C89.5537 142.76 89.4631 141.145 89.5128 139.547C89.7143 133.068 94.5041 126.892 98.7301 121.443C99.7072 120.183 99.4896 118.375 98.2496 117.382C98.2429 117.376 98.2362 117.371 98.2296 117.366C98.212 117.35 98.1964 117.332 98.1784 117.317C96.9617 116.262 95.1217 116.39 94.0661 117.606C85.3727 127.614 73.1889 138.803 65.0652 140.188C63.4782 140.459 62.4112 141.965 62.6821 143.552C62.807 144.285 63.1949 144.906 63.7324 145.337C64.3597 145.839 65.191 146.081 66.0457 145.935C71.8227 144.95 78.32 140.66 84.1306 135.751C83.881 136.932 83.724 138.137 83.6858 139.366C83.6282 141.218 83.7302 143.037 83.8288 144.795C83.9321 146.635 84.0295 148.373 83.9513 150.086C83.835 152.633 83.3256 155.137 82.4374 157.527C81.988 158.736 82.3921 160.053 83.3468 160.818C83.5836 161.007 83.8544 161.163 84.1544 161.275C85.6635 161.835 87.3414 161.067 87.9022 159.558V159.558Z" fill="#00C27A"/>
<path d="M84.154 161.274C83.8542 161.162 83.5835 161.006 83.3477 160.818C83.1234 160.638 82.9309 160.429 82.771 160.198C83.7576 160.025 84.628 159.348 85.0026 158.341C86.102 155.385 86.7315 152.287 86.876 149.135C86.9667 147.125 86.8566 145.156 86.7501 143.253C86.6545 141.544 86.5636 139.929 86.6134 138.33C86.8153 131.852 91.6044 125.675 95.8313 120.227C96.6674 119.146 96.6274 117.664 95.8188 116.638C96.6365 116.51 97.5045 116.732 98.1779 117.317C98.1972 117.333 98.2119 117.351 98.2288 117.367C98.2362 117.37 98.2426 117.376 98.2504 117.382C99.4898 118.374 99.7074 120.183 98.7298 121.443C94.504 126.893 89.7138 133.069 89.5132 139.548C89.4631 141.144 89.554 142.759 89.6495 144.469C89.7563 146.374 89.8665 148.343 89.7744 150.352C89.6312 153.505 89.0015 156.6 87.902 159.557C87.3413 161.066 85.6634 161.835 84.154 161.274V161.274Z" fill="#08B865"/>
<path d="M80.2379 167.056C78.5822 165.73 77.8072 163.923 78.2794 162.151C78.4505 161.509 79.1094 161.128 79.7513 161.299C80.3927 161.469 80.7746 162.128 80.6037 162.77C80.3306 163.795 81.1373 165.294 83.5535 166.162C85.354 166.809 87.4966 166.765 88.1079 165.43C88.3845 164.827 89.0982 164.561 89.702 164.838C90.3057 165.114 90.5714 165.828 90.2948 166.432C89.0228 169.21 85.4871 169.413 82.7402 168.426C81.771 168.077 80.9279 167.608 80.2379 167.056V167.056Z" fill="#CC2121"/>
<path d="M93.2165 120.829C91.4122 119.384 89.7299 117.785 88.1915 116.044C87.2442 114.972 86.3266 113.753 86.0285 112.105C85.7416 110.521 86.7934 109.005 88.3774 108.718C89.1405 108.58 89.939 108.756 90.5734 109.202C91.0895 109.564 91.3977 110.078 91.6704 110.632C93.0116 113.361 95.7108 115.486 98.12 117.241C100.914 119.277 104.01 120.894 107.279 122.018C108.802 122.542 109.612 124.2 109.088 125.723C108.565 127.245 106.906 128.055 105.384 127.532C100.966 126.013 96.8455 123.736 93.2165 120.829V120.829Z" fill="#00C27A"/>
<path d="M105.383 127.532C104.088 127.087 102.817 126.575 101.577 126.003C101.881 126.115 102.185 126.224 102.49 126.329C104.012 126.853 105.671 126.043 106.194 124.52C106.624 123.268 106.152 121.924 105.124 121.196C105.834 121.495 106.552 121.769 107.279 122.019C108.801 122.541 109.612 124.201 109.089 125.724C108.564 127.245 106.906 128.055 105.383 127.532V127.532Z" fill="#08B865"/>
</g>
<defs>
<clipPath id="clip0">
<rect width="81" height="81" fill="white" transform="translate(136 32.3373) rotate(-23.5298)"/>
</clipPath>
<clipPath id="clip1">
<rect width="88.4133" height="88.4133" fill="white" transform="translate(249 164.573) rotate(-47.8733)"/>
</clipPath>
<clipPath id="clip2">
<rect width="82.0991" height="82.0991" fill="white" transform="translate(71.3209 93) rotate(38.6903)"/>
</clipPath>
</defs>
</svg>
