<svg width="374" height="235" viewBox="0 0 374 235" fill="none" xmlns="http://www.w3.org/2000/svg">
<rect width="374" height="235" fill="#FEF9EE"/>
<path d="M109.835 76.47C118.703 83.4699 127.398 90.3823 134.701 100.532C141.918 110.769 147.917 124.332 143.483 133.432C139.048 142.531 124.355 147.169 112.443 154.256C100.618 161.431 91.6628 170.968 82.0118 171.931C72.3607 172.806 62.0141 165.194 48.7114 158.544C35.4086 151.981 19.1497 146.381 11.8462 135.094C4.62969 123.894 6.36861 107.007 11.2376 91.0823C16.1066 75.07 24.1926 59.9328 36.6259 54.0704C49.1461 48.208 65.9267 51.6204 78.8817 56.9578C91.8367 62.2078 100.966 69.4701 109.835 76.47Z" fill="#D5FFD0"/>
<g clip-path="url(#clip0)">
<path d="M103.963 144.899L58.8734 151.897C54.9676 152.503 51.31 149.828 50.7039 145.922L50.5364 144.843L109.77 135.65L109.937 136.73C110.544 140.636 107.869 144.293 103.963 144.899Z" fill="#F3F0F3"/>
<path d="M109.769 135.65L109.937 136.73C110.543 140.635 107.869 144.294 103.963 144.9L100.387 145.455C104.294 144.849 106.968 141.19 106.362 137.285L106.194 136.205L109.769 135.65Z" fill="#E2DEE2"/>
<path d="M103.502 131.108L55.1332 138.614C52.4064 139.037 49.8527 137.17 49.4296 134.443L49.2787 133.471C48.8556 130.744 50.7231 128.19 53.45 127.767L101.818 120.261C104.545 119.838 107.099 121.706 107.522 124.432L107.673 125.404C108.096 128.131 106.228 130.685 103.502 131.108Z" fill="#FE9738"/>
<path d="M107.522 124.433L107.673 125.404C108.096 128.131 106.228 130.685 103.501 131.108L100.611 131.556C103.338 131.133 105.206 128.579 104.783 125.852L104.632 124.882C104.209 122.155 101.655 120.287 98.928 120.71L101.818 120.262C104.545 119.838 107.099 121.706 107.522 124.433Z" fill="#FE860A"/>
<path d="M113.435 135.414L46.972 145.728C45.6782 145.929 44.4665 145.042 44.2657 143.749L44.0565 142.4C43.8557 141.107 44.7418 139.895 46.0357 139.694L112.499 129.38C113.792 129.179 115.004 130.065 115.205 131.359L115.414 132.707C115.615 134.001 114.729 135.213 113.435 135.414Z" fill="#CBC4CC"/>
<path d="M115.204 131.36L115.413 132.707C115.614 134.001 114.729 135.214 113.435 135.414L110.529 135.865C111.823 135.665 112.71 134.452 112.509 133.158L112.3 131.811C112.099 130.517 110.887 129.63 109.593 129.831L112.498 129.38C113.792 129.179 115.003 130.066 115.204 131.36Z" fill="#B5ADB6"/>
<path d="M87.6924 88.8415C88.9498 87.8994 90.0318 86.7086 90.8984 85.4043C92.2524 83.3668 92.9977 80.9765 92.8883 78.531C92.8762 78.2605 92.7053 78.022 92.453 77.924C90.2021 77.0496 87.7344 76.979 85.398 77.5844C83.4984 78.0764 81.5845 78.9397 80.1425 80.305C77.8459 82.4797 76.1692 85.4503 75.9912 88.6682C75.962 89.1951 75.7662 90.4104 76.4608 90.6598C77.1052 90.8911 77.7714 91.0611 78.4478 91.1676C81.6194 91.6673 85.1114 90.7753 87.6924 88.8415Z" fill="#00C27A"/>
<path d="M92.889 78.5312C92.9977 80.9774 92.2528 83.3673 90.8981 85.4051C90.0313 86.7082 88.9496 87.8997 87.6929 88.8416C85.1109 90.7755 81.6191 91.6673 78.4474 91.1682C77.7717 91.0607 77.1055 90.8917 76.4604 90.6594C76.2078 90.5697 76.0326 90.3377 76.013 90.0698C76.0022 89.9251 75.9911 89.7774 75.9849 89.6817C79.1243 90.142 82.5631 89.248 85.1136 87.3381C86.3703 86.3962 87.4523 85.2061 88.3189 83.9015C89.6152 81.9504 90.3535 79.6773 90.319 77.341C91.0449 77.4611 91.7587 77.6535 92.4536 77.9235C92.7062 78.022 92.8764 78.2606 92.889 78.5312Z" fill="#08B865"/>
<path d="M101.869 120.585L53.5003 128.091C50.7734 128.515 48.2198 126.647 47.7966 123.92L47.6458 122.948C47.2226 120.221 49.0901 117.668 51.817 117.245L100.185 109.738C102.912 109.315 105.466 111.183 105.889 113.91L106.04 114.882C106.463 117.609 104.596 120.162 101.869 120.585Z" fill="#FDB97E"/>
<path d="M100.236 110.063L51.8673 117.569C49.1405 117.992 46.5868 116.124 46.1636 113.398L46.0128 112.425C45.5896 109.699 47.4572 107.145 50.184 106.722L98.5524 99.2158C101.279 98.7926 103.833 100.66 104.256 103.387L104.407 104.359C104.83 107.086 102.963 109.64 100.236 110.063Z" fill="#FE9738"/>
<path d="M105.889 113.909L106.04 114.882C106.463 117.609 104.595 120.163 101.868 120.586L98.9783 121.034C101.705 120.611 103.573 118.057 103.15 115.33L102.999 114.358C102.576 111.631 100.022 109.763 97.2949 110.186L100.185 109.738C102.912 109.315 105.466 111.182 105.889 113.909Z" fill="#FEA95C"/>
<path d="M104.256 103.387L104.407 104.358C104.83 107.085 102.962 109.639 100.235 110.062L97.3452 110.511C100.072 110.088 101.94 107.534 101.517 104.807L101.366 103.836C100.943 101.109 98.389 99.2412 95.662 99.6644L98.552 99.2159C101.279 98.7927 103.833 100.66 104.256 103.387Z" fill="#FE860A"/>
<path d="M90.6878 93.3646L55.6526 98.8016C53.7458 99.0975 52.44 100.883 52.7359 102.79C53.0318 104.697 54.8175 106.002 56.7242 105.707L73.1037 103.165C75.7621 102.752 78.2514 104.573 78.6639 107.231L79.9554 115.554C80.2241 117.285 81.8454 118.471 83.5766 118.202C85.3078 117.933 86.4935 116.312 86.2248 114.581L84.9333 106.258C84.5208 103.6 86.3414 101.111 88.9996 100.698L91.7593 100.27C93.6662 99.9739 94.972 98.1882 94.6761 96.2815C94.3803 94.3745 92.5946 93.0687 90.6878 93.3646Z" fill="#7BACDF"/>
<path d="M68.9893 99.2536C72.3932 98.7253 74.7244 95.5377 74.1962 92.1337C73.6679 88.7298 70.4803 86.3986 67.0764 86.9268C63.6724 87.4551 61.3412 90.6427 61.8695 94.0467C62.3977 97.4506 65.5854 99.7818 68.9893 99.2536Z" fill="#0078C8"/>
<path d="M74.1966 92.1339C74.7247 95.5372 72.3931 98.7254 68.9898 99.2535C67.82 99.4351 66.6772 99.28 65.6583 98.8582C65.8147 98.8471 65.9701 98.8289 66.1274 98.8044C69.5307 98.2763 71.8624 95.0881 71.3342 91.6848C70.9874 89.4497 69.4938 87.6767 67.546 86.8733C70.7688 86.6163 73.6928 88.8878 74.1966 92.1339Z" fill="#0268B4"/>
<path d="M78.3681 97.7981C81.772 97.2699 84.1032 94.0822 83.575 90.6783C83.0467 87.2744 79.8591 84.9432 76.4551 85.4714C73.0512 85.9996 70.72 89.1873 71.2482 92.5912C71.7765 95.9952 74.9641 98.3264 78.3681 97.7981Z" fill="#0078C8"/>
<path d="M83.5758 90.6784C84.1039 94.0817 81.7723 97.2699 78.3676 97.7983C77.1993 97.9796 76.0565 97.8245 75.0377 97.4027C75.1941 97.3916 75.3495 97.3734 75.5053 97.3492C78.9101 96.8208 81.2402 93.6328 80.712 90.2295C80.3652 87.9944 78.8716 86.2214 76.9238 85.4181C80.148 85.1608 83.072 87.4324 83.5758 90.6784Z" fill="#0268B4"/>
<path d="M79.6699 92.5827C79.6261 92.5895 79.5818 92.5937 79.5365 92.5952C78.9373 92.6142 78.4363 92.144 78.4172 91.5449C78.3978 90.9341 77.8982 90.3229 77.3036 90.1821C76.7205 90.044 76.3595 89.4592 76.4975 88.876C76.6357 88.2927 77.2206 87.9317 77.8038 88.0699C79.3652 88.4396 80.5355 89.8721 80.5868 91.4759C80.6044 92.0296 80.2038 92.4999 79.6699 92.5827Z" fill="#035C93"/>
</g>
<path d="M255.38 134.662C260.835 142.032 257.458 156.256 257.653 170.609C257.783 185.027 261.484 199.574 256.029 208.496C250.575 217.418 235.963 220.716 221.028 220.974C206.157 221.297 190.896 218.647 180.441 209.724C170.051 200.802 164.401 185.609 165.05 171.191C165.765 156.709 172.778 142.873 183.168 135.502C193.623 128.196 207.52 127.226 221.547 127.033C235.639 126.839 249.925 127.291 255.38 134.662Z" fill="#D5FFD0"/>
<g clip-path="url(#clip1)">
<path d="M205.851 148.045C204.741 150.875 203.055 153.297 201.12 155.767C195.073 163.486 188.112 171.799 191.94 182.211C193.941 187.652 198.663 191.759 203.839 194.115C214.117 198.795 227.019 195.44 235.822 188.978C245.569 181.823 252.121 170.24 254.125 158.398C256.282 145.645 251.877 132.588 243.648 122.891C240.884 119.633 238.226 117.6 234.351 115.694C229.419 113.268 223.879 113.115 218.862 115.401C216.725 116.375 214.736 117.705 213.099 119.394C209.26 123.354 207.782 129.342 207.24 134.673C206.825 138.755 207.344 144.24 205.851 148.045V148.045Z" fill="#D77F4A"/>
<path d="M254.125 158.399C252.12 170.241 245.569 181.823 235.823 188.977C229.935 193.299 222.216 196.231 214.674 196.299C221.139 195.563 227.521 192.882 232.561 189.182C242.309 182.026 248.859 170.444 250.864 158.602C253.022 145.85 248.617 132.792 240.387 123.095C237.623 119.838 234.966 117.805 231.09 115.898C228.674 114.709 226.11 114.067 223.536 113.989C227.182 113.417 230.915 114.004 234.351 115.695C238.225 117.6 240.883 119.633 243.648 122.891C251.876 132.588 256.282 145.645 254.125 158.399V158.399Z" fill="#C86D36"/>
<path d="M209.362 153.698C208.291 155.811 207.049 157.808 205.769 159.442C203.816 161.934 201.517 164.14 199.63 166.686C198.74 167.886 197.805 169.165 197.245 170.563C194.903 176.402 197.552 183.097 202.461 186.674C208.328 190.949 215.595 191.177 222.433 189.197C228.365 187.479 233.604 184.204 237.755 179.635C246.752 169.731 250.292 158.331 248.386 144.99C247.831 141.105 246.892 137.283 245.147 133.749C241.022 125.395 228.689 114.389 219.371 121.681C216.634 123.823 214.896 126.926 214.003 130.247C212.628 135.361 213.449 140.781 212.275 145.933C211.713 148.395 210.663 151.132 209.362 153.698V153.698Z" fill="#9E5528"/>
<path d="M245.147 133.749C246.892 137.283 247.831 141.106 248.386 144.99C250.292 158.331 246.752 169.732 237.756 179.634C233.605 184.204 228.365 187.478 222.434 189.196C218.623 190.3 214.679 190.718 210.919 190.131C213.668 190.162 216.464 189.722 219.193 188.933C225.124 187.214 230.364 183.94 234.514 179.371C243.512 169.467 247.052 158.067 245.147 144.726C244.591 140.841 243.651 137.019 241.907 133.484C239.079 127.761 232.4 120.792 225.477 119.318C233.465 118.854 241.88 127.134 245.147 133.749V133.749Z" fill="#904D24"/>
<path d="M223.35 178.37C227.03 174.605 227.302 168.903 223.957 165.634C220.613 162.365 214.919 162.768 211.239 166.533C207.559 170.298 207.287 176 210.632 179.268C213.976 182.537 219.67 182.135 223.35 178.37Z" fill="#ECBBA3"/>
<path d="M223.361 178.396C219.691 182.148 214.023 182.558 210.673 179.324C213.736 180.111 217.323 179.127 219.912 176.479C223.595 172.713 223.869 167.01 220.524 163.74C220.512 163.729 220.502 163.719 220.491 163.708C221.781 164.041 222.98 164.686 223.971 165.656C227.316 168.927 227.043 174.631 223.361 178.396V178.396Z" fill="#E8AD8C"/>
<path d="M232.639 151.213C232.618 151.229 232.596 151.244 232.573 151.258C225.411 155.781 218.583 151.26 218.296 151.065C217.765 150.705 217.627 149.983 217.987 149.452C218.346 148.922 219.067 148.782 219.598 149.14C219.838 149.301 225.479 152.99 231.332 149.293C231.875 148.951 232.592 149.113 232.935 149.655C233.263 150.175 233.128 150.856 232.639 151.213V151.213Z" fill="#8E431A"/>
<path d="M231.545 143.402C231.523 143.418 231.501 143.433 231.479 143.447C225.892 146.975 220.564 143.448 220.34 143.296C219.809 142.936 219.67 142.214 220.03 141.682C220.389 141.153 221.11 141.013 221.641 141.371C221.826 141.495 225.963 144.182 230.238 141.483C230.78 141.14 231.498 141.302 231.84 141.844C232.169 142.364 232.034 143.045 231.545 143.402Z" fill="#8E431A"/>
<path d="M230.968 134.61C230.947 134.626 230.925 134.641 230.902 134.655C226.518 137.424 222.337 134.655 222.161 134.536C221.629 134.176 221.491 133.453 221.851 132.922C222.21 132.392 222.93 132.253 223.46 132.61C223.598 132.701 226.589 134.631 229.661 132.69C230.204 132.348 230.921 132.51 231.264 133.052C231.592 133.572 231.457 134.253 230.968 134.61Z" fill="#8E431A"/>
</g>
<path d="M359.648 17.2103C366.206 26.0706 362.146 43.1694 362.381 60.4236C362.537 77.7556 366.986 95.243 360.429 105.969C353.872 116.694 336.307 120.658 318.352 120.969C300.475 121.358 282.13 118.171 269.562 107.445C257.072 96.7197 250.28 78.4551 251.061 61.1231C251.919 43.7134 260.35 27.0809 272.841 18.2207C285.409 9.43809 302.115 8.27226 318.977 8.0391C335.917 7.80593 353.091 8.34998 359.648 17.2103Z" fill="#D5FFD0"/>
<g clip-path="url(#clip2)">
<path d="M324.07 97.1756L272.513 67.1101C270.291 65.8141 269.539 62.9619 270.835 60.7394L271.297 59.9471C272.593 57.7247 275.446 56.9737 277.668 58.2697L329.226 88.3352C331.448 89.6312 332.199 92.4835 330.903 94.7059L330.441 95.4982C329.145 97.7207 326.293 98.4717 324.07 97.1756Z" fill="#E94444"/>
<path d="M330.903 94.7053L330.441 95.4978C329.145 97.7207 326.293 98.4725 324.07 97.1763L321.715 95.8031C323.938 97.0994 326.79 96.3475 328.086 94.1246L328.548 93.3321C329.844 91.1104 329.094 88.2582 326.871 86.962L329.226 88.3351C331.449 89.6314 332.199 92.4837 330.903 94.7053Z" fill="#D83131"/>
<path d="M324.07 97.1756L298.292 82.1428L272.513 67.1101C272.513 67.1101 265.728 74.6587 273.877 83.9364C275.272 85.5257 276.925 86.8502 278.739 87.9084L290.821 94.9538L302.903 101.999C304.717 103.057 306.684 103.843 308.755 104.275C320.842 106.798 324.07 97.1756 324.07 97.1756Z" fill="#FE9738"/>
<path d="M308.755 104.275C306.683 103.843 304.717 103.058 302.903 102L300.171 100.407C301.987 101.466 303.953 102.251 306.024 102.683C318.111 105.205 321.339 95.5836 321.339 95.5836L324.07 97.1763C324.07 97.1762 320.842 106.798 308.755 104.275Z" fill="#FE860A"/>
<path d="M328.385 89.993C327.214 92.0021 324.244 91.7299 323.436 89.5491C323.104 88.6527 322.592 87.7977 321.398 87.1014C318.163 85.2145 316.668 87.7776 313.432 85.8906C310.196 84.0037 311.691 81.4406 308.455 79.5537C305.22 77.6669 303.725 80.2299 300.489 78.3431C297.254 76.4563 298.748 73.8932 295.513 72.0063C292.277 70.1194 290.782 72.6825 287.546 70.7955C284.311 68.9087 285.805 66.3456 282.57 64.4588C281.376 63.7627 280.381 63.7387 279.437 63.8909C277.141 64.2614 275.442 61.8111 276.613 59.8019L279.386 55.0471L331.158 85.2377L328.385 89.9929L328.385 89.993Z" fill="#BBEC6C"/>
<path d="M331.159 85.2384L328.386 89.9935C327.289 91.8735 324.619 91.7556 323.619 89.9465C324.527 89.9459 325.437 89.5043 325.972 88.586L328.745 83.831L331.159 85.2384Z" fill="#A2E62E"/>
<path d="M281.634 51.2525L279.391 55.0977L284.942 58.3343C286.096 59.0076 286.487 60.4896 285.813 61.6442L279.355 72.7186C278.494 74.1949 278.993 76.0895 280.469 76.9503C281.946 77.8112 283.84 77.3123 284.701 75.836L291.159 64.7616C291.832 63.607 293.314 63.2168 294.469 63.8901L331.138 85.2734L333.38 81.4281L281.634 51.2525Z" fill="#FEE45A"/>
<path d="M330.967 80.0207L333.381 81.4282L331.138 85.2733L328.725 83.8658L330.967 80.0207Z" fill="#FEDF30"/>
<path d="M333.132 81.6362L281.575 51.5707C279.352 50.2748 278.601 47.4226 279.897 45.2L280.359 44.4078C281.655 42.1853 284.507 41.4343 286.73 42.7303L338.287 72.7959C340.51 74.0919 341.261 76.9442 339.965 79.1666L339.503 79.9588C338.207 82.1813 335.355 82.9323 333.132 81.6362Z" fill="#9E5528"/>
<path d="M339.965 79.1662L339.503 79.9587C338.206 82.1815 335.355 82.9322 333.132 81.636L330.778 80.2628C333.001 81.5591 335.852 80.8084 337.148 78.5855L337.61 77.793C338.906 75.5713 338.156 72.7191 335.933 71.4229L338.287 72.796C340.51 74.0924 341.26 76.9446 339.965 79.1662Z" fill="#904D24"/>
<path d="M325.244 35.9245C304.976 24.4951 291.865 31.4596 285.942 36.4943C283.912 38.2194 284.216 41.4409 286.517 42.7827L312.432 57.8947L338.346 73.0065C340.664 74.3583 343.61 73.0014 344.111 70.365C345.566 62.717 345.133 47.9119 325.244 35.9245Z" fill="#FE9738"/>
<path d="M338.346 73.0068L338.06 72.8397C339.348 72.4244 340.408 71.3444 340.692 69.8581C342.146 62.2087 341.713 47.4044 321.824 35.4171C316.591 32.4654 311.834 30.7405 307.556 29.8928C312.676 30.3928 318.572 32.1619 325.244 35.924C345.133 47.9124 345.566 62.7169 344.112 70.365C343.61 73.001 340.664 74.3582 338.346 73.0068Z" fill="#FE860A"/>
<path d="M311.573 40.3031C311.433 40.2216 311.311 40.1051 311.221 39.9574C310.931 39.4822 311.082 38.8621 311.557 38.5725L313.179 37.584C313.654 37.2943 314.274 37.4448 314.564 37.92C314.853 38.3952 314.703 39.0152 314.228 39.3049L312.606 40.2934C312.279 40.4929 311.883 40.4836 311.573 40.3031Z" fill="#E57917"/>
<path d="M319.801 45.2332C319.32 44.9528 319.158 44.3358 319.438 43.8551L320.395 42.2144C320.675 41.7336 321.292 41.5712 321.773 41.8515C322.254 42.1318 322.416 42.7489 322.136 43.2296L321.179 44.8703C320.899 45.351 320.282 45.5135 319.801 45.2332Z" fill="#E57917"/>
<path d="M328.172 49.9666C327.872 49.7915 327.671 49.4656 327.672 49.093L327.676 47.1937C327.677 46.6372 328.13 46.1871 328.686 46.1885C329.243 46.1898 329.693 46.642 329.691 47.1985L329.687 49.0978C329.685 49.6543 329.233 50.1044 328.677 50.1031C328.493 50.1028 328.321 50.0531 328.172 49.9666Z" fill="#E57917"/>
</g>
<defs>
<clipPath id="clip0">
<rect width="72" height="72" fill="white" transform="translate(35 84.0412) rotate(-8.82109)"/>
</clipPath>
<clipPath id="clip1">
<rect width="77.5469" height="77.5469" fill="white" transform="translate(166.417 148.424) rotate(-36.1563)"/>
</clipPath>
<clipPath id="clip2">
<rect width="69" height="69" fill="white" transform="translate(295.759 18) rotate(30.2484)"/>
</clipPath>
</defs>
</svg>
