<svg width="24" height="24" viewBox="0 0 24 24" fill="none" xmlns="http://www.w3.org/2000/svg">
<path d="M20.245 3.29553L19.7773 2.85246L19.7614 2.87967C17.5876 1.02526 14.8609 0 11.9997 0C10.4436 0 8.92703 0.302907 7.48232 0.892293L7.47565 0.885618L7.15169 1.02834C3.61743 2.59268 1.03913 5.77526 0.254134 9.54106L0.170963 9.94049L0.180717 9.94511C0.0631484 10.6259 0 11.3149 0 12.0003C0 15.5361 1.53867 18.8383 4.2294 21.1285L4.2253 21.1388L4.53437 21.3847C6.68244 23.0954 9.26382 23.9995 11.9997 23.9995C13.4439 23.9995 14.8768 23.733 16.2594 23.2073L16.5906 23.0815V23.0666C20.59 21.4628 23.3223 17.8926 23.8747 13.5697L23.9035 13.58L23.9548 12.9157C23.9759 12.6374 24.0005 12.3227 24.0005 12.0008C23.9995 8.68163 22.6662 5.59043 20.245 3.29553ZM22.9727 12.0003C22.9727 12.0614 22.9717 12.1224 22.9701 12.183C21.529 11.7502 20.0391 11.5315 18.5307 11.5315C17.2287 11.5315 15.9319 11.6963 14.6694 12.0223L14.6669 12.0151L14.6638 12.0162C14.403 11.3144 14.1211 10.6295 13.8213 9.97181L13.8259 9.96975L13.8218 9.96154C16.3447 8.72475 18.4583 6.84878 19.9867 4.49021C21.9171 6.53458 22.9727 9.17757 22.9727 12.0003ZM19.2192 3.7658C17.7858 6.04171 15.7768 7.84735 13.3654 9.02971C12.029 6.35027 10.3127 3.88799 8.25191 1.69423C9.45738 1.25321 10.7142 1.0268 11.9997 1.0268C14.6694 1.0268 17.2123 2.00278 19.2192 3.7658ZM7.24513 2.11624C9.34802 4.29871 11.092 6.76458 12.4382 9.45686C10.7157 10.1571 8.89726 10.5119 7.02539 10.5119C5.0565 10.5119 3.14972 10.1207 1.35179 9.34905C2.13473 6.19625 4.30282 3.53426 7.24513 2.11624ZM1.0268 12.0003C1.0268 11.4586 1.0689 10.9144 1.14951 10.3738C3.01624 11.1444 4.98873 11.5382 7.02437 11.5382C9.04717 11.5382 11.0104 11.1465 12.8705 10.3836C13.1554 11.0073 13.4224 11.6547 13.6714 12.3211C9.73461 13.6231 6.50634 16.4366 4.67452 20.1598C2.34933 18.0748 1.0268 15.1366 1.0268 12.0003ZM5.49032 20.8251C7.18506 17.2339 10.2588 14.5175 14.0215 13.2812C15.0057 16.2127 15.5227 19.2654 15.5612 22.3684C14.3999 22.7694 13.2032 22.9727 11.9997 22.9727C9.63142 22.9732 7.38939 22.2318 5.49032 20.8251ZM16.5736 21.9659C16.4977 18.9086 15.9714 15.9021 15.0052 13.0081C17.5969 12.3555 20.3343 12.4372 22.8777 13.2406C22.447 17.1461 20.0843 20.4093 16.5736 21.9659Z" fill="#FEF9EE"/>
</svg>
