<svg width="24" height="24" viewBox="0 0 24 24" fill="none" xmlns="http://www.w3.org/2000/svg">
<path d="M18.789 1.00009C18.5608 0.998052 18.357 1.14275 18.2856 1.36081L15.6913 9.34771H8.30966L5.7153 1.36081C5.646 1.1509 5.45239 1.0062 5.23025 1.00009C5.00811 0.996014 4.80839 1.13052 4.72891 1.3384L1.60262 9.68194C1.60059 9.68194 1.60059 9.68398 1.59855 9.68602L0.033369 13.8598C-0.0481507 14.0799 0.025217 14.3265 0.216789 14.4651L11.6907 22.8087L11.6927 22.8127C11.6948 22.8127 11.6948 22.8127 11.6948 22.8148C11.7009 22.8188 11.709 22.8229 11.7151 22.827C11.7233 22.8311 11.7294 22.8372 11.7376 22.8413C11.7396 22.8413 11.7396 22.8433 11.7416 22.8433C11.7416 22.8433 11.7437 22.8453 11.7457 22.8453C11.7478 22.8474 11.7498 22.8494 11.7539 22.8494C11.7559 22.8515 11.76 22.8535 11.762 22.8555C11.7722 22.8596 11.7844 22.8657 11.7967 22.8698C11.7967 22.8698 11.7967 22.8698 11.7967 22.8718C11.8089 22.8759 11.8211 22.88 11.8313 22.8841C11.8334 22.8841 11.8334 22.8841 11.8354 22.8861C11.8435 22.8881 11.8517 22.8902 11.8619 22.8943C11.866 22.8943 11.87 22.8963 11.8761 22.8963C11.8761 22.8983 11.8761 22.8983 11.8761 22.8963C11.8863 22.9004 11.8965 22.9024 11.9067 22.9044C11.921 22.9065 11.9332 22.9085 11.9475 22.9106C11.9679 22.9106 11.9903 22.9126 12.0107 22.9126C12.031 22.9106 12.0494 22.9106 12.0677 22.9065C12.0759 22.9065 12.082 22.9065 12.0901 22.9044C12.0901 22.9044 12.0922 22.9044 12.0942 22.9044C12.0983 22.9024 12.1003 22.9024 12.1044 22.9024C12.1064 22.9024 12.1085 22.9004 12.1126 22.9004C12.1166 22.8983 12.1227 22.8983 12.1268 22.8963C12.135 22.8943 12.1411 22.8922 12.1472 22.8902C12.1513 22.8902 12.1533 22.8902 12.1554 22.8881C12.1574 22.8881 12.1594 22.8881 12.1615 22.8881C12.1696 22.8841 12.1798 22.88 12.188 22.878C12.1982 22.8739 12.2063 22.8698 12.2145 22.8657C12.2165 22.8657 12.2165 22.8657 12.2185 22.8637C12.2206 22.8637 12.2226 22.8637 12.2246 22.8616C12.2287 22.8596 12.2328 22.8576 12.2369 22.8555C12.2491 22.8494 12.2593 22.8433 12.2695 22.8372C12.2736 22.8352 12.2756 22.8331 12.2776 22.8311C12.2797 22.8311 12.2817 22.829 12.2837 22.829C12.2919 22.8229 12.3001 22.8188 12.3082 22.8127L12.3123 22.8066L23.7862 14.4651C23.9757 14.3265 24.0491 14.0799 23.9676 13.8598L22.4065 9.70029C22.4044 9.69621 22.4024 9.6901 22.4024 9.68602L19.272 1.3384C19.1946 1.13664 19.0051 1.00213 18.789 1.00009ZM5.18338 3.10126L7.21322 9.34771H2.84172L5.18338 3.10126ZM18.8176 3.10126L21.1612 9.34771H16.7877L18.8176 3.10126ZM3.16577 10.3912H7.55153L10.6065 19.7904L3.16577 10.3912ZM8.65001 10.3912H15.3509L12.0005 20.7034L8.65001 10.3912ZM16.4494 10.3912H20.8352L13.3945 19.7904L16.4494 10.3912ZM2.25071 10.917L9.2288 19.7313L1.15019 13.8558L2.25071 10.917ZM21.7502 10.917L22.8507 13.8558L14.7721 19.7313L21.7502 10.917Z" fill="#FEF9EE"/>
</svg>
