<svg width="446" height="913" viewBox="0 0 446 913" fill="none" xmlns="http://www.w3.org/2000/svg">
<g id="landing-splash">
<path id="Vector" d="M55.7141 913C33.4196 913 6.74416 889.255 6.7434 865.51V364.488C-1.05968 364.488 0.0550481 358.551 0.0550481 350.241V296.814C0.0550481 288.503 -1.05968 282.567 6.7434 282.567V267.133C-1.05968 267.133 0.0550481 261.196 0.0550481 252.886V199.459C0.0550481 191.148 -1.05968 185.212 6.7434 185.212V47.4902C6.74416 23.7451 33.4196 0 55.7141 0H390.286C412.58 0 439.256 23.7451 439.257 47.4902V181.391C447.06 181.391 445.945 187.327 445.945 195.638V262.745C445.945 271.056 447.06 276.992 439.257 276.992L439.26 865.51C439.259 889.255 412.585 913 390.29 913H55.7141Z" fill="black"/>
<g id="SplashScreen">
<g clip-path="url(#clip0)">
<rect x="16" y="8" width="414" height="896" rx="50" fill="#357735"/>
<g id="Logo">
<path id="Olive" d="M135.1 447C127.967 447 121.533 445.467 115.8 442.4C110.067 439.267 105.567 434.967 102.3 429.5C99.0333 423.967 97.4 417.8 97.4 411C97.4 404.2 99.0333 398.067 102.3 392.6C105.567 387.067 110.067 382.767 115.8 379.7C121.533 376.567 127.967 375 135.1 375C142.233 375 148.667 376.567 154.4 379.7C160.133 382.767 164.633 387.033 167.9 392.5C171.167 397.967 172.8 404.133 172.8 411C172.8 417.867 171.167 424.033 167.9 429.5C164.633 434.967 160.133 439.267 154.4 442.4C148.667 445.467 142.233 447 135.1 447ZM135.1 435.6C139.767 435.6 143.967 434.567 147.7 432.5C151.433 430.367 154.367 427.433 156.5 423.7C158.633 419.9 159.7 415.667 159.7 411C159.7 406.333 158.633 402.133 156.5 398.4C154.367 394.6 151.433 391.667 147.7 389.6C143.967 387.467 139.767 386.4 135.1 386.4C130.433 386.4 126.233 387.467 122.5 389.6C118.767 391.667 115.833 394.6 113.7 398.4C111.567 402.133 110.5 406.333 110.5 411C110.5 415.667 111.567 419.9 113.7 423.7C115.833 427.433 118.767 430.367 122.5 432.5C126.233 434.567 130.433 435.6 135.1 435.6ZM185.38 371.8H197.88V446H185.38V371.8ZM214.286 392.6H226.786V446H214.286V392.6ZM220.586 383.8C218.319 383.8 216.419 383.1 214.886 381.7C213.353 380.233 212.586 378.433 212.586 376.3C212.586 374.167 213.353 372.4 214.886 371C216.419 369.533 218.319 368.8 220.586 368.8C222.853 368.8 224.753 369.5 226.286 370.9C227.819 372.233 228.586 373.933 228.586 376C228.586 378.2 227.819 380.067 226.286 381.6C224.819 383.067 222.919 383.8 220.586 383.8ZM293.192 392.6L270.292 446H257.392L234.492 392.6H247.492L264.092 432.2L281.192 392.6H293.192ZM349.74 419.6C349.74 420.467 349.673 421.7 349.54 423.3H307.64C308.373 427.233 310.273 430.367 313.34 432.7C316.473 434.967 320.34 436.1 324.94 436.1C330.807 436.1 335.64 434.167 339.44 430.3L346.14 438C343.74 440.867 340.707 443.033 337.04 444.5C333.373 445.967 329.24 446.7 324.64 446.7C318.773 446.7 313.607 445.533 309.14 443.2C304.673 440.867 301.207 437.633 298.74 433.5C296.34 429.3 295.14 424.567 295.14 419.3C295.14 414.1 296.307 409.433 298.64 405.3C301.04 401.1 304.34 397.833 308.54 395.5C312.74 393.167 317.473 392 322.74 392C327.94 392 332.573 393.167 336.64 395.5C340.773 397.767 343.973 401 346.24 405.2C348.573 409.333 349.74 414.133 349.74 419.6ZM322.74 402C318.74 402 315.34 403.2 312.54 405.6C309.807 407.933 308.14 411.067 307.54 415H337.84C337.307 411.133 335.673 408 332.94 405.6C330.207 403.2 326.807 402 322.74 402Z" fill="#FEF9EE"/>
<g id="Group 54">
<path id="Ellipse 6" d="M291.55 336.125C292.596 334.896 294.404 334.896 295.449 336.125C298.715 339.963 304.937 348.593 304.937 358.623C304.937 368.653 298.715 377.283 295.449 381.121C294.404 382.35 292.596 382.35 291.55 381.121C288.285 377.283 282.063 368.653 282.063 358.623C282.063 348.593 288.285 339.963 291.55 336.125Z" fill="#FEF9EE"/>
<path id="Ellipse 8" d="M278.55 380.331C278.771 381.956 277.352 383.266 275.59 383.062C270.253 382.444 259.446 380.359 251.871 373.37C244.295 366.38 242.035 356.409 241.366 351.485C241.145 349.859 242.564 348.55 244.326 348.754C249.663 349.371 260.47 351.456 268.046 358.446C275.621 365.436 277.881 375.406 278.55 380.331Z" fill="#EFEEE5"/>
<path id="Ellipse 7" d="M342.674 348.754C344.436 348.55 345.855 349.859 345.634 351.485C344.965 356.409 342.705 366.38 335.129 373.37C327.553 380.359 316.747 382.444 311.41 383.062C309.648 383.266 308.229 381.956 308.45 380.331C309.119 375.406 311.379 365.436 318.954 358.446C326.53 351.456 337.337 349.371 342.674 348.754Z" fill="#EFEEE5"/>
</g>
</g>
<path id="Vector_2" d="M386.572 0C388.781 0 390.572 1.79097 390.572 4.00024C390.572 6.20951 388.781 8.00048 386.572 8.00048H339.771C328.65 8.00048 318.29 13.6506 312.268 23.0005C306.247 32.3504 295.887 38.0005 284.766 38.0005H223.286H161.806C150.685 38.0005 140.326 32.3504 134.304 23.0005C128.282 13.6506 117.923 8.00048 106.801 8.00048H60.0005C57.7911 8.00048 56.0001 6.20937 56.0002 4C56.0004 1.79082 57.7913 0 60.0005 0H386.572Z" fill="black"/>
</g>
</g>
</g>
<defs>
<clipPath id="clip0">
<rect x="16" y="8" width="414" height="896" rx="50" fill="white"/>
</clipPath>
</defs>
</svg>
