<svg width="346" height="174" viewBox="0 0 346 174" fill="none" xmlns="http://www.w3.org/2000/svg">
<g filter="url(#filter0_d)">
<path d="M259.061 10.1256C260.792 8.06651 263.81 8.06651 265.541 10.1256C270.587 16.129 279.75 29.1005 279.75 44.1349C279.75 59.1692 270.587 72.1408 265.541 78.1441C263.81 80.2032 260.792 80.2032 259.061 78.1441C254.015 72.1408 244.852 59.1692 244.852 44.1349C244.852 29.1005 254.015 16.129 259.061 10.1256Z" fill="#556983"/>
<path d="M239.434 76.8305C239.821 79.5375 237.453 81.7223 234.519 81.3658C226.229 80.3584 210.135 77.1007 198.79 66.6333C187.445 56.1659 183.914 41.317 182.822 33.6681C182.436 30.9612 184.804 28.7763 187.738 29.1329C196.028 30.1403 212.122 33.3979 223.467 43.8653C234.812 54.3327 238.342 69.1816 239.434 76.8305Z" fill="#79899D"/>
<path d="M336.864 29.1327C339.798 28.7762 342.166 30.961 341.78 33.668C340.688 41.3169 337.157 56.1658 325.812 66.6332C314.467 77.1006 298.373 80.3582 290.083 81.3656C287.149 81.7222 284.781 79.5373 285.168 76.8304C286.26 69.1815 289.79 54.3326 301.135 43.8652C312.48 33.3978 328.574 30.1401 336.864 29.1327Z" fill="#79899D"/>
</g>
<path d="M50.64 160.44C41.92 160.44 34.04 158.56 27 154.8C20.04 151.04 14.56 145.88 10.56 139.32C6.64 132.68 4.68 125.24 4.68 117C4.68 108.76 6.64 101.36 10.56 94.8C14.56 88.16 20.04 82.96 27 79.2C34.04 75.44 41.92 73.56 50.64 73.56C59.36 73.56 67.2 75.44 74.16 79.2C81.12 82.96 86.6 88.16 90.6 94.8C94.6 101.36 96.6 108.76 96.6 117C96.6 125.24 94.6 132.68 90.6 139.32C86.6 145.88 81.12 151.04 74.16 154.8C67.2 158.56 59.36 160.44 50.64 160.44ZM50.64 143.88C55.6 143.88 60.08 142.76 64.08 140.52C68.08 138.2 71.2 135 73.44 130.92C75.76 126.84 76.92 122.2 76.92 117C76.92 111.8 75.76 107.16 73.44 103.08C71.2 99 68.08 95.84 64.08 93.6C60.08 91.28 55.6 90.12 50.64 90.12C45.68 90.12 41.2 91.28 37.2 93.6C33.2 95.84 30.04 99 27.72 103.08C25.48 107.16 24.36 111.8 24.36 117C24.36 122.2 25.48 126.84 27.72 130.92C30.04 135 33.2 138.2 37.2 140.52C41.2 142.76 45.68 143.88 50.64 143.88ZM109.89 69.96H128.61V159H109.89V69.96ZM145.984 94.44H164.704V159H145.984V94.44ZM155.344 85.44C151.904 85.44 149.104 84.44 146.944 82.44C144.784 80.44 143.704 77.96 143.704 75C143.704 72.04 144.784 69.56 146.944 67.56C149.104 65.56 151.904 64.56 155.344 64.56C158.784 64.56 161.584 65.52 163.744 67.44C165.904 69.36 166.984 71.76 166.984 74.64C166.984 77.76 165.904 80.36 163.744 82.44C161.584 84.44 158.784 85.44 155.344 85.44ZM246.158 94.44L218.918 159H199.598L172.477 94.44H191.798L209.678 138.36L228.158 94.44H246.158ZM315.278 126.96C315.278 127.2 315.158 128.88 314.918 132H266.078C266.958 136 269.038 139.16 272.318 141.48C275.598 143.8 279.678 144.96 284.558 144.96C287.918 144.96 290.878 144.48 293.438 143.52C296.078 142.48 298.518 140.88 300.758 138.72L310.718 149.52C304.638 156.48 295.758 159.96 284.078 159.96C276.798 159.96 270.358 158.56 264.758 155.76C259.158 152.88 254.838 148.92 251.798 143.88C248.758 138.84 247.238 133.12 247.238 126.72C247.238 120.4 248.718 114.72 251.678 109.68C254.718 104.56 258.838 100.6 264.038 97.8C269.318 94.92 275.198 93.48 281.678 93.48C287.998 93.48 293.718 94.84 298.838 97.56C303.958 100.28 307.958 104.2 310.838 109.32C313.798 114.36 315.278 120.24 315.278 126.96ZM281.798 107.64C277.558 107.64 273.998 108.84 271.118 111.24C268.238 113.64 266.478 116.92 265.838 121.08H297.638C296.998 117 295.238 113.76 292.358 111.36C289.478 108.88 285.958 107.64 281.798 107.64Z" fill="#357735"/>
<defs>
<filter id="filter0_d" x="178.781" y="8.5813" width="167.041" height="80.8227" filterUnits="userSpaceOnUse" color-interpolation-filters="sRGB">
<feFlood flood-opacity="0" result="BackgroundImageFix"/>
<feColorMatrix in="SourceAlpha" type="matrix" values="0 0 0 0 0 0 0 0 0 0 0 0 0 0 0 0 0 0 127 0"/>
<feOffset dy="4"/>
<feGaussianBlur stdDeviation="2"/>
<feColorMatrix type="matrix" values="0 0 0 0 0 0 0 0 0 0 0 0 0 0 0 0 0 0 0.25 0"/>
<feBlend mode="normal" in2="BackgroundImageFix" result="effect1_dropShadow"/>
<feBlend mode="normal" in="SourceGraphic" in2="effect1_dropShadow" result="shape"/>
</filter>
</defs>
</svg>
