<svg width="179" height="79" viewBox="0 0 179 79" fill="none" xmlns="http://www.w3.org/2000/svg">
<path d="M27.4278 78.7998C22.419 78.7998 17.9016 77.7251 13.8758 75.5749C9.85005 73.3785 6.69026 70.3639 4.39647 66.5312C2.10267 62.6522 0.955811 58.3287 0.955811 53.5615C0.955811 48.7943 2.10267 44.4944 4.39647 40.6619C6.69026 36.7827 9.85005 33.7681 13.8758 31.6182C17.9016 29.4215 22.419 28.3232 27.4278 28.3232C32.4366 28.3232 36.954 29.4215 40.9798 31.6182C45.0053 33.7681 48.1651 36.7593 50.4591 40.5918C52.7531 44.4243 53.8998 48.7475 53.8998 53.5615C53.8998 58.3755 52.7531 62.6985 50.4591 66.5312C48.1651 70.3639 45.0053 73.3785 40.9798 75.5749C36.954 77.7251 32.4366 78.7998 27.4278 78.7998ZM27.4278 70.8077C30.7046 70.8077 33.6538 70.0835 36.2752 68.6344C38.8966 67.139 40.9566 65.0821 42.4543 62.465C43.9521 59.801 44.7013 56.8332 44.7013 53.5615C44.7013 50.2898 43.9521 47.3454 42.4543 44.7281C40.9566 42.064 38.8966 40.0076 36.2752 38.5587C33.6538 37.0631 30.7046 36.3153 27.4278 36.3153C24.151 36.3153 21.2018 37.0631 18.5804 38.5587C15.959 40.0076 13.8992 42.064 12.4013 44.7281C10.9033 47.3454 10.1543 50.2898 10.1543 53.5615C10.1543 56.8332 10.9033 59.801 12.4013 62.465C13.8992 65.0821 15.959 67.139 18.5804 68.6344C21.2018 70.0835 24.151 70.8077 27.4278 70.8077ZM62.7331 26.0798H71.5103V78.0988H62.7331V26.0798ZM83.0302 40.6619H91.8074V78.0988H83.0302V40.6619ZM87.4539 34.4925C85.8621 34.4925 84.5279 34.0018 83.4515 33.0203C82.3751 31.992 81.8365 30.7301 81.8365 29.2345C81.8365 27.739 82.3751 26.5004 83.4515 25.5189C84.5279 24.4907 85.8621 23.9766 87.4539 23.9766C89.0457 23.9766 90.3799 24.4673 91.4563 25.4488C92.5327 26.3835 93.0713 27.5753 93.0713 29.0242C93.0713 30.5666 92.5327 31.8752 91.4563 32.9502C90.4262 33.9784 89.0921 34.4925 87.4539 34.4925ZM138.436 40.6619L122.356 78.0988H113.298L97.2184 40.6619H106.347L118.003 68.4241L130.01 40.6619H138.436ZM178.143 59.5907C178.143 60.1983 178.096 61.0629 178.002 62.1846H148.581C149.096 64.9419 150.43 67.139 152.583 68.7746C154.783 70.3639 157.499 71.1582 160.729 71.1582C164.848 71.1582 168.242 69.8031 170.91 67.0921L175.615 72.4903C173.93 74.5002 171.8 76.0187 169.225 77.0472C166.65 78.0756 163.748 78.5895 160.518 78.5895C156.398 78.5895 152.771 77.7714 149.634 76.1358C146.498 74.5002 144.064 72.233 142.332 69.3355C140.646 66.391 139.804 63.0729 139.804 59.3803C139.804 55.7348 140.623 52.4631 142.261 49.5654C143.947 46.621 146.264 44.3308 149.213 42.695C152.162 41.0592 155.486 40.2413 159.184 40.2413C162.835 40.2413 166.088 41.0592 168.944 42.695C171.846 44.2841 174.093 46.5509 175.685 49.4953C177.323 52.393 178.143 55.7581 178.143 59.5907ZM159.184 47.2519C156.375 47.2519 153.988 48.0932 152.022 49.7757C150.103 51.4115 148.932 53.6083 148.511 56.3658H169.787C169.412 53.655 168.265 51.4583 166.346 49.7757C164.427 48.0932 162.04 47.2519 159.184 47.2519Z" fill="#FEF9EE"/>
<path d="M137.283 1.06916C138.017 0.207414 139.287 0.207414 140.021 1.06916C142.314 3.76006 146.683 9.8099 146.683 16.8417C146.683 23.8735 142.314 29.9233 140.021 32.6142C139.287 33.476 138.017 33.476 137.283 32.6142C134.99 29.9233 130.621 23.8735 130.621 16.8417C130.621 9.8099 134.99 3.76006 137.283 1.06916Z" fill="#FEF9EE"/>
<path d="M128.155 32.0603C128.31 33.1998 127.313 34.1177 126.076 33.9749C122.329 33.542 114.74 32.0803 109.421 27.18C104.102 22.2797 102.515 15.2897 102.045 11.8373C101.89 10.6978 102.886 9.77978 104.123 9.92266C107.871 10.3556 115.459 11.8173 120.779 16.7176C126.098 21.6178 127.685 28.6079 128.155 32.0603Z" fill="#FEF9EE"/>
<path d="M173.181 9.92267C174.418 9.77972 175.415 10.6977 175.259 11.8373C174.79 15.2897 173.203 22.2797 167.883 27.1799C162.563 32.0802 154.976 33.542 151.228 33.9749C149.991 34.1178 148.995 33.1998 149.15 32.0602C149.62 28.6079 151.206 21.6178 156.525 16.7175C161.845 11.8172 169.434 10.3556 173.181 9.92267Z" fill="#FEF9EE"/>
</svg>
