<svg width="250" height="127" viewBox="0 0 250 127" fill="none" xmlns="http://www.w3.org/2000/svg">
<path d="M121.613 3.94558C123.395 1.72781 126.605 1.7278 128.387 3.94557C134.921 12.0798 148.631 31.9059 148.631 55.0732C148.631 78.2405 134.921 98.0666 128.387 106.201C126.605 108.419 123.395 108.419 121.613 106.201C115.078 98.0666 101.369 78.2405 101.369 55.0732C101.369 31.906 115.078 12.0798 121.613 3.94558Z" fill="#357735"/>
<path d="M94.2885 105.123C94.5991 107.951 92.3255 110.222 89.4937 109.912C79.1114 108.774 55.3872 104.436 38.989 88.0573C22.5909 71.6787 18.2476 47.9826 17.1087 37.6127C16.7981 34.7842 19.0717 32.5133 21.9035 32.8236C32.2858 33.9612 56.01 38.2992 72.4082 54.6779C88.8063 71.0566 93.1496 94.7527 94.2885 105.123Z" fill="#1C6020"/>
<path d="M228.097 32.8234C230.928 32.5131 233.202 34.7841 232.891 37.6125C231.752 47.9824 227.409 71.6785 211.011 88.0572C194.613 104.436 170.889 108.774 160.506 109.911C157.675 110.222 155.401 107.951 155.712 105.122C156.851 94.7525 161.194 71.0564 177.592 54.6777C193.99 38.2991 217.714 33.961 228.097 32.8234Z" fill="#1C6020"/>
</svg>
