<svg width="339" height="254" viewBox="0 0 339 254" fill="none" xmlns="http://www.w3.org/2000/svg">
<path d="M117.702 47.5491C87.3462 43.4536 55.0047 53.4358 31.135 77.3055C-8.70418 117.145 -9.85761 180.583 28.5587 219C64.8697 255.31 123.535 256.27 163.498 222.625C164.489 223.711 165.509 224.779 166.559 225.829C204.975 264.246 268.414 263.092 308.253 223.253C348.092 183.414 349.246 119.975 310.829 81.5589C306.582 77.3116 302.029 73.548 297.235 70.2668C292.921 54.9162 284.794 40.5238 272.829 28.5587C234.413 -9.85761 170.974 -8.70419 131.135 31.135C126.018 36.2514 121.54 41.7571 117.702 47.5491Z" fill="#D5FFD0"/>
<g clip-path="url(#clip0)">
<path d="M152.445 106.263H141.344C140.383 106.263 139.603 105.484 139.603 104.522V104.256H154.186V104.522C154.186 105.484 153.406 106.263 152.445 106.263Z" fill="#F3F0F3"/>
<path d="M154.185 104.256V104.522C154.185 105.484 153.406 106.263 152.444 106.263H151.564C152.526 106.263 153.305 105.484 153.305 104.522V104.256H154.185Z" fill="#E2DEE2"/>
<path d="M152.848 102.93H140.94C140.269 102.93 139.725 102.386 139.725 101.715V101.476C139.725 100.804 140.269 100.26 140.94 100.26H152.848C153.519 100.26 154.063 100.804 154.063 101.476V101.715C154.063 102.386 153.519 102.93 152.848 102.93Z" fill="#FE9738"/>
<path d="M154.064 101.476V101.715C154.064 102.386 153.52 102.931 152.848 102.931H152.137C152.808 102.931 153.352 102.386 153.352 101.715V101.476C153.352 100.805 152.808 100.26 152.137 100.26H152.848C153.52 100.26 154.064 100.805 154.064 101.476Z" fill="#FE860A"/>
<path d="M155.075 104.336H138.713C138.394 104.336 138.136 104.078 138.136 103.759V103.428C138.136 103.109 138.394 102.851 138.713 102.851H155.075C155.394 102.851 155.652 103.109 155.652 103.428V103.759C155.652 104.078 155.394 104.336 155.075 104.336Z" fill="#CBC4CC"/>
<path d="M155.652 103.428V103.759C155.652 104.078 155.394 104.336 155.075 104.336H154.36C154.678 104.336 154.937 104.078 154.937 103.759V103.428C154.937 103.109 154.678 102.851 154.36 102.851H155.075C155.394 102.851 155.652 103.109 155.652 103.428Z" fill="#B5ADB6"/>
<path d="M150.624 92.1798C150.962 92.0002 151.266 91.7543 151.523 91.4731C151.925 91.0338 152.193 90.487 152.258 89.895C152.265 89.8295 152.233 89.7658 152.176 89.7328C151.668 89.4386 151.077 89.3296 150.493 89.388C150.018 89.4354 149.525 89.5715 149.128 89.846C148.495 90.2831 147.981 90.9346 147.818 91.7016C147.791 91.8272 147.699 92.112 147.856 92.1979C148.003 92.2775 148.156 92.3433 148.315 92.3941C149.059 92.6325 149.932 92.5484 150.624 92.1798V92.1798Z" fill="#00C27A"/>
<path d="M152.259 89.8949C152.193 90.4871 151.925 91.0338 151.523 91.4732C151.266 91.7541 150.962 92.0002 150.625 92.1797C149.932 92.5483 149.059 92.6324 148.315 92.3941C148.157 92.3431 148.003 92.2776 147.857 92.1977C147.799 92.1667 147.766 92.1044 147.771 92.0392C147.774 92.004 147.777 91.9681 147.779 91.9449C148.516 92.1727 149.376 92.086 150.061 91.722C150.398 91.5425 150.703 91.2968 150.96 91.0155C151.344 90.5948 151.606 90.0759 151.685 89.5129C151.855 89.5689 152.02 89.6418 152.177 89.7326C152.234 89.7657 152.266 89.8294 152.259 89.8949V89.8949Z" fill="#08B865"/>
<path d="M152.848 100.34H140.94C140.269 100.34 139.725 99.7956 139.725 99.1243V98.885C139.725 98.2137 140.269 97.6694 140.94 97.6694H152.848C153.519 97.6694 154.063 98.2137 154.063 98.885V99.1243C154.063 99.7956 153.519 100.34 152.848 100.34Z" fill="#FDB97E"/>
<path d="M152.848 97.7493H140.94C140.269 97.7493 139.725 97.205 139.725 96.5337V96.2944C139.725 95.6231 140.269 95.0789 140.94 95.0789H152.848C153.519 95.0789 154.063 95.6231 154.063 96.2944V96.5337C154.063 97.205 153.519 97.7493 152.848 97.7493Z" fill="#FE9738"/>
<path d="M154.064 98.8851V99.1244C154.064 99.7958 153.52 100.34 152.848 100.34H152.137C152.808 100.34 153.352 99.7958 153.352 99.1244V98.8851C153.352 98.2137 152.808 97.6694 152.137 97.6694H152.848C153.52 97.6694 154.064 98.2137 154.064 98.8851Z" fill="#FEA95C"/>
<path d="M154.064 96.2945V96.5335C154.064 97.2049 153.52 97.7491 152.848 97.7491H152.137C152.808 97.7491 153.352 97.2049 153.352 96.5335V96.2945C153.352 95.6231 152.808 95.0789 152.137 95.0789H152.848C153.52 95.0789 154.064 95.6231 154.064 96.2945V96.2945Z" fill="#FE860A"/>
<path d="M151.176 93.3789H142.551C142.081 93.3789 141.701 93.7595 141.701 94.2289C141.701 94.6983 142.081 95.0788 142.551 95.0788H146.583C147.238 95.0788 147.768 95.6094 147.768 96.2638V98.3128C147.768 98.739 148.114 99.0845 148.54 99.0845C148.966 99.0845 149.312 98.739 149.312 98.3128V96.2638C149.312 95.6094 149.842 95.0789 150.497 95.0789H151.176C151.645 95.0789 152.026 94.6983 152.026 94.2289C152.026 93.7594 151.645 93.3789 151.176 93.3789V93.3789Z" fill="#7BACDF"/>
<path d="M145.74 93.9852C146.578 93.9852 147.257 93.3058 147.257 92.4678C147.257 91.6298 146.578 90.9504 145.74 90.9504C144.902 90.9504 144.222 91.6298 144.222 92.4678C144.222 93.3058 144.902 93.9852 145.74 93.9852Z" fill="#0078C8"/>
<path d="M147.257 92.4678C147.257 93.3057 146.578 93.9851 145.74 93.9851C145.452 93.9851 145.183 93.9052 144.954 93.7658C144.992 93.769 145.03 93.7704 145.068 93.7704C145.906 93.7704 146.586 93.0909 146.586 92.2531C146.586 91.7028 146.293 91.2209 145.855 90.9551C146.639 91.0135 147.257 91.6687 147.257 92.4678V92.4678Z" fill="#0268B4"/>
<path d="M148.049 93.9852C148.887 93.9852 149.566 93.3058 149.566 92.4678C149.566 91.6298 148.887 90.9504 148.049 90.9504C147.211 90.9504 146.531 91.6298 146.531 92.4678C146.531 93.3058 147.211 93.9852 148.049 93.9852Z" fill="#0078C8"/>
<path d="M149.566 92.4678C149.566 93.3057 148.887 93.9851 148.048 93.9851C147.761 93.9851 147.492 93.9052 147.263 93.7658C147.301 93.769 147.339 93.7704 147.377 93.7704C148.215 93.7704 148.894 93.0909 148.894 92.2531C148.894 91.7028 148.602 91.2209 148.163 90.9551C148.948 91.0135 149.566 91.6687 149.566 92.4678V92.4678Z" fill="#0268B4"/>
<path d="M148.556 92.7798C148.546 92.7798 148.535 92.7791 148.524 92.7778C148.379 92.76 148.276 92.6283 148.294 92.4835C148.312 92.336 148.215 92.1704 148.077 92.1144C147.942 92.0594 147.877 91.9054 147.932 91.7703C147.987 91.6352 148.141 91.5703 148.276 91.6253C148.638 91.7724 148.866 92.1604 148.818 92.5479C148.802 92.6817 148.688 92.7798 148.556 92.7798V92.7798Z" fill="#035C93"/>
</g>
<g clip-path="url(#clip1)">
<path d="M219.236 101.894H201.996C201.252 101.894 200.65 101.291 200.65 100.548V100.283C200.65 99.54 201.252 98.9375 201.996 98.9375H219.236C219.979 98.9375 220.582 99.54 220.582 100.283V100.548C220.582 101.291 219.979 101.894 219.236 101.894V101.894Z" fill="#E94444"/>
<path d="M220.582 100.283V100.548C220.582 101.291 219.979 101.894 219.236 101.894H218.449C219.192 101.894 219.794 101.291 219.794 100.548V100.283C219.794 99.5401 219.192 98.9375 218.449 98.9375H219.236C219.979 98.9375 220.582 99.5401 220.582 100.283Z" fill="#D83131"/>
<path d="M219.236 101.894H210.616H201.996C201.996 101.894 201.401 104.765 204.785 105.894C205.364 106.088 205.969 106.178 206.576 106.178H210.616H214.656C215.263 106.178 215.868 106.088 216.448 105.894C219.831 104.765 219.236 101.894 219.236 101.894V101.894Z" fill="#FE9738"/>
<path d="M216.447 105.894C215.868 106.088 215.263 106.178 214.656 106.178H213.743C214.35 106.178 214.955 106.088 215.534 105.894C218.917 104.765 218.323 101.894 218.323 101.894H219.236C219.236 101.894 219.831 104.765 216.447 105.894V105.894Z" fill="#FE860A"/>
<path d="M219.268 99.4734C219.268 100.145 218.487 100.509 217.968 100.083C217.755 99.9075 217.503 99.7686 217.103 99.7686C216.021 99.7686 216.021 100.626 214.939 100.626C213.857 100.626 213.857 99.7686 212.775 99.7686C211.693 99.7686 211.693 100.626 210.611 100.626C209.529 100.626 209.529 99.7686 208.447 99.7686C207.365 99.7686 207.365 100.626 206.283 100.626C205.201 100.626 205.201 99.7686 204.119 99.7686C203.72 99.7686 203.468 99.9075 203.255 100.083C202.736 100.509 201.955 100.145 201.955 99.4733V97.8833H219.268V99.4734H219.268Z" fill="#BBEC6C"/>
<path d="M219.268 97.8835V99.4736C219.268 100.102 218.585 100.462 218.072 100.156C218.298 100.023 218.461 99.7807 218.461 99.4736V97.8835H219.268Z" fill="#A2E62E"/>
<path d="M201.964 96.6094V97.8952H203.82C204.206 97.8952 204.519 98.2082 204.519 98.5943V102.298C204.519 102.791 204.919 103.191 205.413 103.191C205.906 103.191 206.307 102.791 206.307 102.298V98.5943C206.307 98.2082 206.62 97.8952 207.006 97.8952H219.268V96.6094H201.964Z" fill="#FEE45A"/>
<path d="M218.461 96.6094H219.268V97.8952H218.461V96.6094Z" fill="#FEDF30"/>
<path d="M219.236 96.6974H201.996C201.252 96.6974 200.65 96.095 200.65 95.3518V95.0869C200.65 94.3437 201.252 93.7412 201.996 93.7412H219.236C219.979 93.7412 220.582 94.3437 220.582 95.0869V95.3518C220.582 96.095 219.979 96.6974 219.236 96.6974V96.6974Z" fill="#9E5528"/>
<path d="M220.582 95.0867V95.3517C220.582 96.0951 219.979 96.6973 219.236 96.6973H218.449C219.192 96.6973 219.794 96.0951 219.794 95.3517V95.0867C219.794 94.3438 219.192 93.7412 218.449 93.7412H219.236C219.979 93.7412 220.582 94.3438 220.582 95.0867V95.0867Z" fill="#904D24"/>
<path d="M210.616 86.4385C203.895 86.5357 201.637 90.1815 200.891 92.2998C200.636 93.0256 201.181 93.7853 201.95 93.7853H210.616H219.281C220.057 93.7853 220.594 93.018 220.336 92.2872C219.586 90.167 217.323 86.5355 210.616 86.4385V86.4385Z" fill="#FE9738"/>
<path d="M219.282 93.7853H219.186C219.447 93.4942 219.554 93.0704 219.409 92.6583C218.659 90.5377 216.396 86.9065 209.689 86.8095C207.954 86.8343 206.515 87.0962 205.325 87.5071C206.675 86.8869 208.404 86.4703 210.616 86.4382C217.324 86.5357 219.586 90.1669 220.336 92.287C220.594 93.0179 220.057 93.7853 219.282 93.7853Z" fill="#FE860A"/>
<path d="M207.842 89.5205C207.795 89.5205 207.748 89.5092 207.704 89.4854C207.562 89.409 207.509 89.2324 207.586 89.091L207.847 88.6083C207.923 88.4669 208.1 88.4142 208.241 88.4906C208.383 88.567 208.435 88.7437 208.359 88.8851L208.098 89.3678C208.045 89.4652 207.945 89.5205 207.842 89.5205V89.5205Z" fill="#E57917"/>
<path d="M210.612 89.5534C210.452 89.5534 210.321 89.4231 210.321 89.2623V88.7137C210.321 88.5529 210.452 88.4226 210.612 88.4226C210.773 88.4226 210.903 88.5529 210.903 88.7137V89.2623C210.903 89.4231 210.773 89.5534 210.612 89.5534Z" fill="#E57917"/>
<path d="M213.39 89.5164C213.29 89.5164 213.192 89.4644 213.138 89.3713L212.863 88.8966C212.782 88.7576 212.829 88.5795 212.968 88.4988C213.107 88.4182 213.286 88.4655 213.366 88.6046L213.641 89.0792C213.722 89.2183 213.675 89.3964 213.536 89.477C213.49 89.5037 213.44 89.5164 213.39 89.5164V89.5164Z" fill="#E57917"/>
</g>
<path d="M40.9102 205.025H315.776C317.243 205.025 318.433 203.835 318.433 202.367V202.364C318.433 200.897 317.243 199.707 315.776 199.707H40.9102C39.4425 199.707 38.2526 200.897 38.2526 202.364V202.367C38.2526 203.835 39.4425 205.025 40.9102 205.025Z" fill="#52944F"/>
<path d="M75.9269 146.899L47.3274 199.818H44.1172L70.2855 144.432L75.9269 146.899Z" fill="#1C6020"/>
<path d="M135.053 199.819H131.824L103.847 148.134L109.489 145.667L135.053 199.819Z" fill="#1C6020"/>
<path d="M95.7502 151.387C109.153 151.945 121.305 144.9 125.672 138.66L67.2474 122.654L62.349 68.5239C51.175 69.2427 37.9474 87.106 44.7424 112.616C51.5947 138.313 71.9193 150.393 95.7502 151.387V151.387Z" fill="#357735"/>
<path d="M57.8039 70.0158C59.0585 69.2053 60.4852 68.6991 61.9701 68.5377C63.4549 68.3762 64.957 68.5638 66.3566 69.0856C70.8715 70.7587 77.8326 75.2947 80.6865 87.5801C84.4403 103.797 92.1413 138.401 114.52 140.629C114.52 140.629 86.7144 151.671 67.0119 135.855C47.2339 119.97 39.7141 81.5341 57.8039 70.0158Z" fill="#52944F"/>
<path d="M101.304 148.134L73.3266 199.819H70.0952L95.6625 145.667L101.304 148.134Z" fill="#1C6020"/>
<path d="M154.003 199.818H150.844L119.451 142.925L125.09 140.454L154.003 199.818Z" fill="#1C6020"/>
<path d="M89.3025 69.7205C87.8858 66.3356 83.994 64.7397 80.6099 66.156C77.2258 67.5723 75.6308 71.4645 77.0475 74.8493L85.5948 95.2725C87.0115 98.6574 90.9032 100.253 94.2874 98.8369C97.6715 97.4206 99.2665 93.5285 97.8498 90.1436L89.3025 69.7205Z" fill="#905B3D"/>
<path d="M93.0747 86.6242C89.4274 86.2222 86.1448 88.8524 85.7429 92.4988C85.341 96.1453 87.9718 99.4272 91.6191 99.8292L113.625 102.255C117.273 102.657 120.555 100.027 120.957 96.3803C121.359 92.7338 118.728 89.4519 115.081 89.0499L93.0747 86.6242Z" fill="#905B3D"/>
<path d="M121.768 104.903C124.996 102.749 125.399 97.6833 122.668 93.5889C119.936 89.4945 115.104 87.9216 111.876 90.0756C108.647 92.2296 108.244 97.295 110.976 101.389C113.708 105.484 118.539 107.057 121.768 104.903Z" fill="#905B3D"/>
<path d="M89.3451 64.6434L78.8928 64.6675L78.1801 60.5392C78.1406 60.3109 78.1513 60.0767 78.2116 59.853C78.2719 59.6293 78.3804 59.4215 78.5294 59.244C78.6783 59.0666 78.8643 58.9238 79.0741 58.8257C79.284 58.7275 79.5128 58.6764 79.7445 58.6758L88.3122 58.6577L89.3451 64.6434Z" fill="#F48F4D"/>
<path d="M92.232 65.7154L83.3442 64.296C82.9962 64.2396 82.6744 64.076 82.4238 63.8281C82.1732 63.5801 82.0061 63.2602 81.9459 62.9128L81.5201 60.4485C81.4745 60.1835 81.4927 59.9114 81.5733 59.6548C81.6539 59.3982 81.7946 59.1646 81.9835 58.9733C82.1725 58.7819 82.4044 58.6384 82.6599 58.5546C82.9155 58.4708 83.1873 58.4492 83.4529 58.4915L92.3528 59.9139C92.7011 59.9685 93.0235 60.131 93.2744 60.3787C93.5253 60.6263 93.692 60.9465 93.7511 61.2941L94.1769 63.7584C94.2231 64.0246 94.2048 64.298 94.1235 64.5557C94.0423 64.8133 93.9006 65.0478 93.7101 65.2394C93.5197 65.4311 93.2861 65.5743 93.0289 65.6571C92.7718 65.7399 92.4985 65.7599 92.232 65.7154V65.7154Z" fill="#EF7C3D"/>
<path d="M136.022 167.758C135.651 167.94 135.262 168.086 134.862 168.193C133.438 168.58 131.926 168.483 130.562 167.917C129.199 167.352 128.062 166.349 127.331 165.067L121.659 155.153C121.153 154.269 120.857 153.281 120.792 152.265C120.728 151.249 120.897 150.231 121.287 149.29C121.677 148.35 122.277 147.511 123.041 146.838C123.806 146.166 124.714 145.677 125.697 145.41L132.658 143.514L139.26 159.169C139.924 160.743 139.958 162.512 139.356 164.11C138.753 165.709 137.56 167.015 136.022 167.758V167.758Z" fill="#FFB2BF"/>
<path d="M144.39 186.026C145.394 185.429 146.163 184.507 146.572 183.413C146.981 182.32 147.005 181.119 146.64 180.01L139.924 160.078C139.726 159.481 139.398 158.936 138.962 158.482C138.525 158.029 137.993 157.679 137.404 157.459C136.815 157.239 136.184 157.154 135.557 157.21C134.931 157.266 134.325 157.462 133.784 157.783L128.916 160.679C127.894 161.289 127.024 162.123 126.372 163.119C125.72 164.114 125.302 165.245 125.151 166.426C125 167.606 125.12 168.805 125.5 169.933C125.881 171.061 126.513 172.087 127.348 172.934L137.985 185.096C138.784 185.963 139.856 186.528 141.023 186.698C142.189 186.867 143.378 186.63 144.39 186.026V186.026Z" fill="#905B3D"/>
<path d="M104.548 120.688L115.269 102.266C116.388 100.342 116.757 98.0707 116.304 95.8904C115.851 93.7102 114.608 91.7744 112.813 90.4552C111.019 89.136 108.8 88.5268 106.583 88.7448C104.367 88.9627 102.309 89.9925 100.806 91.636L75.1782 119.656L82.7282 125.215C84.4208 126.462 86.357 127.339 88.4107 127.787C90.4644 128.236 92.5897 128.248 94.6481 127.82C96.7064 127.393 98.6518 126.538 100.357 125.309C102.063 124.08 103.491 122.506 104.548 120.688V120.688Z" fill="#EF7C3D"/>
<path d="M136.849 152.528L122.284 157.964C122.223 157.986 122.158 157.996 122.093 157.992C122.028 157.989 121.965 157.973 121.906 157.945C121.848 157.917 121.796 157.877 121.753 157.829C121.71 157.78 121.677 157.724 121.656 157.662L100.135 99.8443C99.3721 97.791 99.4557 95.5188 100.367 93.5271C101.279 91.5354 102.944 89.9873 104.997 89.223C107.05 88.46 109.321 88.5432 111.312 89.4544C113.303 90.3656 114.851 92.0301 115.616 94.0822L137.136 151.903C137.158 151.963 137.169 152.027 137.166 152.09C137.164 152.154 137.149 152.217 137.122 152.275C137.096 152.333 137.058 152.385 137.011 152.429C136.964 152.472 136.909 152.506 136.849 152.528V152.528Z" fill="#EF7C3D"/>
<path d="M85.1984 58.3768H85.1259C82.3002 58.2869 79.6259 57.0783 77.6912 55.0168C75.7566 52.9553 74.72 50.2097 74.8096 47.384L75.1267 37.3818C75.1602 36.3146 75.4037 35.2646 75.8433 34.2916C76.2828 33.3186 76.9098 32.4418 77.6883 31.7112C78.4669 30.9806 79.3818 30.4106 80.3807 30.0337C81.3796 29.6568 82.4431 29.4804 83.5102 29.5147L85.3886 29.5721C88.4076 29.6683 91.2649 30.9596 93.332 33.162C95.3991 35.3645 96.5068 38.2978 96.4116 41.3168L96.1942 48.0635C96.1027 50.889 94.8931 53.5625 92.8312 55.4964C90.7693 57.4303 88.0239 58.4664 85.1984 58.3768V58.3768Z" fill="#431F49"/>
<path d="M81.2964 55.1455L81.2692 57.2232L81.2088 61.7019C81.2023 62.1754 81.2891 62.6456 81.4643 63.0856C81.6394 63.5256 81.8995 63.9268 82.2297 64.2663C82.56 64.6057 82.9538 64.8768 83.3888 65.0641C83.8238 65.2513 84.2914 65.3511 84.7649 65.3576C85.2384 65.3642 85.7086 65.2774 86.1486 65.1022C86.5886 64.927 86.9898 64.6669 87.3292 64.3367C87.6687 64.0065 87.9398 63.6127 88.127 63.1777C88.3143 62.7427 88.4141 62.2751 88.4206 61.8016V61.3335L88.5021 55.2482C88.5104 54.5193 88.2986 53.8049 87.8945 53.1983C87.4905 52.5916 86.9129 52.1209 86.2371 51.8476C86.0142 51.7595 85.7838 51.6917 85.5486 51.6453C85.0332 51.5545 84.5042 51.5764 83.9981 51.7095C83.492 51.8426 83.0206 52.0837 82.6166 52.4163C82.2125 52.7489 81.8853 53.1651 81.6574 53.6362C81.4295 54.1074 81.3064 54.6222 81.2964 55.1455V55.1455Z" fill="#FFB2BF"/>
<path d="M81.2967 55.1454L81.2695 57.2231C83.0995 59.3917 85.6345 60.8468 88.43 61.3334L88.5115 55.2481C88.5197 54.5192 88.308 53.8048 87.9039 53.1982C87.4998 52.5915 86.9222 52.1208 86.2465 51.8475C86.0236 51.7594 85.7931 51.6916 85.5579 51.6452C85.0419 51.5529 84.5119 51.5737 84.0047 51.7062C83.4974 51.8386 83.0249 52.0795 82.6198 52.4122C82.2147 52.745 81.8866 53.1617 81.6582 53.6335C81.4298 54.1054 81.3064 54.6212 81.2967 55.1454V55.1454Z" fill="#905B3D"/>
<path d="M75.622 38.7891L75.7791 46.6713C75.8109 48.2651 76.1564 49.8371 76.796 51.2974C77.4355 52.7576 78.3566 54.0776 79.5065 55.1817C80.6563 56.2859 82.0125 57.1527 83.4975 57.7325C84.9825 58.3123 86.5672 58.5939 88.1611 58.561C90.6426 58.511 93.0027 57.4777 94.7226 55.6882C96.4425 53.8986 97.3813 51.4994 97.3328 49.0178L97.2029 42.404C97.2029 42.3617 97.2029 42.3225 97.2029 42.2832C97.2029 42.099 97.2029 41.9208 97.1758 41.7426C96.9452 38.5625 95.5143 35.589 93.1732 33.4245C90.832 31.26 87.7556 30.0664 84.5673 30.0854H84.38H83.9844C82.8635 30.1066 81.7577 30.3487 80.7305 30.7978C79.7032 31.2469 78.7746 31.8942 77.9978 32.7027C77.2211 33.5111 76.6114 34.4649 76.2037 35.5092C75.7961 36.5536 75.5984 37.6682 75.622 38.7891Z" fill="#A76D4D"/>
<path d="M89.348 58.4584C91.1278 57.7593 92.6509 56.5319 93.7124 54.9413C94.7738 53.3508 95.3227 51.4733 95.2854 49.5615L95.1555 42.9447C95.1555 42.9024 95.1555 42.8662 95.1555 42.8239C95.1555 42.6427 95.1555 42.4645 95.1253 42.2833C94.8947 39.1032 93.4639 36.1297 91.1227 33.9652C88.7816 31.8007 85.7052 30.607 82.5168 30.6261H82.3416H81.949C81.6123 30.6305 81.2763 30.6577 80.9434 30.7076C81.4068 30.5163 81.887 30.3687 82.3779 30.2667C82.9064 30.1547 83.4443 30.093 83.9845 30.0825H84.3771H84.5523C87.7403 30.0635 90.8164 31.2572 93.1571 33.4218C95.4977 35.5864 96.9279 38.5599 97.1578 41.7397C97.1759 41.9209 97.1849 42.0991 97.191 42.2803V42.4011L97.3208 49.0179C97.365 51.2913 96.5803 53.5031 95.1131 55.2403C93.646 56.9776 91.5968 58.1214 89.348 58.4584V58.4584Z" fill="#915B3D"/>
<path d="M75.5073 40.6403H75.5556C75.5898 40.6375 75.6242 40.6375 75.6583 40.6403V40.5769L75.5073 40.6403Z" fill="#F9E0E5"/>
<path d="M91.2688 45.7925C91.7692 45.7925 92.1748 45.3868 92.1748 44.8865C92.1748 44.3861 91.7692 43.9805 91.2688 43.9805C90.7684 43.9805 90.3628 44.3861 90.3628 44.8865C90.3628 45.3868 90.7684 45.7925 91.2688 45.7925Z" fill="#2C0F33"/>
<path d="M73.6981 68.8742C73.8403 67.267 74.5033 65.7501 75.5865 64.5542C76.6696 63.3582 78.1135 62.5486 79.6989 62.2484C82.0652 61.8163 84.4993 61.9378 86.8108 62.6033C89.1223 63.2689 91.2484 64.4604 93.0227 66.0846C94.7969 67.7088 96.1711 69.7216 97.0378 71.9654C97.9045 74.2093 98.24 76.6233 98.0182 79.0184L96.2968 97.6428C95.4754 106.509 95.8267 115.445 97.3417 124.219L86.2553 126.133C84.3737 126.458 82.4444 126.379 80.5961 125.899C78.7478 125.419 77.0231 124.551 75.5369 123.352C74.0507 122.153 72.8373 120.651 71.9776 118.946C71.1179 117.241 70.6316 115.372 70.5513 113.465C70.3761 109.342 70.3338 105.166 70.6208 102.067L73.6981 68.8742Z" fill="#7C507C"/>
<path d="M83.9724 126.532L91.5436 125.493C90.0336 116.717 95.4696 106.512 96.2971 97.6427L96.4028 96.4951L96.8346 91.8564L98.0185 79.0214C98.2409 76.6225 97.9042 74.2047 97.0348 71.9578C96.1654 69.711 94.787 67.6962 93.0078 66.0718C91.2286 64.4474 89.0971 63.2576 86.7806 62.5958C84.4641 61.9339 82.0257 61.8181 79.6568 62.2574C78.2804 62.5304 77.0093 63.1874 75.9906 64.1526C74.972 65.1178 74.2474 66.3517 73.9007 67.7115C73.8025 68.0931 73.7349 68.4819 73.6984 68.8742L73.04 75.9772L70.7358 100.925L70.627 102.073C70.2191 106.503 70.102 110.955 70.2767 115.4V115.533C70.3501 117.194 70.7769 118.82 71.5286 120.303C72.2802 121.785 73.3395 123.091 74.6356 124.132C75.9318 125.173 77.4351 125.925 79.0451 126.339C80.6552 126.753 82.335 126.819 83.9724 126.532Z" fill="#7C507C"/>
<path d="M73.943 128.263C72.5417 119.736 72.2372 111.064 73.037 102.46L73.1427 101.312L75.4409 76.376L76.0963 69.276C76.1338 68.8826 76.2025 68.4928 76.3016 68.1103C76.645 66.7488 77.3685 65.5131 78.3877 64.5474C79.407 63.5817 80.6798 62.9257 82.0578 62.6562C83.4184 62.4024 84.8067 62.3313 86.1861 62.4448C84.0478 61.9235 81.8227 61.8648 79.6599 62.2726C78.6074 62.4703 77.6115 62.8976 76.7429 63.524C75.8744 64.1503 75.1545 64.9604 74.6346 65.8966C74.3099 66.4703 74.0631 67.0848 73.9007 67.7237C73.8026 68.1074 73.7349 68.4982 73.6984 68.8925L73.0431 75.9925L70.7328 100.941L70.6271 102.088C69.8816 110.182 70.1087 118.336 71.3035 126.375C71.3511 126.673 71.4574 126.959 71.6163 127.216C71.7751 127.472 71.9833 127.695 72.2289 127.87C72.4744 128.046 72.7524 128.171 73.0466 128.238C73.3409 128.306 73.6456 128.314 73.943 128.263V128.263Z" fill="#906691"/>
<path d="M88.9853 66.2801L80.0854 64.8577C79.7372 64.8017 79.4152 64.6383 79.1645 64.3903C78.9138 64.1423 78.7469 63.8221 78.6871 63.4746L78.2613 61.0102C78.2157 60.7452 78.234 60.4731 78.3146 60.2166C78.3952 59.96 78.5358 59.7263 78.7248 59.535C78.9137 59.3437 79.1456 59.2002 79.4012 59.1164C79.6567 59.0326 79.9285 59.011 80.1941 59.0533L89.0941 60.4757C89.4421 60.5321 89.7638 60.6957 90.0144 60.9436C90.2651 61.1916 90.4321 61.5115 90.4923 61.8589L90.9181 64.3232C90.9637 64.5882 90.9455 64.8603 90.8649 65.1169C90.7843 65.3734 90.6437 65.6071 90.4547 65.7984C90.2657 65.9898 90.0338 66.1333 89.7783 66.217C89.5228 66.3008 89.2509 66.3225 88.9853 66.2801V66.2801Z" fill="#F48F4D"/>
<path d="M78.2915 61.1914L78.6871 63.4746C78.7473 63.8219 78.9143 64.1419 79.165 64.3898C79.4156 64.6378 79.7373 64.8013 80.0853 64.8577L88.9853 66.2802C89.408 66.3499 89.8412 66.2524 90.1933 66.0084L81.4836 64.6161C81.1352 64.5606 80.813 64.3973 80.5622 64.1492C80.3114 63.9011 80.1447 63.5807 80.0853 63.233L79.6595 60.7686C79.6033 60.4483 79.6412 60.1185 79.7688 59.8194C79.8964 59.5202 80.1081 59.2646 80.3783 59.0835C80.0914 59.0347 79.7971 59.0558 79.5201 59.1448C79.2431 59.2339 78.9917 59.3883 78.787 59.5951C78.5823 59.8018 78.4304 60.0548 78.3441 60.3327C78.2579 60.6106 78.2398 60.9051 78.2915 61.1914V61.1914Z" fill="#FF9B64"/>
<path d="M102.119 81.3585C103.315 76.359 98.7205 70.9755 91.8571 69.3341C84.9938 67.6927 78.4607 70.415 77.265 75.4145C76.0694 80.4139 80.6639 85.7974 87.5273 87.4388C94.3906 89.0802 100.924 86.358 102.119 81.3585Z" fill="#7C507C"/>
<path d="M88.8287 68.7328C85.9371 66.4737 81.7622 66.9859 79.5036 69.8767C77.245 72.7676 77.7581 76.9424 80.6496 79.2015L98.0959 92.832C100.987 95.0911 105.162 94.579 107.421 91.6882C109.68 88.7973 109.166 84.6224 106.275 82.3633L88.8287 68.7328Z" fill="#A76D4D"/>
<path d="M121.403 74.706L100.149 80.6837C96.6266 81.6744 94.574 85.3325 95.5645 88.8543C96.555 92.3761 100.214 94.428 103.736 93.4372L124.99 87.4595C128.513 86.4688 130.565 82.8107 129.575 79.2889C128.584 75.7671 124.926 73.7152 121.403 74.706Z" fill="#A76D4D"/>
<path d="M133.74 87.4272C135.931 84.2236 134.414 79.3741 130.351 76.5955C126.289 73.8169 121.219 74.1614 119.028 77.3649C116.837 80.5685 118.354 85.4181 122.417 88.1967C126.479 90.9753 131.549 90.6308 133.74 87.4272Z" fill="#A76D4D"/>
<path d="M130.074 78.8229C129.745 78.5986 129.406 78.391 129.056 78.2007C126.64 76.9021 124.019 76.6213 121.89 77.2947C121.705 77.331 121.521 77.3733 121.337 77.4246L118.154 78.3155L105.748 81.8006L103.311 82.4801L100.934 80.6228L88.5519 70.9588C87.3016 69.9824 85.7433 69.4855 84.1586 69.5581C82.5739 69.6306 81.0675 70.2678 79.9117 71.3544C79.4007 71.848 78.7613 72.1881 78.0664 72.3359H78C78.2232 71.2246 78.7269 70.1888 79.4634 69.3272C80.1999 68.4656 81.1445 67.8067 82.2075 67.4132C83.2706 67.0197 84.4166 66.9047 85.5365 67.0792C86.6565 67.2536 87.7133 67.7117 88.6062 68.4099L103.356 79.9342L121.388 74.8878C121.573 74.8358 121.761 74.7935 121.95 74.761C124.381 73.9758 127.471 74.459 130.128 76.271C133.423 78.5239 135.042 82.1358 134.356 85.1286C134 82.8213 132.49 80.4627 130.074 78.8229V78.8229Z" fill="#905B3D"/>
<path d="M116.575 75.3977C116.427 74.8676 115.878 74.558 115.348 74.706C114.819 74.8541 114.51 75.4038 114.659 75.9339L118.873 90.9961C119.021 91.5261 119.57 91.8358 120.099 91.6877C120.629 91.5397 120.937 90.9899 120.789 90.4599L116.575 75.3977Z" fill="#FFDA9A"/>
<path d="M114.467 77.0217C114.319 76.4916 113.769 76.182 113.24 76.33C112.711 76.4781 112.402 77.0278 112.55 77.5579L116.183 90.5436C116.332 91.0736 116.881 91.3833 117.41 91.2352C117.939 91.0872 118.248 90.5374 118.1 90.0074L114.467 77.0217Z" fill="#F48F4D"/>
<path d="M155.16 188.364C154.818 188.637 154.451 188.878 154.063 189.082C152.684 189.816 151.101 190.072 149.561 189.808C148.021 189.545 146.613 188.777 145.556 187.627L131.19 172.013L145.988 164.131L156.482 178.736C157.537 180.205 157.987 182.022 157.741 183.813C157.495 185.605 156.571 187.233 155.16 188.364V188.364Z" fill="#AE7758"/>
<path d="M168.493 197.433C169.19 196.412 169.519 195.184 169.424 193.952C169.33 192.719 168.818 191.556 167.973 190.653L152.632 174.499C152.176 174.013 151.618 173.635 150.997 173.394C150.376 173.153 149.709 173.054 149.045 173.105C148.381 173.156 147.737 173.356 147.16 173.689C146.583 174.022 146.089 174.481 145.713 175.03L142.331 179.98C141.62 181.021 141.155 182.21 140.972 183.457C140.789 184.704 140.892 185.977 141.273 187.178C141.655 188.379 142.305 189.478 143.174 190.391C144.043 191.304 145.109 192.007 146.29 192.447L161.924 199.393C163.078 199.87 164.36 199.936 165.557 199.579C166.753 199.222 167.789 198.464 168.493 197.433V197.433Z" fill="#A76D4D"/>
<path d="M78.1739 137.933L107.634 141.031C109.848 141.264 112.071 140.67 113.874 139.363C115.677 138.057 116.933 136.129 117.401 133.952C117.867 131.775 117.512 129.502 116.404 127.57C115.295 125.638 113.512 124.185 111.397 123.488L75.3351 111.592L71.6175 128.888C71.396 129.918 71.3938 130.983 71.6111 132.014C71.8284 133.045 72.2603 134.019 72.8787 134.872C73.4972 135.725 74.2882 136.439 75.2005 136.966C76.1128 137.493 77.1259 137.823 78.1739 137.933V137.933Z" fill="#F48F4D"/>
<path d="M81.1185 138.519C88.3122 138.519 94.1438 132.687 94.1438 125.493C94.1438 118.3 88.3122 112.468 81.1185 112.468C73.9249 112.468 68.0933 118.3 68.0933 125.493C68.0933 132.687 73.9249 138.519 81.1185 138.519Z" fill="#F48F4D"/>
<path d="M149.31 172.155L140.398 179.403C139.882 179.824 139.22 180.022 138.557 179.955C137.895 179.888 137.286 179.56 136.865 179.044L103.041 137.552C101.715 135.924 101.09 133.836 101.303 131.747C101.515 129.658 102.549 127.739 104.176 126.412L104.705 125.98C105.511 125.323 106.439 124.831 107.435 124.533C108.431 124.235 109.477 124.136 110.511 124.241C111.546 124.347 112.549 124.656 113.465 125.149C114.38 125.643 115.189 126.312 115.846 127.118L149.67 168.61C149.88 168.866 150.037 169.161 150.133 169.478C150.229 169.795 150.261 170.128 150.227 170.457C150.194 170.787 150.096 171.107 149.938 171.398C149.781 171.689 149.568 171.947 149.31 172.155V172.155Z" fill="#F48F4D"/>
<path d="M71.0924 128.199L98.4686 129.181C98.4686 123.419 96.0768 110.197 96.0768 110.197L69.7817 111.028C69.5582 112.314 69.3569 113.605 69.1777 114.899C68.7288 118.372 68.4606 121.866 68.3744 125.366C68.3631 125.732 68.4248 126.096 68.556 126.437C68.6872 126.778 68.8851 127.09 69.1382 127.354C69.3913 127.618 69.6945 127.828 70.0301 127.973C70.3656 128.119 70.7268 128.195 71.0924 128.199V128.199Z" fill="#F48F4D"/>
<path d="M68.646 111.441C68.67 111.759 68.8187 112.055 69.0597 112.263C69.3007 112.472 69.6145 112.577 69.9326 112.556L70.6906 112.498L72.868 112.338L76.338 112.084H76.3652L78.5154 111.927L78.8597 111.9L81.9854 111.671L84.1628 111.511L87.6358 111.26L89.8162 111.106L93.2892 110.849L95.4636 110.689L97.0401 110.574C97.2204 110.561 97.388 110.476 97.5062 110.339C97.6244 110.202 97.6837 110.024 97.6712 109.844L97.5082 107.642C97.4967 107.47 97.42 107.308 97.2938 107.191C97.1676 107.073 97.0013 107.007 96.8287 107.008H94.8264H92.6218H89.1065H86.8989H83.3806H81.176H78.008H77.6577H75.4803H75.4531H71.9348H69.7302H69.6185C69.4527 107.007 69.2887 107.041 69.1365 107.107C68.9844 107.173 68.8474 107.269 68.7341 107.39C68.6208 107.511 68.5336 107.654 68.4779 107.81C68.4222 107.966 68.3993 108.132 68.4105 108.297L68.646 111.441Z" fill="#563951"/>
<path d="M92.6157 106.984L93.2831 110.84L95.4575 110.68L94.8203 106.99L92.6157 106.984Z" fill="#906691"/>
<path d="M86.8931 106.959L87.636 111.257L89.8104 111.097L89.1007 106.969L86.8931 106.959Z" fill="#906691"/>
<path d="M81.1699 106.941L81.9853 111.668L84.1627 111.511L83.3775 106.947L81.1699 106.941Z" fill="#906691"/>
<path d="M75.4473 106.917L76.3412 112.084L76.3653 112.081L78.5156 111.924L77.6519 106.926L75.4744 106.917H75.4473Z" fill="#906691"/>
<path d="M69.7241 106.896L70.6905 112.498L72.8679 112.338L71.9317 106.905L69.7241 106.896Z" fill="#906691"/>
<path d="M128.756 86.1889C129.61 85.0162 128.983 83.1043 127.355 81.9185C125.727 80.7327 123.715 80.7221 122.861 81.8948C122.006 83.0674 122.634 84.9793 124.262 86.1651C125.89 87.3509 127.902 87.3616 128.756 86.1889Z" fill="#9F694A"/>
<path d="M91.4799 40.7671C84.6879 43.1347 78.0529 41.815 76.6607 37.8195C75.2685 33.8241 79.6415 28.6629 86.4304 26.2952C90.2175 24.9755 94.3911 26.0446 97.3387 27.2465C97.8943 27.4729 98.3954 27.8149 98.8086 28.2498C99.2219 28.6847 99.5379 29.2026 99.7355 29.7691C99.9332 30.3355 100.008 30.9376 99.9551 31.5352C99.9022 32.1328 99.7227 32.7123 99.4285 33.2352C97.8672 36.0136 95.2669 39.4443 91.4799 40.7671V40.7671Z" fill="#431F49"/>
<path d="M91.4799 40.7671C84.6879 43.1347 78.0529 41.815 76.6607 37.8195C75.2685 33.8241 79.6415 28.6629 86.4304 26.2952C90.2175 24.9755 94.3911 26.0446 97.3387 27.2465C97.8943 27.4729 98.3954 27.8149 98.8086 28.2498C99.2219 28.6847 99.5379 29.2026 99.7355 29.7691C99.9332 30.3355 100.008 30.9376 99.9551 31.5352C99.9022 32.1328 99.7227 32.7123 99.4285 33.2352C97.8672 36.0136 95.2669 39.4443 91.4799 40.7671V40.7671Z" fill="#431F49"/>
<path d="M99.4288 33.2382C98.5755 34.7868 97.5315 36.2225 96.3213 37.5115C97.0069 36.6213 97.6257 35.6815 98.1725 34.6999C98.4667 34.177 98.6462 33.5975 98.6991 32.9999C98.7521 32.4023 98.6772 31.8002 98.4795 31.2338C98.2819 30.6673 97.9659 30.1494 97.5527 29.7145C97.1394 29.2796 96.6383 28.9376 96.0827 28.7113C93.1321 27.5033 88.9615 26.4372 85.1744 27.7569C82.4759 28.6584 80.01 30.1455 77.9536 32.1118C79.666 29.7652 82.6799 27.6059 86.4308 26.2953C90.1816 24.9846 94.3915 26.0446 97.339 27.2496C97.8946 27.4759 98.3957 27.8179 98.809 28.2528C99.2222 28.6878 99.5382 29.2057 99.7359 29.7721C99.9335 30.3386 100.008 30.9406 99.9555 31.5382C99.9025 32.1358 99.723 32.7153 99.4288 33.2382V33.2382Z" fill="#63356D"/>
<path d="M79.3006 42.1291C83.0851 42.1291 86.153 39.0612 86.153 35.2767C86.153 31.4922 83.0851 28.4243 79.3006 28.4243C75.5162 28.4243 72.4482 31.4922 72.4482 35.2767C72.4482 39.0612 75.5162 42.1291 79.3006 42.1291Z" fill="#431F49"/>
<path d="M80.5106 42.1446C80.9692 38.2872 79.0759 34.8909 76.2819 34.5587C73.4878 34.2265 70.851 37.0842 70.3924 40.9416C69.9338 44.799 71.8271 48.1953 74.6211 48.5275C77.4152 48.8597 80.052 46.0019 80.5106 42.1446Z" fill="#431F49"/>
<path d="M79.3006 42.1291C83.0851 42.1291 86.153 39.0612 86.153 35.2767C86.153 31.4922 83.0851 28.4243 79.3006 28.4243C75.5162 28.4243 72.4482 31.4922 72.4482 35.2767C72.4482 39.0612 75.5162 42.1291 79.3006 42.1291Z" fill="#431F49"/>
<path d="M80.5106 42.1446C80.9692 38.2872 79.0759 34.8909 76.2819 34.5587C73.4878 34.2265 70.851 37.0842 70.3924 40.9416C69.9338 44.799 71.8271 48.1953 74.6211 48.5275C77.4152 48.8597 80.052 46.0019 80.5106 42.1446Z" fill="#431F49"/>
<path d="M85.3797 32.118C84.3174 31.2546 83.021 30.7289 81.6574 30.6088C80.2938 30.4887 78.9254 30.7795 77.7285 31.4439C76.5317 32.1083 75.5611 33.1158 74.9419 34.3366C74.3226 35.5574 74.0831 36.9357 74.254 38.2939C74.0197 38.544 73.8046 38.8115 73.6107 39.0942C72.8037 40.2901 72.3 41.6645 72.143 43.0987C71.9284 44.7171 72.1733 46.3633 72.8497 47.8492C71.077 46.611 70.0381 43.9232 70.3914 40.9485C70.5724 39.1642 71.3122 37.4826 72.5054 36.1436C72.3025 34.5478 72.6675 32.9314 73.5364 31.5776C74.4054 30.2238 75.723 29.2189 77.2585 28.7389C78.7939 28.2589 80.4492 28.3344 81.9346 28.9522C83.4199 29.57 84.6406 30.6907 85.3827 32.118H85.3797Z" fill="#2C0F33"/>
<path d="M76.1898 48.1782C78.288 48.1782 79.9889 46.4772 79.9889 44.379C79.9889 42.2808 78.288 40.5798 76.1898 40.5798C74.0916 40.5798 72.3906 42.2808 72.3906 44.379C72.3906 46.4772 74.0916 48.1782 76.1898 48.1782Z" fill="#AE7758"/>
<path d="M75.9001 48.1693C76.3249 51.0957 77.8037 53.7663 80.0587 55.6793C82.3137 57.5923 85.1897 58.616 88.1462 58.5581C89.4747 58.5333 90.7824 58.2244 91.9816 57.6521C91.1667 57.9011 90.3209 58.0343 89.469 58.0477C86.574 58.1051 83.754 57.1254 81.5182 55.2856C79.2824 53.4457 77.7782 50.8671 77.2772 48.0153C77.2561 47.8975 77.238 47.7797 77.2229 47.6589C76.7299 47.6201 76.249 47.4868 75.8065 47.2663C75.1994 46.9639 74.6841 46.5047 74.3141 45.9362C73.9441 45.3677 73.7327 44.7107 73.7019 44.0331C73.6711 43.3555 73.822 42.682 74.1389 42.0824C74.4558 41.4827 74.9273 40.9786 75.5045 40.6223C74.5976 40.7903 73.7827 41.2823 73.2116 42.0065C72.6405 42.7307 72.3522 43.6378 72.4002 44.5589C72.4482 45.4799 72.8294 46.3521 73.4727 47.013C74.116 47.6739 74.9777 48.0784 75.8971 48.1512L75.9001 48.1693Z" fill="#9F694A"/>
<path d="M79.0351 44.2683C79.1001 43.956 79.2557 43.6698 79.4823 43.4453C79.7089 43.2208 79.9966 43.068 80.3095 43.006C80.3844 42.9939 80.461 43.0002 80.5329 43.0246C80.6047 43.0489 80.6695 43.0904 80.7216 43.1455C80.7737 43.2006 80.8115 43.2676 80.8318 43.3406C80.8521 43.4137 80.8542 43.4906 80.838 43.5647L80.4061 45.6303C80.3902 45.708 80.3548 45.7804 80.3033 45.8406C80.2518 45.9009 80.1858 45.947 80.1116 45.9748C80.0373 46.0026 79.9572 46.011 79.8788 45.9994C79.8004 45.9877 79.7262 45.9563 79.6632 45.9082C79.4116 45.7245 79.2184 45.472 79.1069 45.181C78.9955 44.8901 78.9705 44.5731 79.0351 44.2683V44.2683Z" fill="#9F694A"/>
<path d="M130.562 165.188C131.32 166.117 132.687 166.257 133.616 165.5C134.545 164.743 134.684 163.376 133.926 162.446L117.732 142.576C116.974 141.646 115.607 141.506 114.678 142.263C113.749 143.021 113.61 144.388 114.368 145.318L130.562 165.188Z" fill="#FF9B64"/>
<path d="M262.596 57.6338C267.653 57.6338 271.753 52.873 271.753 47.0004C271.753 41.1277 267.653 36.3669 262.596 36.3669C257.539 36.3669 253.439 41.1277 253.439 47.0004C253.439 52.873 257.539 57.6338 262.596 57.6338Z" fill="#431F49"/>
<path d="M282.344 146.899L310.944 199.818H314.154L287.986 144.432L282.344 146.899Z" fill="#1C6020"/>
<path d="M223.218 199.819H226.447L254.424 148.134L248.783 145.667L223.218 199.819Z" fill="#1C6020"/>
<path d="M262.524 151.387C249.121 151.945 233.438 141.034 229.071 134.798L291.024 122.648L295.922 68.5239C307.096 69.2427 320.324 87.106 313.532 112.616C306.679 138.313 286.352 150.393 262.524 151.387Z" fill="#357735"/>
<path d="M300.476 70.016C299.221 69.2057 297.794 68.6996 296.308 68.5382C294.823 68.3767 293.32 68.5642 291.92 69.0858C287.408 70.7589 280.444 75.2949 277.59 87.5803C273.831 103.798 242.773 127.659 243.766 140.63C243.766 140.63 271.569 151.671 291.274 135.855C311.049 119.97 318.557 81.5342 300.476 70.016V70.016Z" fill="#52944F"/>
<path d="M256.967 148.134L284.944 199.819H288.175L262.608 145.667L256.967 148.134Z" fill="#1C6020"/>
<path d="M197.455 199.819H200.614L239.415 134.472L233.777 132.001L197.455 199.819Z" fill="#1C6020"/>
<path d="M279.662 74.8116C286.35 74.8116 291.772 68.0768 291.772 59.7689C291.772 51.4611 286.35 44.7263 279.662 44.7263C272.974 44.7263 267.552 51.4611 267.552 59.7689C267.552 68.0768 272.974 74.8116 279.662 74.8116Z" fill="#431F49"/>
<path d="M264.574 81.7515C271.262 81.7515 276.684 75.0167 276.684 66.7089C276.684 58.4011 271.262 51.6663 264.574 51.6663C257.886 51.6663 252.464 58.4011 252.464 66.7089C252.464 75.0167 257.886 81.7515 264.574 81.7515Z" fill="#431F49"/>
<path d="M286.08 92.0347C294.388 92.0347 301.122 85.2999 301.122 76.9921C301.122 68.6843 294.388 61.9495 286.08 61.9495C277.772 61.9495 271.037 68.6843 271.037 76.9921C271.037 85.2999 277.772 92.0347 286.08 92.0347Z" fill="#431F49"/>
<path d="M279.662 74.8116C286.35 74.8116 291.772 68.0768 291.772 59.7689C291.772 51.4611 286.35 44.7263 279.662 44.7263C272.974 44.7263 267.552 51.4611 267.552 59.7689C267.552 68.0768 272.974 74.8116 279.662 74.8116Z" fill="#431F49"/>
<path d="M286.08 92.0347C294.388 92.0347 301.122 85.2999 301.122 76.9921C301.122 68.6843 294.388 61.9495 286.08 61.9495C277.772 61.9495 271.037 68.6843 271.037 76.9921C271.037 85.2999 277.772 92.0347 286.08 92.0347Z" fill="#431F49"/>
<path d="M301.125 76.9799C301.127 79.0909 300.684 81.1787 299.824 83.1067C298.965 85.0348 297.708 86.7598 296.136 88.169C297.434 86.4041 298.33 84.3772 298.763 82.2298C299.196 80.0825 299.154 77.8666 298.642 75.7369C298.129 73.6072 297.158 71.6151 295.796 69.8997C294.433 68.1844 292.713 66.7873 290.754 65.8059C290.326 65.6045 289.887 65.4133 289.438 65.2321C289.602 64.2934 289.693 63.3432 289.71 62.3903C289.71 62.2755 289.71 62.1607 289.71 62.046C289.71 53.7349 284.274 47.0003 277.599 47.0003C275.024 47.0244 272.546 47.9914 270.635 49.7183C272.855 46.644 276.071 44.7112 279.659 44.7112C286.345 44.7112 291.769 51.4458 291.769 59.7538C291.771 60.8218 291.679 61.8879 291.494 62.9399C294.33 64.034 296.767 65.9609 298.486 68.467C300.205 70.9731 301.125 73.9409 301.125 76.9799V76.9799Z" fill="#2C0F33"/>
<path d="M263.103 83.8087C266.419 81.2725 267.051 76.5283 264.515 73.2122C261.979 69.8962 257.235 69.264 253.919 71.8002L234.697 86.5016C231.381 89.0378 230.749 93.782 233.285 97.0981C235.821 100.414 240.565 101.046 243.881 98.5101L263.103 83.8087Z" fill="#FFB2BF"/>
<path d="M279.729 80.0574C283.174 79.8525 285.821 77.228 285.641 74.1954C285.46 71.1628 282.521 68.8705 279.076 69.0754L259.105 70.2632C255.66 70.4681 253.013 73.0927 253.194 76.1253C253.374 79.1579 256.313 81.4502 259.758 81.2453L279.729 80.0574Z" fill="#FFB2BF"/>
<path d="M223.281 75.0155C226.41 76.3807 230.054 74.9506 231.419 71.8212C232.784 68.6919 231.354 65.0483 228.225 63.6831L223.267 61.5202C220.138 60.155 216.494 61.5851 215.129 64.7145C213.764 67.8438 215.194 71.4874 218.323 72.8526L223.281 75.0155Z" fill="#EF948C"/>
<path d="M231.734 67.1888C230.133 64.1358 226.36 62.9588 223.308 64.5599C220.256 66.161 219.08 69.9339 220.681 72.9869L233.146 96.7487C234.747 99.8017 238.52 100.979 241.572 99.3776C244.624 97.7765 245.8 94.0036 244.199 90.9506L231.734 67.1888Z" fill="#FFB2BF"/>
<path d="M223.281 75.0155C226.41 76.3807 230.054 74.9506 231.419 71.8212C232.784 68.6919 231.354 65.0483 228.225 63.6831L223.267 61.5202C220.138 60.155 216.494 61.5851 215.129 64.7145C213.764 67.8438 215.194 71.4874 218.323 72.8526L223.281 75.0155Z" fill="#FFB2BF"/>
<path d="M265.36 81.0178C264.848 82.1154 264.077 83.072 263.113 83.8052L243.894 98.5066C242.626 99.4787 241.082 100.022 239.484 100.059C238.319 100.214 237.134 100.036 236.065 99.5469C234.997 99.0575 234.088 98.276 233.444 97.2926C230.995 93.9132 221.274 74.1473 221.274 74.1473L218.32 72.8547C217.576 72.5311 216.902 72.0638 216.338 71.4795C215.774 70.8953 215.331 70.2055 215.035 69.4497C214.738 68.694 214.593 67.8871 214.609 67.0753C214.624 66.2635 214.8 65.4627 215.125 64.7189C215.352 64.2014 215.648 63.7169 216.004 63.2783C216.004 63.2783 216.004 63.2934 216.004 63.3025C215.641 64.1256 215.465 65.0186 215.487 65.9178C215.514 67.0959 215.878 68.2418 216.534 69.2204C217.191 70.199 218.113 70.9696 219.193 71.4414L220.238 71.8974L222.153 72.7309L223.361 75.0563C223.361 75.0563 234.202 95.7071 234.311 95.8732C235.038 96.7677 235.961 97.4835 237.008 97.9652C238.055 98.4469 239.199 98.6817 240.351 98.6516C241.418 98.6265 242.468 98.3753 243.432 97.9147C243.9 97.6878 244.344 97.4146 244.757 97.0993L263.983 82.3979C264.5 81.9998 264.963 81.5358 265.36 81.0178V81.0178Z" fill="#F9A0B4"/>
<path d="M225.342 67.305C226.475 67.7992 227.794 67.2821 228.287 66.1501C228.781 65.018 228.263 63.6997 227.131 63.2055L215.657 58.2C214.524 57.7058 213.205 58.2229 212.712 59.3549C212.218 60.4869 212.736 61.8053 213.868 62.2995L225.342 67.305Z" fill="#FFB2BF"/>
<path d="M226.144 66.9091C226.826 67.94 228.213 68.2233 229.244 67.542C230.274 66.8607 230.556 65.4727 229.874 64.4418L226.034 58.6357C225.353 57.6049 223.965 57.3215 222.935 58.0028C221.904 58.6842 221.622 60.0722 222.304 61.103L226.144 66.9091Z" fill="#FFB2BF"/>
<path d="M276.053 70.7605L276.051 70.7623C272.735 73.3289 272.127 78.0975 274.694 81.4134L289.576 100.641C292.143 103.957 296.911 104.564 300.227 101.998L300.229 101.996C303.545 99.4293 304.153 94.6607 301.586 91.3448L286.704 72.1174C284.138 68.8015 279.369 68.194 276.053 70.7605Z" fill="#FFB2BF"/>
<path d="M282.934 122.714L255.428 122.662L255.5 84.9872L283.006 85.04L282.934 122.714Z" fill="#69C0D7"/>
<path d="M283.005 85.0373L255.499 84.9829L255.481 94.0973L282.993 91.7749L283.005 85.0373Z" fill="#58B1C6"/>
<path d="M256.195 89.8089L278.881 89.8525C283.249 89.8609 286.797 86.3272 286.806 81.9598C286.814 77.5924 283.28 74.0452 278.912 74.0368L256.225 73.9932C251.857 73.9848 248.309 77.5185 248.301 81.8859C248.292 86.2533 251.827 89.8006 256.195 89.8089Z" fill="#69C0D7"/>
<path d="M284.805 87.2783C284.115 88.0852 283.258 88.7332 282.294 89.1778C281.329 89.6225 280.28 89.8533 279.218 89.8544L255.798 89.809C251.655 89.809 248.305 86.3119 248.314 82.0144V81.7577C248.314 77.5297 251.585 74.09 255.638 73.9963C254.394 75.4371 253.712 77.2783 253.717 79.1817V79.4414C253.717 83.7358 257.057 87.23 261.198 87.236L284.621 87.2813L284.805 87.2783Z" fill="#58B1C6"/>
<path d="M226.664 71.5379C229.097 71.5379 231.07 69.5652 231.07 67.1318C231.07 64.6983 229.097 62.7256 226.664 62.7256C224.231 62.7256 222.258 64.6983 222.258 67.1318C222.258 69.5652 224.231 71.5379 226.664 71.5379Z" fill="#FFB2BF"/>
<path d="M264.586 60.3097L264.571 68.3761C264.57 68.9575 264.684 69.5334 264.905 70.0709C265.127 70.6085 265.452 71.0971 265.863 71.5089C266.273 71.9207 266.761 72.2477 267.297 72.4711C267.834 72.6945 268.41 72.81 268.991 72.811C269.572 72.812 270.148 72.6984 270.686 72.4769C271.223 72.2553 271.712 71.93 272.124 71.5196C272.536 71.1092 272.863 70.6217 273.086 70.0849C273.309 69.5481 273.425 68.9726 273.426 68.3912V60.3248C273.427 59.7434 273.313 59.1675 273.092 58.6299C272.87 58.0924 272.545 57.6038 272.135 57.192C271.724 56.7802 271.237 56.4532 270.7 56.2298C270.163 56.0064 269.588 55.8909 269.006 55.8899C268.425 55.8889 267.849 56.0024 267.311 56.224C266.774 56.4456 266.285 56.7709 265.873 57.1813C265.462 57.5917 265.135 58.0792 264.911 58.616C264.688 59.1528 264.572 59.7283 264.571 60.3097H264.586Z" fill="#FFB2BF"/>
<path d="M264.586 60.3097V66.5158C265.999 66.8132 267.44 66.964 268.884 66.9658C270.413 66.9698 271.939 66.8048 273.432 66.4735V60.3248C273.433 59.7434 273.319 59.1675 273.098 58.6299C272.876 58.0924 272.551 57.6038 272.14 57.192C271.312 56.3603 270.186 55.8919 269.012 55.8899C268.431 55.8889 267.855 56.0024 267.317 56.224C266.78 56.4456 266.291 56.7709 265.879 57.1813C265.048 58.0102 264.579 59.1355 264.577 60.3097H264.586Z" fill="#F9A0B4"/>
<path d="M258.251 42.3014L258.287 44.651L258.308 46.2576L258.441 55.7857C258.477 58.233 259.483 60.5658 261.239 62.2711C262.994 63.9764 265.356 64.9144 267.803 64.8789C269.817 64.851 271.806 64.4266 273.655 63.6299C275.505 62.8333 277.18 61.6801 278.584 60.2361C279.989 58.7921 281.095 57.0856 281.839 55.2142C282.584 53.3427 282.952 51.3429 282.924 49.329L282.827 42.6245C282.797 40.412 281.889 38.302 280.304 36.7587C278.718 35.2154 276.584 34.3652 274.371 34.395L267.507 34.4917L265.843 34.5128C264.833 34.5254 263.835 34.7369 262.907 35.1352C261.979 35.5335 261.138 36.1108 260.433 36.8341C259.728 37.5574 259.172 38.4125 258.798 39.3506C258.423 40.2887 258.237 41.2914 258.251 42.3014Z" fill="#FFB2BF"/>
<path d="M268.633 64.8427C268.356 64.8638 268.075 64.8759 267.794 64.8789C266.582 64.8969 265.378 64.6758 264.251 64.2283C263.125 63.7808 262.097 63.1157 261.228 62.2709C260.358 61.4262 259.664 60.4183 259.184 59.3051C258.704 58.1918 258.449 56.9948 258.432 55.7827L258.296 46.2606L258.275 44.651L258.239 42.3044C258.225 41.2955 258.409 40.2937 258.783 39.3562C259.156 38.4187 259.71 37.5639 260.414 36.8407C261.117 36.1174 261.957 35.5398 262.884 35.1409C263.81 34.7421 264.807 34.5297 265.816 34.5159H266.692C264.739 34.6604 262.916 35.5448 261.594 36.9885C260.272 38.4322 259.552 40.3261 259.579 42.2833L259.613 44.6298L259.634 46.2395L259.767 55.7646C259.803 58.1246 260.743 60.3808 262.392 62.0693C264.041 63.7578 266.275 64.7503 268.633 64.8427V64.8427Z" fill="#FDC3CD"/>
<path d="M262.881 51.3869C262.882 50.8549 262.491 50.4228 262.007 50.4219C261.523 50.4209 261.13 50.8515 261.129 51.3835C261.128 51.9156 261.52 52.3477 262.003 52.3486C262.487 52.3495 262.88 51.919 262.881 51.3869Z" fill="#230D30"/>
<path d="M269.52 51.3991C269.521 50.8671 269.129 50.435 268.646 50.4341C268.162 50.4331 267.769 50.8637 267.768 51.3958C267.767 51.9278 268.158 52.3599 268.642 52.3608C269.126 52.3617 269.519 51.9312 269.52 51.3991Z" fill="#230D30"/>
<path d="M282.277 55.9155C284.432 55.9155 286.179 54.1686 286.179 52.0136C286.179 49.8587 284.432 48.1118 282.277 48.1118C280.122 48.1118 278.375 49.8587 278.375 52.0136C278.375 54.1686 280.122 55.9155 282.277 55.9155Z" fill="#FFB2BF"/>
<path d="M283.447 52.0589C283.445 52.3904 283.346 52.7142 283.162 52.9898C282.978 53.2654 282.717 53.4805 282.411 53.6082C282.337 53.6357 282.258 53.6449 282.18 53.6348C282.102 53.6248 282.028 53.596 281.963 53.5507C281.899 53.5055 281.847 53.4453 281.811 53.3753C281.775 53.3054 281.757 53.2277 281.758 53.1492V50.9597C281.758 50.8773 281.779 50.7964 281.819 50.7243C281.859 50.6523 281.916 50.5916 281.986 50.5478C282.056 50.504 282.135 50.4787 282.218 50.4741C282.3 50.4696 282.382 50.486 282.456 50.5218C282.751 50.6555 283.002 50.8716 283.178 51.1443C283.354 51.417 283.447 51.7346 283.447 52.0589V52.0589Z" fill="#F9A0B4"/>
<path d="M218.338 122.54L218.063 123.358C218.142 123.08 218.236 122.806 218.338 122.54Z" fill="#FFB2BF"/>
<path d="M219.782 125.052L219.513 125.859C219.589 125.602 219.676 125.318 219.782 125.052Z" fill="#FFB2BF"/>
<path d="M219.782 125.052L219.513 125.859C219.589 125.602 219.676 125.318 219.782 125.052Z" fill="#FFB2BF"/>
<path d="M219.782 125.052L219.513 125.859C219.589 125.602 219.676 125.318 219.782 125.052Z" fill="#FFB2BF"/>
<path d="M229.291 140.4H256.713C260.478 140.4 264.088 138.905 266.75 136.243C269.412 133.581 270.907 129.97 270.907 126.206V122.742C270.904 121.658 270.471 120.62 269.705 119.854C268.938 119.088 267.899 118.658 266.815 118.656H229.291C226.408 118.656 223.643 119.801 221.604 121.84C219.565 123.879 218.419 126.645 218.419 129.528C218.419 132.411 219.565 135.177 221.604 137.216C223.643 139.255 226.408 140.4 229.291 140.4V140.4Z" fill="#4C3964"/>
<path d="M198.506 170.996C198.863 171.249 199.242 171.469 199.639 171.654C201.057 172.31 202.652 172.477 204.175 172.129C205.699 171.781 207.063 170.937 208.055 169.73L221.524 153.347L206.325 146.295L196.661 161.455C195.688 162.979 195.337 164.818 195.68 166.594C196.024 168.369 197.035 169.944 198.506 170.996V170.996Z" fill="#F9A0B4"/>
<path d="M186.525 188.569C185.585 187.767 184.946 186.668 184.714 185.455C184.482 184.241 184.67 182.984 185.248 181.892L195.818 162.277C196.129 161.688 196.569 161.177 197.104 160.781C197.64 160.386 198.257 160.115 198.911 159.989C199.565 159.864 200.238 159.887 200.882 160.056C201.526 160.226 202.124 160.538 202.631 160.969L207.179 164.862C208.138 165.679 208.899 166.704 209.404 167.859C209.908 169.014 210.144 170.268 210.092 171.527C210.039 172.787 209.701 174.017 209.103 175.127C208.505 176.236 207.662 177.194 206.639 177.929L193.375 188.72C192.389 189.484 191.17 189.887 189.923 189.859C188.676 189.832 187.476 189.376 186.525 188.569Z" fill="#F9A0B4"/>
<path opacity="0.38" d="M186.526 188.569C187.251 189.19 188.129 189.607 189.068 189.777L188.987 189.71C188.047 188.909 187.409 187.811 187.177 186.598C186.945 185.384 187.132 184.128 187.709 183.036L195.978 167.671L198.264 163.418C198.574 162.825 199.014 162.309 199.551 161.908L200.759 160.015L208.786 147.427L206.328 146.286L197.087 160.782C196.55 161.175 196.11 161.685 195.8 162.274L185.23 181.904C184.657 182.997 184.474 184.252 184.709 185.464C184.945 186.675 185.585 187.77 186.526 188.569V188.569Z" fill="#F9E0E5"/>
<path d="M205.941 146.156L221.089 153.326L236.603 134.738C237.438 133.705 238.053 132.513 238.413 131.235C238.772 129.956 238.867 128.618 238.693 127.302C238.518 125.986 238.078 124.719 237.398 123.578C236.718 122.437 235.813 121.447 234.738 120.667C233.664 119.887 232.441 119.335 231.146 119.042C229.851 118.75 228.51 118.725 227.204 118.967C225.899 119.21 224.656 119.716 223.553 120.454C222.449 121.192 221.507 122.148 220.784 123.262L205.941 146.156Z" fill="#4C3964"/>
<path d="M219.89 157.228L204.524 147.129L205.992 141.382L224.586 153.601L219.89 157.228Z" fill="#3B2FB2"/>
<path d="M283.002 126.206C283.038 130.016 281.603 133.694 278.998 136.474C276.866 138.769 273.944 140.171 270.82 140.4H270.681C270.463 140.4 270.243 140.418 270.022 140.418H244.956C243.626 140.409 242.313 140.12 241.102 139.571C239.89 139.022 238.807 138.225 237.923 137.232C236.633 135.807 235.733 134.073 235.311 132.198C235.12 131.381 235.019 130.547 235.009 129.709C234.921 123.633 239.584 118.659 245.141 118.659H283.002V126.206Z" fill="#5240BF"/>
<path d="M259.362 179.017C259.779 178.889 260.183 178.723 260.57 178.521C261.959 177.8 263.07 176.637 263.726 175.215C264.382 173.794 264.546 172.195 264.194 170.669L259.444 149.998L244.576 157.729L250.68 174.641C251.291 176.344 252.532 177.747 254.148 178.561C255.763 179.376 257.63 179.539 259.362 179.017V179.017Z" fill="#FFB2BF"/>
<path d="M244.573 157.741L259.44 150.01L254.004 126.414C253.692 125.119 253.118 123.902 252.318 122.836C251.518 121.771 250.509 120.88 249.353 120.218C248.197 119.556 246.917 119.137 245.593 118.988C244.269 118.838 242.929 118.96 241.654 119.346C240.379 119.733 239.196 120.376 238.178 121.236C237.161 122.095 236.329 123.154 235.735 124.347C235.141 125.539 234.796 126.84 234.723 128.171C234.649 129.501 234.848 130.832 235.308 132.083L244.573 157.741Z" fill="#5240BF"/>
<path d="M244.576 157.741L247.318 156.315L238.062 130.645C237.34 128.666 237.277 126.506 237.881 124.488C238.485 122.469 239.724 120.699 241.414 119.441C240.174 119.855 239.029 120.514 238.048 121.377C237.066 122.241 236.268 123.293 235.699 124.471C235.131 125.648 234.804 126.928 234.738 128.234C234.673 129.539 234.869 130.845 235.317 132.074L244.576 157.741Z" fill="#4F40DD"/>
<path d="M265.966 199.233C264.757 199.488 263.497 199.324 262.393 198.768C261.29 198.211 260.409 197.295 259.896 196.17L250.803 175.837C250.527 175.231 250.391 174.57 250.405 173.904C250.418 173.238 250.581 172.584 250.882 171.989C251.182 171.395 251.612 170.875 252.14 170.469C252.668 170.063 253.28 169.781 253.932 169.643L259.797 168.402C261.029 168.141 262.305 168.164 263.527 168.47C264.749 168.775 265.885 169.355 266.85 170.165C267.815 170.975 268.582 171.994 269.095 173.144C269.607 174.295 269.851 175.547 269.808 176.806L270.267 193.902C270.27 195.149 269.845 196.36 269.062 197.33C268.279 198.3 267.186 198.972 265.966 199.233V199.233Z" fill="#FFB2BF"/>
<path opacity="0.38" d="M265.967 199.233C266.901 199.037 267.766 198.596 268.473 197.955L268.371 197.982C267.162 198.237 265.902 198.072 264.799 197.515C263.696 196.958 262.816 196.041 262.303 194.917L255.182 178.987L253.213 174.58C252.934 173.974 252.797 173.312 252.812 172.645L252.051 170.531L246.98 156.488L244.564 157.738L250.393 173.901C250.378 174.566 250.514 175.226 250.791 175.831L259.884 196.167C260.397 197.295 261.28 198.213 262.386 198.771C263.492 199.328 264.755 199.491 265.967 199.233V199.233Z" fill="#F9E0E5"/>
<path d="M240.798 154.818L244.491 159.459L247.85 158.269L261.826 153.32L261.775 147.391L246.101 152.942L240.798 154.818Z" fill="#4C3964"/>
<path d="M255.448 111.568H283.003V118.644H255.273L255.448 111.568Z" fill="#5240BF"/>
<path d="M266.551 95.5562C267.787 95.4455 268.699 94.3538 268.588 93.1178C268.477 91.8818 267.386 90.9697 266.15 91.0804L259.183 91.7046C257.947 91.8153 257.035 92.9071 257.146 94.143C257.257 95.379 258.348 96.2912 259.584 96.1804L266.551 95.5562Z" fill="#E1617F"/>
<path d="M267.023 99.6391C269.467 99.6391 271.448 97.6583 271.448 95.2148C271.448 92.7714 269.467 90.7905 267.023 90.7905C264.58 90.7905 262.599 92.7714 262.599 95.2148C262.599 97.6583 264.58 99.6391 267.023 99.6391Z" fill="#E1617F"/>
<path d="M272.344 101.973C275.045 99.8575 275.52 95.9535 273.405 93.2531C271.29 90.5528 267.386 90.0788 264.685 92.1943L260.41 95.5426C257.709 97.6581 257.234 101.562 259.349 104.262C261.464 106.963 265.369 107.437 268.07 105.321L272.344 101.973Z" fill="#EF948C"/>
<path d="M266.511 96.4743C267.488 95.7091 267.659 94.2968 266.894 93.3199C266.129 92.343 264.717 92.1713 263.74 92.9365L253.838 100.693C252.861 101.458 252.689 102.87 253.454 103.847C254.219 104.824 255.632 104.996 256.609 104.23L266.511 96.4743Z" fill="#EF948C"/>
<path d="M266.551 95.5562C267.787 95.4455 268.699 94.3538 268.588 93.1178C268.477 91.8818 267.386 90.9697 266.15 91.0804L259.183 91.7046C257.947 91.8153 257.035 92.9071 257.146 94.143C257.257 95.379 258.348 96.2912 259.584 96.1804L266.551 95.5562Z" fill="#FFB2BF"/>
<path d="M267.023 99.6391C269.467 99.6391 271.448 97.6583 271.448 95.2148C271.448 92.7714 269.467 90.7905 267.023 90.7905C264.58 90.7905 262.599 92.7714 262.599 95.2148C262.599 97.6583 264.58 99.6391 267.023 99.6391Z" fill="#FFB2BF"/>
<path d="M269.948 89.9544C266.256 89.9105 263.227 92.8683 263.183 96.5608C263.139 100.253 266.097 103.282 269.789 103.326L295.914 103.636C299.606 103.68 302.635 100.722 302.679 97.0295C302.722 93.3371 299.765 90.3082 296.072 90.2644L269.948 89.9544Z" fill="#FFB2BF"/>
<path d="M272.344 101.973C275.045 99.8575 275.52 95.9535 273.405 93.2531C271.29 90.5528 267.386 90.0788 264.685 92.1943L260.41 95.5426C257.709 97.6581 257.234 101.562 259.349 104.262C261.464 106.963 265.369 107.437 268.07 105.321L272.344 101.973Z" fill="#FFB2BF"/>
<path d="M303.176 95.8339C303.225 97.8445 302.473 99.7922 301.086 101.249C300.451 102.002 299.658 102.604 298.762 103.014C297.867 103.423 296.891 103.629 295.907 103.616L270.648 103.314L268.099 105.311C266.947 106.211 265.515 106.677 264.054 106.626C262.593 106.574 261.196 106.009 260.111 105.03C261.132 105.46 262.25 105.61 263.348 105.463C264.447 105.317 265.486 104.879 266.359 104.196L267.869 103.003L268.896 102.2L272.01 102.236L291.591 102.469L294.152 102.499C295.139 102.512 296.117 102.305 297.014 101.894C297.911 101.483 298.706 100.878 299.341 100.122C300.726 98.666 301.476 96.7196 301.427 94.7105C301.384 93.0993 300.83 91.5436 299.845 90.2681L284.965 71.0428C284.644 70.6235 284.278 70.2398 283.875 69.8982C284.992 70.4066 285.968 71.1787 286.72 72.1481L301.6 91.3764C302.588 92.6557 303.14 94.2178 303.176 95.8339V95.8339Z" fill="#FDC3CD"/>
<path d="M266.511 96.4743C267.488 95.7091 267.659 94.2968 266.894 93.3199C266.129 92.343 264.717 92.1713 263.74 92.9365L253.838 100.693C252.861 101.458 252.689 102.87 253.454 103.847C254.219 104.824 255.632 104.996 256.609 104.23L266.511 96.4743Z" fill="#FFB2BF"/>
<path d="M269.537 97.3088L269.535 97.3064C268.868 96.4543 267.636 96.3045 266.784 96.972L263.907 99.2253C263.055 99.8927 262.905 101.125 263.572 101.977L263.574 101.979C264.242 102.831 265.474 102.981 266.326 102.314L269.203 100.06C270.055 99.3929 270.205 98.161 269.537 97.3088Z" fill="#FDC3CD"/>
<path d="M274.333 105.917C274.332 106.404 274.726 106.799 275.213 106.8C275.7 106.801 276.096 106.407 276.097 105.92L276.128 89.9655C276.128 89.4785 275.734 89.083 275.247 89.082C274.76 89.0811 274.365 89.4751 274.364 89.9622L274.333 105.917Z" fill="#F48F4D"/>
<path d="M277.711 105.297C277.71 105.784 278.104 106.18 278.591 106.181C279.078 106.182 279.474 105.788 279.475 105.301L279.503 90.5964C279.504 90.1094 279.11 89.7138 278.623 89.7129C278.136 89.7119 277.74 90.106 277.739 90.593L277.711 105.297Z" fill="#F48F4D"/>
<path d="M280.608 51.8084C285.665 51.8084 289.764 47.0476 289.764 41.1749C289.764 35.3023 285.665 30.5415 280.608 30.5415C275.551 30.5415 271.451 35.3023 271.451 41.1749C271.451 47.0476 275.551 51.8084 280.608 51.8084Z" fill="#431F49"/>
<path d="M280.608 51.8084C285.665 51.8084 289.764 47.0476 289.764 41.1749C289.764 35.3023 285.665 30.5415 280.608 30.5415C275.551 30.5415 271.451 35.3023 271.451 41.1749C271.451 47.0476 275.551 51.8084 280.608 51.8084Z" fill="#431F49"/>
<path d="M282.17 36.3234C282.547 30.5465 276.35 25.4382 268.328 24.9138C260.306 24.3894 253.496 28.6475 253.119 34.4244C252.741 40.2014 258.938 45.3096 266.96 45.834C274.983 46.3584 281.792 42.1004 282.17 36.3234Z" fill="#431F49"/>
<path d="M279.152 29.3243C276.723 27.999 274.029 27.2295 271.267 27.0714C263.246 26.5489 256.435 30.8071 256.058 36.5844C255.889 39.1665 257.033 41.6187 259.078 43.5817C255.264 41.4677 252.878 38.0732 253.116 34.4221C253.494 28.6448 260.304 24.3836 268.325 24.9091C272.759 25.199 276.636 26.8902 279.152 29.3243V29.3243Z" fill="#63356D"/>
<path d="M289.764 41.1777C289.764 41.5854 289.743 41.984 289.704 42.3857C289.193 37.0765 285.313 32.9542 280.604 32.9542C275.896 32.9542 272.019 37.0765 271.508 42.3857C271.469 41.9901 271.448 41.5914 271.448 41.1777C271.448 35.3038 275.549 30.5413 280.604 30.5413C285.66 30.5413 289.764 35.3038 289.764 41.1777V41.1777Z" fill="#63356D"/>
<path d="M279.662 46.4598C281.754 46.4598 283.449 44.4614 283.449 41.9963C283.449 39.5311 281.754 37.5327 279.662 37.5327C277.571 37.5327 275.875 39.5311 275.875 41.9963C275.875 44.4614 277.571 46.4598 279.662 46.4598Z" fill="#63356D"/>
<path d="M263.028 55.1667C263.038 55.501 263.115 55.8299 263.252 56.1347C263.39 56.4394 263.587 56.7139 263.831 56.9424C263.891 56.999 263.953 57.0524 264.018 57.1025C264.484 57.4648 265.062 57.6528 265.652 57.634H265.755C266.295 57.6195 266.816 57.4321 267.241 57.0995C267.529 56.8748 267.766 56.5908 267.934 56.2667C268.103 55.9426 268.2 55.586 268.219 55.221C268.219 55.1516 268.219 55.0821 268.219 55.0096C268.215 54.8788 268.158 54.7551 268.063 54.6657C267.967 54.5763 267.84 54.5284 267.709 54.5325L263.505 54.6653C263.376 54.6693 263.253 54.7241 263.164 54.818C263.074 54.9118 263.025 55.0371 263.028 55.1667V55.1667Z" fill="#962F4A"/>
<path d="M265.692 57.2382C265.696 57.3704 265.714 57.5019 265.743 57.6308H265.758C266.397 57.6097 267.004 57.3497 267.46 56.9023C267.915 56.4549 268.187 55.8527 268.22 55.2148C268.034 55.1676 267.843 55.1462 267.652 55.1514C267.115 55.1687 266.608 55.3982 266.24 55.7894C265.873 56.1807 265.676 56.7017 265.692 57.2382V57.2382Z" fill="#E1617F"/>
<path d="M263.602 54.6561C263.635 55.1544 264.417 55.5289 265.366 55.4987C266.314 55.4685 267.069 55.0457 267.072 54.5474L263.602 54.6561Z" fill="white"/>
<g clip-path="url(#clip2)">
<path d="M189.853 99.2602C189.879 99.2476 189.861 99.193 189.887 99.18C190.625 98.813 191.27 98.3256 191.848 97.6283C192.687 96.6153 192.939 95.1048 192.916 93.6516C192.915 93.6076 192.962 93.4804 192.961 93.4368C192.946 92.8731 192.897 92.3336 192.836 91.8607C192.669 90.5708 191.973 88.1892 191.586 86.946H183.14C182.752 88.1892 182.056 90.5708 181.889 91.8607C181.841 92.231 181.801 92.6423 181.778 93.0739C181.777 93.1021 181.823 93.1958 181.822 93.2242C181.751 94.7799 181.925 96.482 182.844 97.5912C183.431 98.2989 184.082 98.8033 184.833 99.1707C184.848 99.1781 184.857 99.2529 184.872 99.2602C185.885 99.7447 186.534 100.761 186.534 101.883V102.259C186.534 103.669 185.56 104.906 184.181 105.2C184.142 105.208 184.103 105.216 184.062 105.224C184.062 105.224 183.012 105.374 182.812 106.274H191.913C191.713 105.374 190.663 105.224 190.663 105.224C190.622 105.216 190.583 105.208 190.544 105.2C189.165 104.906 188.191 103.669 188.191 102.259V101.883C188.191 100.761 188.841 99.7447 189.853 99.2602Z" fill="#C8EFFE"/>
<path d="M188.191 101.883V102.259C188.191 103.669 189.165 104.906 190.544 105.2C190.583 105.208 190.623 105.216 190.663 105.224C190.663 105.224 191.712 105.374 191.913 106.274H191.128C190.998 105.727 190.195 105.712 189.76 105.619C188.381 105.325 187.407 103.669 187.407 102.259V101.883C187.407 100.761 188.056 99.3938 189.069 98.9093C189.837 98.5413 190.548 97.9958 191.146 97.2738C192.338 95.8349 192.275 93.582 192.052 91.8606C191.885 90.5706 191.189 88.1891 190.801 86.946H191.585C191.973 88.1891 192.669 90.5706 192.836 91.8606C193.058 93.582 193.123 96.1858 191.93 97.6247C191.332 98.3466 190.621 98.8921 189.853 99.2601C188.841 99.7447 188.191 100.761 188.191 101.883V101.883Z" fill="#99E6FC"/>
<path d="M191.93 97.6247C191.324 98.3568 190.601 98.9078 189.82 99.2758C189.813 99.2789 189.806 99.282 189.799 99.2851C189.774 99.2971 189.747 99.3074 189.722 99.3201C188.876 99.7467 188.032 99.7476 187.143 99.7467C186.498 99.746 185.833 99.6138 185.219 99.4122C185.218 99.4122 185.217 99.4118 185.216 99.4114C184.316 99.0496 183.481 98.4532 182.794 97.6247C181.859 96.4956 181.697 94.6483 181.778 93.0738C183.228 93.0066 184.675 93.5727 186.052 94.0988C187.639 94.7054 189.38 95.2754 191.006 94.7843C191.778 94.5511 192.456 94.0646 192.959 93.4367C192.96 93.4363 192.96 93.436 192.96 93.4355C192.999 94.9238 192.795 96.581 191.93 97.6247Z" fill="#E94444"/>
<path d="M192.938 94.562C192.904 95.0443 192.836 95.5239 192.715 95.9924C192.678 96.1336 192.636 96.2719 192.589 96.4096C192.439 96.8461 192.227 97.2667 191.93 97.6247C191.786 97.7993 191.632 97.9664 191.47 98.1248C191.07 98.5154 190.627 98.8443 190.138 99.1137C190.114 99.1265 190.091 99.1393 190.067 99.1518C189.953 99.2115 189.836 99.263 189.722 99.32C189.194 99.5866 188.667 99.6868 188.129 99.7241C188.386 99.3729 188.704 99.0838 189.068 98.9093C189.837 98.5413 190.548 97.9958 191.146 97.2738C191.84 96.4361 192.109 95.3224 192.168 94.1979C192.463 93.9811 192.73 93.7235 192.959 93.4367C192.96 93.4363 192.96 93.436 192.96 93.4355C192.96 93.4371 192.96 93.4386 192.96 93.4402C192.961 93.4826 192.962 93.5253 192.963 93.5681C192.964 93.5879 192.964 93.6081 192.964 93.6279C192.964 93.8174 192.964 94.0065 192.957 94.1959C192.953 94.318 192.947 94.4401 192.938 94.562V94.562Z" fill="#D83131"/>
</g>
<path d="M93.8025 49.7729C93.6138 50.4154 93.1799 50.9578 92.5945 51.2829C92.5221 51.3222 92.4496 51.3554 92.3741 51.3886C91.8319 51.6224 91.2249 51.6587 90.6587 51.4913L90.5591 51.4641C89.9459 51.284 89.4228 50.8802 89.0933 50.3326C88.7639 49.785 88.6522 49.1336 88.7803 48.5075C88.7803 48.4411 88.8105 48.3716 88.8316 48.3022C88.8671 48.1743 88.9518 48.0657 89.0672 48.0002C89.1828 47.9377 89.3181 47.9226 89.4447 47.9579L93.4824 49.1417C93.5453 49.1616 93.6035 49.1937 93.6538 49.2364C93.7041 49.279 93.7453 49.3313 93.7751 49.39C93.8049 49.4488 93.8227 49.513 93.8274 49.5787C93.8321 49.6445 93.8237 49.7105 93.8025 49.7729V49.7729Z" fill="#962F4A"/>
<path d="M90.7041 51.1107C90.6666 51.2369 90.617 51.3593 90.5561 51.4761C89.9434 51.2954 89.4207 50.8914 89.0913 50.344C88.762 49.7966 88.6499 49.1456 88.7773 48.5195C89.0916 48.5199 89.4015 48.5935 89.6824 48.7344C89.9633 48.8754 90.2076 49.0799 90.3957 49.3316C90.5839 49.5834 90.7108 49.8755 90.7664 50.1848C90.822 50.4941 90.8048 50.8122 90.7162 51.1137L90.7041 51.1107Z" fill="#E1617F"/>
<path d="M93.3764 49.1327C93.2163 49.6068 92.3646 49.7759 91.4556 49.5102C90.5466 49.2444 89.9215 48.6434 90.0423 48.1572L93.3764 49.1327Z" fill="white"/>
<g clip-path="url(#clip3)">
<path d="M170.56 91.3692H166.208C166.088 91.3692 165.99 91.2717 165.99 91.1516C165.99 89.8296 167.062 88.7581 168.384 88.7581C169.706 88.7581 170.777 89.8296 170.777 91.1516C170.777 91.2717 170.68 91.3692 170.56 91.3692V91.3692Z" fill="#BBEC6C"/>
<path d="M170.777 91.1516C170.777 91.2119 170.753 91.2662 170.713 91.3053C170.674 91.3448 170.619 91.3691 170.559 91.3691H169.826C169.887 91.3691 169.941 91.3448 169.98 91.3053C170.02 91.2662 170.044 91.2118 170.044 91.1516C170.044 89.9543 169.165 88.9623 168.017 88.7859C168.137 88.7676 168.259 88.7581 168.383 88.7581C169.044 88.7581 169.643 89.0261 170.076 89.4591C170.509 89.8922 170.777 90.4907 170.777 91.1516V91.1516Z" fill="#A2E62E"/>
<path d="M168.384 93.1887C168.238 93.1887 168.119 93.0703 168.119 92.9242V90.9364C168.119 90.7903 168.238 90.6719 168.384 90.6719C168.53 90.6719 168.648 90.7903 168.648 90.9364V92.9242C168.648 93.0703 168.53 93.1887 168.384 93.1887Z" fill="#D77F4A"/>
<path d="M168.384 88.7581C168.384 88.7581 167.26 89.766 167.459 91.3692H169.309C169.508 89.766 168.384 88.7581 168.384 88.7581Z" fill="#00C27A"/>
<path d="M170.456 92.9243H158.968C158.787 92.9243 158.64 93.0713 158.64 93.2525C158.64 94.4261 159.42 95.417 160.49 95.7358C160.72 95.8042 160.875 96.0197 160.875 96.2594V96.2622C160.875 97.6438 161.995 98.7637 163.376 98.7637C163.78 98.7637 164.108 99.0914 164.108 99.4956V103.345C164.108 104.374 163.398 105.276 162.392 105.491C162.363 105.497 162.334 105.502 162.305 105.508C162.305 105.508 161.539 105.618 161.393 106.274H164.712H168.032C167.886 105.618 167.12 105.508 167.12 105.508C167.094 105.503 167.068 105.498 167.043 105.493C166.033 105.28 165.317 104.377 165.317 103.345V99.4956C165.317 99.0914 165.644 98.7637 166.049 98.7637C167.43 98.7637 168.55 97.6438 168.55 96.2622V96.2594C168.55 96.0197 168.705 95.8042 168.934 95.7358C170.004 95.417 170.785 94.4261 170.785 93.2526C170.785 93.0713 170.638 92.9243 170.456 92.9243V92.9243Z" fill="#C8EFFE"/>
<path d="M170.784 93.2523C170.784 94.4259 170.004 95.4169 168.934 95.7357C168.704 95.8042 168.55 96.0196 168.55 96.2594V96.2623C168.55 96.9531 168.27 97.5784 167.817 98.0308C167.365 98.4837 166.739 98.7637 166.049 98.7637C165.644 98.7637 165.317 99.0913 165.317 99.4955V103.345C165.317 104.377 166.033 105.28 167.043 105.492C167.068 105.498 167.094 105.503 167.12 105.508C167.12 105.508 167.886 105.618 168.032 106.274H167.428C167.405 106.079 167.212 106.021 167.052 105.963C166.776 105.863 166.491 105.787 166.221 105.671C165.954 105.555 165.735 105.392 165.517 105.198C165.333 105.032 165.171 104.842 165.048 104.626C164.827 104.238 164.713 103.791 164.713 103.345C164.713 103.343 164.713 99.1297 164.713 99.1297C164.713 98.7252 165.041 98.3976 165.445 98.3976C166.136 98.3976 166.762 98.1278 167.214 97.6852C167.667 97.2427 167.947 96.6273 167.947 95.9368V95.9339C167.947 95.6941 168.101 95.4786 168.331 95.4102C169.401 95.0914 170.181 94.4259 170.181 93.2523C170.181 93.1617 170.145 93.0795 170.085 93.0202C170.026 92.961 169.944 92.9243 169.853 92.9243H170.456C170.547 92.9243 170.629 92.961 170.688 93.0202C170.748 93.0795 170.784 93.1617 170.784 93.2523V93.2523Z" fill="#99E6FC"/>
<path d="M170.489 94.4538C170.168 95.0667 169.609 95.5347 168.934 95.7357C168.704 95.8042 168.55 96.0196 168.55 96.2594V96.2623C168.55 96.9531 168.27 97.5784 167.817 98.0308C167.364 98.4837 166.739 98.7637 166.048 98.7637C166.048 98.7637 163.528 98.7637 163.376 98.7637C161.994 98.7637 160.874 97.6436 160.874 96.2623V96.2594C160.874 96.0196 160.72 95.8042 160.49 95.7357C159.955 95.5763 159.493 95.2491 159.164 94.8146C159.112 94.7458 159.063 94.6746 159.018 94.6005C160.548 94.2218 161.943 94.3868 163.559 94.658C165.264 94.9444 166.995 95.236 168.723 94.9701C169.381 94.8689 169.982 94.6883 170.489 94.4538V94.4538Z" fill="#FE9738"/>
<path d="M170.49 94.4539C170.486 94.4612 170.482 94.4687 170.478 94.4757C170.423 94.5751 170.363 94.6725 170.297 94.7651C170.204 94.8943 170.099 95.0158 169.983 95.1257C169.702 95.3926 169.366 95.5911 168.997 95.716C168.976 95.7231 168.956 95.7294 168.934 95.7358C168.705 95.8042 168.55 96.0197 168.55 96.2595V96.2623C168.55 96.9532 168.27 97.5784 167.817 98.0309C167.365 98.4837 166.74 98.7637 166.049 98.7637C166.049 98.7637 165.445 98.7637 164.812 98.7637C164.938 98.5447 165.174 98.3977 165.446 98.3977C166.136 98.3977 166.762 98.1279 167.214 97.6853C167.667 97.2427 167.947 96.6273 167.947 95.9368V95.934C167.947 95.6941 168.101 95.4787 168.331 95.4103C168.782 95.2759 169.182 95.0795 169.494 94.809C169.854 94.7134 170.188 94.5932 170.49 94.4539V94.4539Z" fill="#FE860A"/>
</g>
<path d="M127.799 113.293H229.038C229.264 113.293 229.486 113.233 229.681 113.118C229.876 113.004 230.036 112.839 230.146 112.642C230.256 112.444 230.311 112.221 230.305 111.995C230.299 111.769 230.233 111.548 230.113 111.357L227.256 106.76C227.143 106.576 226.985 106.424 226.797 106.318C226.609 106.213 226.397 106.157 226.181 106.156H130.656C130.44 106.157 130.228 106.213 130.039 106.318C129.851 106.424 129.693 106.576 129.58 106.76L126.723 111.357C126.604 111.548 126.537 111.769 126.532 111.995C126.526 112.221 126.581 112.444 126.69 112.642C126.8 112.839 126.961 113.004 127.156 113.118C127.351 113.233 127.573 113.293 127.799 113.293V113.293Z" fill="#8E6557"/>
<path d="M221.524 200.003H217.828L192.562 119.221L190.711 113.293L189.742 110.197H197.132L197.971 113.293L199.584 119.221L221.524 200.003Z" fill="#7B5649"/>
<path d="M169.266 110.197L168.297 113.293L166.446 119.221L141.18 200.003H137.484L159.424 119.221L161.037 113.293L161.876 110.197H169.266Z" fill="#7B5649"/>
<path d="M168.297 113.292L166.445 119.221H159.424L161.037 113.292H168.297Z" fill="#5E4036"/>
<path d="M199.584 119.221H192.562L190.711 113.292H197.971L199.584 119.221Z" fill="#5E4036"/>
<path d="M224.091 110.028H132.67C132.59 110.028 132.513 109.996 132.456 109.939C132.399 109.883 132.368 109.806 132.368 109.726C132.368 109.646 132.399 109.569 132.456 109.512C132.513 109.456 132.59 109.424 132.67 109.424H224.091C224.171 109.424 224.248 109.456 224.305 109.512C224.361 109.569 224.393 109.646 224.393 109.726C224.393 109.806 224.361 109.883 224.305 109.939C224.248 109.996 224.171 110.028 224.091 110.028Z" fill="#5E4036"/>
<defs>
<clipPath id="clip0">
<rect width="17.516" height="17.516" fill="white" transform="translate(138.136 89.0601)"/>
</clipPath>
<clipPath id="clip1">
<rect width="19.932" height="19.932" fill="white" transform="translate(200.65 86.342)"/>
</clipPath>
<clipPath id="clip2">
<rect width="19.328" height="19.328" fill="white" transform="translate(177.698 86.946)"/>
</clipPath>
<clipPath id="clip3">
<rect width="17.516" height="17.516" fill="white" transform="translate(155.954 88.7581)"/>
</clipPath>
</defs>
</svg>
