<svg width="25" height="24" viewBox="0 0 25 24" fill="none" xmlns="http://www.w3.org/2000/svg">
<path d="M14.5832 6.12474C14.7067 5.84464 14.7761 5.53327 14.7761 5.20515C14.7761 3.98923 13.8299 3.00001 12.6667 3.00001C11.5036 3.00001 10.5574 3.98923 10.5574 5.20515C10.5574 5.53308 10.6267 5.84425 10.7501 6.12425C6.18103 7.00895 2.42381 11.122 2.09672 16.3289H1.40179C0.995839 16.3289 0.666748 16.6579 0.666748 17.0639V17.0639C0.666748 17.4699 0.99584 17.7989 1.40179 17.7989H2.34154L3.47588 20.1706C3.64203 20.518 3.99291 20.7391 4.378 20.7391H20.9086C21.2937 20.7391 21.6445 20.518 21.8107 20.1706L22.945 17.7989H23.9317C24.3377 17.7989 24.6667 17.4699 24.6667 17.0639V17.0639C24.6667 16.6579 24.3377 16.3289 23.9317 16.3289H23.1901C22.8712 11.2051 19.2273 7.02699 14.5832 6.12474ZM11.9636 5.20515C11.9636 4.79984 12.279 4.4701 12.6667 4.4701C13.0545 4.4701 13.3699 4.79984 13.3699 5.20515C13.3699 5.61045 13.0545 5.94019 12.6667 5.94019C12.279 5.94019 11.9636 5.61045 11.9636 5.20515ZM12.6667 7.41029C17.4728 7.41029 21.4243 11.3479 21.7811 16.3289H3.50569C3.86428 11.3479 7.83609 7.41029 12.6667 7.41029ZM20.6697 19.269H4.61695L3.91383 17.7989H21.3728L20.6697 19.269Z" fill="#52944F"/>
</svg>
