<svg width="260" height="254" viewBox="0 0 260 254" fill="none" xmlns="http://www.w3.org/2000/svg">
<path d="M148.015 82.6027C142.035 56.8101 121.787 34.8357 93.6609 27.2994C53.6115 16.5682 12.7564 39.1758 2.40841 77.7949C-5.11825 105.885 5.568 134.709 27.3659 152.467C27.1141 153.286 26.8763 154.113 26.6527 154.948C16.3048 193.567 40.3825 233.573 80.4319 244.304C112.227 252.824 144.529 240.331 161.672 215.496C162.952 215.91 164.25 216.294 165.565 216.647C205.614 227.378 246.47 204.77 256.818 166.151C267.165 127.532 243.088 87.526 203.038 76.7948C183.712 71.6163 164.198 74.2013 148.015 82.6027Z" fill="#D5FFD0"/>
<path d="M83.3084 81.3911C83.4212 80.6544 83.7663 79.973 84.2935 79.4461C84.8208 78.9192 85.5026 78.5743 86.2396 78.4616L90.8726 77.75C90.925 77.4049 90.925 77.0539 90.8726 76.7087L86.2396 77.4029C85.3221 77.5441 84.4982 78.0433 83.9486 78.791C83.3991 79.5388 83.1688 80.4739 83.3084 81.3911V81.3911Z" fill="#0C314C"/>
<path d="M140.613 50.4893C148.387 50.4893 154.689 44.1909 154.689 36.4215C154.689 28.6521 148.387 22.3538 140.613 22.3538C132.839 22.3538 126.537 28.6521 126.537 36.4215C126.537 44.1909 132.839 50.4893 140.613 50.4893Z" fill="#153E63"/>
<path d="M152.859 37.0255C152.922 39.4762 152.343 41.9008 151.178 44.0587C150.014 46.2165 148.306 48.0325 146.222 49.3265C147.998 48.5569 149.597 47.4294 150.917 46.0146C152.238 44.5997 153.252 42.928 153.897 41.1036C154.542 39.2793 154.803 37.3417 154.665 35.4118C154.527 33.4819 153.992 31.6013 153.094 29.8874C152.195 28.1734 150.953 26.6631 149.444 25.4506C147.936 24.2382 146.193 23.3498 144.325 22.8408C142.457 22.3318 140.505 22.2133 138.589 22.4926C136.673 22.7719 134.836 23.443 133.191 24.4641C135.306 23.552 137.613 23.172 139.909 23.3574C142.205 23.5429 144.42 24.2881 146.361 25.5277C148.302 26.7674 149.909 28.4637 151.042 30.4682C152.175 32.4727 152.799 34.7241 152.859 37.0255V37.0255Z" fill="#396E96"/>
<path d="M118.567 57.9996L121.21 57.9332C127.909 57.7649 133.204 52.2005 133.035 45.5047C132.867 38.809 127.299 33.5175 120.6 33.6858L117.958 33.7522C111.258 33.9205 105.963 39.4849 106.132 46.1806C106.3 52.8764 111.868 58.1679 118.567 57.9996Z" fill="#153E63"/>
<path d="M108.919 55.3963L111.561 55.3299C118.261 55.1616 123.555 49.5972 123.387 42.9015C123.219 36.2058 117.651 30.9143 110.951 31.0826L108.309 31.1489C101.609 31.3173 96.3147 36.8817 96.4831 43.5774C96.6516 50.2731 102.219 55.5646 108.919 55.3963Z" fill="#153E63"/>
<path d="M141.87 41.1175L142.113 50.7043C142.149 52.0999 141.628 53.4523 140.666 54.4642C139.703 55.4761 138.378 56.0644 136.982 56.0999C135.586 56.1353 134.232 55.6149 133.22 54.6532C132.207 53.6914 131.619 52.3671 131.583 50.9716L131.344 41.3848C131.313 39.993 131.836 38.6461 132.798 37.6389C133.759 36.6317 135.081 36.0463 136.474 36.011C137.866 35.9756 139.216 36.4932 140.227 37.4503C141.239 38.4074 141.829 39.726 141.87 41.1175Z" fill="#F5A491"/>
<path d="M141.87 41.1175L142.058 48.4933C138.602 49.3056 135.012 49.373 131.528 48.6911L131.344 41.3848C131.313 39.993 131.836 38.6461 132.798 37.6389C133.759 36.6317 135.081 36.0463 136.474 36.011C137.866 35.9756 139.216 36.4932 140.227 37.4503C141.239 38.4074 141.829 39.726 141.87 41.1175V41.1175Z" fill="#EF927F"/>
<path d="M148.906 19.5458L148.931 22.3226L148.948 24.235L149.056 35.5608C149.081 38.4683 147.95 41.2668 145.912 43.3416C143.873 45.4164 141.094 46.5977 138.185 46.6261C133.35 46.6696 128.696 44.7931 125.244 41.4088C121.793 38.0245 119.827 33.4093 119.778 28.5772L119.705 20.594C119.686 17.9669 120.709 15.439 122.55 13.5641C124.392 11.6892 126.902 10.6201 129.53 10.5907L137.692 10.5179H139.675C142.097 10.4919 144.43 11.4285 146.161 13.1215C147.892 14.8145 148.88 17.1253 148.906 19.5458V19.5458Z" fill="#F5A491"/>
<path d="M137.171 46.6192C137.501 46.6365 137.835 46.6434 138.168 46.64C141.078 46.6125 143.858 45.4309 145.897 43.3552C147.935 41.2795 149.065 38.4795 149.039 35.5711L148.934 24.2489L148.917 22.3364L148.896 19.5596C148.872 17.1379 147.887 14.8247 146.158 13.1286C144.428 11.4324 142.095 10.4921 139.672 10.5143H138.63C140.955 10.6308 143.148 11.6295 144.761 13.3065C146.375 14.9834 147.287 17.2125 147.313 19.5388L147.337 22.3155L147.354 24.228L147.458 35.5503C147.49 38.3613 146.44 41.0771 144.526 43.1368C142.611 45.1966 139.979 46.4432 137.171 46.6192Z" fill="#FFC4AF"/>
<path d="M148.906 19.5457L148.931 22.3224L148.948 24.2349C147.1 25.2486 144.955 25.5839 142.885 25.1829C140.816 24.7819 138.952 23.6698 137.616 22.0394C136.281 20.409 135.559 18.363 135.574 16.2561C135.59 14.1492 136.343 12.1142 137.703 10.5038H139.686C140.885 10.4924 142.075 10.7172 143.188 11.1654C144.3 11.6136 145.314 12.2764 146.17 13.1161C147.026 13.9557 147.709 14.9556 148.178 16.0588C148.648 17.162 148.895 18.3469 148.906 19.5457Z" fill="#EF927F"/>
<path d="M144.383 31.8942C144.958 31.8797 145.412 31.3647 145.396 30.7438C145.38 30.1229 144.901 29.6313 144.326 29.6457C143.751 29.6602 143.297 30.1752 143.313 30.7961C143.329 31.417 143.808 31.9086 144.383 31.8942Z" fill="#230D30"/>
<path d="M134.972 32.0924C135.547 32.078 136.001 31.5629 135.985 30.942C135.969 30.3211 135.49 29.8295 134.915 29.8439C134.34 29.8584 133.886 30.3735 133.902 30.9943C133.917 31.6152 134.396 32.1069 134.972 32.0924Z" fill="#230D30"/>
<path d="M116.514 38.1395C121.796 38.1395 126.079 33.8598 126.079 28.5805C126.079 23.3012 121.796 19.0215 116.514 19.0215C111.231 19.0215 106.949 23.3012 106.949 28.5805C106.949 33.8598 111.231 38.1395 116.514 38.1395Z" fill="#153E63"/>
<path d="M96.478 43.2696V43.5819C96.5284 45.6342 97.0998 47.6401 98.1387 49.4111C99.1775 51.1822 100.65 52.6603 102.417 53.7067C101.024 52.6033 99.8917 51.2074 99.0988 49.6179C98.306 48.0284 97.8725 46.2842 97.829 44.5087C97.829 44.4046 97.829 44.3004 97.829 44.1963C97.8297 41.3742 98.8156 38.6409 100.617 36.4675C102.418 34.2941 104.922 32.8171 107.696 32.291C108.015 32.2319 108.345 32.1834 108.672 32.1486C108.448 31.3679 108.325 30.562 108.304 29.7502C108.24 27.2156 109.186 24.7596 110.934 22.9222C112.682 21.0847 115.089 20.0163 117.625 19.9517C119.361 19.9037 121.077 20.3336 122.585 21.1943C121.008 19.9019 119.059 19.1469 117.023 19.0394C114.987 18.932 112.969 19.4777 111.265 20.597C109.561 21.7164 108.26 23.3507 107.551 25.2614C106.842 27.1722 106.762 29.2594 107.324 31.2184C104.347 31.5354 101.592 32.9415 99.5899 35.1663C97.5875 37.391 96.4792 40.2772 96.478 43.2696V43.2696Z" fill="#0C314C"/>
<path d="M106.303 61.749C111.076 61.749 114.944 57.8826 114.944 53.1133C114.944 48.3439 111.076 44.4775 106.303 44.4775C101.531 44.4775 97.6626 48.3439 97.6626 53.1133C97.6626 57.8826 101.531 61.749 106.303 61.749Z" fill="#153E63"/>
<path d="M101.761 68.8125C105.601 68.8125 108.714 65.7014 108.714 61.8636C108.714 58.0259 105.601 54.9148 101.761 54.9148C97.9206 54.9148 94.8076 58.0259 94.8076 61.8636C94.8076 65.7014 97.9206 68.8125 101.761 68.8125Z" fill="#153E63"/>
<path d="M98.9962 73.5364C102.113 73.5364 104.64 71.0112 104.64 67.8962C104.64 64.7811 102.113 62.2559 98.9962 62.2559C95.8793 62.2559 93.3525 64.7811 93.3525 67.8962C93.3525 71.0112 95.8793 73.5364 98.9962 73.5364Z" fill="#153E63"/>
<path d="M93.4879 78.2186C96.1982 78.2186 98.3953 76.0228 98.3953 73.3141C98.3953 70.6055 96.1982 68.4097 93.4879 68.4097C90.7777 68.4097 88.5806 70.6055 88.5806 73.3141C88.5806 76.0228 90.7777 78.2186 93.4879 78.2186Z" fill="#153E63"/>
<path d="M90.1886 76.9378C89.8412 76.2788 89.6521 75.5479 89.6364 74.8032C89.608 73.6272 90.0029 72.4801 90.7492 71.5705C91.4956 70.6608 92.5438 70.0492 93.7032 69.8467C93.9411 69.8074 94.1812 69.7842 94.4222 69.7772C94.4222 69.6558 94.3978 69.5308 94.3944 69.4059C94.3876 69.1054 94.4039 68.8049 94.443 68.5069C94.5934 67.3903 95.0776 66.345 95.8322 65.508C95.9275 65.3977 96.0284 65.2922 96.1343 65.1921C95.9605 64.6116 95.8659 64.0104 95.853 63.4046C95.853 63.3421 95.853 63.2727 95.853 63.2102C95.8561 62.088 96.1313 60.9833 96.6551 59.9907C97.1789 58.9981 97.9357 58.1472 98.8607 57.5109C98.9648 57.4392 99.0725 57.3698 99.1836 57.3026C98.9861 56.7407 98.851 56.1587 98.7808 55.5672C98.743 55.2735 98.721 54.9781 98.7148 54.6821C98.6679 52.9322 99.1545 51.2094 100.11 49.7423C101.065 48.2752 102.445 47.133 104.064 46.4674C105.684 45.8017 107.469 45.644 109.18 46.0151C110.892 46.3863 112.45 47.2687 113.649 48.5454C112.648 46.9366 111.145 45.7015 109.372 45.0304C107.599 44.3593 105.655 44.2895 103.838 44.8317C102.022 45.3739 100.434 46.4981 99.32 48.031C98.2059 49.5639 97.6272 51.4205 97.6729 53.3145C97.6878 54.2092 97.8436 55.0959 98.1348 55.942C97.0924 56.5758 96.2354 57.4728 95.6501 58.5428C95.0648 59.6127 94.7718 60.8179 94.8007 62.037C94.8135 62.6428 94.9082 63.2441 95.082 63.8246C94.5154 64.3677 94.0683 65.0229 93.7693 65.7485C93.4703 66.474 93.326 67.2539 93.3455 68.0383C93.3455 68.1633 93.3455 68.2882 93.3698 68.4097C92.3905 68.434 91.4409 68.751 90.6434 69.3197C89.8459 69.8884 89.2372 70.6827 88.8956 71.6004C88.554 72.518 88.4953 73.5169 88.727 74.4682C88.9587 75.4195 89.4702 76.2797 90.1955 76.9378H90.1886Z" fill="#0C314C"/>
<path d="M120.605 36.3867C123.168 36.3867 125.245 34.3105 125.245 31.7495C125.245 29.1884 123.168 27.1123 120.605 27.1123C118.043 27.1123 115.965 29.1884 115.965 31.7495C115.965 34.3105 118.043 36.3867 120.605 36.3867Z" fill="#F5A491"/>
<path d="M119.22 31.8363C119.229 32.2299 119.355 32.612 119.581 32.9344C119.807 33.2568 120.124 33.5051 120.491 33.6481C120.579 33.6794 120.673 33.6886 120.766 33.6749C120.859 33.6612 120.946 33.625 121.022 33.5695C121.097 33.514 121.158 33.4409 121.198 33.3566C121.239 33.2723 121.258 33.1793 121.255 33.0858L121.189 30.4826C121.186 30.3848 121.158 30.2892 121.109 30.2049C121.059 30.1205 120.989 30.0501 120.905 30.0002C120.82 29.9503 120.725 29.9225 120.627 29.9195C120.529 29.9164 120.432 29.9382 120.345 29.9828C119.999 30.1509 119.709 30.4151 119.509 30.7439C119.309 31.0726 119.209 31.4519 119.22 31.8363V31.8363Z" fill="#EF927F"/>
<path d="M92.2443 78.8522L92.2464 78.8494C92.5822 78.3943 92.4853 77.7533 92.03 77.4176L89.179 75.3162C88.7236 74.9805 88.0822 75.0774 87.7464 75.5325L87.7443 75.5353C87.4084 75.9904 87.5053 76.6314 87.9607 76.9671L90.8117 79.0685C91.267 79.4042 91.9085 79.3073 92.2443 78.8522Z" fill="#CEB2A5"/>
<path d="M122.706 25.9462C128.272 25.9462 132.785 21.4365 132.785 15.8735C132.785 10.3105 128.272 5.80078 122.706 5.80078C117.14 5.80078 112.627 10.3105 112.627 15.8735C112.627 21.4365 117.14 25.9462 122.706 25.9462Z" fill="#153E63"/>
<path d="M113.649 20.2884C113.057 17.8715 113.382 15.3211 114.56 13.1295C115.739 10.9378 117.689 9.2602 120.032 8.42036C122.376 7.58052 124.948 7.63798 127.251 8.58165C129.555 9.52533 131.427 11.2883 132.507 13.5305C132.172 12.1607 131.552 10.8766 130.688 9.76153C129.824 8.64644 128.736 7.72518 127.493 7.05747C126.25 6.38976 124.881 5.99051 123.473 5.88557C122.066 5.78064 120.653 5.97237 119.325 6.44835C117.996 6.92432 116.783 7.67392 115.763 8.64855C114.743 9.62318 113.94 10.8011 113.405 12.106C112.87 13.4108 112.615 14.8135 112.657 16.2231C112.699 17.6326 113.037 19.0177 113.649 20.2884V20.2884Z" fill="#0C314C"/>
<path d="M137.991 20.4516C143.557 20.4516 148.069 15.9419 148.069 10.3789C148.069 4.81586 143.557 0.306152 137.991 0.306152C132.424 0.306152 127.912 4.81586 127.912 10.3789C127.912 15.9419 132.424 20.4516 137.991 20.4516Z" fill="#153E63"/>
<path d="M148.865 27.8378C154.431 27.8378 158.943 23.3281 158.943 17.7651C158.943 12.2021 154.431 7.69238 148.865 7.69238C143.299 7.69238 138.786 12.2021 138.786 17.7651C138.786 23.3281 143.299 27.8378 148.865 27.8378Z" fill="#153E63"/>
<path d="M129.148 5.54739C130.305 4.56353 131.669 3.85387 133.139 3.47151C134.609 3.08916 136.147 3.04403 137.637 3.33948C139.126 3.63494 140.53 4.26333 141.743 5.17764C142.955 6.09194 143.945 7.26848 144.638 8.61918C144.966 9.25036 145.222 9.91632 145.402 10.6046C145.698 10.5667 145.996 10.5447 146.295 10.5386C146.886 10.5235 147.477 10.5595 148.062 10.6462C149.666 10.8875 151.188 11.5123 152.498 12.4674C153.808 13.4225 154.868 14.6797 155.588 16.1321C156.308 17.5845 156.666 19.1891 156.632 20.8095C156.598 22.43 156.174 24.0183 155.394 25.4394C156.986 24.0919 158.12 22.2834 158.64 20.2639C159.159 18.2444 159.038 16.1135 158.294 14.1656C157.549 12.2178 156.217 10.5491 154.483 9.39015C152.749 8.2312 150.697 7.63919 148.611 7.69591C148.314 7.70183 148.017 7.72385 147.722 7.76186C147.202 5.8179 146.11 4.07445 144.589 2.75656C143.067 1.43868 141.185 0.606861 139.186 0.368487C137.186 0.130112 135.161 0.496125 133.372 1.41928C131.583 2.34243 130.112 3.78033 129.148 5.54739V5.54739Z" fill="#396E96"/>
<path d="M136.473 17.1333C139.448 17.1333 141.86 14.7231 141.86 11.7499C141.86 8.7767 139.448 6.36646 136.473 6.36646C133.498 6.36646 131.086 8.7767 131.086 11.7499C131.086 14.7231 133.498 17.1333 136.473 17.1333Z" fill="#396E96"/>
<path d="M92.013 100.826C92.303 99.3337 91.3284 97.8892 89.8362 97.5996C88.3439 97.31 86.8992 98.2849 86.6092 99.7772L84.7885 109.147C84.4985 110.639 85.4732 112.084 86.9654 112.374C88.4576 112.663 89.9023 111.688 90.1923 110.196L92.013 100.826Z" fill="#F5A491"/>
<path d="M125.554 225.536H141.061V249.212H125.554V225.536Z" fill="#F5A491"/>
<path d="M125.554 225.536H141.061V241.225H125.554V225.536Z" fill="#EF927F"/>
<path d="M151.803 249.923L133.309 249.843C133.365 247.423 134.37 245.121 136.106 243.433C137.843 241.744 140.173 240.804 142.595 240.815C145.018 240.825 147.34 241.785 149.061 243.489C150.783 245.192 151.768 247.502 151.803 249.923V249.923Z" fill="#FFF2EE"/>
<path d="M153.533 250.176C153.529 251.016 153.192 251.82 152.596 252.412C151.999 253.003 151.192 253.334 150.352 253.331L142.364 253.293L124.162 253.217C123.598 253.224 123.054 253.01 122.646 252.62C122.238 252.231 121.999 251.698 121.98 251.135C121.961 250.571 122.163 250.023 122.544 249.607C122.924 249.191 123.453 248.941 124.016 248.909L141.867 247.608L150.147 247.004C150.581 246.973 151.018 247.033 151.428 247.179C151.839 247.324 152.215 247.553 152.533 247.851C152.851 248.149 153.104 248.509 153.276 248.909C153.448 249.31 153.535 249.741 153.533 250.176V250.176Z" fill="#CEB2A5"/>
<path d="M143.485 243.491C144.845 243.491 145.948 242.39 145.948 241.03C145.948 239.671 144.845 238.57 143.485 238.57C142.125 238.57 141.023 239.671 141.023 241.03C141.023 242.39 142.125 243.491 143.485 243.491Z" fill="#CEB2A5"/>
<path d="M140.276 64.5742L154.998 74.5567L161.444 78.9266C162.278 79.5057 163.218 79.9137 164.21 80.1271C165.203 80.3406 166.227 80.3551 167.226 80.17C168.224 79.9848 169.175 79.6036 170.025 79.0484C170.874 78.4933 171.605 77.7752 172.176 76.9357C172.746 76.0963 173.143 75.1521 173.346 74.158C173.548 73.1638 173.551 72.1394 173.355 71.144C173.159 70.1486 172.767 69.2021 172.202 68.3592C171.637 67.5163 170.91 66.7937 170.064 66.2333L162.715 61.2491L161.854 60.6659L148.893 51.8775C147.208 50.7403 145.14 50.3176 143.144 50.7021C141.148 51.0867 139.386 52.247 138.245 53.9286C137.103 55.6101 136.676 57.6755 137.057 59.6713C137.438 61.6672 138.596 63.4305 140.276 64.5742V64.5742Z" fill="#EF927F"/>
<path d="M158.398 74.4318C158.73 75.6881 159.375 76.8397 160.273 77.7786C161.172 78.7175 162.294 79.413 163.535 79.7998C164.776 80.1867 166.095 80.2521 167.368 79.9901C168.642 79.7281 169.827 79.1472 170.814 78.3019L171.037 78.1006C171.113 78.0346 171.179 77.9687 171.249 77.8993C171.277 77.8732 171.304 77.8454 171.328 77.8159C171.377 77.7708 171.419 77.7222 171.464 77.6736C171.572 77.5556 171.679 77.4376 171.777 77.3265L171.985 77.0593C172.193 76.7782 172.382 76.4837 172.551 76.1777C172.6 76.0944 172.641 76.0111 172.683 75.9208C172.731 75.8333 172.774 75.7429 172.811 75.6501C172.902 75.4557 172.985 75.2544 173.058 75.0461L180.723 53.3562L181.577 50.9265C181.677 50.6456 181.76 50.3594 181.827 50.0692C182.263 48.1599 181.951 46.1564 180.957 44.4693C179.962 42.7822 178.359 41.5392 176.477 40.9951C174.594 40.451 172.575 40.6471 170.833 41.543C169.09 42.4389 167.757 43.9669 167.105 45.8138L158.583 69.9265C158.065 71.3748 158.001 72.9461 158.398 74.4318V74.4318Z" fill="#F5A491"/>
<path d="M179.918 53.7042C185.243 51.71 188.285 46.6911 186.712 42.4942C185.138 38.2973 179.546 36.5116 174.22 38.5059C168.894 40.5001 165.853 45.519 167.426 49.7159C169 53.9128 174.592 55.6984 179.918 53.7042Z" fill="#F5A491"/>
<path d="M161.854 60.6659L162.715 61.2491L167.14 48.7363L167.421 47.9345C167.504 47.6976 167.6 47.4658 167.709 47.2403C168.602 44.5017 171.04 41.9853 174.405 40.6837L174.534 40.6351C179.861 38.6393 185.457 40.4268 187.037 44.6232C187.071 44.7135 187.103 44.8002 187.13 44.8905C187.143 44.0745 187.003 43.2634 186.717 42.499C185.144 38.2992 179.552 36.5151 174.214 38.5074C170.773 39.7986 168.286 42.3498 167.38 45.13C167.279 45.3487 167.185 45.5743 167.105 45.8033L161.854 60.6659Z" fill="#FFC4AF"/>
<path d="M169.817 77.979L170.04 77.7742C170.113 77.7083 170.182 77.6423 170.248 77.5729C170.278 77.5478 170.306 77.5199 170.331 77.4896C170.377 77.4445 170.422 77.3994 170.467 77.3473C170.575 77.2328 170.682 77.1113 170.776 77.0002C170.87 76.8891 170.918 76.8232 170.984 76.7329C171.195 76.4521 171.386 76.1563 171.554 75.8479C171.599 75.7646 171.644 75.6812 171.686 75.591C171.728 75.5008 171.773 75.414 171.814 75.3237C171.905 75.1259 171.985 74.9246 172.058 74.7163L179.41 53.908L179.709 53.0749C180.187 52.8634 180.651 52.621 181.098 52.3495C185.04 49.9615 187.064 45.7755 185.72 42.1901C184.994 40.2533 183.411 38.8302 181.389 38.0562C183.89 38.7052 185.904 40.2637 186.731 42.5163C188.228 46.501 185.561 51.2249 180.726 53.4012L173.086 75.0426C173.013 75.2508 172.929 75.4522 172.839 75.65C172.797 75.7403 172.759 75.8305 172.71 75.9207C172.662 76.011 172.627 76.0908 172.578 76.1741C172.41 76.4817 172.221 76.7774 172.012 77.0592L171.804 77.3265C171.707 77.448 171.599 77.5694 171.491 77.6736C171.446 77.7256 171.405 77.7708 171.356 77.8194L171.276 77.8992C171.207 77.9721 171.141 78.038 171.064 78.104L170.842 78.3053C169.817 79.182 168.58 79.7735 167.254 80.0203C165.928 80.2671 164.56 80.1604 163.288 79.711C163.194 79.6763 163.097 79.6416 163.003 79.6C164.186 79.8883 165.421 79.8917 166.606 79.6099C167.79 79.3281 168.891 78.7691 169.817 77.979V77.979Z" fill="#EF927F"/>
<path d="M161.811 56.5302L177.446 62.7928C178.203 63.0959 179.062 62.7285 179.366 61.9723C179.669 61.216 179.301 60.3573 178.545 60.0542L162.909 53.7917C162.153 53.4886 161.293 53.8559 160.99 54.6122C160.687 55.3684 161.055 56.2271 161.811 56.5302Z" fill="#D7C2B7"/>
<path d="M164.74 53.3969L178.222 58.7969C178.978 59.1 179.838 58.7327 180.141 57.9764C180.444 57.2202 180.077 56.3614 179.32 56.0584L165.838 50.6584C165.082 50.3553 164.222 50.7226 163.919 51.4789C163.616 52.2351 163.983 53.0938 164.74 53.3969Z" fill="#D7C2B7"/>
<path d="M95.5684 225.536H111.075V249.212H95.5684V225.536Z" fill="#F5A491"/>
<path d="M95.5684 225.536H111.075V241.225H95.5684V225.536Z" fill="#EF927F"/>
<path d="M93.6094 251.391H112.103C112.056 248.971 111.061 246.666 109.332 244.971C107.603 243.277 105.278 242.327 102.856 242.327C100.434 242.327 98.1092 243.277 96.3802 244.971C94.6511 246.666 93.6563 248.971 93.6094 251.391V251.391Z" fill="white"/>
<path d="M112.562 252.745H92.717C91.8881 252.745 91.093 252.416 90.5068 251.83C89.9207 251.244 89.5913 250.45 89.5913 249.621C89.5891 249.183 89.6791 248.749 89.8556 248.348C90.0321 247.947 90.291 247.587 90.6156 247.293C90.9402 246.998 91.3232 246.775 91.7397 246.638C92.1562 246.501 92.5969 246.453 93.0331 246.497L112.781 248.413C113.319 248.466 113.818 248.717 114.182 249.117C114.545 249.517 114.746 250.039 114.746 250.579C114.745 250.865 114.688 251.147 114.578 251.411C114.467 251.674 114.306 251.914 114.103 252.115C113.9 252.316 113.66 252.475 113.395 252.583C113.131 252.691 112.848 252.746 112.562 252.745V252.745Z" fill="#D7C2B7"/>
<path d="M89.5913 249.621C89.5913 250.45 89.9206 251.244 90.5068 251.83C91.093 252.416 91.888 252.745 92.717 252.745H95.9816C95.2374 252.76 94.512 252.51 93.936 252.038C93.3601 251.567 92.9714 250.906 92.8399 250.173C92.7084 249.441 92.8428 248.686 93.2188 248.044C93.5949 247.402 94.1879 246.915 94.8911 246.671L93.0226 246.49C92.9197 246.485 92.8165 246.485 92.7135 246.49C92.3028 246.491 91.8961 246.572 91.5169 246.73C91.1376 246.887 90.7931 247.118 90.5031 247.409C90.2132 247.7 89.9834 248.045 89.8269 248.424C89.6705 248.804 89.5904 249.21 89.5913 249.621V249.621Z" fill="#E5D0C7"/>
<path d="M102.858 245.949C104.218 245.949 105.32 244.847 105.32 243.488C105.32 242.129 104.218 241.027 102.858 241.027C101.498 241.027 100.396 242.129 100.396 243.488C100.396 244.847 101.498 245.949 102.858 245.949Z" fill="#D7C2B7"/>
<path d="M119.105 237.927H143.489L143.885 230.524L150.876 99.7419H126.492L119.501 230.524L119.105 237.927Z" fill="#CEB2A5"/>
<path d="M89.897 239.812H114.277L115.549 232.409L136.908 108.069H112.322L91.1681 232.409L89.897 239.812Z" fill="#D7C2B7"/>
<path d="M122.932 89.4922H150.869V101.47C150.869 108.875 147.926 115.977 142.686 121.213C137.447 126.449 130.341 129.391 122.932 129.391V89.4922Z" fill="#D7C2B7"/>
<path d="M122.939 89.4922H150.876V93.9697H122.939V89.4922Z" fill="#CEB2A5"/>
<path d="M122.939 69.281H150.876V89.4923H122.939V69.281Z" fill="white"/>
<path d="M122.939 69.281H150.876V78.5311L122.939 76.1188V69.281Z" fill="#FFF2EE"/>
<path d="M78.3489 97.5482C78.261 99.0852 78.64 100.613 79.4362 101.931C80.2323 103.249 81.4085 104.295 82.8104 104.933C84.2123 105.571 85.7744 105.771 87.2919 105.506C88.8093 105.241 90.2112 104.524 91.3136 103.449L121.442 74.3692L131.267 64.8936C132.728 63.4837 133.568 61.5517 133.604 59.5224C133.639 57.4931 132.867 55.5329 131.456 54.0729C130.046 52.6129 128.112 51.7727 126.082 51.7373C124.051 51.7018 122.09 52.4739 120.629 53.8837L80.6897 92.446C79.2896 93.788 78.4527 95.6122 78.3489 97.5482V97.5482Z" fill="#F5A491"/>
<path d="M120.928 53.7335C119.815 54.7979 119.05 56.1736 118.734 57.6802C118.417 59.1868 118.563 60.7539 119.153 62.176C119.743 63.598 120.75 64.8086 122.04 65.6489C123.331 66.4892 124.846 66.92 126.386 66.8848L130.24 66.2194L143.891 65.9838C145.922 65.9481 147.855 65.1078 149.266 63.6476C150.676 62.1874 151.448 60.2271 151.413 58.1978C151.377 56.1686 150.536 54.2366 149.075 52.8269C147.614 51.4173 145.652 50.6454 143.622 50.6811L126.122 51.5966C124.182 51.6241 122.325 52.3881 120.928 53.7335Z" fill="#F5A491"/>
<path d="M116.476 66.0077V66.2681C116.476 67.7688 116.904 69.2383 117.709 70.5047C118.515 71.771 119.665 72.7817 121.025 73.4182L130.336 63.4392C131.684 61.9953 132.42 60.0857 132.389 58.1113H124.377C123.339 58.1109 122.311 58.3148 121.353 58.7115C120.394 59.1081 119.523 59.6898 118.789 60.4231C118.055 61.1565 117.473 62.0271 117.076 62.9854C116.679 63.9436 116.475 64.9706 116.476 66.0077Z" fill="#EF927F"/>
<path d="M128.222 127.617C137.189 127.617 144.458 120.352 144.458 111.391C144.458 102.429 137.189 95.1638 128.222 95.1638C119.255 95.1638 111.985 102.429 111.985 111.391C111.985 120.352 119.255 127.617 128.222 127.617Z" fill="#D7C2B7"/>
<path d="M145.719 93.9697H144.076V89.4922H145.719V93.9697Z" fill="#D7C2B7"/>
<path d="M138.759 93.9697H137.116V89.4922H138.759V93.9697Z" fill="#D7C2B7"/>
<path d="M131.802 93.9697H130.16V89.4922H131.802V93.9697Z" fill="#D7C2B7"/>
<path d="M89.897 239.812H114.277L115.549 232.409H91.1681L89.897 239.812Z" fill="#CEB2A5"/>
<path d="M119.105 237.927H143.489L143.885 230.524H119.501L119.105 237.927Z" fill="#BC988A"/>
<path d="M91.168 232.409H95.7905L96.2108 229.958L114.823 120.564L116.948 108.069H117.049C117.066 107.666 117.104 107.267 117.153 106.871V106.805L117.354 105.618C118.182 101.662 120.457 98.1567 123.734 95.7886C120.893 96.6045 118.329 98.179 116.316 100.343C114.303 102.506 112.919 105.178 112.312 108.069C112.232 108.458 112.166 108.85 112.114 109.242L91.168 232.409Z" fill="#E5D0C7"/>
<path d="M89.897 239.812H94.5195L95.7907 232.409H91.1681L89.897 239.812Z" fill="#D7C2B7"/>
<path d="M182.869 36.8484H182.657C180.306 36.8484 178.399 38.7536 178.399 41.1038V47.0009C178.399 49.3511 180.306 51.2563 182.657 51.2563H182.869C185.221 51.2563 187.127 49.3511 187.127 47.0009V41.1038C187.127 38.7536 185.221 36.8484 182.869 36.8484Z" fill="#F5A491"/>
<path d="M142.2 35.4634C142.198 36.2608 141.88 37.0248 141.314 37.5876L141.099 37.782C140.561 38.2287 139.885 38.4741 139.185 38.4762H139.064C138.308 38.4723 137.582 38.1847 137.028 37.6703C136.475 37.1559 136.136 36.4524 136.077 35.6994C136.077 35.6196 136.077 35.5363 136.077 35.453C136.077 35.3764 136.091 35.3006 136.121 35.2298C136.15 35.159 136.193 35.0948 136.247 35.0408C136.302 34.9869 136.366 34.9443 136.437 34.9155C136.508 34.8867 136.584 34.8724 136.661 34.8733H141.627C141.781 34.877 141.927 34.9408 142.034 35.0512C142.141 35.1616 142.201 35.3096 142.2 35.4634V35.4634Z" fill="#962F4A"/>
<path d="M139.127 37.9904C139.127 38.1467 139.11 38.3025 139.078 38.4555C138.322 38.4524 137.595 38.165 137.042 37.6505C136.488 37.136 136.149 36.432 136.091 35.6787C136.308 35.6168 136.533 35.5864 136.758 35.5885C137.071 35.5908 137.381 35.6547 137.67 35.7766C137.958 35.8986 138.22 36.0761 138.44 36.2992C138.66 36.5222 138.834 36.7863 138.952 37.0765C139.07 37.3667 139.129 37.6772 139.127 37.9904V37.9904Z" fill="#E1617F"/>
<path d="M141.505 34.8734C141.481 35.4635 140.571 35.9147 139.453 35.9147C138.335 35.9147 137.428 35.4392 137.407 34.8491L141.505 34.8734Z" fill="white"/>
<g clip-path="url(#clip0)">
<path d="M93.3429 121.156L92.5194 123.607C91.5845 126.39 88.5419 127.903 85.7564 126.968L83.7591 126.298L69.8022 121.617C67.0167 120.682 65.5039 117.64 66.4377 114.858L67.2612 112.407C67.8277 110.72 69.1686 109.5 70.7564 109.009C71.7891 108.689 72.9266 108.676 74.0242 109.044L89.9795 114.397C92.764 115.332 94.2778 118.372 93.3429 121.156Z" fill="#78B9EB"/>
<path d="M84.8533 125.355L83.7591 126.297L69.8022 121.616C67.0167 120.682 65.5039 117.64 66.4377 114.858L67.2612 112.407C67.8277 110.72 69.1686 109.5 70.7564 109.009L84.8533 125.355Z" fill="#5AAAE7"/>
<path d="M81.9652 126.657L72.6556 134.676L71.2497 135.887L54.0933 115.995L55.5003 114.784L64.8099 106.764L81.9652 126.657Z" fill="#C70024"/>
<path d="M81.9654 126.657L72.6559 134.676L55.5005 114.784L64.8101 106.764L81.9654 126.657Z" fill="#FF0C38"/>
<path d="M65.7903 107.98L55.1523 117.143C54.6143 117.606 53.7942 117.546 53.3301 117.008L53.089 116.728C52.625 116.191 52.6864 115.371 53.2244 114.907L54.0661 114.182L63.8614 105.744C64.3948 105.285 65.2023 105.339 65.6687 105.862C65.6744 105.868 65.6801 105.874 65.6846 105.879L65.9246 106.159C66.3886 106.697 66.3283 107.516 65.7903 107.98Z" fill="#A5001E"/>
<path d="M65.6685 105.863L55.8721 114.301C55.3398 114.76 54.5323 114.704 54.0659 114.182L63.8612 105.744C64.3947 105.285 65.2023 105.34 65.6685 105.863Z" fill="#C70024"/>
<path d="M66.956 125.124C69.7212 125.124 71.9629 122.884 71.9629 120.121C71.9629 117.357 69.7212 115.117 66.956 115.117C64.1909 115.117 61.9492 117.357 61.9492 120.121C61.9492 122.884 64.1909 125.124 66.956 125.124Z" fill="#A5001E"/>
<path d="M70.4878 119.846L69.6299 119.172L69.9131 118.009C70.0245 117.551 69.7438 117.09 69.2861 116.979C68.8282 116.867 68.367 117.148 68.2555 117.605L68.0645 118.39C67.7415 118.312 67.3592 118.252 66.9423 118.252C65.8456 118.252 64.3254 118.663 63.3113 120.622C63.1185 120.995 63.2252 121.452 63.5632 121.701C63.6706 121.78 64.6493 122.472 65.9262 122.472C66.7893 122.472 67.9463 122.154 68.9126 120.777L69.4329 121.186C69.5893 121.309 69.7751 121.369 69.9597 121.369C70.2123 121.369 70.4624 121.257 70.6307 121.044C70.9221 120.673 70.8582 120.137 70.4878 119.846ZM65.9262 120.767C65.711 120.767 65.5051 120.729 65.3217 120.675C65.758 120.193 66.2937 119.957 66.9423 119.957C67.0916 119.957 67.2357 119.97 67.3706 119.99C66.9497 120.506 66.4662 120.767 65.9262 120.767Z" fill="#FFCD00"/>
<path d="M104.848 108.615L93.1261 103.682C92.1231 103.26 90.9676 103.73 90.5453 104.733L88.9157 108.601C88.9037 108.607 88.9032 108.607 88.9152 108.602L84.1217 112.429C83.9582 112.559 83.8043 112.702 83.6635 112.853C83.317 113.224 83.0372 113.653 82.8392 114.124L78.9227 123.421C78.299 124.902 78.9941 126.607 80.4757 127.23L83.2373 128.392L83.2372 128.392L96.809 134.103C98.2907 134.726 99.9976 134.031 100.621 132.55L104.541 123.246C104.818 122.587 104.927 121.871 104.859 121.16L104.271 115.062L105.9 111.194C106.322 110.191 105.851 109.037 104.848 108.615Z" fill="#FF728B"/>
<path d="M96.8086 134.103L83.2368 128.392L88.2825 116.414C88.5619 115.751 89.0029 115.169 89.5653 114.72L94.3593 110.892L104.27 115.062L104.858 121.16C104.927 121.871 104.817 122.587 104.54 123.246L100.621 132.55C99.9972 134.031 98.2904 134.726 96.8086 134.103Z" fill="#FF3F62"/>
<path d="M104.27 115.062L99.5627 118.954C99.4095 119.081 99.2663 119.217 99.134 119.363C98.7997 119.725 98.5303 120.145 98.3375 120.602L93.2767 132.616L80.4757 127.23C78.9941 126.607 78.299 124.902 78.9227 123.421L82.8392 114.123C83.0372 113.653 83.317 113.223 83.6635 112.853C83.8043 112.701 83.9582 112.559 84.1217 112.429L88.9152 108.602L104.27 115.062Z" fill="#FF728B"/>
<path d="M99.1341 119.363C98.7998 119.725 98.5304 120.144 98.3376 120.602L95.9359 126.304L80.4526 119.789L82.8393 114.123C83.0373 113.653 83.3171 113.223 83.6636 112.853L99.1341 119.363Z" fill="#FFA5B5"/>
<path d="M104.859 121.159L104.27 115.062L99.5632 118.954C99.4097 119.081 99.2664 119.217 99.1344 119.362C98.8 119.725 98.5305 120.144 98.3371 120.602L93.2769 132.616L96.8084 134.102C98.2905 134.726 99.9977 134.031 100.621 132.551L104.54 123.245C104.818 122.587 104.927 121.871 104.859 121.159Z" fill="#FF0C38"/>
<path d="M90.649 120.063C90.6884 121.051 89.7151 121.79 88.7873 121.448C88.7661 121.44 88.745 121.432 88.7239 121.423C88.7029 121.414 88.6822 121.405 88.6618 121.395C87.7687 120.971 87.6175 119.759 88.3517 119.097L89.982 117.627C90.2005 117.43 90.5497 117.577 90.5615 117.871L90.649 120.063Z" fill="#FF3F62"/>
<path d="M92.0332 109.913L91.9832 110.034L87.1891 113.862C87.0254 113.992 86.8718 114.134 86.7308 114.287C86.385 114.656 86.1052 115.087 85.9073 115.557L80.9516 127.43L80.475 127.23C78.9941 126.607 78.298 124.902 78.9225 123.42L82.8386 114.123C83.0365 113.654 83.3162 113.224 83.6632 112.853C83.8042 112.701 83.9578 112.559 84.1215 112.428L88.9145 108.602C88.9145 108.601 88.9156 108.601 88.9156 108.601L92.0332 109.913Z" fill="#FF3F62"/>
<path d="M86.8289 114.186C86.7947 114.218 86.7629 114.253 86.7311 114.287C86.3853 114.656 86.1055 115.087 85.9076 115.556L83.5907 121.108L80.4526 119.788L82.8389 114.123C83.0368 113.654 83.3165 113.224 83.6635 112.853L86.8289 114.186Z" fill="#FF728B"/>
<path d="M104.27 115.062L88.9155 108.601L90.5452 104.732C90.9675 103.73 92.1229 103.259 93.126 103.681L104.848 108.614C105.851 109.036 106.322 110.191 105.9 111.194L104.27 115.062Z" fill="#FF3F62"/>
<path d="M94.3733 104.206L92.0336 109.913L88.916 108.601L90.5448 104.733C90.9678 103.73 92.1235 103.26 93.1267 103.681L94.3733 104.206Z" fill="#FF0C38"/>
<path d="M105.997 127.216L97.8683 152.192C97.5214 153.257 96.5285 153.979 95.4071 153.979H66.5432C65.4263 153.979 64.4356 153.263 64.0854 152.203L55.8198 127.216H105.997Z" fill="#6FB26B"/>
<path d="M105.997 127.216L97.8681 152.192C97.5212 153.257 96.5282 153.979 95.4068 153.979H71.4123C70.2954 153.979 69.3046 153.263 68.9544 152.203L60.6899 127.216H105.997Z" fill="#8DD187"/>
<path fill-rule="evenodd" clip-rule="evenodd" d="M106.687 126.715C106.526 126.494 106.27 126.363 105.997 126.363H60.7357C60.2647 126.363 59.8827 126.745 59.8827 127.216C59.8827 127.687 60.2647 128.068 60.7357 128.068H104.822L101.747 137.516H96.7048L98.0835 131.043C98.1815 130.582 97.8875 130.129 97.4268 130.031C96.9661 129.933 96.5128 130.227 96.4148 130.688L94.9606 137.516H89.2136L89.7962 130.94C89.8377 130.471 89.491 130.058 89.0216 130.016C88.5534 129.974 88.1382 130.321 88.0966 130.79L87.5008 137.516H81.7615V130.865C81.7615 130.394 81.3795 130.013 80.9084 130.013C80.4373 130.013 80.0554 130.394 80.0554 130.865V137.516H74.506L73.9102 130.79C73.8687 130.321 73.4535 129.975 72.9853 130.016C72.516 130.058 72.1693 130.471 72.2107 130.94L72.7932 137.516H67.0463L65.592 130.688C65.4939 130.227 65.0413 129.933 64.5801 130.031C64.1193 130.129 63.8252 130.582 63.9234 131.043L65.302 137.516H60.1257L57.0007 128.068H57.3236C57.7947 128.068 58.1767 127.687 58.1767 127.216C58.1767 126.745 57.7947 126.363 57.3236 126.363H55.8204C55.5465 126.363 55.2894 126.495 55.1289 126.716C54.9686 126.938 54.9244 127.224 55.0104 127.483L63.2751 152.471C63.7421 153.883 65.0552 154.831 66.5428 154.831H69.6774C69.6774 154.831 69.6786 154.832 69.6794 154.832L69.6826 154.831H75.1057H75.1068H75.108H86.8987H86.9H86.901H92.3241L92.3273 154.832C92.3273 154.832 92.3285 154.831 92.3293 154.831H95.4066C96.9017 154.831 98.217 153.877 98.6795 152.456L106.808 127.48C106.892 127.22 106.847 126.936 106.687 126.715ZM72.9442 139.221H67.4094L68.7011 145.287H73.4814L72.9442 139.221ZM99.2185 145.287L101.193 139.222H96.3417L95.05 145.287H99.2185ZM86.8126 145.287L87.3498 139.221H81.7615V145.287H86.8126ZM88.3742 146.992L87.8309 153.126H91.6359L92.9425 146.992H88.3742ZM81.7615 153.126H86.1182L86.6615 146.992H81.7615V153.126ZM75.3453 146.992L75.8886 153.126H80.0556V146.992H75.3453ZM80.0555 139.221H74.657L75.1944 145.287H80.0555V139.221ZM74.1759 153.126L73.6326 146.992H69.0643L70.3707 153.126H74.1759ZM66.9568 145.287L65.6651 139.221H60.6897L62.6957 145.287H66.9568ZM63.2597 146.992L64.895 151.936C65.1305 152.648 65.7927 153.126 66.5429 153.126H68.6266L67.32 146.992H63.2597ZM97.0572 151.928L98.6637 146.992L94.6872 146.992L93.3806 153.126H95.4068C96.1609 153.126 96.824 152.645 97.0572 151.928ZM88.5254 145.287H93.3058L94.5976 139.221H89.0627L88.5254 145.287Z" fill="#357735"/>
<path d="M109.04 127.216C109.04 128.22 108.629 129.132 107.967 129.793C107.305 130.454 106.392 130.865 105.388 130.865H56.4296C54.4209 130.865 52.7773 129.223 52.7773 127.216C52.7773 126.212 53.188 125.299 53.85 124.638C54.5119 123.976 55.4252 123.566 56.4296 123.566H105.388C107.328 123.566 108.928 125.099 109.034 127.012C109.038 127.079 109.04 127.148 109.04 127.216Z" fill="#357735"/>
<path d="M109.034 127.012H60.076C58.1356 127.012 56.5364 125.479 56.4307 123.566H105.388C107.328 123.566 108.928 125.099 109.034 127.012Z" fill="#5EAC24"/>
<path d="M83.386 108.56V125.889C83.386 126.532 83.1381 127.118 82.7332 127.559C82.2794 128.054 81.6288 128.365 80.9088 128.365C79.5462 128.365 78.4316 127.251 78.4316 125.889V108.56C78.4316 107.199 79.5463 106.085 80.9088 106.085C81.5901 106.085 82.21 106.364 82.6581 106.813C82.6832 106.838 82.7081 106.864 82.7332 106.891C83.1381 107.331 83.386 107.919 83.386 108.56Z" fill="#357735"/>
<path d="M83.386 108.56V125.889C83.386 126.532 83.1381 127.118 82.7332 127.559C82.3271 127.118 82.0791 126.532 82.0791 125.889V108.56C82.0791 107.919 82.327 107.331 82.7332 106.891C83.1381 107.331 83.386 107.919 83.386 108.56Z" fill="#4E901E"/>
<path d="M80.9083 126.693C81.3145 126.693 81.6438 126.364 81.6438 125.958C81.6438 125.552 81.3145 125.223 80.9083 125.223C80.5021 125.223 80.1729 125.552 80.1729 125.958C80.1729 126.364 80.5021 126.693 80.9083 126.693Z" fill="#A4E276"/>
</g>
<path d="M88.1106 107.69C92.536 104.141 93.6977 98.2429 90.7054 94.5153C87.713 90.7877 81.6996 90.6425 77.2742 94.191C72.8488 97.7394 71.687 103.638 74.6794 107.365C77.6718 111.093 83.6851 111.238 88.1106 107.69Z" fill="#F5A491"/>
<path d="M73.1605 100.891C73.3382 102.349 73.8963 103.735 74.7789 104.91C78.4846 110.134 86.0176 107.204 86.4204 102.935L92.1335 97.4199L126.134 64.5986C127.219 63.5549 126.276 69.0895 126.601 67.6197C126.926 66.1499 126.809 64.6169 126.265 63.2133C125.442 61.0787 128.053 59.2738 129.686 60.8809L129.755 60.9503C130.635 61.8591 131.275 62.972 131.618 64.189C131.961 65.4061 133.693 59.8137 133.417 61.0478V61.0651C133.389 61.1936 133.358 61.322 133.323 61.4469L133.302 61.5164C133.271 61.6274 133.233 61.7385 133.198 61.8634L133.17 61.9363C133.132 62.0543 133.087 62.1654 133.042 62.2834C133.035 62.2993 133.029 62.3155 133.025 62.332C132.857 62.7308 132.658 63.115 132.427 63.4809L132.396 63.5295C132.33 63.6336 132.261 63.7378 132.191 63.8384L132.139 63.9044C132.07 64.0016 131.997 64.0953 131.924 64.189C131.906 64.2098 131.889 64.2341 131.868 64.2549C131.788 64.3521 131.705 64.4493 131.618 64.543L131.583 64.5847C131.483 64.6957 131.378 64.8033 131.267 64.9109L91.5535 103.223C91.3767 103.628 91.1773 104.022 90.9562 104.403L90.9353 104.438L90.9145 104.469C90.1826 105.702 89.233 106.793 88.1118 107.687C87.9277 107.833 87.7436 107.972 87.5526 108.107L87.4693 108.166C87.2991 108.284 87.122 108.402 86.9483 108.513L86.8962 108.548C86.7052 108.666 86.5107 108.78 86.3128 108.895L86.2398 108.93C86.0731 109.023 85.8925 109.107 85.7293 109.19L85.6112 109.245C85.2272 109.421 84.8342 109.576 84.4339 109.71L84.2984 109.756C84.1317 109.808 83.9511 109.856 83.7948 109.901L83.6976 109.929C83.5008 109.982 83.3028 110.028 83.1037 110.065L82.9926 110.089C82.8293 110.12 82.6661 110.148 82.5029 110.169L82.3605 110.189C81.971 110.238 81.5791 110.265 81.1866 110.269H81.0442C80.881 110.269 80.7178 110.269 80.558 110.269H80.4573C80.2697 110.269 80.0787 110.238 79.8912 110.217H79.78C79.6272 110.196 79.4744 110.169 79.3216 110.141L79.1862 110.113C78.8208 110.039 78.4611 109.939 78.1095 109.815L78.054 109.797C76.7282 109.333 75.558 108.508 74.6747 107.416C73.9644 106.503 73.4611 105.447 73.1997 104.32C72.9382 103.193 72.9249 102.023 73.1605 100.891Z" fill="#EF927F"/>
<path d="M151.668 58.1218H126.988C122.625 58.1218 119.087 61.6572 119.087 66.0182V66.2786C119.087 70.6396 122.625 74.175 126.988 74.175H151.668C156.031 74.175 159.569 70.6396 159.569 66.2786V66.0182C159.569 61.6572 156.031 58.1218 151.668 58.1218Z" fill="white"/>
<path d="M121.109 71.5615C121.849 72.3879 122.755 73.0489 123.768 73.5011C124.782 73.9533 125.879 74.1865 126.989 74.1855H151.671C153.767 74.1846 155.776 73.3523 157.257 71.8717C158.739 70.391 159.571 68.3831 159.572 66.2891V66.0079C159.573 63.9478 158.768 61.9691 157.328 60.4944C155.889 59.0196 153.93 58.1657 151.869 58.115C153.17 59.5618 153.887 61.439 153.884 63.3839V63.6477C153.885 64.686 153.682 65.7145 153.286 66.6743C152.89 67.6341 152.308 68.5065 151.575 69.2415C150.841 69.9765 149.969 70.5597 149.01 70.9578C148.05 71.3559 147.021 71.561 145.983 71.5615H121.109Z" fill="#FFF2EE"/>
<defs>
<clipPath id="clip0">
<rect width="56.2626" height="56.2294" fill="white" transform="translate(52.7773 101.064)"/>
</clipPath>
</defs>
</svg>
