<svg width="308" height="254" viewBox="0 0 308 254" fill="none" xmlns="http://www.w3.org/2000/svg">
<path d="M125.388 217.565C136.517 230.457 151.728 240.982 170.149 247.438C222.683 265.849 281.427 244.193 301.357 199.067C313.498 171.579 308.436 141.723 290.75 118.422C307.319 74.341 280.923 25.4069 230.006 7.56232C182.708 -9.0141 130.376 6.88855 105.869 43.1566C63.3228 40.7479 22.5774 61.8244 6.6428 97.9033C-13.2875 143.029 13.1431 194.536 65.6772 212.948C85.5031 219.896 106.213 221.138 125.388 217.565Z" fill="#D5FFD0"/>
<g clip-path="url(#clip0)">
<path d="M177.642 100.075L188.153 99.793C189.4 99.7596 190.439 100.741 190.472 101.986L191.1 125.295C191.134 126.54 190.15 127.576 188.902 127.609L178.392 127.891C177.144 127.925 176.106 126.943 176.072 125.698L175.444 102.389C175.411 101.145 176.395 100.108 177.642 100.075Z" fill="#AD8E88"/>
<path d="M178.759 100.832L189.27 100.55C190.518 100.517 191.556 101.499 191.59 102.744L192.218 126.052C192.251 127.297 191.267 128.333 190.02 128.367L179.509 128.649C178.261 128.682 177.223 127.7 177.189 126.455L176.561 103.147C176.528 101.902 177.512 100.866 178.759 100.832Z" fill="#441A07"/>
<path d="M182.573 107.374C181.664 107.374 180.927 106.638 180.927 105.731C180.927 104.823 181.664 104.088 182.573 104.088C183.482 104.088 184.219 104.823 184.219 105.731C184.219 106.638 183.482 107.374 182.573 107.374Z" fill="#AD8E88"/>
<path d="M186.54 106.478C186.067 106.478 185.683 106.095 185.683 105.622C185.683 105.15 186.067 104.767 186.54 104.767C187.013 104.767 187.397 105.15 187.397 105.622C187.397 106.095 187.013 106.478 186.54 106.478Z" fill="#AD8E88"/>
<path d="M11.1097 208.875H296.802C298.449 208.875 299.783 210.207 299.783 211.85V211.853C299.783 213.496 298.449 214.828 296.802 214.828H11.1097C9.46335 214.828 8.12872 213.496 8.12872 211.853V211.85C8.12872 210.207 9.46335 208.875 11.1097 208.875Z" fill="#357735"/>
<path d="M42.5893 203.798L42.7824 205.255H50.8616L51.0513 203.798H42.5893Z" fill="#547DBA"/>
<path d="M217.769 128.353C211.088 128.353 205.672 122.949 205.672 116.282C205.672 109.616 211.088 104.211 217.769 104.211C224.45 104.211 229.866 109.616 229.866 116.282C229.866 122.949 224.45 128.353 217.769 128.353Z" fill="#6FEAF7"/>
<path d="M204.398 143.422C200.914 146.898 195.268 146.899 191.785 143.424C188.303 139.948 188.303 134.314 191.786 130.838L211.004 111.661C214.487 108.185 220.134 108.185 223.616 111.66C227.099 115.135 227.098 120.77 223.615 124.246L204.398 143.422Z" fill="#8C285C"/>
<path d="M226.102 119.406C225.639 117.949 224.807 116.637 223.688 115.594C222.569 114.551 221.2 113.813 219.712 113.451C218.224 113.089 216.668 113.115 215.194 113.527C213.719 113.939 212.376 114.722 211.292 115.802L192.072 134.982C190.752 136.287 189.876 137.974 189.568 139.802C189.078 138.248 189.025 136.59 189.415 135.008C189.805 133.425 190.623 131.981 191.78 130.831L211.001 111.651C212.338 110.317 214.066 109.441 215.935 109.151C217.803 108.861 219.716 109.17 221.397 110.036C223.077 110.901 224.439 112.277 225.285 113.965C226.131 115.653 226.417 117.565 226.102 119.426V119.406Z" fill="#72194C"/>
<path d="M215.117 85.7618C211.841 85.7618 209.185 83.1118 209.185 79.8429C209.185 76.574 211.841 73.9241 215.117 73.9241C218.393 73.9241 221.048 76.574 221.048 79.8429C221.048 83.1118 218.393 85.7618 215.117 85.7618Z" fill="#54285B"/>
<path d="M143.665 195.854C143.661 200.175 143.992 204.49 144.654 208.76H292.056C292.718 204.49 293.049 200.175 293.045 195.854C293.045 165.803 277.395 139.647 254.299 126.122C243.412 119.706 230.999 116.32 218.355 116.319C194.331 116.319 172.963 128.4 159.288 147.164C149.495 160.618 143.665 177.513 143.665 195.854Z" fill="#52944F"/>
<path d="M109.78 208.76H205.202C205.202 180.984 186.232 157.167 159.291 147.171C156.757 146.228 154.176 145.416 151.558 144.738C129.024 160.29 113.533 182.969 109.78 208.76V208.76Z" fill="#52944F"/>
<path d="M50.5815 182.602L53.6133 205.991L173.631 190.5C176.626 190.114 179.345 188.556 181.189 186.169C183.034 183.782 183.852 180.761 183.465 177.772L181.894 165.653L50.5815 182.602Z" fill="#2B234C"/>
<path d="M52.9346 200.761L53.6124 205.99L184.925 189.042L184.247 183.812L52.9346 200.761Z" fill="#1D183A"/>
<path d="M42.3662 185.742L44.6557 203.14L53.2006 202.021L50.9111 184.622L42.3662 185.742Z" fill="#F0A284"/>
<path d="M48.2114 185.943L50.4706 203.372L53.2287 203.016L50.9696 185.587L48.2114 185.943Z" fill="#EA7D7D"/>
<path d="M50.0857 203.676L46.661 194.948C47.7874 193.094 48.2828 190.926 48.0732 188.767C47.8637 186.609 46.9603 184.576 45.498 182.972C44.0358 181.368 42.0929 180.279 39.9594 179.867C37.8259 179.455 35.6162 179.743 33.6599 180.687L42.4368 198.775L46.8134 207.803L48.8459 206.82C49.41 206.546 49.8506 206.072 50.0802 205.489C50.3099 204.907 50.3118 204.26 50.0857 203.676V203.676Z" fill="#2B234C"/>
<path d="M47.5181 186.312C46.2074 184.197 44.1579 182.642 41.7655 181.947C39.3731 181.252 36.8076 181.467 34.5644 182.549L33.6599 180.68C34.851 180.105 36.1439 179.769 37.465 179.693C38.786 179.616 40.1091 179.8 41.3589 180.234C42.6087 180.668 43.7606 181.343 44.7488 182.221C45.737 183.099 46.5422 184.163 47.1183 185.352C47.2688 185.664 47.4022 185.985 47.5181 186.312V186.312Z" fill="#3D325D"/>
<path d="M46.3055 210.146C45.9655 210.311 45.5769 210.346 45.2126 210.245C44.8484 210.144 44.5335 209.914 44.3272 209.598C44.2864 209.543 44.2512 209.485 44.2222 209.423L31.1364 182.438C31.0977 182.365 31.0638 182.289 31.0348 182.211C30.8392 181.663 30.8531 181.062 31.0737 180.523C31.2943 179.984 31.7062 179.546 32.2306 179.291C32.7574 179.035 33.3603 178.983 33.9232 179.145C34.4862 179.306 34.9692 179.67 35.2793 180.166C35.3453 180.274 35.402 180.387 35.4487 180.504L35.8992 181.569L37.1729 184.611L37.7657 186.028L39.0394 189.07L39.6356 190.483L40.9093 193.525L41.5021 194.938L42.7791 197.98L43.372 199.397L44.649 202.439L45.2418 203.852L46.5189 206.894L47.0643 208.199C47.0813 208.236 47.0949 208.274 47.105 208.314C47.2265 208.671 47.2126 209.06 47.0659 209.408C46.9192 209.755 46.6499 210.037 46.3089 210.2L46.3055 210.146Z" fill="#3D325D"/>
<path d="M35.896 181.562L31.6956 183.59L31.0181 182.215L35.2659 180.163C35.3319 180.27 35.3886 180.384 35.4353 180.501L35.896 181.562Z" fill="#2B234C"/>
<path d="M37.7622 186.014L33.7989 187.927L33.1315 186.548L37.1694 184.598L37.7622 186.014Z" fill="#2B234C"/>
<path d="M39.6323 190.459L35.9027 192.261L35.232 190.882L39.0361 189.046L39.6323 190.459Z" fill="#2B234C"/>
<path d="M41.4985 194.908L38.0027 196.598L37.3353 195.222L40.9057 193.495L41.4985 194.908Z" fill="#2B234C"/>
<path d="M43.3687 199.359L40.1065 200.935L39.4392 199.556L42.7758 197.943L43.3687 199.359Z" fill="#2B234C"/>
<path d="M45.2388 203.805L42.2103 205.268L41.5396 203.889L44.646 202.392L45.2388 203.805Z" fill="#2B234C"/>
<path d="M47 208.307L44.3137 209.592L43.6362 208.213L46.5088 206.827L47.0542 208.131L47 208.307Z" fill="#2B234C"/>
<path d="M167.285 150.831L163.214 154.579C159.702 157.813 157.621 162.308 157.429 167.073C157.237 171.839 158.95 176.485 162.192 179.991L169.956 188.387C170.98 189.494 172.402 190.15 173.91 190.21C175.418 190.271 176.889 189.731 177.998 188.709L191.13 176.617L167.285 150.831Z" fill="#3D325D"/>
<path d="M191.119 176.608L209.382 159.791L185.545 134.015L167.282 150.831L191.119 176.608Z" fill="#3CC3DA"/>
<path d="M191.944 122.746L179.562 144.148L191.317 150.92C196.273 153.776 202.163 154.549 207.691 153.071C213.218 151.593 217.932 147.985 220.793 143.039L236.292 116.25C236.533 115.834 236.689 115.375 236.752 114.899C236.815 114.423 236.783 113.939 236.659 113.475C236.534 113.011 236.319 112.576 236.026 112.195C235.733 111.814 235.368 111.494 234.951 111.254C227.715 107.085 219.116 105.956 211.045 108.113C202.975 110.271 196.094 115.54 191.916 122.761L191.944 122.746Z" fill="#3CC3DA"/>
<path d="M220.55 95.9904V108.859C220.552 109.205 220.575 109.551 220.621 109.894C220.876 111.773 221.839 113.486 223.313 114.684C224.787 115.882 226.663 116.475 228.559 116.344C230.456 116.212 232.231 115.365 233.525 113.975C234.819 112.585 235.534 110.756 235.526 108.859V95.9904C235.526 94.0092 234.738 92.109 233.334 90.708C231.93 89.3071 230.025 88.52 228.04 88.52C226.054 88.52 224.15 89.3071 222.746 90.708C221.342 92.109 220.554 94.0092 220.554 95.9904H220.55Z" fill="#F0A284"/>
<path d="M220.55 95.9904V108.859C220.552 109.205 220.575 109.551 220.622 109.894C223.508 109.931 226.362 109.287 228.952 108.016C231.542 106.744 233.795 104.88 235.526 102.575V95.9904C235.526 94.0092 234.738 92.109 233.334 90.708C231.93 89.3071 230.026 88.52 228.04 88.52C226.055 88.52 224.15 89.3071 222.746 90.708C221.342 92.109 220.554 94.0092 220.554 95.9904H220.55Z" fill="#EA7D7D"/>
<path d="M209.378 159.79L222.166 140.661L204.612 127.319L177.699 154.513L209.378 159.79Z" fill="#3CC3DA"/>
<path d="M220.55 108.183V108.859C220.55 109.197 220.628 109.555 220.621 109.894C220.55 113.987 224.395 117.192 228.294 117.063C232.359 116.928 235.523 112.746 235.523 108.69V108.183H220.55Z" fill="#3CC3DA"/>
<path d="M134.984 152.788C130.368 148.182 130.368 140.715 134.983 136.11C139.598 131.505 147.081 131.505 151.696 136.111L185.705 170.047C190.32 174.653 190.321 182.12 185.706 186.725C181.091 191.33 173.608 191.33 168.993 186.724L134.984 152.788Z" fill="#3D325D"/>
<path d="M169.308 208.76H292.056C292.663 204.854 292.991 200.909 293.039 196.956C293.039 196.591 293.039 196.223 293.039 195.854C293.039 176.056 286.264 157.951 275.01 144.034C270.439 138.353 265.078 133.353 259.089 129.185C257.531 128.099 255.934 127.078 254.299 126.122C209.375 136.067 175.148 168.653 169.308 208.76V208.76Z" fill="#357735"/>
<path d="M209.185 208.76H292.375C292.781 204.916 293.007 200.981 293.052 196.956C293.052 196.591 293.052 196.223 293.052 195.854C293.052 176.056 286.277 157.951 275.024 144.034C231.712 157.921 211.868 181.576 209.185 208.76Z" fill="#52944F"/>
<path d="M235.523 134.88C228.842 134.88 223.426 129.476 223.426 122.81C223.426 116.143 228.842 110.739 235.523 110.739C242.204 110.739 247.62 116.143 247.62 122.81C247.62 129.476 242.204 134.88 235.523 134.88Z" fill="#6FEAF7"/>
<path d="M230.437 152.613C228.089 156.935 222.676 158.539 218.347 156.197C214.017 153.855 212.41 148.454 214.757 144.132L227.709 120.29C230.056 115.968 235.469 114.363 239.799 116.705C244.129 119.047 245.736 124.449 243.388 128.771L230.437 152.613Z" fill="#3CC3DA"/>
<path d="M244.401 123.438C243.543 122.173 242.372 121.149 241.002 120.466C239.631 119.783 238.108 119.464 236.578 119.539C235.048 119.615 233.564 120.082 232.268 120.897C230.972 121.711 229.907 122.845 229.178 124.189L216.224 148.033C215.334 149.658 214.978 151.522 215.208 153.361C214.292 152.012 213.764 150.438 213.684 148.81C213.603 147.183 213.972 145.565 214.751 144.132L227.711 120.288C228.611 118.629 230.016 117.298 231.723 116.488C233.431 115.678 235.352 115.431 237.209 115.781C239.067 116.132 240.764 117.063 242.057 118.439C243.35 119.815 244.171 121.566 244.401 123.438V123.438Z" fill="#6FEAF7"/>
<path d="M187.428 143C182.594 139.927 181.415 133.14 184.796 127.843C187.374 123.786 191.855 121.795 195.974 122.434C197.285 122.633 198.539 123.103 199.657 123.813L226.319 140.755C231.153 143.828 232.329 150.612 228.948 155.913C225.561 161.213 218.908 163.011 214.074 159.945L187.428 143Z" fill="#F0A284"/>
<path d="M218.876 154.216L218.874 154.219C218.068 155.533 216.348 155.945 215.032 155.141L202.916 147.738C201.599 146.934 201.186 145.217 201.992 143.903L201.993 143.9C202.799 142.587 204.52 142.174 205.836 142.978L217.952 150.382C219.268 151.186 219.682 152.903 218.876 154.216Z" fill="#FCB798"/>
<path d="M197.322 145.542C205.378 141.783 208.061 134.431 206.506 128.127L192.058 119.379C190.933 118.698 189.64 118.348 188.325 118.367C187.01 118.386 185.727 118.774 184.623 119.487C182.793 120.669 181.256 122.25 180.127 124.111C174.423 133.488 180.7 146.759 194.599 146.208C195.542 146.169 196.468 145.943 197.322 145.542V145.542Z" fill="#F0A284"/>
<path d="M187.613 119.926C186.768 118.366 187.35 116.418 188.913 115.575C190.476 114.733 192.428 115.314 193.273 116.875L198.321 126.198C199.165 127.759 198.583 129.707 197.02 130.549C195.457 131.392 193.506 130.81 192.661 129.25L187.613 119.926Z" fill="#F0A284"/>
<path d="M175.968 120.722C174.429 119.835 173.901 117.872 174.789 116.337C175.677 114.802 177.645 114.276 179.184 115.163L188.381 120.461C189.921 121.348 190.448 123.311 189.56 124.847C188.672 126.382 186.704 126.907 185.165 126.021L175.968 120.722Z" fill="#F0A284"/>
<path d="M175.529 127.447C173.99 126.56 173.462 124.597 174.35 123.062C175.238 121.527 177.206 121.001 178.745 121.888L187.942 127.187C189.482 128.073 190.009 130.037 189.121 131.572C188.233 133.107 186.265 133.633 184.726 132.746L175.529 127.447Z" fill="#F0A284"/>
<path d="M176.66 133.326C175.121 132.44 174.593 130.476 175.482 128.941C176.37 127.406 178.338 126.88 179.877 127.767L189.074 133.066C190.613 133.953 191.141 135.916 190.252 137.451C189.364 138.986 187.397 139.512 185.857 138.625L176.66 133.326Z" fill="#F0A284"/>
<path d="M188.701 139.042C186.621 139.042 184.935 137.048 184.935 134.59C184.935 132.131 186.621 130.138 188.701 130.138C190.782 130.138 192.468 132.131 192.468 134.59C192.468 137.048 190.782 139.042 188.701 139.042Z" fill="#FCB798"/>
<path d="M222.864 106.685C225.271 106.827 227.682 106.495 229.959 105.706C232.237 104.918 234.336 103.69 236.138 102.092C237.94 100.494 239.409 98.5572 240.461 96.3926C241.512 94.228 242.126 91.8779 242.268 89.4765L242.752 81.4787C242.854 79.7608 242.508 78.0457 241.748 76.5011C240.987 74.9565 239.838 73.6352 238.413 72.6663C236.917 71.6462 235.171 71.0514 233.362 70.9458L227.942 70.628L225.168 70.4658L224.378 70.4184L223.183 70.3475C221.977 70.2743 220.768 70.4393 219.627 70.833C218.485 71.2268 217.432 71.8415 216.529 72.6419C215.626 73.4424 214.89 74.4128 214.363 75.4977C213.837 76.5825 213.53 77.7604 213.46 78.9638L213.342 81.0596L213.308 81.5903V81.7593L213.227 83.081L213.193 83.6793L212.515 95.0404C212.343 97.9534 213.336 100.816 215.276 102.999C217.216 105.182 219.945 106.508 222.864 106.685V106.685Z" fill="#F0A284"/>
<path d="M213.325 81.0598L213.291 81.5905C216.377 82.7127 231.035 82.3443 235.689 79.8429C236.339 79.5048 238.738 75.702 238.399 72.6665C238.274 71.6187 238.121 70.831 237.962 70.5978L232.261 70.4525L228.176 70.3477C226.875 70.3139 225.598 70.3477 224.358 70.4187C222.474 70.5318 220.601 70.7849 218.755 71.1758C217.249 71.8731 215.96 72.9639 215.024 74.3325C214.089 75.7011 213.541 77.2968 213.44 78.9505L213.325 81.0598Z" fill="#EA7D7D"/>
<path d="M241.858 77.4226H238.179V86.5494C238.177 87.239 238.311 87.9223 238.574 88.5601C238.837 89.1979 239.224 89.7778 239.711 90.2665C240.199 90.7553 240.778 91.1434 241.416 91.4087C242.054 91.6739 242.738 91.8111 243.429 91.8125H243.826V79.4034C243.827 78.8807 243.62 78.3789 243.251 78.0078C242.882 77.6366 242.381 77.4262 241.858 77.4226V77.4226Z" fill="#64356A"/>
<path d="M240.282 81.6344C236.546 81.6344 233.517 78.6121 233.517 74.884C233.517 71.1558 236.546 68.1335 240.282 68.1335C244.018 68.1335 247.047 71.1558 247.047 74.884C247.047 78.6121 244.018 81.6344 240.282 81.6344Z" fill="#64356A"/>
<path d="M244.947 75.4991C244.951 76.8216 244.562 78.1155 243.829 79.2174C243.287 80.0358 242.574 80.7276 241.739 81.2456V91.5352C242.284 91.722 242.856 91.8179 243.433 91.8191H243.826V80.627C245.254 79.6972 246.278 78.2644 246.694 76.6144C247.11 74.9645 246.887 73.2186 246.07 71.7253C245.253 70.2321 243.901 69.1011 242.286 68.5581C240.67 68.0151 238.908 68.1001 237.352 68.796C237.623 68.7633 237.896 68.7475 238.169 68.7487C239.964 68.7478 241.687 69.4583 242.958 70.724C244.229 71.9898 244.944 73.7073 244.947 75.4991Z" fill="#54285B"/>
<path d="M229.609 88.1753C228.941 88.1753 228.399 87.635 228.399 86.9685C228.399 86.302 228.941 85.7617 229.609 85.7617C230.276 85.7617 230.818 86.302 230.818 86.9685C230.818 87.635 230.276 88.1753 229.609 88.1753Z" fill="#151D3A"/>
<path d="M218.518 88.1753C217.85 88.1753 217.308 87.635 217.308 86.9685C217.308 86.302 217.85 85.7617 218.518 85.7617C219.186 85.7617 219.727 86.302 219.727 86.9685C219.727 87.635 219.186 88.1753 218.518 88.1753Z" fill="#151D3A"/>
<path d="M79.9995 191.096L91.8999 204.051L98.2625 198.231L86.3621 185.276L79.9995 191.096Z" fill="#F0A284"/>
<path d="M84.3115 187.149L96.2119 200.104L98.2621 198.229L86.3617 185.274L84.3115 187.149Z" fill="#EA7D7D"/>
<path d="M96.0742 200.617L88.239 195.445C88.092 193.281 87.2474 191.223 85.8314 189.578C84.4154 187.932 82.504 186.788 80.3827 186.316C78.2614 185.844 76.044 186.07 74.0617 186.959C72.0794 187.848 70.4386 189.354 69.3843 191.25L86.9992 201.013L95.7863 205.873L96.8838 203.903C97.1873 203.354 97.2725 202.711 97.1225 202.102C96.9725 201.493 96.5982 200.963 96.0742 200.617V200.617Z" fill="#2B234C"/>
<path d="M83.9673 187.89C81.6755 186.916 79.1031 186.823 76.7467 187.629C74.3902 188.436 72.4165 190.084 71.2067 192.258L69.3876 191.243C70.0739 190.016 71.0101 188.946 72.1359 188.102C73.2617 187.258 74.5522 186.658 75.9243 186.342C77.2964 186.025 78.7197 185.999 80.1026 186.264C81.4855 186.53 82.7973 187.081 83.9537 187.883L83.9673 187.89Z" fill="#3D325D"/>
<path d="M96.718 208.081C96.5326 208.408 96.2341 208.657 95.8783 208.782C95.5225 208.906 95.1335 208.897 94.7838 208.757C94.7209 208.733 94.6598 208.704 94.6009 208.672L68.3344 194.117C68.2607 194.077 68.1904 194.032 68.1244 193.981C67.6651 193.639 67.3457 193.142 67.2255 192.582C67.1053 192.023 67.1924 191.439 67.4706 190.938C67.7488 190.438 68.1993 190.055 68.7387 189.861C69.2781 189.666 69.8697 189.674 70.4041 189.881C70.5224 189.929 70.6359 189.988 70.7429 190.057L71.7219 190.669L74.5165 192.42L75.8173 193.234L78.6086 194.985L79.9094 195.8L82.7041 197.551L84.0048 198.366L86.7961 200.127L88.0969 200.941L90.8882 202.692L92.189 203.507L94.9837 205.258L96.1828 206.008C96.2169 206.03 96.2497 206.054 96.281 206.079C96.585 206.303 96.797 206.63 96.8774 206.998C96.9578 207.366 96.9012 207.751 96.718 208.081V208.081Z" fill="#3D325D"/>
<path d="M71.7183 190.682L69.4554 194.739L68.1004 193.995L70.3904 189.881C70.5087 189.929 70.6221 189.988 70.7291 190.057L71.7183 190.682Z" fill="#2B234C"/>
<path d="M75.8135 193.248L73.676 197.091L72.3345 196.348L74.5127 192.433L75.8135 193.248Z" fill="#2B234C"/>
<path d="M79.9058 195.813L77.897 199.427L76.5522 198.683L78.605 194.999L79.9058 195.813Z" fill="#2B234C"/>
<path d="M84.001 198.379L82.1141 201.766L80.7761 201.022L82.7002 197.561L84.001 198.379Z" fill="#2B234C"/>
<path d="M88.0967 200.941L86.3352 204.105L84.9937 203.362L86.7959 200.127L88.0967 200.941Z" fill="#2B234C"/>
<path d="M92.1885 203.507L90.5557 206.444L89.2143 205.701L90.8877 202.692L92.1885 203.507Z" fill="#2B234C"/>
<path d="M96.2266 206.178L94.7767 208.784L93.4218 208.04L94.9698 205.258L96.169 206.008L96.2266 206.178Z" fill="#2B234C"/>
<path d="M83.8125 185.387L100.272 202.312L151.354 152.846C153.602 150.668 154.891 147.689 154.938 144.564C154.986 141.438 153.788 138.421 151.607 136.176C149.424 133.932 146.437 132.644 143.303 132.597C140.169 132.55 137.144 133.748 134.895 135.926L83.8149 185.39L83.8125 185.387Z" fill="#3D325D"/>
<path d="M229.774 62.5493L215.5 65.5V70.2324C215.5 73.5629 210.511 73.8063 212.871 76.1614C215.231 78.5164 218.432 79.8395 221.77 79.8395H242.359V75.1071C242.359 71.7765 241.033 68.5824 238.673 66.2274C236.313 63.8724 233.112 62.5493 229.774 62.5493Z" fill="#64356A"/>
<path d="M214.234 64.5V69.2324C214.234 72.562 210.514 73.8045 212.873 76.1589C215.233 78.5133 218.433 79.836 221.77 79.836H225.035C221.698 79.836 218.498 78.5133 216.139 76.1589C213.78 73.8045 217.5 72.562 217.5 69.2324V64.5H214.234Z" fill="#7D5384"/>
<path d="M230.78 66.6497H224.036C223.497 66.6497 222.98 66.8633 222.599 67.2437C222.217 67.624 222.003 68.1399 222.003 68.6778C222.003 70.0961 222.568 71.4563 223.573 72.4592C224.578 73.462 225.941 74.0254 227.362 74.0254H234.114C234.653 74.0254 235.17 73.8117 235.551 73.4314C235.932 73.051 236.146 72.5352 236.146 71.9973C236.146 70.579 235.581 69.2188 234.576 68.2159C233.571 67.2131 232.208 66.6497 230.787 66.6497H230.78Z" fill="#7D5384"/>
<path d="M240.933 95.6456C238.355 95.6456 236.265 93.5602 236.265 90.9876C236.265 88.4151 238.355 86.3296 240.933 86.3296C243.511 86.3296 245.601 88.4151 245.601 90.9876C245.601 93.5602 243.511 95.6456 240.933 95.6456Z" fill="#F0A284"/>
<path d="M242.345 90.7104C242.295 91.102 242.132 91.4706 241.875 91.7708C241.618 92.071 241.279 92.2899 240.899 92.4006C240.808 92.4236 240.712 92.4238 240.62 92.4013C240.529 92.3788 240.444 92.3342 240.374 92.2715C240.304 92.2088 240.25 92.1298 240.217 92.0415C240.185 91.9532 240.175 91.8583 240.188 91.7651L240.499 89.169C240.511 89.0713 240.548 88.9782 240.606 88.8984C240.664 88.8186 240.741 88.7546 240.83 88.7125C240.919 88.6704 241.018 88.6514 241.116 88.6573C241.215 88.6633 241.31 88.6939 241.394 88.7465C241.723 88.9493 241.988 89.2419 242.157 89.5898C242.325 89.9378 242.391 90.3266 242.345 90.7104V90.7104Z" fill="#EA7D7D"/>
<path d="M220.936 91.8868C220.922 92.2792 220.986 92.6705 221.124 93.0383C221.261 93.406 221.471 93.743 221.739 94.0299C221.807 94.0975 221.875 94.1651 221.946 94.2293C222.466 94.689 223.131 94.9532 223.826 94.9764H223.948C224.699 95.001 225.432 94.7433 226.001 94.2544C226.571 93.7655 226.936 93.081 227.024 92.3364C227.024 92.2553 227.041 92.1708 227.044 92.0896C227.049 91.9359 226.993 91.7864 226.888 91.6738C226.836 91.6177 226.774 91.5726 226.704 91.5412C226.634 91.5099 226.558 91.4929 226.482 91.4913L221.536 91.3257C221.46 91.3225 221.383 91.3346 221.312 91.3612C221.24 91.3878 221.174 91.4284 221.118 91.4807C221.062 91.5329 221.018 91.5958 220.986 91.6655C220.955 91.7352 220.938 91.8105 220.936 91.8868V91.8868Z" fill="#962F4A"/>
<path d="M223.904 94.5166C223.897 94.6716 223.907 94.8269 223.935 94.9797H223.951C224.702 95.005 225.435 94.7476 226.004 94.2584C226.574 93.7693 226.938 93.0843 227.024 92.3397C226.81 92.2705 226.588 92.2307 226.363 92.2214C226.051 92.2097 225.738 92.2598 225.445 92.3691C225.152 92.4783 224.883 92.6444 224.655 92.8578C224.426 93.0711 224.242 93.3276 224.113 93.6123C223.984 93.897 223.913 94.2044 223.904 94.5166Z" fill="#E1617F"/>
<path d="M221.644 91.3325C221.644 91.9173 222.538 92.4176 223.653 92.4548C224.767 92.492 225.685 92.0525 225.729 91.4677L221.644 91.3325Z" fill="white"/>
<path d="M245.986 57.626C239.193 56.8485 234.317 50.7228 235.097 43.9438C235.876 37.1649 242.014 32.2997 248.808 33.0771C255.601 33.8546 260.477 39.9803 259.698 46.7593C258.919 53.5383 252.78 58.4034 245.986 57.626Z" fill="white"/>
<path d="M230.033 47.9565C223.24 47.1791 218.364 41.0534 219.143 34.2744C219.923 27.4954 226.061 22.6302 232.855 23.4077C239.648 24.1852 244.524 30.3109 243.745 37.0899C242.965 43.8688 236.827 48.734 230.033 47.9565Z" fill="white"/>
<path d="M212.3 53.7707C205.507 52.9933 200.631 46.8676 201.411 40.0886C202.19 33.3096 208.328 28.4444 215.122 29.2219C221.915 29.9994 226.791 36.1251 226.012 42.9041C225.233 49.683 219.094 54.5482 212.3 53.7707Z" fill="white"/>
<rect width="32.7969" height="35.4668" rx="2" transform="matrix(-0.993515 -0.113703 -0.114181 0.99346 247.494 43.5156)" fill="white"/>
</g>
<defs>
<clipPath id="clip0">
<rect width="292" height="192" fill="white" transform="matrix(-1 0 0 1 300 23)"/>
</clipPath>
</defs>
</svg>
