<svg width="100" height="100" viewBox="0 0 100 100" fill="none" xmlns="http://www.w3.org/2000/svg">
<g clip-path="url(#clip0)">
<path d="M83.3386 24.9672C83.3587 22.7793 82.9554 20.575 82.2445 18.5135C81.1337 15.2928 79.1183 12.4475 76.3191 10.5014C76.0095 10.2862 75.6011 10.2737 75.2792 10.4701C72.4089 12.2221 70.2449 14.894 68.94 17.9914C67.8789 20.5098 67.2167 23.3576 67.5089 26.1078C67.9746 30.4879 69.8451 34.8543 73.2562 37.7715C73.7435 38.1881 74.2898 38.583 74.8257 38.9328C75.1388 39.1371 75.5435 39.1383 75.8574 38.9354C76.658 38.4178 77.4093 37.824 78.099 37.1655C81.3328 34.0772 83.2972 29.4584 83.3386 24.9672Z" fill="#91DEB6"/>
<path d="M83.3388 24.9676C83.2964 29.4576 81.3335 34.0768 78.0992 37.1641C77.4099 37.8231 76.6582 38.4176 75.8582 38.9356C75.5437 39.1391 75.1386 39.1371 74.8263 38.9336C74.5785 38.7725 74.3224 38.6031 74.264 38.5627C74.1189 38.4578 73.9779 38.3512 73.8369 38.2443C73.99 38.1113 74.1392 37.9723 74.2863 37.8332C77.5209 34.7438 79.4857 30.1248 79.5259 25.6348C79.546 23.4461 79.1431 21.2414 78.4316 19.1799C77.4421 16.3102 75.7351 13.7387 73.3933 11.8383C73.9818 11.3344 74.6127 10.877 75.2796 10.4699C75.6001 10.2744 76.0091 10.2865 76.3195 10.5022C79.1187 12.4469 81.1339 15.2924 82.2445 18.5129C82.9558 20.5744 83.3589 22.7791 83.3388 24.9676Z" fill="#6ED5A1"/>
<path d="M88.6417 39.5524C90.5733 38.5244 92.3167 37.1168 93.788 35.5071C96.0862 32.9922 97.6225 29.8619 97.9942 26.4731C98.0354 26.0983 97.8511 25.7336 97.5247 25.5448C94.6139 23.8608 91.2329 23.2366 87.8884 23.5705C85.1692 23.842 82.3511 24.6213 80.0749 26.1924C76.4499 28.6946 73.5081 32.4244 72.5759 36.8149C72.4235 37.5319 71.8804 39.1569 72.7968 39.6559C73.6341 40.1117 74.5147 40.4881 75.4229 40.7791C79.6808 42.144 84.6768 41.6623 88.6417 39.5524Z" fill="#00C27A"/>
<path d="M97.9939 26.473C97.623 29.8627 96.0855 32.9926 93.7881 35.5076C92.317 37.1158 90.5736 38.5244 88.641 39.5523C84.677 41.6623 79.6811 42.1439 75.4229 40.7797C74.5139 40.4875 73.6332 40.1127 72.7969 39.6551C72.5873 39.5422 72.4301 39.3549 72.3535 39.1371C76.5352 40.3684 81.368 39.8586 85.2252 37.8051C87.1578 36.7773 88.901 35.3686 90.3723 33.7603C92.6697 31.2453 94.2074 28.1135 94.5781 24.7258C94.5982 24.5465 94.566 24.3691 94.4914 24.2139C95.5414 24.5443 96.5592 24.9857 97.5244 25.5439C97.851 25.7334 98.0344 26.0982 97.9939 26.473Z" fill="#08B865"/>
<path d="M62.1374 39.5524C60.2057 38.5244 58.4624 37.1168 56.9913 35.5071C54.693 32.9922 53.1567 29.8619 52.785 26.4731C52.7438 26.0983 52.9282 25.7336 53.2545 25.5448C56.1653 23.8608 59.5463 23.2366 62.8909 23.5705C65.61 23.842 68.4282 24.6213 70.7043 26.1924C74.3293 28.6946 77.2711 32.4244 78.2034 36.8149C78.3577 37.541 78.9182 39.1463 77.9825 39.6559C77.1452 40.1117 76.2645 40.4881 75.3563 40.7791C71.0983 42.144 66.1022 41.6623 62.1374 39.5524Z" fill="#00C27A"/>
<path d="M77.9823 39.6551C77.42 39.9635 76.8356 40.2334 76.237 40.4672C76.2149 40.3603 76.1926 40.2535 76.1704 40.1467C75.2393 35.7555 72.2969 32.0271 68.6716 29.524C66.3964 27.9521 63.579 27.1742 60.8583 26.9021C58.188 26.6342 55.4936 26.9787 53.0329 27.9883C52.9241 27.4904 52.8415 26.9848 52.785 26.4728C52.7427 26.098 52.9282 25.7332 53.2546 25.5437C56.1647 23.8609 59.5464 23.2363 62.8897 23.5707C65.6104 23.8408 68.4278 24.6207 70.705 26.1926C74.3284 28.6935 77.2708 32.4238 78.2038 36.815C78.2924 37.2322 78.363 37.6533 78.4153 38.0787C78.4233 38.1492 78.4495 38.4535 78.4737 38.7478C78.5022 39.1209 78.3108 39.4777 77.9823 39.6551Z" fill="#08B865"/>
<path d="M20.8966 35.3117C19.3638 33.7504 17.5199 32.4769 15.5593 31.5219C12.4966 30.0299 9.05933 29.4432 5.70406 30.0463C5.33277 30.1131 5.03531 30.393 4.94664 30.7596C4.15582 34.0279 4.5148 37.4475 5.78238 40.5603C6.81285 43.0914 8.35836 45.5734 10.5097 47.3113C13.9351 50.0785 18.3437 51.8431 22.8171 51.4953C23.5925 51.4349 25.271 51.4674 25.4832 50.4785C25.6834 49.5463 25.7947 48.5951 25.8168 47.6418C25.9201 43.1717 24.0431 38.5166 20.8966 35.3117Z" fill="#91DEB6"/>
<path d="M25.8165 47.6416C25.7944 48.5949 25.6835 49.5461 25.4841 50.4791C25.4056 50.844 25.1173 51.1301 24.7524 51.2067C24.4642 51.2672 24.164 51.3295 24.0935 51.3416C23.8536 51.3799 23.6118 51.4141 23.37 51.4424C23.3862 51.2188 23.3962 50.993 23.4022 50.7672C23.505 46.2973 21.6288 41.642 18.481 38.4358C16.9493 36.876 15.1054 35.6024 13.1444 34.6471C10.4741 33.3473 7.52178 32.7327 4.58545 32.9965C4.64795 32.2469 4.76689 31.4993 4.94619 30.7596C5.03486 30.3928 5.33311 30.1127 5.704 30.0461C9.05947 29.4436 12.4976 30.0299 15.5587 31.5213C17.5196 32.4766 19.3636 33.7502 20.8972 35.3121C24.0431 38.5164 25.9192 43.1717 25.8165 47.6416Z" fill="#6ED5A1"/>
<path d="M34.9595 41.8752C35.5984 39.7824 35.8359 37.5543 35.7379 35.3758C35.5847 31.9724 34.4576 28.6726 32.3242 26.0135C32.0882 25.7193 31.7002 25.5918 31.3357 25.689C28.0867 26.5564 25.2546 28.5058 23.1259 31.107C21.3951 33.2217 19.9535 35.7654 19.4548 38.4859C19 40.9679 18.9878 43.5467 19.513 46.0189C19.8275 47.4996 20.2687 48.9859 20.9826 50.3269C21.4041 51.1187 22.7277 53.4771 23.8287 53.1525C24.7431 52.8828 25.6318 52.5261 26.4798 52.0898C30.4558 50.0439 33.648 46.1705 34.9595 41.8752Z" fill="#00C27A"/>
<path d="M34.9599 41.8761C33.648 46.1706 30.4558 50.044 26.4796 52.0895C25.6312 52.5268 24.7425 52.8835 23.8294 53.1516C23.4707 53.2585 23.0818 53.1436 22.84 52.8575C22.6486 52.6339 22.4511 52.4001 22.4068 52.3436C22.3544 52.277 22.3041 52.2087 22.2537 52.1421C22.29 52.1259 22.3242 52.1079 22.3605 52.0897C26.3367 50.0442 29.5289 46.1708 30.8408 41.8763C31.4796 39.7823 31.7173 37.5556 31.6187 35.377C31.4777 32.2473 30.5144 29.2042 28.7005 26.669C29.541 26.2639 30.4236 25.9335 31.3365 25.6895C31.7013 25.5929 32.0882 25.7198 32.324 26.0139C34.4581 28.6722 35.5847 31.9731 35.7378 35.377C35.8365 37.5552 35.5988 39.7821 34.9599 41.8761Z" fill="#08B865"/>
<path d="M16.2186 60.6164C14.1258 61.2553 11.8977 61.4928 9.71914 61.3947C6.31582 61.2416 3.01602 60.1145 0.356836 57.9811C0.0626958 57.7451 -0.0648432 57.357 0.0324224 56.9926C0.899805 53.7436 2.84922 50.9115 5.45039 48.7828C7.56504 47.052 10.1088 45.6104 12.8293 45.1117C17.1619 44.3178 21.8795 44.8752 25.6432 47.3203C26.1965 47.6799 26.702 48.0713 27.2014 48.4967C27.4861 48.7391 27.6018 49.1268 27.4959 49.4854C27.2262 50.3998 26.8695 51.2885 26.4332 52.1365C24.3875 56.1127 20.5141 59.3049 16.2186 60.6164Z" fill="#00C27A"/>
<path d="M27.4952 49.4856C27.2655 50.2655 26.9712 51.0272 26.6206 51.7589C26.5319 51.6983 26.4413 51.6399 26.3526 51.5815C22.5901 49.137 17.8724 48.5788 13.5395 49.3727C10.8188 49.8725 8.27568 51.3133 6.15967 53.0446C4.21689 54.6346 2.63701 56.6198 1.60107 58.8768C1.17392 58.6028 0.758689 58.3046 0.357712 57.9821C0.0635713 57.7442 -0.0655302 57.3573 0.0332979 56.9926C0.899899 53.744 2.84873 50.9126 5.45029 48.7823C7.56435 47.0512 10.1097 45.6102 12.8282 45.1126C17.161 44.3186 21.8788 44.8747 25.6435 47.3214C26.0022 47.5532 26.3487 47.801 26.6874 48.0649C26.7419 48.1073 26.9776 48.3048 27.2013 48.4962C27.4853 48.7401 27.602 49.127 27.4952 49.4856Z" fill="#08B865"/>
<path d="M99.9999 55.8452C99.9999 42.2532 88.9813 31.2346 75.3894 31.2346C61.7974 31.2346 50.7788 42.2532 50.7788 55.8452C50.7788 60.211 51.9825 63.9938 53.9069 67.8584C56.6103 73.2868 62.488 83.1768 71.5692 88.611C73.9157 90.0151 76.8481 90.0225 79.1978 88.6237C84.6253 85.3924 89.0319 80.503 92.537 75.3073C93.455 73.9465 94.319 72.5491 95.131 71.1225C97.8458 66.3524 99.9999 61.4528 99.9999 55.8452Z" fill="#E94444"/>
<path d="M99.9993 55.8459C99.9993 61.4523 97.8469 66.3516 95.1303 71.1217C94.3202 72.5484 93.4557 73.9471 92.5366 75.3074C89.0321 80.5027 84.6247 85.392 79.1973 88.6244C76.9221 89.9787 74.1026 90.015 71.7952 88.7412C72.9116 88.6545 74.0139 88.3141 75.0116 87.7195C80.4387 84.4891 84.8461 79.6 88.3508 74.4045C89.2698 73.0441 90.1323 71.6455 90.9446 70.2188C93.6592 65.4486 95.8135 60.5494 95.8135 54.943C95.8135 43.8871 88.5243 34.5342 78.4901 31.4287C90.6202 32.9543 99.9993 43.3027 99.9993 55.8459Z" fill="#D83131"/>
<path d="M82.0515 66.7529C81.2425 66.7529 80.5867 66.0971 80.5867 65.2881V62.5908C80.5867 61.7818 81.2425 61.126 82.0515 61.126C82.8605 61.126 83.5164 61.7818 83.5164 62.5908V65.2881C83.5164 66.0971 82.8607 66.7529 82.0515 66.7529Z" fill="#CC2121"/>
<path d="M68.7271 66.7529C67.9181 66.7529 67.2622 66.0971 67.2622 65.2881V62.5908C67.2622 61.7818 67.9181 61.126 68.7271 61.126C69.536 61.126 70.1919 61.7818 70.1919 62.5908V65.2881C70.1919 66.0971 69.536 66.7529 68.7271 66.7529Z" fill="#CC2121"/>
<path d="M75.3894 56.2825C74.5804 56.2825 73.9246 55.6266 73.9246 54.8176V52.1204C73.9246 51.3114 74.5804 50.6555 75.3894 50.6555C76.1984 50.6555 76.8542 51.3114 76.8542 52.1204V54.8176C76.8542 55.6266 76.1984 56.2825 75.3894 56.2825Z" fill="#CC2121"/>
<path d="M89.6199 56.2825C88.8109 56.2825 88.155 55.6266 88.155 54.8176V52.1204C88.155 51.3114 88.8109 50.6555 89.6199 50.6555C90.4289 50.6555 91.0847 51.3114 91.0847 52.1204V54.8176C91.0847 55.6266 90.4289 56.2825 89.6199 56.2825Z" fill="#CC2121"/>
<path d="M75.3894 75.8456C74.5804 75.8456 73.9246 75.1897 73.9246 74.3807V71.6835C73.9246 70.8745 74.5804 70.2186 75.3894 70.2186C76.1984 70.2186 76.8542 70.8745 76.8542 71.6835V74.3807C76.8542 75.1897 76.1984 75.8456 75.3894 75.8456Z" fill="#CC2121"/>
<path d="M54.5122 45.3643C44.9013 35.7534 29.3187 35.7534 19.7077 45.3643C10.0968 54.9753 10.0968 70.5579 19.7077 80.169C22.7948 83.2561 26.3208 85.08 30.4144 86.4516C36.1642 88.3784 47.3138 91.2157 57.5776 88.6368C60.2296 87.9704 62.3085 85.902 62.9808 83.2514C64.5339 77.1288 64.1923 70.5553 62.997 64.403C62.6839 62.7917 62.3067 61.1926 61.8722 59.6096C60.4187 54.3171 58.4772 49.3296 54.5122 45.3643Z" fill="#E94444"/>
<path d="M62.9804 83.2518C62.3073 85.9017 60.2296 87.9695 57.5774 88.6365C55.8968 89.0598 54.1958 89.3357 52.4948 89.4951C52.781 89.4326 53.0671 89.3662 53.3534 89.2935C56.0056 88.6266 58.0833 86.5588 58.7564 83.9088C60.3101 77.7863 59.9675 71.2125 58.7726 65.0598C58.4603 63.4475 58.0833 61.8494 57.648 60.2674C56.195 54.9732 54.2523 49.9875 50.2882 46.0213C45.0566 40.7896 38.0554 38.4055 31.2114 38.8689C39.2968 36.8818 48.1942 39.0463 54.5122 45.3643C58.4763 49.3283 60.4191 54.3162 61.872 59.6103C62.3073 61.1924 62.6841 62.7904 62.9966 64.4027C64.1915 70.5555 64.5341 77.1293 62.9804 83.2518Z" fill="#D83131"/>
<path d="M48.498 66.1977C48.1232 66.1977 47.7482 66.0547 47.4623 65.7686L45.555 63.8614C44.983 63.2893 44.983 62.3618 45.555 61.7899C46.1271 61.2178 47.0546 61.2178 47.6265 61.7899L49.5337 63.6971C50.1058 64.2692 50.1058 65.1967 49.5337 65.7686C49.2478 66.0545 48.873 66.1977 48.498 66.1977Z" fill="#CC2121"/>
<path d="M39.0761 75.6195C38.7013 75.6195 38.3263 75.4766 38.0404 75.1904L36.1332 73.283C35.5611 72.7109 35.5611 71.7834 36.1332 71.2115C36.7052 70.6395 37.6328 70.6395 38.2046 71.2115L40.1119 73.1189C40.6839 73.691 40.6839 74.6185 40.1119 75.1904C39.8259 75.4764 39.4509 75.6195 39.0761 75.6195Z" fill="#CC2121"/>
<path d="M36.3833 63.505C36.0084 63.505 35.6335 63.362 35.3475 63.0759L33.4403 61.1686C32.8682 60.5966 32.8682 59.669 33.4403 59.0971C34.0124 58.5251 34.9399 58.5251 35.5118 59.0971L37.419 61.0044C37.9911 61.5764 37.9911 62.504 37.419 63.0759C37.1331 63.3618 36.7581 63.505 36.3833 63.505Z" fill="#CC2121"/>
<path d="M46.4458 53.4425C46.071 53.4425 45.6959 53.2995 45.41 53.0134L43.5028 51.1061C42.9307 50.5341 42.9307 49.6065 43.5028 49.0346C44.0749 48.4626 45.0024 48.4626 45.5743 49.0346L47.4815 50.9419C48.0536 51.5139 48.0536 52.4415 47.4815 53.0134C47.1956 53.2993 46.8206 53.4425 46.4458 53.4425Z" fill="#CC2121"/>
<path d="M26.3208 73.5675C25.9459 73.5675 25.5709 73.4245 25.285 73.1384L23.3778 71.2311C22.8057 70.6591 22.8057 69.7315 23.3778 69.1596C23.9499 68.5876 24.8774 68.5876 25.4493 69.1596L27.3565 71.0669C27.9286 71.6389 27.9286 72.5665 27.3565 73.1384C27.0706 73.4243 26.6958 73.5675 26.3208 73.5675Z" fill="#CC2121"/>
<path d="M50.2165 77.3382C49.8417 77.3382 49.4667 77.1953 49.1808 76.9091L47.2735 75.0017C46.7015 74.4296 46.7015 73.5021 47.2735 72.9302C47.8456 72.3582 48.7731 72.358 49.345 72.9302L51.2522 74.8376C51.8243 75.4097 51.8243 76.3372 51.2522 76.9091C50.9663 77.1951 50.5913 77.3382 50.2165 77.3382Z" fill="#CC2121"/>
</g>
<defs>
<clipPath id="clip0">
<rect width="100" height="100" fill="white"/>
</clipPath>
</defs>
</svg>
