<svg width="100" height="100" viewBox="0 0 100 100" fill="none" xmlns="http://www.w3.org/2000/svg">
<g clip-path="url(#clip0)">
<path d="M24.6889 18.0826L30.5434 97.5508C30.6452 98.931 31.7946 99.999 33.1786 99.999H66.8202C68.2042 99.999 69.3536 98.931 69.4553 97.5508L75.3098 18.0826C75.4227 16.551 74.2104 15.2461 72.6747 15.2461H27.3241C25.7883 15.2463 24.576 16.551 24.6889 18.0826Z" fill="#C8EFFE"/>
<path d="M75.3108 18.0824L69.4546 97.5514C69.3538 98.9318 68.2052 99.9998 66.8206 99.9998H62.7417C64.1261 99.9998 65.2749 98.9316 65.3757 97.5514L71.2319 18.0824C71.3448 16.5508 70.1315 15.2471 68.596 15.2471H72.6749C74.2106 15.2471 75.4237 16.551 75.3108 18.0824Z" fill="#99E6FC"/>
<path d="M56.8047 29.6448L59.276 8.40694C59.3791 7.53721 59.8937 6.77003 60.6592 6.34444L71.7729 0.164751C72.5404 -0.262007 73.5016 0.178618 73.6789 1.03877L74.3502 4.2921C74.4688 4.86651 74.1881 5.44932 73.665 5.71475L65.2678 9.97842C64.9205 10.1548 64.6856 10.494 64.6424 10.8812L62.5588 29.6448H56.8047Z" fill="#F3F0F3"/>
<path d="M73.6643 5.71506L65.2668 9.97932C64.9201 10.1547 64.6863 10.4951 64.642 10.8821L62.6025 29.2287H59.7529L62.2014 9.3303C62.2437 8.94338 62.4795 8.60276 62.8262 8.42756L73.9865 2.53088L74.3492 4.29221C74.4684 4.86663 74.1883 5.44905 73.6643 5.71506Z" fill="#E2DEE2"/>
<path d="M32.603 30.5495L37.3243 92.0663C37.3733 92.7051 37.9059 93.1985 38.5468 93.1985H61.4524C62.093 93.1985 62.6259 92.7051 62.6749 92.0663L67.3962 30.5495C67.4509 29.8375 66.8878 29.2297 66.1737 29.2297H33.8255C33.1114 29.2295 32.5485 29.8374 32.603 30.5495Z" fill="#62DBFB"/>
<path d="M67.395 30.5489L62.6752 92.0661C62.6248 92.705 62.0928 93.1987 61.452 93.1987H57.6292C58.27 93.1987 58.802 92.705 58.8504 92.0661L63.5721 30.5489C63.6266 29.8376 63.0643 29.229 62.3489 29.229H66.1739C66.8871 29.229 67.4514 29.8376 67.395 30.5489Z" fill="#01D0FB"/>
<path d="M60.399 57.2465L53.1869 64.4586C52.5656 65.0799 51.5584 65.0799 50.9371 64.4586L43.725 57.2465C43.1037 56.6252 43.1037 55.618 43.725 54.9967L50.9371 47.7846C51.5584 47.1633 52.5656 47.1633 53.1869 47.7846L60.399 54.9967C61.0203 55.618 61.0203 56.6252 60.399 57.2465Z" fill="#F3F0F3"/>
<path d="M60.3983 57.2464L53.1874 64.4591C52.5649 65.0798 51.5592 65.0798 50.9368 64.4591L50.1028 63.6233L56.4782 57.2464C57.0989 56.6257 57.0989 55.6183 56.4782 54.9976L50.1028 48.6206L50.9368 47.7849C51.5592 47.1642 52.5649 47.1642 53.1874 47.7849L60.3983 54.9976C61.0207 55.6183 61.0207 56.6257 60.3983 57.2464Z" fill="#E2DEE2"/>
<path d="M58.1014 79.5348L50.8893 86.7469C50.268 87.3682 49.2608 87.3682 48.6395 86.7469L41.4274 79.5348C40.8061 78.9135 40.8061 77.9063 41.4274 77.285L48.6395 70.0729C49.2608 69.4516 50.268 69.4516 50.8893 70.0729L58.1014 77.2852C58.7225 77.9063 58.7225 78.9135 58.1014 79.5348Z" fill="#F3F0F3"/>
<path d="M58.1007 79.5346L50.8897 86.7473C50.2673 87.368 49.2616 87.368 48.6392 86.7473L47.8052 85.9115L54.1804 79.5346C54.8011 78.9139 54.8011 77.9065 54.1804 77.2858L47.8052 70.9088L48.6392 70.0731C49.2616 69.4524 50.2673 69.4524 50.8897 70.0731L58.1007 77.2858C58.7231 77.9065 58.7231 78.9139 58.1007 79.5346Z" fill="#E2DEE2"/>
<path d="M58.1014 45.1426L50.8893 52.3547C50.268 52.976 49.2608 52.976 48.6395 52.3547L41.4274 45.1426C40.8061 44.5213 40.8061 43.5141 41.4274 42.8928L48.6395 35.6807C49.2608 35.0594 50.268 35.0594 50.8893 35.6807L58.1014 42.8928C58.7227 43.5143 58.7227 44.5215 58.1014 45.1426Z" fill="#F3F0F3"/>
<path d="M58.1022 45.1426L50.8895 52.3553C50.2688 52.976 49.2614 52.976 48.6407 52.3553L47.8049 51.5196L54.1803 45.1426C54.8028 44.5219 54.8028 43.5145 54.1803 42.8938L47.8049 36.5168L48.6407 35.6811C49.2614 35.0604 50.2688 35.0604 50.8895 35.6811L58.1022 42.8938C58.7229 43.5145 58.7229 44.5219 58.1022 45.1426Z" fill="#E2DEE2"/>
</g>
<defs>
<clipPath id="clip0">
<rect width="100" height="100" fill="white"/>
</clipPath>
</defs>
</svg>
