<svg width="100" height="100" viewBox="0 0 100 100" fill="none" xmlns="http://www.w3.org/2000/svg">
<path d="M73.6609 21.8877H40.2318C39.3012 21.8877 38.4178 22.2975 37.8166 23.0076L26.5811 36.3627H87.3947L76.0762 23.0078C75.475 22.2975 74.5916 21.8877 73.6609 21.8877Z" fill="#DBF4B2"/>
<path d="M69.3827 22.3453L72.3726 3.60176C72.6739 1.71211 71.2142 0.000976562 69.3007 0.000976562C67.7702 0.000976562 66.4673 1.11426 66.2282 2.62578L63.1099 22.3457L69.3827 22.3453Z" fill="#F4D7C8"/>
<path d="M72.3726 3.60176L69.3826 22.3455H66.3887L69.3787 3.60176C69.5928 2.25117 68.9103 0.991211 67.8039 0.383594C68.2502 0.137305 68.7609 0 69.3 0C71.2138 0 72.6736 1.71211 72.3726 3.60176Z" fill="#ECBBA3"/>
<path d="M87.1122 36.0154C92.695 42.7759 96.0489 51.4449 96.0489 60.8972C96.0489 82.4929 78.5423 99.9996 56.9466 99.9996C35.3509 99.9996 17.8442 82.4929 17.8442 60.8972C17.8442 51.3968 21.2323 42.7906 26.8661 36.0154H87.1122Z" fill="#BBEC6C"/>
<path d="M96.0485 60.8974C96.0485 82.4939 78.5424 100 56.9459 100C55.4217 100 53.9176 99.9133 52.4377 99.7435C73.792 99.4648 91.0155 82.0658 91.0155 60.6449C91.0155 51.3094 87.7448 42.739 82.2856 36.016H87.1127C92.6952 42.7756 96.0485 51.4447 96.0485 60.8974Z" fill="#A2E62E"/>
<path d="M87.0846 36.0162H82.3057L71.2984 23.0082C70.6969 22.2975 69.8125 21.8877 68.8818 21.8877H73.6605C74.5912 21.8877 75.4756 22.2975 76.0752 23.0082L87.0846 36.0162Z" fill="#D1F19E"/>
<path d="M81.0154 28.8446C79.1236 29.7598 77.0007 30.2725 74.7593 30.2725C71.395 30.2725 68.304 29.1137 65.8528 27.1815C63.4017 29.1135 60.3107 30.2725 56.9464 30.2725C53.5821 30.2725 50.4911 29.1137 48.0399 27.1815C45.5888 29.1135 42.4978 30.2725 39.1335 30.2725C36.8921 30.2725 34.7692 29.7598 32.8774 28.8446L37.8169 23.0074C38.4181 22.2971 39.3015 21.8873 40.2321 21.8873H73.6601C74.5907 21.8873 75.4741 22.2971 76.0753 23.0074L81.0154 28.8446Z" fill="#F3F0F3"/>
<path d="M81.0157 28.8449C79.8448 29.4102 78.5848 29.824 77.2626 30.0562L71.2987 23.0082C70.6971 22.2975 69.8127 21.8877 68.8821 21.8877H73.6608C74.5915 21.8877 75.4739 22.2975 76.0754 23.0082L81.0157 28.8449Z" fill="#E2DEE2"/>
<path d="M39.7266 75.3645C41.3719 74.4889 42.8568 73.2899 44.11 71.9186C46.0676 69.7764 47.3762 67.1102 47.6928 64.2235C47.7277 63.9041 47.5709 63.5936 47.2928 63.4327C44.8135 61.9983 41.9336 61.4666 39.0846 61.7512C36.7684 61.9825 34.368 62.6461 32.4291 63.9844C29.3439 66.1139 26.84 69.2873 26.0436 73.0227C25.9104 73.6477 25.5236 75.0682 26.2295 75.4526C26.9428 75.8409 27.6928 76.1614 28.4664 76.4094C32.0938 77.5721 36.3494 77.1618 39.7266 75.3645Z" fill="#00C27A"/>
<path d="M47.6938 64.2236C47.3769 67.1107 46.0687 69.7758 44.1103 71.9178C42.8565 73.2906 41.3726 74.4898 39.7272 75.364C36.3495 77.1609 32.0937 77.5728 28.4677 76.4097C27.6944 76.1615 26.9435 75.8404 26.2308 75.4527C25.9501 75.2992 25.7866 74.9965 25.8128 74.6795C25.8329 74.4291 25.8532 74.1687 25.8612 74.1082C25.8653 74.0799 25.8673 74.0537 25.8733 74.0254C29.4206 75.057 33.5171 74.617 36.7876 72.8746C38.4331 72.0004 39.9169 70.8012 41.1706 69.4303C43.0019 67.4275 44.2655 64.9644 44.6796 62.2933C45.586 62.5719 46.4622 62.9515 47.294 63.432C47.5706 63.5937 47.7282 63.9047 47.6938 64.2236Z" fill="#08B865"/>
<path d="M23.4195 60.2323C21.2183 61.6831 19.5957 63.8352 18.6576 66.2977C17.8949 68.2997 17.4535 70.5489 17.7574 72.6958C17.8219 73.1518 17.9076 73.6065 18.0115 74.0581C17.0842 73.8803 16.1433 73.7981 15.2129 73.8219C13.498 73.8657 11.7822 74.2419 10.1863 74.8549C7.69315 75.8129 5.51873 77.4694 4.0703 79.7155C3.91014 79.9639 3.91151 80.2842 4.0742 80.5311C5.52498 82.7323 7.67713 84.3549 10.1396 85.293C12.1416 86.0557 14.391 86.4971 16.5377 86.1932C16.9937 86.1286 17.4484 86.043 17.9 85.9391C17.7222 86.8665 17.64 87.8073 17.6639 88.7378C17.7076 90.4526 18.0838 92.1684 18.6969 93.7643C19.6549 96.2575 21.3113 98.4319 23.5574 99.8803C23.8058 100.04 24.1262 100.039 24.373 99.8764C26.5742 98.4256 28.1969 96.2735 29.1349 93.811C29.8976 91.809 30.3391 89.5596 30.0351 87.4129C29.9707 86.9569 29.8849 86.5022 29.781 86.0506C30.7084 86.2284 31.6492 86.3106 32.5797 86.2868C34.2945 86.243 36.0103 85.8669 37.6062 85.2538C40.0994 84.2958 42.2738 82.6393 43.7223 80.3932C43.8824 80.1448 43.881 79.8245 43.7183 79.5776C42.2676 77.3764 40.1154 75.7538 37.6529 74.8157C35.651 74.053 33.4017 73.6116 31.2549 73.9155C30.7988 73.9801 30.3441 74.0657 29.8926 74.1696C30.0703 73.2422 30.1525 72.3014 30.1287 71.371C30.0849 69.6561 29.7088 67.9403 29.0957 66.3444C28.1377 63.8512 26.4812 61.6768 24.2351 60.2284C23.9865 60.0682 23.6664 60.0696 23.4195 60.2323Z" fill="#FEE45A"/>
<path d="M21.8677 61.4576C22.3462 61.0074 22.8649 60.5974 23.4202 60.232C23.6665 60.0685 23.9854 60.0685 24.2358 60.2279C26.481 61.6775 28.1384 63.8519 29.0954 66.3453C29.7091 67.9402 30.0847 69.6564 30.1292 71.3705C30.1493 72.2084 30.0868 73.0523 29.9435 73.8881C29.0632 73.7912 28.1749 73.7931 27.3026 73.9164C27.2976 73.9172 27.2927 73.9178 27.2876 73.9185C26.6397 74.0109 26.069 73.4881 26.1278 72.8363C26.172 72.3472 26.1886 71.8576 26.1759 71.3705C26.1315 69.6564 25.756 67.9404 25.1423 66.3453C24.4257 64.4801 23.3192 62.7941 21.8677 61.4576Z" fill="#FEDF30"/>
<path d="M43.7227 80.3932C42.2731 82.6403 40.0987 84.2958 37.6053 85.2547C36.0104 85.8665 34.2942 86.244 32.5801 86.2864C31.825 86.3065 31.062 86.2561 30.3069 86.1389C31.4516 85.9713 32.5801 85.6665 33.6543 85.2545C36.1477 84.2956 38.3221 82.6401 39.7698 80.393C39.9293 80.1448 39.9293 79.8237 39.7657 79.5774C38.3161 77.3768 36.1639 75.7536 33.7008 74.8169C32.76 74.4575 31.7627 74.1708 30.7471 73.9971C30.9166 73.9669 31.0864 73.9407 31.2559 73.9163C33.402 73.6114 35.651 74.0536 37.654 74.8167C40.1151 75.7534 42.2672 77.3766 43.7188 79.5772C43.8803 79.8239 43.8823 80.145 43.7227 80.3932Z" fill="#FEDF30"/>
<path d="M23.896 83.8854C26.0118 83.8854 27.7269 82.1702 27.7269 80.0545C27.7269 77.9388 26.0118 76.2236 23.896 76.2236C21.7803 76.2236 20.0652 77.9388 20.0652 80.0545C20.0652 82.1702 21.7803 83.8854 23.896 83.8854Z" fill="#BBEC6C"/>
<path d="M27.727 80.0539C27.727 82.1697 26.0129 83.8857 23.8971 83.8857C22.5625 83.8857 21.3896 83.2033 20.7031 82.1697C20.9211 82.2101 21.1473 82.2303 21.3773 82.2303C23.4932 82.2303 25.2072 80.5142 25.2072 78.3984C25.2072 77.6172 24.973 76.8902 24.5691 76.2845C26.3641 76.6015 27.727 78.1683 27.727 80.0539Z" fill="#A2E62E"/>
</svg>
