<svg width="100" height="100" viewBox="0 0 100 100" fill="none" xmlns="http://www.w3.org/2000/svg">
<g clip-path="url(#clip0)">
<path d="M41.3463 29.6072C38.0371 31.7085 34.4393 32.9484 30.5447 34.048C18.3766 37.4834 4.80353 40.8431 0.868174 54.5962C-1.18827 61.7833 0.604111 69.6525 4.20021 76.0439C11.3412 88.7357 27.3264 95.0593 41.4098 95.0287C57.0016 94.9945 72.6356 87.9195 83.7311 77.1142C95.6803 65.4775 101.028 48.5304 99.8379 32.1736C99.4383 26.6787 98.2178 22.54 95.6332 17.6072C92.3436 11.3287 86.6926 6.95386 79.7287 5.51734C76.7637 4.90581 73.6807 4.77671 70.6906 5.2898C63.6815 6.49273 57.5867 11.6027 52.966 16.7414C49.4283 20.675 45.7955 26.7818 41.3463 29.6072Z" fill="#D77F4A"/>
<path d="M83.7307 77.1146C72.6342 87.9193 57.0014 94.9946 41.4105 95.0286C31.992 95.0486 21.7246 92.228 13.8203 86.5611C21.1113 90.714 29.7967 92.7775 37.8588 92.7595C53.4518 92.7255 69.0846 85.6501 80.1811 74.8454C92.1305 63.2097 97.4779 46.2624 96.2873 29.9044C95.8877 24.4111 94.6674 20.2722 92.0824 15.3382C90.4725 12.262 88.291 9.64309 85.6703 7.60364C89.9012 9.78098 93.3408 13.2327 95.632 17.6073C98.2168 22.5394 99.4373 26.6782 99.8369 32.1736C101.028 48.5296 95.6801 65.4769 83.7307 77.1146Z" fill="#C86D36"/>
<path d="M40.7009 38.1644C37.9781 39.5489 35.166 40.6835 32.5904 41.4107C28.6607 42.52 24.5888 43.0673 20.6861 44.2827C18.847 44.8554 16.9011 45.4751 15.2536 46.5042C8.37279 50.8021 6.03704 59.7882 8.42708 67.2483C11.2829 76.1626 18.6765 81.9292 27.3025 85.0696C34.7857 87.794 42.732 88.3698 50.5304 86.7708C67.4327 83.3046 79.7915 74.1276 87.9572 58.7876C90.3353 54.3198 92.2656 49.6263 93.1374 44.6183C95.1976 32.7827 90.7304 11.9401 75.4816 12.4433C71.0025 12.5911 66.832 14.4999 63.3751 17.2784C58.0533 21.5562 54.7833 27.8247 49.6409 32.2954C47.1835 34.4319 44.0081 36.4825 40.7009 38.1644Z" fill="#9E5528"/>
<path d="M93.1371 44.6185C92.2662 49.6263 90.3345 54.3207 87.9574 58.7873C79.7914 74.1285 67.4326 83.3053 50.5312 86.7711C42.7328 88.3711 34.7865 87.7937 27.3037 85.0691C22.4957 83.3193 18.0708 80.7545 14.6033 77.2826C17.4417 79.406 20.6878 81.076 24.1296 82.3304C31.6125 85.0531 39.5587 85.6304 47.3572 84.0304C64.2605 80.5646 76.6193 71.3879 84.7853 56.0486C87.1625 51.5801 89.0919 46.8859 89.965 41.8779C91.3753 33.7677 89.7232 21.431 83.6367 14.6293C92.3062 20.2222 94.7691 35.2459 93.1371 44.6185Z" fill="#904D24"/>
<path d="M36.4945 74.494C43.1902 73.3735 47.8114 67.6436 46.816 61.6958C45.8207 55.7481 39.5859 51.8348 32.8901 52.9553C26.1943 54.0758 21.5732 59.8057 22.5685 65.7535C23.5638 71.7012 29.7987 75.6145 36.4945 74.494Z" fill="#ECBBA3"/>
<path d="M36.4866 74.5298C29.8108 75.6444 23.5963 71.7591 22.5696 65.8425C25.1604 68.9927 29.643 70.6966 34.3532 69.9095C41.053 68.7909 45.6774 63.0618 44.6825 57.1112C44.6786 57.0913 44.6764 57.0733 44.6725 57.0532C45.7631 58.3815 46.5202 59.9657 46.8139 61.7296C47.8086 67.6802 43.1844 73.4112 36.4866 74.5298Z" fill="#E8AD8C"/>
<path d="M66.8275 53.2863C66.7933 53.2863 66.759 53.2852 66.7246 53.2828C55.8265 52.5434 52.1572 42.6414 52.0064 42.2203C51.7273 41.4414 52.1326 40.5838 52.9115 40.3047C53.689 40.0262 54.5455 40.4295 54.826 41.2063C54.9537 41.557 58.0205 49.6889 66.9273 50.2934C67.7529 50.3494 68.3767 51.0641 68.3205 51.8895C68.2668 52.6805 67.6086 53.2863 66.8275 53.2863Z" fill="#8E431A"/>
<path d="M71.6307 44.3211C71.5966 44.3211 71.5622 44.3199 71.5278 44.3176C63.026 43.7406 60.1628 36.0143 60.045 35.6855C59.7659 34.9066 60.1712 34.049 60.9501 33.7699C61.7266 33.4914 62.5837 33.8947 62.8643 34.6711C62.9634 34.941 65.2257 40.8869 71.7305 41.3281C72.5561 41.3842 73.18 42.0988 73.1237 42.9242C73.0702 43.715 72.412 44.3211 71.6307 44.3211Z" fill="#8E431A"/>
<path d="M77.7195 34.7282C77.6853 34.7282 77.6509 34.7271 77.6165 34.7247C70.9456 34.272 68.6984 28.2075 68.6058 27.9495C68.3267 27.1706 68.732 26.313 69.5109 26.0339C70.2878 25.7558 71.1433 26.1579 71.4245 26.9333C71.4986 27.1329 73.1437 31.4177 77.8193 31.7351C78.6448 31.7911 79.2687 32.5058 79.2124 33.3314C79.1589 34.1224 78.5005 34.7282 77.7195 34.7282Z" fill="#8E431A"/>
</g>
<defs>
<clipPath id="clip0">
<rect width="100" height="100" fill="white"/>
</clipPath>
</defs>
</svg>
