<svg width="100" height="100" viewBox="0 0 100 100" fill="none" xmlns="http://www.w3.org/2000/svg">
<g clip-path="url(#clip0)">
<path d="M31.8508 37.8943C14.7008 37.8943 0.799072 51.796 0.799072 68.946C0.799072 86.096 14.7008 100 31.8508 100C49.0008 100 62.9026 86.096 62.9026 68.946C62.9026 51.796 49.0008 37.8943 31.8508 37.8943ZM31.8508 83.2724C23.9385 83.2724 17.5247 76.8585 17.5247 68.9462C17.5247 61.0359 23.9385 54.622 31.8508 54.622C39.7631 54.622 46.177 61.0359 46.177 68.9462C46.177 76.8584 39.7631 83.2724 31.8508 83.2724Z" fill="#E94444"/>
<path d="M37.4945 38.4053C49.8537 42.5021 58.7676 54.1535 58.7676 67.8863C58.7676 85.0363 44.8658 98.9402 27.7158 98.9402C25.7891 98.9402 23.9025 98.7652 22.0723 98.4293C25.1455 99.449 28.4338 100 31.851 100C49.001 100 62.9027 86.0961 62.9027 68.9461C62.9029 53.723 51.9496 41.06 37.4945 38.4053Z" fill="#D83131"/>
<path d="M68.1489 0C67.6942 0 67.2418 0.00976563 66.7918 0.0291016C66.7291 0.0318359 66.6002 0.130859 66.5377 0.133984C58.9315 0.506641 52.1746 3.59238 46.9967 8.46367C40.9887 14.1158 37.2092 22.0711 37.2092 31.0043C37.2092 31.8426 37.2143 32.6307 37.2795 33.4521C37.2823 33.4863 37.201 33.6104 37.2039 33.6443C38.5211 49.5814 51.8721 62.1057 68.1491 62.1057C85.2991 62.1057 99.2008 48.2018 99.2008 31.0518C99.2008 13.9018 85.2989 0 68.1489 0V0ZM68.1489 45.3781C60.2366 45.3781 53.8227 38.9643 53.8227 31.052C53.8227 23.1416 60.2366 16.7277 68.1489 16.7277C76.0612 16.7277 82.475 23.1416 82.475 31.052C82.475 38.9641 76.0612 45.3781 68.1489 45.3781Z" fill="#FE9738"/>
<path d="M73.7924 0.510986C86.1516 4.60786 95.0654 16.2592 95.0654 29.992C95.0654 47.142 81.1637 61.0459 64.0137 61.0459C62.0869 61.0459 60.2004 60.8709 58.3701 60.535C61.4434 61.5547 64.7316 62.1057 68.1488 62.1057C85.2988 62.1057 99.2006 48.2018 99.2006 31.0518C99.2006 15.8288 88.2473 3.16567 73.7924 0.510986Z" fill="#FE860A"/>
<path d="M20.1253 52.8845C19.2921 52.8845 18.6169 52.2092 18.6169 51.3761V48.624C18.6169 47.791 19.2921 47.1156 20.1253 47.1156C20.9585 47.1156 21.6337 47.791 21.6337 48.624V51.3761C21.6337 52.2092 20.9585 52.8845 20.1253 52.8845Z" fill="#CC2121"/>
<path d="M10.5965 60.1991C9.98853 60.1991 9.41548 59.8287 9.18657 59.2266C8.89048 58.4479 9.28149 57.5766 10.06 57.2805L12.6325 56.302C13.4106 56.0055 14.2825 56.3967 14.5788 57.1756C14.8749 57.9543 14.4838 58.8256 13.7053 59.1217L11.1327 60.1C10.9561 60.1672 10.7749 60.1991 10.5965 60.1991Z" fill="#CC2121"/>
<path d="M33.9282 47.3852C33.8302 47.3852 33.7308 47.3756 33.631 47.3557L30.9321 46.8164C30.1153 46.6531 29.5853 45.8586 29.7485 45.0416C29.912 44.2246 30.7067 43.6944 31.5233 43.858L34.2222 44.3973C35.039 44.5606 35.569 45.3551 35.4058 46.1721C35.2626 46.8893 34.6329 47.3852 33.9282 47.3852Z" fill="#CC2121"/>
<path d="M9.25347 73.3693C9.1441 73.3693 9.03297 73.3574 8.92164 73.3324C8.10875 73.15 7.59781 72.3432 7.78004 71.5303L8.38277 68.8449C8.56539 68.032 9.373 67.5213 10.1851 67.7035C10.998 67.8859 11.5089 68.6928 11.3267 69.5057L10.724 72.191C10.5666 72.8928 9.94371 73.3693 9.25347 73.3693Z" fill="#CC2121"/>
<path d="M14.9994 82.4773C14.9053 82.4773 14.8101 82.4685 14.7142 82.4501L12.0111 81.9331C11.1929 81.7767 10.6564 80.9863 10.8131 80.1681C10.9691 79.3499 11.757 78.813 12.5781 78.9698L15.2812 79.4868C16.0994 79.6435 16.6359 80.4337 16.4793 81.2519C16.341 81.9743 15.7086 82.4773 14.9994 82.4773Z" fill="#CC2121"/>
<path d="M23.2744 91.4017C22.5797 91.4017 21.9547 90.9191 21.8016 90.2127L21.2184 87.523C21.042 86.7088 21.5588 85.9056 22.373 85.7293C23.1865 85.5527 23.9902 86.0697 24.1668 86.8838L24.75 89.5734C24.9264 90.3877 24.4096 91.1908 23.5953 91.3672C23.4877 91.3906 23.3803 91.4017 23.2744 91.4017Z" fill="#CC2121"/>
<path d="M35.2271 93.7166C35.0634 93.7166 34.8972 93.6899 34.7338 93.6332L32.1328 92.733C31.3455 92.4606 30.9281 91.6016 31.2005 90.8143C31.4732 90.0272 32.3318 89.6096 33.1195 89.8823L35.7205 90.7825C36.5078 91.0549 36.9252 91.9139 36.6527 92.7012C36.4365 93.3252 35.8521 93.7166 35.2271 93.7166Z" fill="#CC2121"/>
<path d="M44.7681 89.9797C44.0972 89.9797 43.4851 89.5289 43.3089 88.8494L42.6183 86.1854C42.4091 85.3789 42.8935 84.5557 43.6999 84.3467C44.5075 84.1373 45.3296 84.6221 45.5386 85.4285L46.2292 88.0926C46.4384 88.899 45.954 89.7223 45.1476 89.9313C45.0206 89.9639 44.8933 89.9797 44.7681 89.9797Z" fill="#CC2121"/>
<path d="M51.0366 80.9254C50.6833 80.9254 50.3288 80.802 50.0422 80.5508C49.4159 80.0014 49.3538 79.0483 49.9032 78.4219L51.7184 76.3531C52.2678 75.727 53.2211 75.6651 53.8471 76.2143C54.4735 76.7637 54.5356 77.7168 53.9862 78.3432L52.1709 80.4119C51.8729 80.7518 51.4557 80.9254 51.0366 80.9254Z" fill="#CC2121"/>
<path d="M56.2161 70.1576C56.0524 70.1576 55.8862 70.1309 55.723 70.0744L53.122 69.1744C52.3345 68.902 51.9171 68.043 52.1896 67.2557C52.462 66.4686 53.3214 66.051 54.1083 66.3235L56.7093 67.2235C57.4968 67.4959 57.9142 68.3549 57.6417 69.1424C57.4259 69.766 56.8413 70.1576 56.2161 70.1576Z" fill="#CC2121"/>
<path d="M66.7917 0.0302734C66.496 3.93809 64.0825 7.91231 60.422 8.97031C58.111 9.63613 55.9972 10.6176 54.9251 12.8842C53.8993 15.0543 53.8591 17.6188 52.053 19.3947C51.4558 19.984 50.6833 20.3641 49.9634 20.7744C48.5294 21.593 46.9083 22.2467 46.0815 23.7812C44.7099 26.3295 45.5204 29.1271 43.4005 31.3014C41.7231 33.0189 39.4946 33.5902 37.2038 33.6445C37.1335 32.7896 37.0972 31.9248 37.0972 31.052C37.0976 14.3564 50.2712 0.740234 66.7917 0.0302734Z" fill="#0078C8"/>
</g>
<defs>
<clipPath id="clip0">
<rect width="100" height="100" fill="white"/>
</clipPath>
</defs>
</svg>
