<svg width="100" height="100" viewBox="0 0 100 100" fill="none" xmlns="http://www.w3.org/2000/svg">
<g clip-path="url(#clip0)">
<path d="M50.0001 99.9999C47.3894 99.9999 45.2729 97.8835 45.2729 95.2728V69.5037H54.7272V95.2728C54.7272 97.8835 52.6108 99.9999 50.0001 99.9999Z" fill="#F4D7C8"/>
<path d="M54.7282 69.5049V95.2734C54.7282 97.8834 52.6101 99.9996 50.0001 99.9996C49.2724 99.9996 48.5833 99.835 47.9673 99.5422C49.561 98.782 50.6626 97.1559 50.6626 95.2734V69.5049H54.7282Z" fill="#ECBBA3"/>
<path d="M67.8611 6.11563C67.3287 2.6002 64.309 0.000976562 60.7535 0.000976562H39.2465C35.691 0.000976562 32.6713 2.6002 32.1389 6.11563C30.3512 17.9203 27.9445 43.4043 27.4785 63.7641C27.3898 67.6363 30.7898 70.7027 34.6631 70.7027H65.3369C69.2101 70.7027 72.6101 67.6361 72.5215 63.7641C72.0554 43.4043 69.6488 17.9201 67.8611 6.11563Z" fill="#FEE45A"/>
<path d="M72.5206 63.7625C72.6101 67.6348 69.2093 70.7021 65.337 70.7021H61.3528C65.2272 70.7021 68.6259 67.6348 68.5386 63.7625C68.0731 43.4027 65.6663 17.9184 63.8776 6.11445C63.345 2.5998 60.3263 0 56.769 0H60.7532C64.3085 0 67.329 2.5998 67.8616 6.11445C69.6483 17.9184 72.0552 43.4027 72.5206 63.7625Z" fill="#FEDF30"/>
<path d="M42.4528 62.0425C40.4847 62.0425 38.8892 60.447 38.8892 58.4789V12.2232C38.8892 10.2551 40.4847 8.65955 42.4528 8.65955C44.421 8.65955 46.0165 10.2551 46.0165 12.2232V58.4791C46.0165 60.447 44.421 62.0425 42.4528 62.0425Z" fill="#FAC600"/>
<path d="M57.5473 62.0425C55.5792 62.0425 53.9836 60.447 53.9836 58.4789V12.2232C53.9836 10.2551 55.5792 8.65955 57.5473 8.65955C59.5155 8.65955 61.111 10.2551 61.111 12.2232V58.4791C61.1108 60.447 59.5153 62.0425 57.5473 62.0425Z" fill="#FAC600"/>
<path d="M46.0159 12.2228V58.4795C46.0159 60.4472 44.4202 62.0427 42.4526 62.0427C41.7635 62.0427 41.1211 61.8476 40.5764 61.5082C41.5887 60.8801 42.2635 59.758 42.2635 58.4795V12.2228C42.2635 11.239 41.8651 10.3486 41.2188 9.70427C41.0256 9.51111 40.8102 9.33845 40.5764 9.19412C41.1211 8.85466 41.7635 8.65955 42.4526 8.65955C43.4364 8.65955 44.3268 9.05798 44.9711 9.70427C45.6174 10.3486 46.0159 11.2388 46.0159 12.2228Z" fill="#E8B800"/>
<path d="M61.1111 12.2228V58.4795C61.1111 60.4472 59.5154 62.0427 57.5478 62.0427C56.8587 62.0427 56.2164 61.8476 55.6716 61.5082C56.6839 60.8801 57.3587 59.758 57.3587 58.4795V12.2228C57.3587 11.239 56.9603 10.3486 56.314 9.70427C56.1208 9.51111 55.9054 9.33845 55.6716 9.19412C56.2164 8.85466 56.8587 8.65955 57.5478 8.65955C58.5316 8.65955 59.422 9.05798 60.0664 9.70427C60.7126 10.3486 61.1111 11.2388 61.1111 12.2228Z" fill="#E8B800"/>
</g>
<defs>
<clipPath id="clip0">
<rect width="100" height="100" fill="white"/>
</clipPath>
</defs>
</svg>
