<svg width="100" height="100" viewBox="0 0 100 100" fill="none" xmlns="http://www.w3.org/2000/svg">
<g clip-path="url(#clip0)">
<path d="M24.4276 70.7136C24.4276 70.7136 15.8044 70.5746 10.5988 76.5891C9.85705 77.4461 10.4379 78.785 11.5708 78.817C14.0414 78.8867 17.6553 79.2327 19.4198 80.5785L18.0175 82.5972C15.8345 85.7397 14.5169 89.4012 14.1967 93.214L14.1283 94.0268C14.0422 95.0533 15.0947 95.7916 16.0303 95.3608L16.7713 95.0197C20.2471 93.42 23.2408 90.9342 25.4519 87.8114L26.8722 85.8053C28.7385 87.006 30.2947 90.2859 31.2017 92.5851C31.6176 93.6395 33.0742 93.7295 33.6274 92.7403C37.5095 85.7977 34.4416 77.7373 34.4416 77.7373C36.4239 79.0168 39.0202 82.1391 40.642 84.2345C41.3258 85.118 42.7342 84.831 43.007 83.7477C43.9862 79.8581 43.6537 75.7899 41.8485 72.1009C40.4552 69.2535 38.3596 66.8516 35.8527 65.074C33.3275 63.3223 30.3556 62.1701 27.2038 61.83C23.1205 61.3893 19.1824 62.4622 15.8587 64.7077C14.933 65.3331 15.1429 66.755 16.2065 67.0971C18.7296 67.908 22.5494 69.2857 24.4276 70.7136Z" fill="#00C27A"/>
<path d="M26.8675 85.8165L25.4531 87.8116C23.2414 90.935 20.2467 93.4206 16.7717 95.0192L16.0317 95.3605C15.0954 95.7918 14.0428 95.0539 14.1287 94.0277L14.1961 93.214C14.2287 92.8317 14.2697 92.4515 14.3228 92.0733C17.3194 90.4523 20.0136 88.0731 22.3705 85.2949L24.2997 83.0239C24.632 82.6328 25.2412 82.6287 25.5677 83.0247C26.1615 83.745 26.5446 84.7494 26.8675 85.8165Z" fill="#08B865"/>
<path d="M34.4415 77.7582C34.4968 77.9095 37.4688 85.8815 33.6238 92.7579C33.0718 93.7473 31.6144 93.6573 31.1995 92.6025C30.8683 91.7664 30.4534 90.7995 29.9668 89.849C30.1078 89.7427 30.2325 89.6037 30.3286 89.4299C33.1354 84.4106 32.1638 78.8887 31.4113 76.216C31.267 75.7037 31.8709 75.3143 32.2759 75.6598C33.0171 76.2926 34.4804 77.7828 34.4415 77.7582Z" fill="#08B865"/>
<path d="M72.9298 24.8794C72.9298 24.8794 81.2441 25.2535 86.4327 19.5967C87.1719 18.7907 86.649 17.483 85.5569 17.4206C83.1758 17.2845 79.6994 16.8502 78.0348 15.5029L79.4436 13.5947C81.6368 10.6242 83.0098 7.1289 83.4247 3.46L83.5132 2.6778C83.6249 1.69018 82.63 0.948789 81.7154 1.33813L80.9912 1.64645C77.5939 3.09272 74.637 5.4075 72.4173 8.35805L70.9913 10.2536C69.2244 9.0436 67.8146 5.83629 67.0037 3.59336C66.6318 2.56474 65.2292 2.43724 64.6681 3.37624C60.7301 9.96522 63.4651 17.8257 63.4651 17.8257C61.5884 16.5362 59.171 13.4521 57.6649 11.3857C57.03 10.5145 55.6633 10.7521 55.3701 11.7895C54.3172 15.5143 54.5248 19.4477 56.1634 23.0565C57.4283 25.842 59.3826 28.2171 61.7515 30.0016C64.1385 31.7617 66.9733 32.9557 70.0041 33.3716C73.9305 33.9105 77.7593 32.985 81.0277 30.9115C81.938 30.3339 81.7752 28.9566 80.7587 28.5969C78.3482 27.7444 74.7018 26.3093 72.9298 24.8794Z" fill="#00C27A"/>
<path d="M78.0561 15.4746C77.1542 15.2153 76.297 14.889 75.5863 14.4963C75.0927 14.2236 74.923 13.597 75.2149 13.1145L76.1061 11.6421C78.1828 8.83132 79.5217 5.54864 80.0103 2.09394C80.3332 1.93656 80.6603 1.78739 80.9914 1.64621L81.7151 1.33751C82.6308 0.949144 83.6243 1.69112 83.5138 2.67835L83.4238 3.45919C83.0088 7.12847 81.6372 10.6238 79.4438 13.5939L78.0561 15.4746Z" fill="#08B865"/>
<path d="M86.4329 19.5974C81.521 24.951 73.8085 24.902 72.999 24.8815C72.9971 24.8815 72.997 24.8815 72.997 24.8815C71.6642 24.2682 70.4235 23.5957 69.5916 22.9252C69.5916 22.9252 77.9051 23.2993 83.095 17.6433C83.2299 17.496 83.3219 17.3551 83.3709 17.2242C84.1435 17.3223 84.8918 17.3838 85.556 17.4205C86.6497 17.4839 87.173 18.79 86.4329 19.5974Z" fill="#08B865"/>
<path d="M60.868 31.5347C60.5236 31.5347 60.1772 31.4193 59.8913 31.1827C59.239 30.6428 59.148 29.6762 59.6879 29.0241L68.5203 18.3538L71.127 15.0805C71.6329 14.4018 72.5936 14.2614 73.2725 14.7673C73.9514 15.2732 74.0916 16.2339 73.5857 16.9128L62.0499 30.9792C61.7467 31.3455 61.3089 31.5347 60.868 31.5347Z" fill="#059B50"/>
<path d="M49.617 23.3899C49.0857 19.7533 48.3728 9.91225 49.037 3.88132C49.3362 1.16587 52.0235 -0.61215 54.6329 0.196999C54.6702 0.208519 54.7077 0.220039 54.745 0.23156C56.8343 0.873568 58.1111 2.97689 57.7319 5.12961C57.0627 8.92835 56.1942 18.0039 56.1325 22.9463C56.1101 24.7446 54.6564 26.1948 52.858 26.1948C51.2306 26.1948 49.8522 25.0004 49.617 23.3899Z" fill="#D77F4A"/>
<path d="M57.7317 5.12893C57.0633 8.92885 56.1944 18.0027 56.1331 22.9454C56.1106 24.7444 54.6573 26.1936 52.8584 26.1936C52.1022 26.1936 51.3969 25.936 50.8389 25.4965C51.5951 24.9037 52.0836 23.9819 52.0959 22.9454C52.1572 18.0029 53.026 8.92885 53.6945 5.12893C54.0339 3.20955 53.0547 1.32882 51.3581 0.490777C52.325 -0.0161129 53.486 -0.159237 54.6327 0.196523C54.6694 0.208824 54.7083 0.218978 54.7452 0.231279C56.8343 0.873092 58.1118 2.97661 57.7317 5.12893Z" fill="#C86D36"/>
<path d="M25.734 81.4976C25.4298 81.4976 25.1228 81.4074 24.8551 81.2195C24.1618 80.7333 23.9941 79.7773 24.4802 79.084L26.658 75.9788L32.6653 67.259C33.1454 66.5617 34.1002 66.3858 34.7975 66.8663C35.4947 67.3466 35.6707 68.3013 35.1901 68.9985L29.1754 77.7289L26.9905 80.8444C26.6921 81.2701 26.2169 81.4976 25.734 81.4976Z" fill="#059B50"/>
<path d="M53.2836 99.9999C58.9023 99.9999 63.4571 95.445 63.4571 89.8264C63.4571 84.2077 58.9023 79.6528 53.2836 79.6528C47.6649 79.6528 43.1101 84.2077 43.1101 89.8264C43.1101 95.445 47.6649 99.9999 53.2836 99.9999Z" fill="#0078C8"/>
<path d="M63.4571 89.8264C63.4571 95.4457 58.9007 99.9999 53.2835 99.9999C50.2112 99.9999 47.4559 98.6386 45.5916 96.4841C46.9611 97.1708 48.5064 97.5572 50.1416 97.5572C55.761 97.5572 60.3152 93.0028 60.3152 87.3837C60.3152 84.8387 59.3811 82.5105 57.8356 80.7281C61.1677 82.3958 63.4571 85.8443 63.4571 89.8264Z" fill="#0268B4"/>
<path d="M44.101 85.3643C49.7197 85.3643 54.2745 80.8094 54.2745 75.1907C54.2745 69.5721 49.7197 65.0172 44.101 65.0172C38.4823 65.0172 33.9275 69.5721 33.9275 75.1907C33.9275 80.8094 38.4823 85.3643 44.101 85.3643Z" fill="#0078C8"/>
<path d="M54.2744 75.1905C54.2744 80.8098 49.7181 85.364 44.1009 85.364C41.0285 85.364 38.2733 84.0027 36.4089 81.8482C37.7785 82.535 39.3237 82.9214 40.959 82.9214C46.5784 82.9214 51.1326 78.367 51.1326 72.7478C51.1326 70.2029 50.1984 67.8746 48.653 66.0923C51.985 67.7602 54.2744 71.2086 54.2744 75.1905Z" fill="#0268B4"/>
<path d="M62.4662 85.3643C68.0849 85.3643 72.6398 80.8094 72.6398 75.1907C72.6398 69.5721 68.0849 65.0172 62.4662 65.0172C56.8476 65.0172 52.2927 69.5721 52.2927 75.1907C52.2927 80.8094 56.8476 85.3643 62.4662 85.3643Z" fill="#0078C8"/>
<path d="M72.6397 75.1905C72.6397 80.8098 68.0833 85.364 62.4662 85.364C59.3938 85.364 56.6385 84.0027 54.7742 81.8482C56.1437 82.535 57.689 82.9214 59.3243 82.9214C64.9436 82.9214 69.4978 78.367 69.4978 72.7478C69.4978 70.2029 68.5637 67.8746 67.0182 66.0923C70.3503 67.7602 72.6397 71.2086 72.6397 75.1905Z" fill="#0268B4"/>
<path d="M34.9184 41.9744C40.5371 41.9744 45.0919 37.4195 45.0919 31.8008C45.0919 26.1822 40.5371 21.6273 34.9184 21.6273C29.2997 21.6273 24.7449 26.1822 24.7449 31.8008C24.7449 37.4195 29.2997 41.9744 34.9184 41.9744Z" fill="#0078C8"/>
<path d="M45.0928 31.8009C45.0928 37.4202 40.5365 41.9744 34.9193 41.9744C31.8469 41.9744 29.0916 40.6131 27.2273 38.4586C28.5968 39.1453 30.1421 39.5317 31.7774 39.5317C37.3967 39.5317 41.9509 34.9773 41.9509 29.3582C41.9509 26.8132 41.0168 24.485 39.4713 22.7026C42.8034 24.3705 45.0928 27.819 45.0928 31.8009Z" fill="#0268B4"/>
<path d="M53.2836 41.9744C58.9023 41.9744 63.4571 37.4195 63.4571 31.8008C63.4571 26.1822 58.9023 21.6273 53.2836 21.6273C47.6649 21.6273 43.1101 26.1822 43.1101 31.8008C43.1101 37.4195 47.6649 41.9744 53.2836 41.9744Z" fill="#0078C8"/>
<path d="M63.4571 31.8009C63.4571 37.4202 58.9027 41.9744 53.2835 41.9744C50.2112 41.9744 47.4557 40.6131 45.5916 38.4586C46.9611 39.1453 48.5085 39.5317 50.1438 39.5317C55.761 39.5317 60.3173 34.9773 60.3173 29.3582C60.3173 26.8132 59.3832 24.485 57.8377 22.7026C61.1696 24.3727 63.4571 27.819 63.4571 31.8009Z" fill="#0268B4"/>
<path d="M71.6489 41.9744C77.2675 41.9744 81.8224 37.4195 81.8224 31.8008C81.8224 26.1822 77.2675 21.6273 71.6489 21.6273C66.0302 21.6273 61.4753 26.1822 61.4753 31.8008C61.4753 37.4195 66.0302 41.9744 71.6489 41.9744Z" fill="#0078C8"/>
<path d="M81.8216 31.8009C81.8216 37.4202 77.2674 41.9744 71.648 41.9744C68.5757 41.9744 65.8223 40.6131 63.9561 38.4586C65.3256 39.1453 66.873 39.5317 68.5083 39.5317C74.1276 39.5317 78.6818 34.9773 78.6818 29.3582C78.6818 26.8132 77.7477 24.485 76.2022 22.7026C79.5341 24.3727 81.8216 27.819 81.8216 31.8009Z" fill="#0268B4"/>
<path d="M27.008 56.0763C32.6267 56.0763 37.1815 51.5214 37.1815 45.9028C37.1815 40.2841 32.6267 35.7292 27.008 35.7292C21.3893 35.7292 16.8345 40.2841 16.8345 45.9028C16.8345 51.5214 21.3893 56.0763 27.008 56.0763Z" fill="#0078C8"/>
<path d="M37.1814 45.9028C37.1814 51.5221 32.6251 56.0763 27.0079 56.0763C23.9355 56.0763 21.1802 54.715 19.3159 52.5605C20.6855 53.2472 22.2307 53.6336 23.866 53.6336C29.4853 53.6336 34.0395 49.0793 34.0395 43.4601C34.0395 40.9151 33.1054 38.5869 31.56 36.8046C34.892 38.4723 37.1814 41.9207 37.1814 45.9028Z" fill="#0268B4"/>
<path d="M44.5251 56.0763C50.1438 56.0763 54.6986 51.5214 54.6986 45.9028C54.6986 40.2841 50.1438 35.7292 44.5251 35.7292C38.9064 35.7292 34.3516 40.2841 34.3516 45.9028C34.3516 51.5214 38.9064 56.0763 44.5251 56.0763Z" fill="#0078C8"/>
<path d="M54.6985 45.9028C54.6985 51.5221 50.1422 56.0763 44.525 56.0763C41.4526 56.0763 38.6973 54.715 36.833 52.5605C38.2025 53.2472 39.7478 53.6336 41.3831 53.6336C47.0024 53.6336 51.5566 49.0793 51.5566 43.4601C51.5566 40.9151 50.6225 38.5869 49.077 36.8046C52.4091 38.4723 54.6985 41.9207 54.6985 45.9028Z" fill="#0268B4"/>
<path d="M62.0422 56.0763C67.6609 56.0763 72.2157 51.5214 72.2157 45.9028C72.2157 40.2841 67.6609 35.7292 62.0422 35.7292C56.4235 35.7292 51.8687 40.2841 51.8687 45.9028C51.8687 51.5214 56.4235 56.0763 62.0422 56.0763Z" fill="#0078C8"/>
<path d="M72.2156 45.9028C72.2156 51.5221 67.6593 56.0763 62.0421 56.0763C58.9697 56.0763 56.2144 54.715 54.3501 52.5605C55.7196 53.2472 57.2649 53.6336 58.9002 53.6336C64.5195 53.6336 69.0737 49.0793 69.0737 43.4601C69.0737 40.9151 68.1396 38.5869 66.5941 36.8046C69.9262 38.4723 72.2156 41.9207 72.2156 45.9028Z" fill="#0268B4"/>
<path d="M79.559 56.0763C85.1777 56.0763 89.7326 51.5214 89.7326 45.9028C89.7326 40.2841 85.1777 35.7292 79.559 35.7292C73.9403 35.7292 69.3855 40.2841 69.3855 45.9028C69.3855 51.5214 73.9403 56.0763 79.559 56.0763Z" fill="#0078C8"/>
<path d="M89.7327 45.9028C89.7327 51.5221 85.1764 56.0763 79.5592 56.0763C76.4868 56.0763 73.7315 54.715 71.8672 52.5605C73.2367 53.2472 74.782 53.6336 76.4173 53.6336C82.0366 53.6336 86.5908 49.0793 86.5908 43.4601C86.5908 40.9151 85.6567 38.5869 84.1112 36.8046C87.4433 38.4723 89.7327 41.9207 89.7327 45.9028Z" fill="#0268B4"/>
<path d="M34.9184 70.8003C40.5371 70.8003 45.0919 66.2455 45.0919 60.6268C45.0919 55.0081 40.5371 50.4532 34.9184 50.4532C29.2997 50.4532 24.7449 55.0081 24.7449 60.6268C24.7449 66.2455 29.2997 70.8003 34.9184 70.8003Z" fill="#0078C8"/>
<path d="M45.0918 60.6266C45.0918 66.2459 40.5355 70.8001 34.9183 70.8001C31.8459 70.8001 29.0906 69.4387 27.2263 67.2843C28.5959 67.971 30.1411 68.3574 31.7764 68.3574C37.3957 68.3574 41.9499 63.803 41.9499 58.1839C41.9499 55.6389 41.0158 53.3106 39.4704 51.5283C42.8024 53.1962 45.0918 56.6447 45.0918 60.6266Z" fill="#0268B4"/>
<path d="M53.2836 70.8003C58.9023 70.8003 63.4571 66.2455 63.4571 60.6268C63.4571 55.0081 58.9023 50.4532 53.2836 50.4532C47.6649 50.4532 43.1101 55.0081 43.1101 60.6268C43.1101 66.2455 47.6649 70.8003 53.2836 70.8003Z" fill="#0078C8"/>
<path d="M63.4571 60.6266C63.4571 66.2459 58.9007 70.8001 53.2835 70.8001C50.2112 70.8001 47.4559 69.4387 45.5916 67.2843C46.9611 67.971 48.5064 68.3574 50.1416 68.3574C55.761 68.3574 60.3152 63.803 60.3152 58.1839C60.3152 55.6389 59.3811 53.3106 57.8356 51.5283C61.1677 53.1962 63.4571 56.6447 63.4571 60.6266Z" fill="#0268B4"/>
<path d="M71.6489 70.8003C77.2675 70.8003 81.8224 66.2455 81.8224 60.6268C81.8224 55.0081 77.2675 50.4532 71.6489 50.4532C66.0302 50.4532 61.4753 55.0081 61.4753 60.6268C61.4753 66.2455 66.0302 70.8003 71.6489 70.8003Z" fill="#0078C8"/>
<path d="M81.8223 60.6266C81.8223 66.2459 77.266 70.8001 71.6488 70.8001C68.5764 70.8001 65.8211 69.4387 63.9568 67.2843C65.3263 67.971 66.8716 68.3574 68.5069 68.3574C74.1262 68.3574 78.6804 63.803 78.6804 58.1839C78.6804 55.6389 77.7463 53.3106 76.2008 51.5283C79.5329 53.1962 81.8223 56.6447 81.8223 60.6266Z" fill="#0268B4"/>
</g>
<defs>
<clipPath id="clip0">
<rect width="100" height="100" fill="white"/>
</clipPath>
</defs>
</svg>
