<svg width="100" height="100" viewBox="0 0 100 100" fill="none" xmlns="http://www.w3.org/2000/svg">
<g clip-path="url(#clip0)">
<path d="M83.3821 14.907H58.5378C57.8517 14.907 57.2954 14.3508 57.2954 13.6646C57.2954 6.11777 63.4132 0 70.9601 0C78.5067 0 84.6247 6.11777 84.6247 13.6646C84.6247 14.3508 84.0685 14.907 83.3821 14.907Z" fill="#BBEC6C"/>
<path d="M84.6236 13.6646C84.6236 14.009 84.4848 14.3189 84.2592 14.5424C84.0357 14.768 83.7236 14.9068 83.3814 14.9068H79.1957C79.54 14.9068 79.85 14.768 80.0756 14.5424C80.3012 14.3189 80.44 14.0088 80.44 13.6646C80.44 6.8293 75.4207 1.16582 68.8672 0.158984C69.5496 0.0544922 70.2482 0 70.959 0C74.732 0 78.1486 1.53008 80.6211 4.00254C83.0955 6.475 84.6236 9.8916 84.6236 13.6646Z" fill="#A2E62E"/>
<path d="M70.9602 25.2953C70.1262 25.2953 69.4502 24.6193 69.4502 23.7853V12.4365C69.4502 11.6025 70.1262 10.9265 70.9602 10.9265C71.7941 10.9265 72.4701 11.6025 72.4701 12.4365V23.7851C72.4701 24.6191 71.7941 25.2953 70.9602 25.2953Z" fill="#D77F4A"/>
<path d="M70.96 0C70.96 0 64.544 5.75469 65.6787 14.907H76.241C77.376 5.75469 70.96 0 70.96 0Z" fill="#00C27A"/>
<path d="M82.7929 23.7852H17.2073C16.1724 23.7852 15.3335 24.624 15.3335 25.659C15.3335 32.359 19.7882 38.016 25.897 39.8359C27.2085 40.2268 28.0905 41.4566 28.0905 42.8252V42.8414C28.0905 50.7287 34.4845 57.1227 42.3718 57.1227C44.6794 57.1227 46.5501 58.9934 46.5501 61.301V83.2777C46.5501 89.15 42.4938 94.3021 36.7507 95.5268C36.5884 95.5613 36.4237 95.5947 36.2561 95.6266C36.2561 95.6266 31.8829 96.2514 31.0499 99.9998H50.0001H68.9503C68.1173 96.2514 63.7442 95.6266 63.7442 95.6266C63.5954 95.5982 63.4487 95.5687 63.3042 95.5383C57.5378 94.3231 53.4503 89.1707 53.4503 83.2777V61.3012C53.4503 58.9936 55.321 57.1229 57.6286 57.1229C65.5159 57.1229 71.9099 50.7289 71.9099 42.8416V42.8254C71.9099 41.4568 72.7919 40.2268 74.1034 39.8361C80.2122 38.0162 84.6669 32.3592 84.6669 25.6592C84.6669 24.6242 83.8278 23.7852 82.7929 23.7852Z" fill="#C8EFFE"/>
<path d="M84.666 25.6582C84.666 32.3586 80.2125 38.0162 74.1039 39.8364C72.7912 40.227 71.9094 41.4571 71.9094 42.8262V42.8424C71.9094 46.7865 70.3107 50.3563 67.7256 52.9393C65.1424 55.5244 61.5729 57.1231 57.6285 57.1231C55.3213 57.1231 53.4508 58.9936 53.4508 61.3008V83.2785C53.4508 89.1717 57.5379 94.3239 63.3041 95.5379C63.449 95.5701 63.5961 95.5983 63.743 95.6264C63.743 95.6264 68.118 96.2526 68.9494 99.9994H65.5066C65.3707 98.8885 64.2697 98.5535 63.3596 98.2239C61.7828 97.6526 60.1549 97.2215 58.6129 96.5559C57.0869 95.8973 55.8389 94.9672 54.5961 93.8545C53.5418 92.9106 52.616 91.8242 51.9152 90.5918C50.6563 88.3774 50.0059 85.8233 50.0059 83.2785C50.0059 83.269 50.0059 59.2129 50.0059 59.2129C50.0059 56.9035 51.8764 55.0332 54.1855 55.0332C58.1297 55.0332 61.6994 53.493 64.2824 50.9662C66.8676 48.4395 68.4662 44.9262 68.4662 40.984V40.9678C68.4662 39.5987 69.3481 38.3686 70.6588 37.978C76.7674 36.1578 81.2229 32.3586 81.2229 25.6582C81.2229 25.1408 81.0135 24.6717 80.6732 24.3334C80.335 23.9951 79.8658 23.7858 79.3484 23.7858H82.7934C83.3107 23.7858 83.7799 23.9951 84.1182 24.3334C84.4566 24.6717 84.666 25.1408 84.666 25.6582Z" fill="#99E6FC"/>
<path d="M82.9828 32.5178C81.1487 36.017 77.9555 38.6887 74.1039 39.8363C72.7912 40.2269 71.9094 41.457 71.9094 42.8262V42.8424C71.9094 46.7865 70.3108 50.3562 67.7256 52.9393C65.1424 55.5244 61.5729 57.123 57.6286 57.123C57.6286 57.123 43.2411 57.123 42.3713 57.123C34.485 57.123 28.0907 50.7287 28.0907 42.8424V42.8262C28.0907 41.457 27.2088 40.2269 25.8961 39.8363C22.8418 38.9264 20.2024 37.058 18.3239 34.5775C18.028 34.185 17.75 33.7783 17.4924 33.3555C26.2243 31.1932 34.1932 32.1353 43.4165 33.6836C53.1491 35.3184 63.0325 36.9834 72.8979 35.4654C76.6549 34.8875 80.0856 33.8566 82.9828 32.5178Z" fill="#FE9738"/>
<path d="M82.9829 32.5178C82.9608 32.56 82.9385 32.6024 82.9165 32.6426C82.6047 33.2098 82.2612 33.7659 81.8815 34.2946C81.3514 35.0325 80.7542 35.7258 80.0918 36.3534C78.4834 37.877 76.567 39.0106 74.4624 39.7237C74.3436 39.7639 74.2249 39.8002 74.104 39.8364C72.7913 40.227 71.9094 41.4571 71.9094 42.8262V42.8424C71.9094 46.7866 70.3108 50.3563 67.7256 52.9393C65.1424 55.5245 61.5729 57.1231 57.6286 57.1231C57.6286 57.1231 54.1836 57.1231 50.5657 57.1231C51.2864 55.8729 52.6374 55.0332 54.1856 55.0332C58.1297 55.0332 61.6995 53.493 64.2825 50.9663C66.8676 48.4395 68.4663 44.9262 68.4663 40.984V40.9678C68.4663 39.5987 69.3481 38.3686 70.6588 37.978C73.236 37.211 75.519 36.0895 77.2989 34.5452C79.3528 33.9997 81.2614 33.3131 82.9829 32.5178Z" fill="#FE860A"/>
</g>
<defs>
<clipPath id="clip0">
<rect width="100" height="100" fill="white"/>
</clipPath>
</defs>
</svg>
