<svg width="100" height="100" viewBox="0 0 100 100" fill="none" xmlns="http://www.w3.org/2000/svg">
<g clip-path="url(#clip0)">
<path d="M65.9449 18.4578C60.6626 18.4578 55.7271 20.016 51.5306 22.7183C50.5933 23.3218 49.4062 23.3218 48.4689 22.7183C44.2724 20.016 39.3369 18.4578 34.0546 18.4578C18.7955 18.4578 6.42554 31.4576 6.42554 47.4941C6.42573 71.4095 17.014 102.492 44.5134 99.841C44.5134 99.841 46.6066 99.5816 48.8412 98.5904C49.5818 98.2619 50.4175 98.2619 51.1582 98.5904C53.3925 99.5816 55.4859 99.841 55.4859 99.841C82.9853 102.492 93.5736 71.4095 93.574 47.4939C93.574 31.4576 81.2039 18.4578 65.9449 18.4578Z" fill="#E94444"/>
<path d="M49.4998 32.7112C47.4012 32.7112 45.3033 32.0266 43.6859 30.6506C43.0494 30.109 42.9723 29.1537 43.5141 28.5172C44.0557 27.8807 45.0105 27.8035 45.6475 28.3451C47.8014 30.178 51.3973 30.1274 53.4992 28.2344C54.1199 27.675 55.077 27.7248 55.6369 28.3463C56.1963 28.9674 56.1461 29.9244 55.5252 30.4838C53.8793 31.9662 51.6891 32.7112 49.4998 32.7112Z" fill="#CC2121"/>
<path d="M93.5745 47.4949C93.5745 71.0753 83.2806 101.624 56.631 99.9327C80.2073 98.3667 89.4277 69.8099 89.4277 47.4949C89.4277 32.1923 78.1652 19.6564 63.8777 18.5384C64.5597 18.4839 65.248 18.4578 65.9441 18.4578C81.204 18.4578 93.5745 31.4578 93.5745 47.4949Z" fill="#D83131"/>
<path d="M64.6944 20.9519C66.339 20.0767 67.8233 18.8782 69.0759 17.5075C71.0327 15.3663 72.3405 12.7013 72.6571 9.81593C72.6921 9.49679 72.5353 9.18625 72.2573 9.0255C69.7792 7.59171 66.9005 7.06027 64.053 7.34464C61.738 7.5757 59.3386 8.23918 57.4007 9.57687C54.3144 11.7073 51.8097 14.8829 51.0159 18.621C50.8751 19.2841 50.4122 20.6087 51.204 21.0398C51.9169 21.428 52.6667 21.7482 53.4399 21.996C57.0649 23.1585 61.3187 22.7484 64.6944 20.9519Z" fill="#00C27A"/>
<path d="M72.6577 9.81619C72.3409 12.7019 71.0333 15.3658 69.0757 17.5068C67.8226 18.8791 66.3393 20.0777 64.6946 20.9515C61.3185 22.7476 57.0645 23.1592 53.4401 21.9969C52.6673 21.7486 51.9165 21.4277 51.2042 21.0404C50.9237 20.8871 50.7603 20.5844 50.7864 20.2676C50.8065 20.0174 50.8269 19.757 50.8349 19.6965C50.839 19.6681 50.8409 19.642 50.847 19.6136C54.3927 20.6449 58.4872 20.2051 61.7563 18.4635C63.4011 17.5896 64.8843 16.391 66.1374 15.0207C67.9677 13.0189 69.2309 10.5568 69.6446 7.88708C70.5507 8.1656 71.4265 8.5449 72.2579 9.02517C72.5347 9.1865 72.6921 9.49724 72.6577 9.81619Z" fill="#08B865"/>
<path d="M46.38 23.0912C45.8556 19.5009 45.1517 9.78571 45.8076 3.8318C46.1029 1.15094 48.756 -0.604333 51.332 0.194495C51.3689 0.206019 51.4058 0.217347 51.4427 0.228675C53.5054 0.862464 54.7657 2.93903 54.3913 5.06422C53.7308 8.81461 52.8734 17.7742 52.8124 22.6533C52.7902 24.4287 51.3552 25.8601 49.5798 25.8601C47.973 25.8601 46.6122 24.681 46.38 23.0912Z" fill="#D77F4A"/>
<path d="M54.3907 5.06396C53.7308 8.81533 52.8732 17.7733 52.8126 22.6528C52.7903 24.4286 51.3556 25.8595 49.5798 25.8595C48.8331 25.8595 48.1368 25.6052 47.5861 25.1714C48.3327 24.5862 48.815 23.6761 48.8271 22.6528C48.8876 17.7733 49.7452 8.81533 50.4052 5.06396C50.7402 3.16904 49.7736 1.3124 48.0986 0.485054C49.053 -0.0153362 50.1993 -0.156742 51.3314 0.194429C51.3677 0.206539 51.406 0.216695 51.4423 0.228804C53.505 0.862398 54.7661 2.93896 54.3907 5.06396Z" fill="#C86D36"/>
</g>
<defs>
<clipPath id="clip0">
<rect width="100" height="100" fill="white"/>
</clipPath>
</defs>
</svg>
