<svg width="100" height="100" viewBox="0 0 100 100" fill="none" xmlns="http://www.w3.org/2000/svg">
<g clip-path="url(#clip0)">
<path d="M86.7311 45.3531V78.671C86.7311 83.6699 82.6788 87.7222 77.68 87.7222H66.0477V80.248H76.6022C78.494 80.248 80.0276 78.7144 80.0276 76.8226V47.2013C80.0276 45.3113 78.4942 43.7759 76.6022 43.7759H66.0479V36.3035H77.6821C82.6796 36.3037 86.7311 40.3552 86.7311 45.3531Z" fill="#62DBFB"/>
<path d="M86.732 45.353V78.6715C86.732 83.6703 82.6794 87.7229 77.6806 87.7229H74.4728C79.4716 87.7229 83.5224 83.6703 83.5224 78.6715V45.353C83.5224 40.3559 79.4716 36.3033 74.4745 36.3033H77.6824C82.6794 36.3033 86.732 40.3559 86.732 45.353Z" fill="#01D0FB"/>
<path d="M61.929 19.6656H18.8997L14.5317 26.1754C13.7081 27.4028 13.2684 28.8475 13.2684 30.3256V84.6252C13.2684 89.4557 17.1843 93.3715 22.0147 93.3715H58.8143C63.6448 93.3715 67.5606 89.4557 67.5606 84.6252V30.3256C67.5606 28.8475 67.1208 27.4028 66.2973 26.1754L61.929 19.6656Z" fill="#C8EFFE"/>
<path d="M67.5599 30.326V84.6256C67.5599 89.4551 63.6445 93.3723 58.815 93.3723H55.1652C59.9947 93.3723 63.9101 89.4551 63.9101 84.6256V30.326C63.9101 28.8469 63.4716 27.4034 62.6484 26.1754L58.2804 19.6653H61.9284L66.2964 26.1754C67.1214 27.4034 67.5599 28.8469 67.5599 30.326Z" fill="#99E6FC"/>
<path d="M59.3376 92.9135H21.4911V97.5718C21.4911 98.9123 22.5776 99.999 23.918 99.999L56.9102 99.9996C58.2507 99.9996 59.3374 98.9129 59.3374 97.5724V92.9135H59.3376Z" fill="#62DBFB"/>
<path d="M59.337 92.9143V97.5727C59.337 98.9129 58.2516 100 56.9096 100H53.1458C54.4823 99.9965 55.5659 98.9112 55.5659 97.5727V92.9143H59.337Z" fill="#01D0FB"/>
<path d="M51.2446 0.000976562C53.1694 0.000976562 54.6323 1.73145 54.3118 3.62949L47.7198 42.6664L41.4393 42.6668L48.177 2.5957C48.429 1.09805 49.7257 0.000976562 51.2446 0.000976562Z" fill="#F3F0F3"/>
<path d="M54.3116 3.62832L47.7199 42.6662H44.401L50.9946 3.62832C51.2108 2.33672 50.6045 1.12383 49.5877 0.479102C50.0707 0.173828 50.6387 0 51.2451 0C53.1694 0 54.6328 1.73027 54.3116 3.62832Z" fill="#E2DEE2"/>
<path d="M63.5166 19.6147H17.3119C15.2045 19.6147 13.4961 17.9063 13.4961 15.7989C13.4961 13.6914 15.2045 11.983 17.3119 11.983H63.5166C65.624 11.983 67.3324 13.6914 67.3324 15.7989C67.3324 17.9063 65.624 19.6147 63.5166 19.6147Z" fill="#62DBFB"/>
<path d="M67.3318 15.7982C67.3318 16.8533 66.9058 17.8066 66.2144 18.4982C65.5247 19.1879 64.5712 19.6156 63.5163 19.6156H59.7062C60.7613 19.6156 61.7146 19.1879 62.4042 18.4982C63.0956 17.8068 63.5216 16.8533 63.5216 15.7982C63.5216 13.6918 61.8144 11.9828 59.7062 11.9828H63.5163C65.6243 11.9826 67.3318 13.6916 67.3318 15.7982Z" fill="#01D0FB"/>
<path d="M67.5598 33.0955V84.6255C67.5598 89.455 63.6444 93.3722 58.8149 93.3722H22.0141C17.1846 93.3722 13.2692 89.455 13.2692 84.6255V30.3259C13.2692 30.2921 13.2692 30.2582 13.2709 30.2244C19.9485 30.4863 26.5887 32.7798 32.942 34.9275C41.1701 37.7093 50.1912 40.3238 58.6225 38.0712C62.044 37.1568 65.1129 35.3908 67.5598 33.0955Z" fill="#BBEC6C"/>
<path d="M67.5599 33.0956V84.6257C67.5599 89.4551 63.6445 93.3723 58.815 93.3723H55.1652C59.9947 93.3723 63.9101 89.4551 63.9101 84.6257V35.8382C65.2359 35.0522 66.4603 34.1274 67.5599 33.0956Z" fill="#A2E62E"/>
<path d="M22.8245 46.7086C23.9408 46.7086 24.8458 45.8036 24.8458 44.6873C24.8458 43.571 23.9408 42.666 22.8245 42.666C21.7082 42.666 20.8032 43.571 20.8032 44.6873C20.8032 45.8036 21.7082 46.7086 22.8245 46.7086Z" fill="#97D819"/>
<path d="M30.1773 52.7724C31.2936 52.7724 32.1986 51.8675 32.1986 50.7512C32.1986 49.6348 31.2936 48.7299 30.1773 48.7299C29.061 48.7299 28.156 49.6348 28.156 50.7512C28.156 51.8675 29.061 52.7724 30.1773 52.7724Z" fill="#97D819"/>
<path d="M54.132 63.3915C55.2483 63.3915 56.1533 62.4865 56.1533 61.3702C56.1533 60.2538 55.2483 59.3489 54.132 59.3489C53.0157 59.3489 52.1107 60.2538 52.1107 61.3702C52.1107 62.4865 53.0157 63.3915 54.132 63.3915Z" fill="#97D819"/>
<path d="M37.1679 78.4139C38.2842 78.4139 39.1892 77.5089 39.1892 76.3926C39.1892 75.2763 38.2842 74.3713 37.1679 74.3713C36.0516 74.3713 35.1466 75.2763 35.1466 76.3926C35.1466 77.5089 36.0516 78.4139 37.1679 78.4139Z" fill="#97D819"/>
<path d="M46.6009 50.7512C47.7172 50.7512 48.6222 49.8462 48.6222 48.7299C48.6222 47.6136 47.7172 46.7086 46.6009 46.7086C45.4846 46.7086 44.5796 47.6136 44.5796 48.7299C44.5796 49.8462 45.4846 50.7512 46.6009 50.7512Z" fill="#97D819"/>
<path d="M41.2105 72.9793C42.3268 72.9793 43.2318 72.0744 43.2318 70.9581C43.2318 69.8417 42.3268 68.9368 41.2105 68.9368C40.0942 68.9368 39.1892 69.8417 39.1892 70.9581C39.1892 72.0744 40.0942 72.9793 41.2105 72.9793Z" fill="#97D819"/>
<path d="M58.1746 83.0975C59.2909 83.0975 60.1959 82.1926 60.1959 81.0762C60.1959 79.9599 59.2909 79.0549 58.1746 79.0549C57.0583 79.0549 56.1533 79.9599 56.1533 81.0762C56.1533 82.1926 57.0583 83.0975 58.1746 83.0975Z" fill="#97D819"/>
<path d="M22.8245 69.8244C23.9408 69.8244 24.8458 68.9195 24.8458 67.8032C24.8458 66.6868 23.9408 65.7819 22.8245 65.7819C21.7082 65.7819 20.8032 66.6868 20.8032 67.8032C20.8032 68.9195 21.7082 69.8244 22.8245 69.8244Z" fill="#97D819"/>
</g>
<defs>
<clipPath id="clip0">
<rect width="100" height="100" fill="white"/>
</clipPath>
</defs>
</svg>
