<svg width="100" height="100" viewBox="0 0 100 100" fill="none" xmlns="http://www.w3.org/2000/svg">
<g clip-path="url(#clip0)">
<path d="M93.2488 78.0238H6.75119C3.02266 78.0238 0 75.0013 0 71.2726V69.9434C0 66.2149 3.02266 63.1923 6.75119 63.1923H93.249C96.9775 63.1923 100 66.2149 100 69.9434V71.2726C100 75.0013 96.9775 78.0238 93.2488 78.0238Z" fill="#E94444"/>
<path d="M99.9997 69.9426V71.2722C99.9997 75.0015 96.9784 78.0247 93.2491 78.0247H89.2986C93.0279 78.0247 96.0492 75.0015 96.0492 71.2722V69.9426C96.0492 66.2153 93.0279 63.192 89.2986 63.192H93.2491C96.9784 63.192 99.9997 66.2155 99.9997 69.9426Z" fill="#D83131"/>
<path d="M93.2488 78.0238H50H6.75118C6.75118 78.0238 3.76824 92.4275 20.7429 98.0939C23.6507 99.0646 26.6864 99.5166 29.7306 99.5166H50.0002H70.2697C73.314 99.5166 76.3497 99.0646 79.2575 98.0939C96.2317 92.4275 93.2488 78.0238 93.2488 78.0238Z" fill="#FE9738"/>
<path d="M79.2572 98.0935C76.3486 99.0651 73.3133 99.5177 70.2698 99.5177H65.6876C68.7331 99.5177 71.7684 99.0651 74.6769 98.0935C91.6499 92.4271 88.6669 78.0249 88.6669 78.0249H93.2491C93.2491 78.0247 96.2322 92.4271 79.2572 98.0935Z" fill="#FE860A"/>
<path d="M93.4071 65.8813C93.4071 69.2519 89.4905 71.0792 86.8865 68.939C85.8161 68.0593 84.552 67.3622 82.5485 67.3622C77.12 67.3622 77.12 71.6622 71.6914 71.6622C66.2628 71.6622 66.2628 67.3622 60.8341 67.3622C55.4057 67.3622 55.4057 71.6622 49.9772 71.6622C44.549 71.6622 44.549 67.3622 39.1205 67.3622C33.6919 67.3622 33.6919 71.6622 28.2632 71.6622C22.8348 71.6622 22.8348 67.3622 17.4064 67.3622C15.4038 67.3622 14.1401 68.0589 13.0699 68.9382C10.4657 71.0784 6.54907 69.2515 6.54907 65.8807V57.9036H93.4067V65.8813H93.4071Z" fill="#BBEC6C"/>
<path d="M93.408 57.9041V65.8816C93.408 69.0357 89.9784 70.8378 87.4058 69.303C88.5422 68.6392 89.3588 67.4222 89.3588 65.8816V57.9041H93.408Z" fill="#A2E62E"/>
<path d="M6.5929 51.5118V57.963H15.9045C17.8416 57.963 19.412 59.5334 19.412 61.4705V80.05C19.412 82.5267 21.4198 84.5345 23.8964 84.5345C26.3731 84.5345 28.3807 82.5267 28.3807 80.05V61.4705C28.3807 59.5334 29.9511 57.963 31.8882 57.963H93.4073V51.5118H6.5929Z" fill="#FEE45A"/>
<path d="M89.3589 51.5115H93.4081V57.9624H89.3589V51.5115Z" fill="#FEDF30"/>
<path d="M93.2488 51.9535H6.75119C3.02266 51.9535 0 48.931 0 45.2023V43.8731C0 40.1446 3.02266 37.1219 6.75119 37.1219H93.249C96.9775 37.1219 100 40.1446 100 43.8731V45.2023C100 48.931 96.9775 51.9535 93.2488 51.9535Z" fill="#9E5528"/>
<path d="M99.9997 43.8727V45.2022C99.9997 48.9315 96.9784 51.9528 93.2491 51.9528H89.2986C93.0279 51.9528 96.0492 48.9315 96.0492 45.2022V43.8727C96.0492 40.1453 93.0279 37.1221 89.2986 37.1221H93.2491C96.9784 37.1223 99.9997 40.1455 99.9997 43.8727Z" fill="#904D24"/>
<path d="M49.9999 0.483521C16.281 0.971493 4.9519 19.2623 1.21188 29.89C-0.0697719 33.5317 2.66275 37.3427 6.5233 37.3427H49.9999H93.4762C97.3654 37.3427 100.063 33.4933 98.7656 29.8267C95.003 19.1898 83.6521 0.970519 49.9999 0.483521Z" fill="#FE9738"/>
<path d="M93.4764 37.3431H92.9957C94.3052 35.8827 94.8442 33.7566 94.1141 31.6888C90.3506 21.05 78.9999 2.83205 45.3477 2.34525C36.6419 2.46987 29.4267 3.78346 23.4526 5.84517C30.2274 2.73333 38.9009 0.643384 50.0002 0.482544C83.6523 0.971295 95.0032 19.1894 98.7666 29.8261C100.062 33.4931 97.3644 37.3431 93.4764 37.3431Z" fill="#FE860A"/>
<path d="M36.0817 15.9457C35.8473 15.9457 35.6095 15.8891 35.3887 15.7699C34.6792 15.3865 34.4149 14.5003 34.7983 13.7907L36.107 11.3692C36.4905 10.6596 37.3766 10.3954 38.0862 10.7788C38.7958 11.1622 39.06 12.0484 38.6766 12.7579L37.3679 15.1795C37.1038 15.6682 36.6011 15.9457 36.0817 15.9457Z" fill="#E57917"/>
<path d="M49.982 16.111C49.1755 16.111 48.5216 15.4572 48.5216 14.6506V11.898C48.5216 11.0915 49.1755 10.4376 49.982 10.4376C50.7886 10.4376 51.4424 11.0915 51.4424 11.898V14.6506C51.4424 15.4572 50.7886 16.111 49.982 16.111Z" fill="#E57917"/>
<path d="M63.9183 15.9255C63.4146 15.9255 62.9245 15.6645 62.6536 15.1974L61.2726 12.8161C60.868 12.1185 61.1056 11.2249 61.8033 10.8202C62.5009 10.4156 63.3945 10.6532 63.7992 11.3509L65.1801 13.7321C65.5848 14.4298 65.3472 15.3234 64.6495 15.728C64.419 15.862 64.1672 15.9255 63.9183 15.9255Z" fill="#E57917"/>
</g>
<defs>
<clipPath id="clip0">
<rect width="100" height="100" fill="white"/>
</clipPath>
</defs>
</svg>
