<svg width="100" height="100" viewBox="0 0 100 100" fill="none" xmlns="http://www.w3.org/2000/svg">
<g clip-path="url(#clip0)">
<path d="M66.5073 7.91211H57.1141V3.225C57.1141 1.44375 58.5579 0 60.3389 0H63.2823C65.0634 0 66.5073 1.44375 66.5073 3.225V7.91211Z" fill="#CBC4CC"/>
<path d="M66.5063 3.22439V6.27439H62.5847V3.22439C62.5847 1.61033 61.3993 0.273413 59.8501 0.0368896C60.0099 0.0126709 60.1737 0.000366211 60.3395 0.000366211H63.2823C65.0644 0.000366211 66.5063 1.44451 66.5063 3.22439Z" fill="#B5ADB6"/>
<path d="M69.7814 14.259H30.2189L25.8884 24.3122V57.1295V89.9469L29.7628 98.9415C30.0396 99.5838 30.672 100 31.3714 100H68.6287C69.3281 100 69.9605 99.5838 70.2373 98.9415L74.1117 89.9469V57.1295V24.3122L69.7814 14.259Z" fill="#CBC4CC"/>
<path d="M74.1115 24.3124V89.9473L70.2382 98.9418C69.9611 99.583 69.3281 99.9996 68.6282 99.9996H64.5831C65.2829 99.9996 65.9159 99.583 66.1931 98.9418L70.0663 89.9473V24.3124L65.7361 14.2581H69.7812L74.1115 24.3124Z" fill="#B5ADB6"/>
<path d="M71.2212 14.7178H28.779C26.4475 14.7178 24.5575 12.8277 24.5575 10.4963C24.5575 8.16482 26.4475 6.27478 28.779 6.27478H71.2212C73.5526 6.27478 75.4426 8.16482 75.4426 10.4963C75.4426 12.8277 73.5526 14.7178 71.2212 14.7178Z" fill="#F3F0F3"/>
<path d="M75.4422 10.4955C75.4422 11.6625 74.9709 12.7162 74.2065 13.4809C73.442 14.2434 72.3861 14.7166 71.2211 14.7166H67.1758C68.3408 14.7166 69.3965 14.2434 70.1611 13.4809C70.9256 12.7164 71.3969 11.6625 71.3969 10.4955C71.3969 8.16543 69.5078 6.27441 67.1758 6.27441H71.2209C73.5531 6.27441 75.4422 8.16562 75.4422 10.4955Z" fill="#E2DEE2"/>
<path d="M25.8885 24.3121H74.1118V89.9471H25.8885V24.3121Z" fill="#BBEC6C"/>
<path d="M70.0665 24.3121H74.1116V89.9471H70.0665V24.3121Z" fill="#A2E62E"/>
<path d="M25.8885 48.0494H74.1118V66.1678H25.8885V48.0494Z" fill="#FEE45A"/>
<path d="M70.0662 48.0494H74.1117V66.1678H70.0662V48.0494Z" fill="#FEDF30"/>
<path d="M50.0002 76.9348C58.7163 76.9348 65.782 66.972 65.782 54.6822C65.782 42.3925 58.7163 32.4297 50.0002 32.4297C41.2841 32.4297 34.2184 42.3925 34.2184 54.6822C34.2184 66.972 41.2841 76.9348 50.0002 76.9348Z" fill="#00C27A"/>
<path d="M65.7823 54.6815C65.7823 66.9727 58.7153 76.934 50 76.934C48.75 76.934 47.5325 76.7297 46.3655 76.3393C54.7834 75.8661 61.5026 66.0928 61.5026 54.1071C61.5026 43.5795 56.3207 34.7631 49.3569 32.4493C49.5692 32.4352 49.7836 32.429 50 32.429C58.7155 32.429 65.7823 42.3922 65.7823 54.6815Z" fill="#08B865"/>
</g>
<defs>
<clipPath id="clip0">
<rect width="100" height="100" fill="white"/>
</clipPath>
</defs>
</svg>
