<svg width="100" height="100" viewBox="0 0 100 100" fill="none" xmlns="http://www.w3.org/2000/svg">
<g clip-path="url(#clip0)">
<path d="M40.7267 51.5333C29.3667 46.3583 13.4029 48.5276 6.54192 59.9249C4.26243 63.7118 3.07903 68.147 3.13547 72.5644C3.21829 79.0632 5.39993 86.2796 9.55676 91.3437C11.8316 94.1151 14.6386 96.4292 17.9243 97.8985C23.188 100.251 29.4493 100.569 34.9943 99.1493C39.7548 97.9306 43.8693 95.1226 46.971 91.3435C51.1279 86.2794 53.3095 79.063 53.3923 72.5642C53.5032 63.8564 48.7929 55.2079 40.7267 51.5333Z" fill="#E94444"/>
<path d="M53.3923 72.5641C53.3103 79.0627 51.128 86.2793 46.9718 91.3438C43.8694 95.1221 39.7552 97.9303 34.9948 99.1504C29.9804 100.433 24.38 100.295 19.4614 98.5165C23.2397 99.1706 27.1962 98.9885 30.8425 98.0543C35.6028 96.8362 39.7173 94.028 42.8196 90.2497C46.9761 85.1852 49.1581 77.9686 49.2401 71.47C49.3521 62.7612 44.6417 54.1145 36.5751 50.4381C35.7491 50.0622 34.897 49.7241 34.0269 49.426C36.361 49.868 38.6233 50.5762 40.7274 51.5342C48.7939 55.2084 53.5042 63.8573 53.3923 72.5641Z" fill="#D83131"/>
<path d="M31.4736 63.4502C30.2679 63.4502 29.0273 63.2206 27.8941 62.8245C23.8675 61.4174 21.6058 58.2942 22.3939 55.2295C22.5955 54.4458 23.3943 53.9743 24.1773 54.1756C24.9609 54.3772 25.4328 55.1756 25.2312 55.959C24.9095 57.2104 25.908 59.027 28.8605 60.0588C31.0603 60.8274 33.6693 60.7514 34.3996 59.119C34.73 58.3805 35.5963 58.0497 36.3349 58.3801C37.0734 58.7106 37.4043 59.577 37.0738 60.3155C36.0674 62.5655 33.8386 63.45 31.4736 63.4502Z" fill="#CC2121"/>
<path d="M84.1991 51.5333C72.8391 46.3583 56.8753 48.5276 50.0143 59.9249C47.7348 63.7118 46.5514 68.147 46.6079 72.5644C46.6907 79.0632 48.8723 86.2796 53.0292 91.3437C55.304 94.1151 58.111 96.4292 61.3968 97.8985C66.6604 100.251 72.9218 100.569 78.4667 99.1493C83.2272 97.9306 87.3417 95.1226 90.4434 91.3435C94.6003 86.2794 96.7819 79.063 96.8647 72.5642C96.9759 63.8564 92.2653 55.2079 84.1991 51.5333Z" fill="#E94444"/>
<path d="M96.8639 72.5641C96.7819 79.0627 94.5996 86.2793 90.4434 91.3438C87.3411 95.1221 83.2268 97.9303 78.4663 99.1504C74.3239 100.211 69.7795 100.301 65.551 99.2965C68.6374 99.5666 71.7776 99.3006 74.7159 98.5485C79.4762 97.3303 83.5907 94.5221 86.693 90.7418C90.8494 85.6793 93.0315 78.4627 93.1135 71.9643C93.2254 63.2555 88.5151 54.6066 80.4485 50.9324C78.6463 50.1103 76.7262 49.4744 74.7459 49.0303C78.0461 49.3563 81.2745 50.2023 84.1989 51.5346C92.2655 55.2084 96.976 63.8572 96.8639 72.5641Z" fill="#D83131"/>
<path d="M66.4418 50.6528C65.2352 47.0048 63.4762 43.5808 61.2135 40.4751C59.7702 38.4942 58.166 36.7063 56.6145 34.9772C55.2219 33.4253 53.9067 31.9595 52.7369 30.402C47.9953 24.089 47.8465 14.57 47.7153 6.17177C47.685 4.22997 46.1014 2.67665 44.1662 2.67665C44.1559 2.67665 44.1455 2.67685 44.1352 2.67685C44.1063 2.6749 44.0782 2.67021 44.0491 2.66904C42.0889 2.59228 40.4377 4.11572 40.3596 6.07509C39.7151 22.2097 36.6504 42.1233 29.9823 49.6265C28.6797 51.0923 28.812 53.3364 30.2778 54.639C30.9541 55.2401 31.7961 55.5356 32.635 55.5356C33.6139 55.5356 34.5887 55.1331 35.2903 54.3436C40.0321 49.0079 42.9426 39.9819 44.7297 30.8913C45.3914 32.204 46.1594 33.4688 47.059 34.6665C48.4147 36.4714 49.8963 38.1227 51.3291 39.7196C52.828 41.3899 54.2436 42.9677 55.4741 44.6565C57.3028 47.1665 58.7244 49.9343 59.6998 52.8829C60.1932 54.3745 61.5805 55.3194 63.0703 55.3194C63.4399 55.3194 63.8159 55.2612 64.186 55.1388C66.0477 54.5229 67.0577 52.5145 66.4418 50.6528Z" fill="#00C27A"/>
<path d="M64.1851 55.1385C63.815 55.2606 63.439 55.3186 63.071 55.3186C62.721 55.3186 62.3791 55.2666 62.0509 55.1686C62.857 54.2526 63.1691 52.9463 62.7589 51.7043C61.5529 48.0561 59.7927 44.6317 57.5304 41.5254C56.0863 39.5453 54.4822 37.7571 52.932 36.0289C51.5398 34.4768 50.2238 33.0108 49.0537 31.4526C44.3132 25.1401 44.1632 15.6211 44.0332 7.22248C44.0052 5.55842 42.839 4.18029 41.2888 3.82014C41.9689 3.076 42.963 2.626 44.049 2.66994C44.0791 2.66994 44.107 2.676 44.1349 2.67795C44.1449 2.676 44.1548 2.676 44.1669 2.676C46.1011 2.676 47.6853 4.2301 47.7152 6.17229C47.8472 14.5711 47.9953 24.0899 52.7376 30.4024C53.9058 31.9584 55.2218 33.4246 56.614 34.9768C58.1662 36.7069 59.7703 38.4951 61.2125 40.4752C63.4767 43.5815 65.2347 47.0037 66.441 50.6522C67.0572 52.5143 66.0472 54.5225 64.1851 55.1385Z" fill="#08B865"/>
<path d="M64.8643 63.617C62.2806 63.617 60.1681 62.4895 59.2679 60.4454C58.9419 59.7049 59.2778 58.8405 60.0183 58.5143C60.7581 58.1883 61.6229 58.5241 61.9493 59.2645C62.47 60.4469 64.378 61.2573 67.3362 60.243C69.5405 59.4872 71.5444 57.8143 71.1091 56.0797C70.9122 55.295 71.3888 54.4993 72.1733 54.3024C72.9575 54.1053 73.7538 54.5819 73.9507 55.3666C74.8563 58.976 71.6495 61.8612 68.2864 63.0143C67.0999 63.4211 65.9411 63.617 64.8643 63.617Z" fill="#CC2121"/>
<path d="M42.0064 9.78663C39.1908 9.78663 36.3732 9.54659 33.5853 9.063C31.8683 8.76495 30.0677 8.3046 28.5301 6.96553C27.0511 5.67784 26.8963 3.43507 28.184 1.95635C28.8043 1.24405 29.6972 0.80323 30.64 0.744246C31.407 0.696199 32.0906 0.949324 32.7724 1.26925C36.125 2.8421 40.309 2.80694 43.9363 2.64171C48.1424 2.4503 52.3177 1.62999 56.2816 0.20948C58.1275 -0.452044 60.1603 0.508113 60.8218 2.35382C61.4836 4.19991 60.5234 6.23253 58.6775 6.89405C53.3209 8.81417 47.6695 9.78663 42.0064 9.78663Z" fill="#00C27A"/>
<path d="M58.6767 6.89484C57.1066 7.4589 55.5083 7.93898 53.8943 8.33898C54.2683 8.21495 54.6404 8.08702 55.0103 7.95499C56.8564 7.29288 57.8166 5.26085 57.1544 3.41456C56.6103 1.8964 55.1382 0.97843 53.6062 1.06827C54.5083 0.812219 55.4003 0.526282 56.2824 0.210266C58.1265 -0.451843 60.1607 0.508313 60.8228 2.35441C61.483 4.2007 60.5228 6.23292 58.6767 6.89484Z" fill="#08B865"/>
</g>
<defs>
<clipPath id="clip0">
<rect width="100" height="100" fill="white"/>
</clipPath>
</defs>
</svg>
