<svg width="100" height="100" viewBox="0 0 100 100" fill="none" xmlns="http://www.w3.org/2000/svg">
<path d="M49.9995 0.000976562C38.9829 0.000976562 30.0522 8.93164 30.0522 19.9482V25.1725H69.9466V19.9482C69.9468 8.93184 61.0161 0.000976562 49.9995 0.000976562Z" fill="#FE93D3"/>
<path d="M69.9467 19.9469V25.1723H63.9014C62.4451 24.1525 61.3887 22.7412 61.0094 20.8789C60.8463 20.0795 60.8543 19.2574 60.7891 18.4457C60.2098 11.3379 56.1205 9.87539 50.2689 7.39531C47.3359 6.15312 44.7133 3.94023 43.1387 1.21348C45.2781 0.42832 47.5889 0 49.9996 0C61.0154 0 69.9467 8.93125 69.9467 19.9469Z" fill="#F3F0F3"/>
<path d="M69.9466 19.9469V25.1723H67.2441V22.0131C67.2441 10.9975 58.3128 2.06621 47.2972 2.06621C46.1326 2.06621 44.9925 2.16621 43.883 2.35781C43.6138 1.98867 43.365 1.60723 43.1384 1.21367C45.2781 0.42832 47.5888 0 49.9996 0C61.0154 0 69.9466 8.93125 69.9466 19.9469Z" fill="#E2DEE2"/>
<path d="M48.2507 32.5437C48.2507 23.3792 55.68 15.95 64.8445 15.95C74.0089 15.95 81.4382 23.3792 81.4382 32.5437H48.2507Z" fill="#D77F4A"/>
<path d="M81.4382 32.5444H76.9166C76.4189 23.8274 69.1949 16.9131 60.3513 16.9131C59.9414 16.9131 59.5355 16.9274 59.1316 16.9581C60.9121 16.3075 62.8375 15.9504 64.8445 15.9504C74.0082 15.9506 81.4382 23.3788 81.4382 32.5444Z" fill="#C86D36"/>
<path d="M18.5608 32.5437C18.5608 23.3792 25.9901 15.95 35.1546 15.95C44.319 15.95 51.7483 23.3792 51.7483 32.5437H18.5608Z" fill="#BBEC6C"/>
<path d="M51.7483 32.5444H47.2266C46.729 23.8274 39.5049 16.9131 30.6614 16.9131C30.2514 16.9131 29.8456 16.9274 29.4417 16.9581C31.2221 16.3075 33.1475 15.9504 35.1545 15.9504C44.3182 15.9506 51.7483 23.3788 51.7483 32.5444Z" fill="#A2E62E"/>
<path d="M84.2512 33.8669C84.301 32.8966 83.5274 32.0815 82.5559 32.0815H17.4432C16.4717 32.0815 15.6981 32.8966 15.7479 33.8669C16.5246 49.0155 27.1315 61.5655 41.3135 65.2669C44.2494 66.0331 46.2784 68.714 46.2784 71.7481V81.9636C46.2784 88.2976 41.9032 93.8544 35.7086 95.1755C35.5336 95.2128 35.3559 95.2487 35.1752 95.2831C35.1752 95.2831 30.4582 95.9569 29.5598 100H49.9996H70.4393C69.5408 95.9569 64.8239 95.2831 64.8239 95.2831C64.6432 95.2487 64.4655 95.2128 64.2905 95.1755C58.0959 93.8544 53.7207 88.2974 53.7207 81.9636V71.7481C53.7207 68.714 55.7496 66.0331 58.6856 65.2669C72.8678 61.5655 83.4744 49.0155 84.2512 33.8669Z" fill="#C8EFFE"/>
<path d="M53.7216 71.7475V81.9637C53.7216 88.2987 58.0964 93.8543 64.2905 95.176C64.4659 95.2127 64.6435 95.2495 64.8228 95.284C64.8228 95.284 69.5403 95.9571 70.4397 99.9995H66.4464C65.755 97.9415 60.9845 97.244 60.9845 97.244C60.803 97.2092 60.6255 97.1725 60.4501 97.136C54.256 95.8143 49.728 88.2985 49.728 81.9637V68.6209C49.728 65.586 51.7554 62.9061 54.6923 62.1393C68.8733 58.4376 79.4812 49.0168 80.2581 33.8668C80.3071 32.8959 79.5341 32.0823 78.5632 32.0823H82.5546C83.5274 32.0823 84.3005 32.8961 84.2515 33.8668C83.4743 49.0166 72.8667 61.5661 58.6856 65.2678C55.7489 66.0327 53.7216 68.7147 53.7216 71.7475Z" fill="#99E6FC"/>
</svg>
