<svg width="100" height="100" viewBox="0 0 100 100" fill="none" xmlns="http://www.w3.org/2000/svg">
<g clip-path="url(#clip0)">
<path d="M89.8746 0C88.1658 0 86.6186 0.691797 85.4977 1.81055C84.3766 0.691797 82.8293 0 81.1205 0C77.6982 0 74.9238 2.77441 74.9238 6.19668C74.9238 9.61895 77.6982 12.3934 81.1205 12.3934C82.8293 12.3934 84.3766 11.7016 85.4975 10.5828C86.6186 11.7016 88.1656 12.3934 89.8744 12.3934C93.2967 12.3934 96.0711 9.61895 96.0711 6.19668C96.0711 2.77441 93.2969 0 89.8746 0V0Z" fill="#9E5528"/>
<path d="M96.0717 6.19609C96.0717 9.61914 93.2975 12.3932 89.8747 12.3932C88.5288 12.3932 87.2833 11.9652 86.2668 11.2342C89.5131 11.0393 92.0864 8.34551 92.0864 5.05117C92.0864 2.97598 91.0659 1.13809 89.4991 0.0130859C89.6237 0.00507813 89.7481 0.000976562 89.8747 0.000976562C93.2975 0.000976562 96.0717 2.775 96.0717 6.19609Z" fill="#904D24"/>
<path d="M13.7278 92.2677C13.7278 90.5589 13.036 89.0117 11.9173 87.8908C13.036 86.7697 13.7278 85.2226 13.7278 83.5138C13.7278 80.0916 10.9534 77.3171 7.53115 77.3171C4.10889 77.3171 1.33447 80.0914 1.33447 83.5136C1.33447 85.2224 2.02627 86.7697 3.14502 87.8906C2.02627 89.0117 1.33447 90.5587 1.33447 92.2675C1.33447 95.6898 4.10889 98.4642 7.53115 98.4642C10.9534 98.4642 13.7278 95.69 13.7278 92.2677Z" fill="#9E5528"/>
<path d="M13.7271 92.2632V92.2671C13.7271 95.6901 10.9529 98.4642 7.53203 98.4642C4.10898 98.4642 1.33496 95.6899 1.33496 92.2671C1.33496 90.7364 1.88945 89.3343 2.81152 88.2534C2.81348 91.6743 5.5877 94.4466 9.00664 94.4466C10.8986 94.4468 12.5922 93.5991 13.7271 92.2632Z" fill="#904D24"/>
<path d="M21.094 99.7858C14.4768 98.7893 9.51063 92.9715 9.73954 86.1208C9.98563 78.7411 16.1677 72.9583 23.5473 73.2046C33.7452 73.545 40.9696 72.3858 47.704 69.3288C57.3612 64.9452 62.9432 57.071 65.9251 51.2374C70.055 43.1583 72.1774 33.3448 71.9015 23.605C71.6921 16.2241 77.5059 10.0712 84.8866 9.86218C92.2673 9.65026 98.4204 15.4667 98.6296 22.8473C99.0362 37.2016 95.9602 51.227 89.7339 63.4077C82.6765 77.2143 71.9645 87.6811 58.7565 93.6764C48.1741 98.4803 37.0401 100.409 22.6557 99.9288C22.1268 99.911 21.605 99.8628 21.094 99.7858Z" fill="#D77F4A"/>
<path d="M89.7338 63.4066C82.6768 77.215 71.9639 87.681 58.7561 93.6771C48.1739 98.4802 37.0391 100.409 22.6561 99.9287C22.1278 99.9105 21.6055 99.8625 21.0932 99.7861C17.5858 99.2578 14.5424 97.3755 12.4895 94.7019C14.0844 95.7726 15.9266 96.5099 17.9194 96.8091C18.4317 96.8855 18.9518 96.9337 19.4823 96.9517C33.8653 97.4318 45.0001 95.5035 55.5825 90.7003C68.7903 84.7041 79.5032 74.2382 86.5602 60.4318C92.7854 48.2505 95.8629 34.225 95.4551 19.8701C95.3727 16.9472 94.3563 14.2675 92.701 12.114C96.1721 14.4382 98.5024 18.3533 98.629 22.847C99.0366 37.2019 95.9612 51.2273 89.7338 63.4066Z" fill="#C86D36"/>
<path d="M86.74 25.1506C84.439 25.1506 82.2656 24.5588 81.9025 24.4551C81.1248 24.2329 80.6742 23.4221 80.8967 22.6442C81.1187 21.8667 81.9291 21.4168 82.7062 21.6377C84.4289 22.1264 87.6965 22.5956 89.1336 21.7749C89.8357 21.3735 90.7308 21.6174 91.132 22.32C91.5332 23.0225 91.2894 23.9172 90.5869 24.3186C89.4884 24.9463 88.0922 25.1506 86.74 25.1506Z" fill="#AF5827"/>
<path d="M85.8948 36.9489C83.3153 36.9489 80.712 36.0547 80.3157 35.9129C79.554 35.6405 79.1571 34.802 79.4298 34.0405C79.7019 33.2791 80.5398 32.8825 81.3009 33.154C82.988 33.7538 86.2181 34.435 87.7058 33.7092C88.4329 33.3545 89.3099 33.6563 89.6646 34.3832C90.0192 35.1104 89.7175 35.9873 88.9905 36.342C88.0763 36.7883 86.9874 36.9489 85.8948 36.9489Z" fill="#AF5827"/>
<path d="M83.4397 50.0099C80.5124 50.0099 77.2899 48.4382 76.8563 48.2196C76.1339 47.8556 75.8432 46.9747 76.2073 46.2524C76.5712 45.5302 77.4518 45.2399 78.1733 45.6026C79.7739 46.4052 82.896 47.4784 84.4612 46.9411C85.2264 46.6786 86.0596 47.0856 86.3223 47.8509C86.585 48.6159 86.1778 49.4493 85.4126 49.712C84.7979 49.9233 84.1268 50.0099 83.4397 50.0099Z" fill="#AF5827"/>
<path d="M77.6884 63.225C74.3478 63.225 70.5693 59.9069 70.1377 59.5176C69.5369 58.9758 69.489 58.0495 70.0308 57.4487C70.5724 56.8479 71.4986 56.8002 72.099 57.3414C73.4312 58.5381 76.164 60.3981 77.8103 60.2916C78.6183 60.2403 79.3136 60.8532 79.3652 61.6604C79.4168 62.4676 78.8039 63.1639 77.9964 63.2153C77.8943 63.2219 77.7914 63.225 77.6884 63.225Z" fill="#AF5827"/>
<path d="M67.8599 75.136C67.783 75.136 67.7052 75.1299 67.6269 75.1174C64.2509 74.5774 61.1218 70.268 60.7763 69.7784C60.3097 69.1174 60.4673 68.2036 61.1283 67.7368C61.7888 67.2702 62.7023 67.4276 63.1691 68.0877C64.2046 69.5485 66.456 71.9631 68.0896 72.2245C68.8884 72.3522 69.4326 73.1034 69.3048 73.9022C69.1894 74.6229 68.5669 75.136 67.8599 75.136Z" fill="#AF5827"/>
<path d="M55.2708 84.594C55.0212 84.594 54.7684 84.5301 54.5368 84.3957C51.5796 82.6797 50.2065 77.5342 50.0597 76.9532C49.8614 76.1688 50.3366 75.3723 51.121 75.1741C51.9054 74.9762 52.7009 75.4504 52.8997 76.234C53.3417 77.9692 54.5763 81.0313 56.0073 81.8618C56.7069 82.2678 56.945 83.1643 56.5391 83.8639C56.2675 84.3323 55.7759 84.594 55.2708 84.594Z" fill="#AF5827"/>
<path d="M41.4766 89.8053C41.0984 89.8053 40.7207 89.6598 40.434 89.3696C38.0322 86.9363 38.0604 81.6108 38.0713 81.0115C38.0861 80.2119 38.7391 79.5739 39.5354 79.5739C39.5447 79.5739 39.5539 79.5739 39.5631 79.574C40.3717 79.5891 41.015 80.2561 41.0006 81.0643C40.9709 82.8547 41.3566 86.1336 42.519 87.3112C43.0871 87.8869 43.0813 88.8143 42.5055 89.3826C42.2203 89.6647 41.8484 89.8053 41.4766 89.8053Z" fill="#AF5827"/>
<path d="M27.2108 92.1155C26.7022 92.1155 26.208 91.8503 25.9375 91.3772C24.241 88.4086 25.6362 83.2692 25.8008 82.6928C26.0231 81.9149 26.8342 81.4641 27.6117 81.6868C28.3895 81.909 28.8401 82.7198 28.6178 83.4977C28.1291 85.2206 27.6604 88.4874 28.4811 89.9235C28.8826 90.626 28.6385 91.5208 27.936 91.9221C27.7071 92.0534 27.4572 92.1155 27.2108 92.1155Z" fill="#AF5827"/>
</g>
<defs>
<clipPath id="clip0">
<rect width="100" height="100" fill="white"/>
</clipPath>
</defs>
</svg>
