<svg width="100" height="100" viewBox="0 0 100 100" fill="none" xmlns="http://www.w3.org/2000/svg">
<g clip-path="url(#clip0)">
<path d="M68.9271 40.4568C68.9343 40.2093 68.9366 39.9605 68.9343 39.7107C68.8364 29.4753 60.4946 21.0993 50.2599 20.9618C39.6827 20.8198 31.064 29.3513 31.064 39.8956C31.064 40.0591 31.0661 40.222 31.0702 40.3845C31.205 45.6923 29.4886 50.8593 26.4724 55.229C23.2776 59.8575 21.4136 65.4749 21.4335 71.5292C21.4855 87.3523 34.5653 100.208 50.387 99.9972C65.9853 99.7899 78.5659 87.0808 78.5659 71.4335C78.5659 65.3331 76.6532 59.6798 73.395 55.0398C70.395 50.7677 68.7751 45.6751 68.9271 40.4568Z" fill="#BBEC6C"/>
<path d="M78.5664 71.4338C78.5664 87.0803 65.9857 99.7895 50.3875 99.9967C49.5512 100.009 48.723 99.9827 47.9047 99.9223C62.6928 98.8387 74.3525 86.4973 74.3525 71.4338C74.3525 65.3325 72.4406 59.6794 69.182 55.0395C66.1826 50.7676 64.5623 45.6754 64.715 40.4565C64.7211 40.2092 64.725 39.96 64.7211 39.7106C64.6307 30.0993 57.2668 22.1262 47.8945 21.0788C48.6686 20.9903 49.4586 20.952 50.2586 20.9622C60.4951 21.0989 68.8361 29.476 68.9346 39.7106C68.9365 39.9598 68.9346 40.2092 68.9266 40.4565C68.7738 45.6753 70.3942 50.7674 73.3955 55.0395C76.6526 59.6794 78.5664 65.3325 78.5664 71.4338Z" fill="#A2E62E"/>
<path d="M64.6385 20.8725C66.2768 20.0006 67.7555 18.8067 69.0034 17.4413C70.9528 15.3083 72.2557 12.6534 72.571 9.77895C72.6059 9.46099 72.4497 9.15181 72.1727 8.99165C69.704 7.56333 66.8362 7.03403 63.9995 7.31724C61.6932 7.54751 59.3028 8.20845 57.3723 9.54087C54.2977 11.6631 51.8026 14.8266 51.012 18.5504C50.8887 19.1309 50.4461 20.55 51.1993 20.9602C51.9094 21.3469 52.6565 21.6661 53.4266 21.9129C57.0383 23.0706 61.2758 22.662 64.6385 20.8725Z" fill="#00C27A"/>
<path d="M72.5716 9.77893C72.2559 12.6537 70.9532 15.3073 69.0032 17.4403C67.7548 18.8073 66.2772 20.0014 64.6387 20.8719C61.2755 22.6612 57.0378 23.0711 53.427 21.9133C52.6571 21.666 51.9093 21.3463 51.1997 20.9604C50.9202 20.8076 50.7575 20.5061 50.7835 20.1905C50.8036 19.9412 50.8237 19.6819 50.8317 19.6215C50.8358 19.5934 50.8378 19.5672 50.8438 19.5391C54.3761 20.5664 58.455 20.1281 61.7116 18.3932C63.3501 17.5227 64.8276 16.3285 66.076 14.9635C67.8995 12.9694 69.1579 10.5166 69.57 7.85706C70.4725 8.1344 71.3452 8.51233 72.1733 8.99084C72.4491 9.15159 72.6057 9.46135 72.5716 9.77893Z" fill="#08B865"/>
<path d="M46.3939 23.0035C45.8715 19.427 45.1703 9.74865 45.8236 3.8174C46.1178 1.14689 48.7607 -0.60174 51.3269 0.193963C51.3637 0.205291 51.4004 0.216619 51.4373 0.227947C53.492 0.859393 54.7476 2.92795 54.3748 5.04494C53.7166 8.78107 52.8625 17.7065 52.8017 22.5672C52.7797 24.3358 51.35 25.7619 49.5814 25.7619C47.9808 25.7619 46.6252 24.5871 46.3939 23.0035Z" fill="#D77F4A"/>
<path d="M54.3742 5.04435C53.7168 8.78146 52.8625 17.7055 52.8021 22.5664C52.78 24.3356 51.3507 25.7609 49.5816 25.7609C48.8378 25.7609 48.1443 25.5076 47.5955 25.0754C48.3392 24.4924 48.8197 23.5858 48.8318 22.5664C48.8921 17.7055 49.7464 8.78146 50.4039 5.04435C50.7376 3.15665 49.7746 1.30704 48.106 0.482823C49.057 -0.0158098 50.1988 -0.156435 51.3265 0.19337C51.3627 0.205479 51.4009 0.21544 51.4371 0.22755C53.4916 0.8588 54.748 2.92755 54.3742 5.04435Z" fill="#C86D36"/>
<path d="M49.5015 33.0428C47.4109 33.0428 45.3211 32.3608 43.7099 30.9901C43.0758 30.4504 42.999 29.4988 43.5386 28.8647C44.0785 28.2305 45.0299 28.1539 45.664 28.6934C47.8099 30.5194 51.392 30.4688 53.4857 28.5832C54.1045 28.0258 55.058 28.0756 55.615 28.6945C56.1722 29.3133 56.1224 30.2666 55.5037 30.8238C53.8642 32.3004 51.6824 33.0428 49.5015 33.0428Z" fill="#97D819"/>
</g>
<defs>
<clipPath id="clip0">
<rect width="100" height="100" fill="white"/>
</clipPath>
</defs>
</svg>
