<svg width="100" height="100" viewBox="0 0 100 100" fill="none" xmlns="http://www.w3.org/2000/svg">
<g clip-path="url(#clip0)">
<path d="M76.1634 26.103C67.5816 31.6451 56.132 29.1811 50.5898 20.5992C50.2435 20.0629 50.3974 19.3473 50.9337 19.0008L80.0689 0.185381C80.6052 -0.160908 81.3208 -0.00700223 81.6673 0.529326C87.2093 9.11116 84.7453 20.561 76.1634 26.103Z" fill="#FE9738"/>
<path d="M84.6275 10.5471C84.6275 16.618 81.6434 22.5641 76.1633 26.1029C72.3432 28.5707 67.9562 29.4508 63.7725 28.9104C66.835 28.7235 69.8916 27.769 72.6527 25.9865C78.1328 22.4477 81.117 16.5016 81.117 10.4307C81.117 7.25568 80.3012 4.04845 78.599 1.13459L80.068 0.18615C80.6045 -0.161506 81.3199 -0.00681852 81.6676 0.529705C83.6711 3.63224 84.6275 7.10861 84.6275 10.5471Z" fill="#FE860A"/>
<path d="M73.1058 21.3685C66.9851 25.3215 58.8187 23.5638 54.866 17.4431L54.4187 16.7504L76.5839 2.43591L77.0312 3.12849C80.9841 9.24939 79.2267 17.4156 73.1058 21.3685Z" fill="#FEDBBD"/>
<path d="M73.1068 21.3684C69.7107 23.5628 65.6835 23.997 62.0964 22.9038C64.524 22.8897 66.9796 22.2065 69.1701 20.7917C74.7787 17.1684 76.724 10.0104 73.9669 4.12644L76.5834 2.4364L77.0314 3.12761C80.9841 9.2489 79.2257 17.4157 73.1068 21.3684Z" fill="#FECA9C"/>
<path d="M76.4899 18.2251L67.0872 11.9874L68.8476 23.1585C67.8548 23.3835 66.8481 23.488 65.8452 23.478L63.8276 10.6731L67.2378 8.47058L78.0149 15.6206C77.6112 16.5372 77.1009 17.4112 76.4899 18.2251Z" fill="#FCB47E"/>
<path d="M59.5061 90.7852H25.5918V97.125C25.5918 98.7127 26.8789 99.9998 28.4666 99.9998H56.6311C58.2187 99.9998 59.5059 98.7127 59.5059 97.125V90.7852H59.5061Z" fill="#62DBFB"/>
<path d="M59.5061 92.6825V97.1249C59.5061 98.7135 58.2197 100 56.6309 100H51.998C53.5848 100 54.8732 98.7137 54.8732 97.1249V92.6825H59.5061Z" fill="#01D0FB"/>
<path d="M65.8454 43.0451C69.7679 34.9187 69.8724 23.7533 69.7017 18.9187C69.6546 17.5847 68.5624 16.5267 67.2276 16.5267H17.8927C16.5579 16.5267 15.4657 17.5847 15.4187 18.9187C15.248 23.7533 15.3525 34.9187 19.2749 43.0451C23.3901 51.5711 25.6901 60.9621 25.7103 70.5533C25.7261 78.1039 25.706 86.3783 25.5921 92.6832H59.5284C59.4146 86.3783 59.3944 78.1039 59.4103 70.5533C59.4302 60.9621 61.73 51.5711 65.8454 43.0451Z" fill="#C8EFFE"/>
<path d="M59.41 70.5535C59.3944 78.1046 59.4139 86.3785 59.5278 92.6826H54.8576C54.7438 86.3785 54.7241 78.1046 54.7399 70.5535C54.7596 60.9619 57.0612 51.5707 61.1756 43.0455C65.0975 34.9189 65.2035 23.7542 65.0326 18.9191C64.9856 17.5857 63.8936 16.5271 62.5582 16.5271H67.2283C68.5617 16.5271 69.6557 17.5857 69.7028 18.9191C69.8717 23.7542 69.7676 34.9189 65.8457 43.0455C61.7293 51.5707 59.4297 60.9619 59.41 70.5535Z" fill="#99E6FC"/>
<path d="M59.41 70.5536C59.3943 78.1048 59.4139 86.3786 59.5277 92.6827H25.592C25.7059 86.3786 25.7256 78.1048 25.7098 70.5536C25.69 60.962 23.3904 51.5708 19.2742 43.0456C17.9328 40.2667 17.0373 37.1343 16.4482 34.0196C23.7656 32.8806 31.5172 34.4987 38.9053 35.9835C48.051 37.8218 57.9922 39.328 66.3525 35.1862C67.1715 34.7817 67.957 34.3202 68.7092 33.8114C68.1221 36.9948 67.2166 40.2058 65.8459 43.0456C61.7293 51.5708 59.4297 60.962 59.41 70.5536Z" fill="#FE9738"/>
<path d="M68.7088 33.8113C68.6715 34.0097 68.6342 34.2099 68.5949 34.4084C68.4608 35.0863 68.3065 35.7722 68.1471 36.4392C67.8307 37.7636 67.4297 39.0765 66.9647 40.3625C66.6391 41.2625 66.2619 42.183 65.8455 43.0455C61.7293 51.5707 59.4295 60.9619 59.41 70.5535C59.3944 78.1046 59.4139 86.3785 59.5278 92.6826H54.8576C54.7438 86.3785 54.7241 78.1046 54.7399 70.5535C54.7596 60.9619 57.0612 51.5707 61.1756 43.0455C62.1791 40.9677 62.9313 38.6896 63.4949 36.3703C64.4651 36.0423 65.4176 35.6496 66.3524 35.1861C67.1711 34.7814 67.9567 34.3199 68.7088 33.8113Z" fill="#FE860A"/>
</g>
<defs>
<clipPath id="clip0">
<rect width="100" height="100" fill="white"/>
</clipPath>
</defs>
</svg>
