<svg width="100" height="100" viewBox="0 0 100 100" fill="none" xmlns="http://www.w3.org/2000/svg">
<g clip-path="url(#clip0)">
<path d="M52.6363 30.3678C48.7777 23.6971 43.0805 17.9394 36.4145 15.2234C29.6742 12.4771 22.8871 13.9012 16.7674 18.2424C12.4525 21.3033 8.74512 25.5422 5.95391 30.3678C1.56309 37.9582 -0.55722 47.039 0.125788 56.092C0.125788 56.092 -0.080657 71.6226 11.5639 80.4693C21.6338 88.1197 37.0486 88.0492 47.026 80.4693C58.6707 71.6228 58.4643 56.092 58.4643 56.092C59.1473 47.039 57.027 37.9582 52.6363 30.3678Z" fill="#D77F4A"/>
<path d="M58.4647 56.093C58.4647 56.093 58.6699 71.6234 47.0262 80.4695C41.467 84.6943 34.217 86.5863 27.1461 86.1094C32.794 85.731 38.3149 83.8451 42.759 80.4695C54.4028 71.6234 54.1955 56.093 54.1955 56.093C54.8799 47.0396 52.7584 37.958 48.3686 30.368C44.5102 23.6977 38.8119 17.9393 32.1457 15.224C30.5174 14.5598 28.8871 14.1412 27.2649 13.9459C30.2799 13.5896 33.3514 13.9762 36.4149 15.224C43.0811 17.9393 48.7772 23.6977 52.6358 30.368C57.0276 37.958 59.1471 47.0394 58.4647 56.093Z" fill="#C86D36"/>
<path d="M68.395 86.1803C50.8561 86.2645 36.5698 72.1145 36.4856 54.5756C36.4842 54.2984 36.7079 54.0727 36.9852 54.0713L99.4954 53.7715C99.7725 53.7701 99.9983 53.9938 99.9997 54.2711C100.084 71.81 85.9338 86.0963 68.395 86.1803Z" fill="#D77F4A"/>
<path d="M100 54.2706V54.4277C100 71.8945 85.8805 86.0964 68.3958 86.181C62.5487 86.2091 57.062 84.6533 52.344 81.9201C56.0133 83.3773 60.0167 84.1683 64.2051 84.1482C81.2251 84.0677 95.0526 70.6124 95.7794 53.7898L99.495 53.7716C99.7725 53.7695 99.9981 53.9929 100 54.2706Z" fill="#C86D36"/>
<path d="M68.354 77.6289C55.4643 77.6906 44.9653 67.2917 44.9034 54.4021L44.9016 54.0332L91.5788 53.8093L91.5805 54.1783C91.6424 67.0679 81.2434 77.5669 68.354 77.6289Z" fill="#BBEC6C"/>
<path d="M91.5808 54.1782C91.6433 67.0678 81.2433 77.5665 68.3536 77.6288C65.2983 77.6428 62.3757 77.0711 59.6968 76.0145C61.2687 76.3426 62.8991 76.5096 64.5696 76.5016C77.1978 76.4432 87.4366 66.3594 87.7868 53.828L91.5788 53.8098L91.5808 54.1782Z" fill="#A2E62E"/>
<path d="M68.2762 61.4368C64.1901 61.4564 60.8617 58.1599 60.842 54.0738L60.8414 53.9568L75.6387 53.8859L75.6393 54.0029C75.659 58.089 72.3623 61.4173 68.2762 61.4368Z" fill="#00C27A"/>
<path d="M75.6397 53.8864V54.0031C75.6599 58.0891 72.363 61.4182 68.2771 61.4363C67.0392 61.4424 65.8698 61.1446 64.8413 60.6112C68.269 60.1643 70.954 57.3746 71.2458 53.9067L75.6397 53.8864Z" fill="#08B865"/>
<path d="M62.5895 71.0127C62.4184 71.0127 62.2446 70.9834 62.0743 70.9217C61.2907 70.6371 60.886 69.7711 61.1707 68.9875L61.7715 67.3338C62.0561 66.5502 62.9213 66.1455 63.7059 66.4303C64.4895 66.7148 64.8942 67.5809 64.6094 68.3645L64.0086 70.0182C63.7856 70.6316 63.2065 71.0127 62.5895 71.0127Z" fill="#97D819"/>
<path d="M55.5567 63.9919C54.9518 63.9919 54.3811 63.6259 54.1489 63.0282C53.8473 62.2509 54.2329 61.3763 55.01 61.0747L56.6501 60.4382C57.427 60.1366 58.3018 60.5222 58.6036 61.2991C58.9052 62.0765 58.5196 62.9511 57.7425 63.2527L56.1024 63.8892C55.9231 63.9589 55.7384 63.9919 55.5567 63.9919Z" fill="#97D819"/>
<path d="M73.8931 71.0127C73.2759 71.0127 72.6968 70.6316 72.4739 70.0179L71.8735 68.3642C71.589 67.5806 71.9936 66.7146 72.7772 66.43C73.561 66.1455 74.4268 66.5502 74.7114 67.3338L75.3118 68.9875C75.5964 69.7711 75.1917 70.6371 74.4081 70.9216C74.2382 70.9834 74.0641 71.0127 73.8931 71.0127Z" fill="#97D819"/>
<path d="M80.926 63.9918C80.7444 63.9918 80.5598 63.9588 80.3801 63.8893L78.7399 63.2526C77.9627 62.951 77.5772 62.0764 77.8788 61.2992C78.1803 60.5219 79.0545 60.1365 79.8323 60.4381L81.4725 61.0746C82.2497 61.3764 82.6352 62.251 82.3336 63.0281C82.1018 63.6258 81.5307 63.9918 80.926 63.9918Z" fill="#97D819"/>
</g>
<defs>
<clipPath id="clip0">
<rect width="100" height="100" fill="white"/>
</clipPath>
</defs>
</svg>
