<svg width="100" height="100" viewBox="0 0 100 100" fill="none" xmlns="http://www.w3.org/2000/svg">
<g clip-path="url(#clip0)">
<path d="M81.687 98.2134H18.3131C12.8235 98.2134 8.37329 93.7632 8.37329 88.2736V86.7566H91.6268V88.2736C91.6268 93.7632 87.1766 98.2134 81.687 98.2134Z" fill="#F3F0F3"/>
<path d="M91.626 86.7562V88.2736C91.626 93.7625 87.1762 98.2144 81.6873 98.2144H76.6608C82.1516 98.2144 86.6014 93.7627 86.6014 88.2736V86.7562H91.626Z" fill="#E2DEE2"/>
<path d="M83.9913 79.1873H16.0089C12.1762 79.1873 9.06921 76.0803 9.06921 72.2476V70.8814C9.06921 67.0488 12.1762 63.9418 16.0089 63.9418H83.9913C87.8239 63.9418 90.9309 67.0488 90.9309 70.8814V72.2476C90.9309 76.0803 87.8239 79.1873 83.9913 79.1873Z" fill="#FE9738"/>
<path d="M90.9307 70.8822V72.2468C90.9307 76.0796 87.8234 79.1869 83.9906 79.1869H79.9287C83.7615 79.1869 86.8688 76.0796 86.8688 72.2468V70.8822C86.8688 67.0494 83.7615 63.9421 79.9287 63.9421H83.9906C87.8234 63.9421 90.9307 67.0494 90.9307 70.8822Z" fill="#FE860A"/>
<path d="M96.7072 87.2123H3.29277C1.47422 87.2123 0 85.7381 0 83.9196V82.0248C0 80.2063 1.47422 78.7321 3.29277 78.7321H96.7072C98.5258 78.7321 100 80.2063 100 82.0248V83.9196C100 85.7381 98.5258 87.2123 96.7072 87.2123Z" fill="#CBC4CC"/>
<path d="M99.999 82.0257V83.9191C99.999 85.738 98.5257 87.2132 96.7068 87.2132H92.6228C94.4417 87.2132 95.9169 85.738 95.9169 83.9191V82.0257C95.9169 80.2068 94.4417 78.7316 92.6228 78.7316H96.7068C98.5257 78.7316 99.999 80.2068 99.999 82.0257Z" fill="#B5ADB6"/>
<path d="M71.2959 17.8109C73.2223 16.7857 74.9609 15.3818 76.4281 13.7763C78.7203 11.2683 80.2523 8.14646 80.623 4.76678C80.6641 4.39295 80.4803 4.02928 80.1549 3.841C77.2519 2.1615 73.8801 1.53904 70.5445 1.87225C67.8326 2.14295 65.0221 2.9201 62.7521 4.48689C59.1369 6.9824 56.2031 10.7023 55.2734 15.0808C55.1211 15.7978 54.5936 17.424 55.4937 17.9142C56.3289 18.3689 57.207 18.7441 58.1127 19.0344C62.3592 20.3957 67.3418 19.9152 71.2959 17.8109Z" fill="#00C27A"/>
<path d="M80.624 4.76716C80.2521 8.14763 78.7207 11.2691 76.4275 13.7773C74.9603 15.3812 73.2219 16.7861 71.2965 17.8111C67.341 19.9154 62.3586 20.3957 58.1119 19.0351C57.2074 18.7437 56.3291 18.3699 55.4932 17.9136C55.1656 17.7367 54.9746 17.381 55.0047 17.0092C55.0207 16.8082 55.0369 16.6031 55.0488 16.4705C59.2596 17.7709 64.1695 17.2763 68.0768 15.1982C70.0021 14.1732 71.7406 12.7703 73.2078 11.1644C75.4025 8.76267 76.9 5.80017 77.3502 2.5863C78.3209 2.90583 79.2596 3.32185 80.1559 3.84041C80.4814 4.02947 80.6643 4.39314 80.624 4.76716Z" fill="#08B865"/>
<path d="M83.9913 64.3975H16.0089C12.1762 64.3975 9.06921 61.2904 9.06921 57.4578V56.0916C9.06921 52.259 12.1762 49.152 16.0089 49.152H83.9913C87.8239 49.152 90.9309 52.259 90.9309 56.0916V57.4578C90.9309 61.2904 87.8239 64.3975 83.9913 64.3975Z" fill="#FDB97E"/>
<path d="M83.9913 49.6076H16.0089C12.1762 49.6076 9.06921 46.5005 9.06921 42.6679V41.3017C9.06921 37.4691 12.1762 34.3621 16.0089 34.3621H83.9913C87.8239 34.3621 90.9309 37.4691 90.9309 41.3017V42.6679C90.9309 46.5005 87.8239 49.6076 83.9913 49.6076Z" fill="#FE9738"/>
<path d="M90.9307 56.0912V57.4578C90.9307 61.2906 87.8234 64.3978 83.9906 64.3978H79.9287C83.7615 64.3978 86.8688 61.2906 86.8688 57.4578V56.0912C86.8688 52.2584 83.7615 49.1511 79.9287 49.1511H83.9906C87.8234 49.1511 90.9307 52.2584 90.9307 56.0912Z" fill="#FEA95C"/>
<path d="M90.9307 41.3023V42.667C90.9307 46.4998 87.8234 49.607 83.9906 49.607H79.9287C83.7615 49.607 86.8688 46.4998 86.8688 42.667V41.3023C86.8688 37.4695 83.7615 34.3623 79.9287 34.3623H83.9906C87.8234 34.3623 90.9307 37.4695 90.9307 41.3023Z" fill="#FE860A"/>
<path d="M74.4436 24.6566H25.2012C22.5211 24.6566 20.3486 26.8293 20.3486 29.5092C20.3486 32.1892 22.5213 34.3617 25.2012 34.3617H48.2229C51.9592 34.3617 54.9879 37.3906 54.9879 41.1267V52.8244C54.9879 55.2576 56.9605 57.2303 59.3938 57.2303C61.827 57.2303 63.7996 55.2576 63.7996 52.8244V41.1269C63.7996 37.3906 66.8285 34.3619 70.5646 34.3619H74.4436C77.1236 34.3619 79.2961 32.1892 79.2961 29.5094C79.2963 26.8291 77.1236 24.6566 74.4436 24.6566Z" fill="#7BACDF"/>
<path d="M43.409 28.1175C48.1933 28.1175 52.0717 24.2391 52.0717 19.4548C52.0717 14.6705 48.1933 10.7921 43.409 10.7921C38.6248 10.7921 34.7463 14.6705 34.7463 19.4548C34.7463 24.2391 38.6248 28.1175 43.409 28.1175Z" fill="#0078C8"/>
<path d="M52.0721 19.4551C52.0721 24.2385 48.193 28.1176 43.4096 28.1176C41.7655 28.1176 40.2301 27.6613 38.9215 26.8654C39.1385 26.8836 39.3557 26.8916 39.5768 26.8916C44.3602 26.8916 48.2393 23.0125 48.2393 18.2291C48.2393 15.0877 46.567 12.3361 44.0649 10.8187C48.5428 11.1523 52.0721 14.8927 52.0721 19.4551Z" fill="#0268B4"/>
<path d="M56.5909 28.1175C61.3752 28.1175 65.2536 24.2391 65.2536 19.4548C65.2536 14.6705 61.3752 10.7921 56.5909 10.7921C51.8066 10.7921 47.9282 14.6705 47.9282 19.4548C47.9282 24.2391 51.8066 28.1175 56.5909 28.1175Z" fill="#0078C8"/>
<path d="M65.2548 19.4551C65.2548 24.2385 61.3757 28.1176 56.5903 28.1176C54.9483 28.1176 53.4128 27.6613 52.1044 26.8654C52.3214 26.8836 52.5386 26.8916 52.7575 26.8916C57.543 26.8916 61.42 23.0125 61.42 18.2291C61.42 15.0877 59.7477 12.3361 57.2456 10.8187C61.7255 11.1523 65.2548 14.8927 65.2548 19.4551Z" fill="#0268B4"/>
<path d="M59.4884 21.2369C59.4269 21.2369 59.3652 21.2332 59.3027 21.2255C58.4763 21.124 57.8888 20.372 57.9902 19.5457C58.0937 18.7033 57.5382 17.758 56.7521 17.438C55.9812 17.1244 55.6103 16.2449 55.924 15.4738C56.2379 14.7027 57.1175 14.3318 57.8884 14.6457C59.9527 15.4857 61.2539 17.7009 60.9826 19.913C60.8888 20.6767 60.2388 21.2369 59.4884 21.2369Z" fill="#035C93"/>
</g>
<defs>
<clipPath id="clip0">
<rect width="100" height="100" fill="white"/>
</clipPath>
</defs>
</svg>
