<svg width="100" height="100" viewBox="0 0 100 100" fill="none" xmlns="http://www.w3.org/2000/svg">
<g clip-path="url(#clip0)">
<path d="M62.8836 63.7115C63.0193 63.6465 62.9261 63.3637 63.0613 63.2965C66.8814 61.3979 70.2152 58.8762 73.2047 55.2684C77.5474 50.0271 78.8517 42.2123 78.733 34.6934C78.7295 34.466 78.9705 33.8078 78.9646 33.582C78.8898 30.6658 78.6351 27.8744 78.3183 25.4277C77.4547 18.7541 73.8533 6.43203 71.8486 0H28.1511C26.1462 6.43203 22.5449 18.7541 21.6812 25.4277C21.4332 27.3438 21.2232 29.4713 21.108 31.7045C21.1003 31.8502 21.3412 32.3354 21.3345 32.482C20.9664 40.5309 21.8675 49.3373 26.6224 55.0762C29.6564 58.7377 33.0244 61.3477 36.9099 63.2484C36.9882 63.2867 37.0375 63.6738 37.1162 63.7115C42.3535 66.218 45.7136 71.4773 45.7136 77.2836V79.2266C45.7136 86.5217 40.6746 92.9219 33.5398 94.4436C33.3382 94.4865 33.1336 94.5279 32.9254 94.5674C32.9254 94.5674 27.4925 95.3436 26.4578 100H73.542C72.5072 95.3436 67.0744 94.5674 67.0744 94.5674C66.8662 94.5277 66.6615 94.4865 66.4599 94.4436C59.3252 92.9221 54.2861 86.5217 54.2861 79.2266V77.2836C54.2861 71.4773 57.6464 66.218 62.8836 63.7115Z" fill="#C8EFFE"/>
<path d="M54.2859 77.284V79.2259C54.2859 86.5217 59.3259 92.9207 66.4607 94.4426C66.6616 94.4867 66.8667 94.5269 67.0738 94.5672C67.0738 94.5672 72.5058 95.3431 73.5411 99.9992H69.4841C68.8107 97.1685 64.6533 97.0922 62.4034 96.6117C55.2685 95.0898 50.2286 86.5215 50.2286 79.2258V77.2838C50.2286 71.4777 53.59 64.4031 58.8271 61.8963C62.8017 59.9924 66.4806 57.1699 69.5767 53.4345C75.7447 45.99 75.4148 34.3338 74.2609 25.4277C73.3984 18.7533 69.7958 6.43162 67.7915 0.000366211H71.8486C73.8529 6.43162 77.4556 18.7533 78.3179 25.4277C79.4699 34.3338 79.8015 47.8054 73.6337 55.2498C70.5376 58.9851 66.8587 61.8076 62.8841 63.7115C57.6474 66.2187 54.2859 71.4779 54.2859 77.284Z" fill="#99E6FC"/>
<path d="M73.6339 55.2502C70.4956 59.0377 66.7564 61.8885 62.7155 63.7924C62.6794 63.8084 62.6452 63.8246 62.6089 63.8407C62.4763 63.903 62.3401 63.9563 62.2108 64.0215C57.8337 66.2289 53.4669 66.2336 48.8659 66.2289C45.53 66.2254 42.087 65.5414 38.9085 64.4981C38.9044 64.4981 38.9005 64.4961 38.8964 64.494C34.2384 62.6223 29.9179 59.5364 26.3655 55.2502C21.5245 49.408 20.6882 39.8506 21.1083 31.7045C28.6071 31.3567 36.0939 34.2858 43.2206 37.0078C51.4331 40.1461 60.4376 43.0953 68.853 40.5541C72.8437 39.3479 76.3558 36.8309 78.9573 33.582C78.9593 33.5801 78.9614 33.5781 78.9614 33.576C79.1626 41.2758 78.1091 49.8502 73.6339 55.2502Z" fill="#E94444"/>
<path d="M78.8481 39.4042C78.6742 41.8992 78.3209 44.3806 77.6924 46.8046C77.5029 47.5353 77.2865 48.2505 77.0414 48.9634C76.2654 51.2216 75.167 53.3978 73.6338 55.2498C72.886 56.1533 72.0901 57.0177 71.251 57.8373C69.1821 59.8582 66.893 61.5599 64.36 62.9537C64.2395 63.0201 64.1168 63.0863 63.9942 63.1507C63.4047 63.4599 62.7963 63.7261 62.211 64.0212C59.4789 65.4003 56.7508 65.9191 53.9664 66.1121C55.2973 64.2947 56.9399 62.799 58.8276 61.8962C62.8022 59.9923 66.4811 57.1699 69.5772 53.4345C73.1678 49.1001 74.5569 43.3384 74.8625 37.5203C76.3904 36.3984 77.7695 35.0656 78.9576 33.582C78.9596 33.58 78.9617 33.5781 78.9617 33.5759C78.9637 33.5839 78.9637 33.5919 78.9617 33.6001C78.9678 33.8193 78.9738 34.0404 78.9758 34.2617C78.9799 34.3642 78.9799 34.4687 78.9799 34.5712C78.9799 35.5513 78.9826 36.53 78.9475 37.5097C78.9244 38.1416 78.892 38.7734 78.8481 39.4042Z" fill="#D83131"/>
</g>
<defs>
<clipPath id="clip0">
<rect width="100" height="100" fill="white"/>
</clipPath>
</defs>
</svg>
