<svg width="100" height="100" viewBox="0 0 100 100" fill="none" xmlns="http://www.w3.org/2000/svg">
<g clip-path="url(#clip0)">
<path d="M57.732 99.9998H28.1298C27.1498 99.9998 26.3552 99.2053 26.3552 98.2252V91.4983H59.5068V98.225C59.5066 99.2053 58.712 99.9998 57.732 99.9998Z" fill="#62DBFB"/>
<path d="M69.997 22.5503C62.3005 27.2396 52.2597 24.8015 47.5706 17.105C47.4966 16.9833 47.5351 16.8247 47.6567 16.7505L75.0878 0.0380127C75.2095 -0.0360108 75.3681 0.00246578 75.4423 0.124145C80.1314 7.82063 77.6935 17.8613 69.997 22.5503Z" fill="#BBEC6C"/>
<path d="M77.8262 8.59901C77.8262 14.1047 75.0414 19.4762 69.9979 22.549C64.4223 25.9461 57.6203 25.6039 52.5088 22.233C56.9301 23.7355 61.9615 23.3414 66.2607 20.7205C71.3063 17.6476 74.091 12.274 74.091 6.76835C74.091 4.9119 73.775 3.03925 73.1207 1.23475L75.0873 0.0363151C75.2094 -0.0377083 75.3674 0.00233074 75.4414 0.122253C77.0578 2.77538 77.8262 5.70624 77.8262 8.59901Z" fill="#A2E62E"/>
<path d="M64.1065 12.8821C61.6667 14.3686 58.4837 13.5957 56.9972 11.1559L56.9546 11.086L65.7903 5.70276L65.8329 5.77268C67.3192 8.21253 66.5464 11.3955 64.1065 12.8821Z" fill="#00C27A"/>
<path d="M69.9494 17.8232C69.6258 17.8232 69.3002 17.7166 69.0291 17.4973L68.0727 16.7238C67.4436 16.2152 67.3461 15.2928 67.8549 14.6637C68.3637 14.0346 69.2862 13.9373 69.9151 14.4459L70.8715 15.2193C71.5006 15.7281 71.5981 16.6504 71.0893 17.2795C70.7998 17.6375 70.3764 17.8232 69.9494 17.8232Z" fill="#97D819"/>
<path d="M70.6808 11.0638C69.9818 11.0638 69.3632 10.5619 69.2394 9.84977C69.1009 9.0527 69.6345 8.29431 70.4316 8.15563L71.6435 7.94489C72.4408 7.80622 73.199 8.34001 73.3376 9.13708C73.4761 9.93415 72.9425 10.6925 72.1454 10.8312L70.9335 11.042C70.8486 11.0566 70.764 11.0638 70.6808 11.0638Z" fill="#97D819"/>
<path d="M62.0732 11.5356H23.7885C22.8959 11.5356 22.1725 12.2593 22.1725 13.1517V28.175L23.0711 30.6386V89.882C23.0711 90.7746 23.7948 91.4981 24.6871 91.4981H62.0734C62.966 91.4981 62.6781 90.7744 62.6781 89.882V36.0295L63.6897 36.5635V13.1519C63.6895 12.2593 62.9658 11.5356 62.0732 11.5356Z" fill="#C8EFFE"/>
<path d="M63.69 13.1512V91.4984C63.69 92.3906 62.9658 93.1148 62.0736 93.1148H57.8904C58.7826 93.1148 59.5068 92.3906 59.5068 91.4984V13.1512C59.5068 12.259 58.7826 11.5367 57.8904 11.5367H62.0736C62.9658 11.5367 63.69 12.2588 63.69 13.1512Z" fill="#99E6FC"/>
<path d="M63.6885 36.5635V91.4995C63.6885 92.3913 62.9661 93.1157 62.0743 93.1157H23.7876C22.8958 93.1157 22.1733 92.3913 22.1733 91.4995V28.1752C24.2093 28.9279 26.2292 29.7027 28.231 30.4674C39.5834 34.8039 51.9387 38.9022 63.6885 36.5635Z" fill="#BBEC6C"/>
<path d="M63.6879 36.5649V91.5013C63.6879 92.3892 62.9817 93.1157 62.0735 93.1157H57.8903C58.7824 93.1157 59.5067 92.3915 59.5067 91.4993V37.1333C60.9073 37.0272 62.3016 36.8411 63.6879 36.5649Z" fill="#A2E62E"/>
<path d="M50.1727 38.9738L41.6614 47.4851C40.9282 48.2183 39.7395 48.2183 39.0063 47.4851L30.495 38.9738C29.7618 38.2406 29.7618 37.0519 30.495 36.3187L39.0063 27.8073C39.7395 27.0741 40.9282 27.0741 41.6614 27.8073L50.1727 36.3187C50.9059 37.0519 50.9059 38.2406 50.1727 38.9738Z" fill="#F3F0F3"/>
<path d="M50.1733 38.9736L41.6612 47.4857C40.9286 48.2183 39.7399 48.2183 39.0073 47.4857L38.021 46.4993L45.5448 38.9734C46.2794 38.2408 46.2794 37.0521 45.5448 36.3195L38.021 28.7935L39.0073 27.8072C39.7399 27.0745 40.9286 27.0745 41.6612 27.8072L50.1733 36.3193C50.9059 37.0523 50.9059 38.2409 50.1733 38.9736Z" fill="#E2DEE2"/>
<path d="M59.5069 93.1147V98.2243C59.5069 99.2046 58.7126 99.9989 57.7323 99.9989H53.551C54.5313 99.9989 55.3256 99.2048 55.3256 98.2243V93.1147H59.5069Z" fill="#01D0FB"/>
<path d="M52.0007 72.0613C53.7093 70.2631 55.0795 68.124 56.0843 65.8651C57.6541 62.3361 58.1838 58.4188 57.3681 54.6408C57.2779 54.2229 56.949 53.8969 56.5302 53.8108C52.7959 53.0436 48.9359 53.585 45.4587 55.1436C42.6318 56.4108 39.8804 58.2594 37.9958 60.7654C34.9947 64.7567 33.1687 69.8229 33.7406 74.8789C33.8238 75.6137 33.9679 76.343 34.1437 77.0551C34.2453 77.4666 34.5798 77.7805 34.997 77.8549C36.0611 78.0449 37.1431 78.1336 38.2242 78.1211C43.2931 78.0623 48.4935 75.7524 52.0007 72.0613Z" fill="#00C27A"/>
<path d="M56.0852 65.8655C55.0806 68.1237 53.7098 70.2625 52.0014 72.0618C48.4938 75.7512 43.2921 78.062 38.2239 78.1208C37.1423 78.1348 36.0608 78.0459 34.9973 77.8559C34.5788 77.7811 34.2454 77.4678 34.1442 77.0553C34.0634 76.7299 33.9805 76.3922 33.9663 76.3133C33.9602 76.285 33.9561 76.2586 33.9501 76.2305C34.2897 76.2467 34.6313 76.2528 34.9729 76.2487C40.0413 76.1901 45.2409 73.8793 48.7485 70.1897C50.4567 68.3905 51.8274 66.2514 52.8323 63.9934C54.302 60.692 54.86 57.051 54.2575 53.5051C55.0177 53.5536 55.7759 53.6547 56.5298 53.8104C56.9481 53.8973 57.2778 54.2229 57.3688 54.6413C58.1839 58.4198 57.6542 62.3358 56.0852 65.8655Z" fill="#08B865"/>
<path d="M51.0649 63.4916L50.0774 63.3613L52.1782 61.2605C52.7641 60.6746 52.7641 59.7246 52.1782 59.1387C51.5922 58.5527 50.6422 58.5527 50.0563 59.1387L47.9555 61.2395L47.8252 60.252C47.717 59.4305 46.9639 58.8529 46.1414 58.9607C45.3199 59.0691 44.7418 59.8228 44.8502 60.6445L45.2815 63.9137L43.7239 65.4713L43.5936 64.4836C43.4852 63.6621 42.7319 63.084 41.9098 63.1924C41.0883 63.3008 40.51 64.0547 40.6186 64.8762L41.0498 68.1453L39.0592 70.1359C38.4733 70.7219 38.4733 71.6719 39.0592 72.2578C39.3522 72.5508 39.7362 72.6973 40.1201 72.6973C40.5041 72.6973 40.8881 72.5508 41.1811 72.2578L43.1717 70.2672L46.4408 70.6984C46.5074 70.7072 46.5735 70.7115 46.6389 70.7115C47.3803 70.7115 48.025 70.1621 48.1246 69.4072C48.233 68.5857 47.6549 67.8318 46.8334 67.7234L45.8459 67.5932L47.4035 66.0355L50.6727 66.4668C50.7393 66.4756 50.8053 66.4799 50.8707 66.4799C51.6121 66.4799 52.2569 65.9305 52.3565 65.1756C52.4647 64.3539 51.8865 63.6 51.0649 63.4916Z" fill="#059B50"/>
<path d="M53.5508 46.3287C54.6567 46.3287 55.5532 45.4322 55.5532 44.3263C55.5532 43.2205 54.6567 42.324 53.5508 42.324C52.4449 42.324 51.5485 43.2205 51.5485 44.3263C51.5485 45.4322 52.4449 46.3287 53.5508 46.3287Z" fill="#97D819"/>
<path d="M32.9781 53.8243C34.0839 53.8243 34.9804 52.9278 34.9804 51.8219C34.9804 50.7161 34.0839 49.8196 32.9781 49.8196C31.8722 49.8196 30.9757 50.7161 30.9757 51.8219C30.9757 52.9278 31.8722 53.8243 32.9781 53.8243Z" fill="#97D819"/>
<path d="M51.5485 84.8642C52.6544 84.8642 53.5508 83.9677 53.5508 82.8618C53.5508 81.756 52.6544 80.8595 51.5485 80.8595C50.4426 80.8595 49.5461 81.756 49.5461 82.8618C49.5461 83.9677 50.4426 84.8642 51.5485 84.8642Z" fill="#97D819"/>
<path d="M29.9291 61.1359C31.035 61.1359 31.9314 60.2394 31.9314 59.1336C31.9314 58.0277 31.035 57.1312 29.9291 57.1312C28.8232 57.1312 27.9268 58.0277 27.9268 59.1336C27.9268 60.2394 28.8232 61.1359 29.9291 61.1359Z" fill="#97D819"/>
</g>
<defs>
<clipPath id="clip0">
<rect width="100" height="100" fill="white"/>
</clipPath>
</defs>
</svg>
