<svg width="100" height="100" viewBox="0 0 100 100" fill="none" xmlns="http://www.w3.org/2000/svg">
<g clip-path="url(#clip0)">
<path d="M65.3285 20.8807C66.9673 20.0085 68.4466 18.8141 69.6951 17.4481C71.6453 15.3143 72.9488 12.6583 73.2642 9.78268C73.2992 9.46452 73.1427 9.15514 72.8658 8.99499C70.396 7.56608 67.5271 7.03659 64.6894 7.31999C62.3822 7.55026 59.991 8.21159 58.0597 9.5446C54.9837 11.6678 52.4878 14.8325 51.6968 18.5579C51.5609 19.1983 51.1166 20.5505 51.8843 20.9684C52.5949 21.3553 53.342 21.6745 54.1127 21.9215C57.7252 23.0798 61.9644 22.6712 65.3285 20.8807Z" fill="#00C27A"/>
<path d="M73.265 9.78276C72.9491 12.6587 71.646 15.3134 69.6952 17.4472C68.4464 18.8148 66.9681 20.0093 65.329 20.8802C61.9644 22.6701 57.7249 23.0804 54.113 21.922C53.3427 21.6746 52.5946 21.3548 51.8847 20.9687C51.6052 20.8158 51.4423 20.5142 51.4683 20.1984C51.4884 19.949 51.5085 19.6896 51.5165 19.6292C51.5206 19.6011 51.5226 19.575 51.5286 19.5468C55.0622 20.5746 59.1427 20.1361 62.4009 18.4005C64.04 17.5298 65.5181 16.3351 66.7671 14.9695C68.5911 12.9744 69.8501 10.5208 70.2624 7.86011C71.1654 8.13765 72.0382 8.51577 72.8669 8.99429C73.1421 9.15522 73.2991 9.46499 73.265 9.78276Z" fill="#08B865"/>
<path d="M47.0766 23.0127C46.5539 19.4348 45.8526 9.75255 46.5061 3.81876C46.8004 1.14708 49.4444 -0.602137 52.0115 0.193956C52.0483 0.205285 52.085 0.216613 52.1219 0.227941C54.1776 0.859581 55.4336 2.92911 55.0606 5.04689C54.4022 8.78439 53.5477 17.7135 53.4869 22.576C53.4649 24.3453 52.0348 25.7721 50.2653 25.7721C48.6641 25.7723 47.308 24.5971 47.0766 23.0127Z" fill="#D77F4A"/>
<path d="M55.0603 5.04629C54.4026 8.78496 53.548 17.7125 53.4876 22.5754C53.4655 24.3451 52.0356 25.7711 50.2657 25.7711C49.5216 25.7711 48.8278 25.5176 48.2788 25.0854C49.0229 24.5021 49.5036 23.5951 49.5157 22.5754C49.5761 17.7125 50.4308 8.78496 51.0884 5.04629C51.4222 3.15781 50.4589 1.30762 48.7897 0.483008C49.7409 -0.0158201 50.8833 -0.156445 52.0116 0.19336C52.0478 0.205469 52.086 0.21543 52.1222 0.227539C54.1774 0.85918 55.4343 2.92871 55.0603 5.04629Z" fill="#C86D36"/>
<path d="M57.2148 25.7984C56.5404 25.5842 56.0828 24.9564 56.0875 24.2488C56.0891 24.0092 56.0768 23.7662 56.0498 23.5207C55.7313 20.6189 53.3297 18.3273 50.417 18.1332C46.866 17.8965 43.9119 20.7068 43.9119 24.207V24.2197C43.9133 24.9381 43.4684 25.5812 42.7838 25.7988C30.6107 29.668 21.6299 43.0916 21.6299 59.0596C21.6299 75.0279 30.6113 88.452 42.7848 92.3207C43.4592 92.535 43.9168 93.1627 43.9121 93.8703C43.9105 94.1103 43.9229 94.3535 43.9498 94.5994C44.2688 97.5012 46.6709 99.7926 49.5838 99.9861C53.1344 100.222 56.0877 97.4121 56.0877 93.9121C56.0877 93.9078 56.0877 93.9037 56.0877 93.8994C56.0863 93.1811 56.5313 92.5381 57.2158 92.3203C69.3889 88.4512 78.3697 75.0275 78.3697 59.0596C78.3697 43.0912 69.3885 29.6672 57.2148 25.7984Z" fill="#FEE45A"/>
<path d="M78.3688 59.0596C78.3688 75.0279 69.3891 88.4504 57.2157 92.3197C56.5319 92.5389 56.0854 93.1805 56.0876 93.8984V93.9125C56.0876 97.4119 53.1352 100.221 49.5834 99.9861C48.8393 99.9359 48.1293 99.7508 47.4778 99.4512C49.8971 98.1721 51.6428 94.8617 51.6428 92.1709V92.1568C51.6409 91.4389 52.0874 90.7973 52.7711 90.5781C64.9446 86.7088 73.9262 75.0279 73.9262 59.0596C73.9262 43.0912 64.9446 31.1631 52.7711 27.2938C52.0954 27.0785 51.6389 26.4512 51.6428 25.7432C51.6448 25.5039 51.6329 25.2625 51.6045 25.015C51.337 22.5734 50.5848 19.6272 47.7813 18.5371C48.5897 18.2193 49.4827 18.0705 50.4159 18.1328C53.3299 18.3279 55.7313 20.6186 56.0491 23.5207C56.0772 23.766 56.0893 24.0094 56.0874 24.2488C56.0833 24.9568 56.5399 25.5842 57.2155 25.7994C69.3889 29.6668 78.3688 43.0912 78.3688 59.0596Z" fill="#FEDF30"/>
</g>
<defs>
<clipPath id="clip0">
<rect width="100" height="100" fill="white"/>
</clipPath>
</defs>
</svg>
