<svg width="100" height="100" viewBox="0 0 100 100" fill="none" xmlns="http://www.w3.org/2000/svg">
<g clip-path="url(#clip0)">
<path d="M49.9996 100C47.4195 100 45.3281 97.9084 45.3281 95.3285V68.5072H54.6711V95.3285C54.6711 97.9084 52.5795 100 49.9996 100Z" fill="#F4D7C8"/>
<path d="M54.672 69.8633V95.3287C54.672 97.908 52.5788 99.9992 49.9995 99.9992C49.2804 99.9992 48.5993 99.8365 47.9907 99.5473C49.5657 98.7959 50.6544 97.1889 50.6544 95.3287V69.8633H54.672Z" fill="#ECBBA3"/>
<path d="M64.4537 4.65488V65.208C64.4537 67.7789 62.3697 69.8629 59.7988 69.8629H40.2008C37.6299 69.8629 35.5459 67.7789 35.5459 65.208V4.65488C35.5459 2.08398 37.6299 0 40.2008 0H59.7988C62.3695 0 64.4537 2.08398 64.4537 4.65488Z" fill="#C8EFFE"/>
<path d="M64.4531 4.65449V65.2084C64.4531 67.7777 62.3699 69.8629 59.7986 69.8629H55.781C58.3523 69.8629 60.4355 67.7777 60.4355 65.2084V4.65449C60.4355 2.0832 58.3523 0 55.781 0H59.7986C62.3699 0.000195313 64.4531 2.0832 64.4531 4.65449Z" fill="#99E6FC"/>
<path d="M67.2167 17.1733C67.2167 20.1629 64.4454 22.3821 61.528 21.7281L36.4295 17.028C34.2977 16.5502 32.7825 14.6578 32.7825 12.4731V12.4717C32.7825 9.48186 35.554 7.26291 38.4713 7.91682L63.5698 12.6184C65.7016 13.0963 67.2167 14.9887 67.2167 17.1733Z" fill="#E94444"/>
<path d="M67.2167 37.2805V37.2839C67.2167 40.2737 64.4452 42.4926 61.5278 41.8387L36.4293 37.1372C34.2977 36.6592 32.7825 34.7669 32.7825 32.5823V32.5803C32.7825 29.5907 35.5538 27.3715 38.4711 28.0255L63.5696 32.7256C65.7014 33.2034 67.2167 35.096 67.2167 37.2805Z" fill="#E94444"/>
<path d="M67.2167 57.3913C67.2167 60.3809 64.4454 62.6001 61.528 61.9462L36.4295 57.246C34.2977 56.7682 32.7825 54.8759 32.7825 52.6911V52.6897C32.7825 49.6999 35.554 47.4809 38.4713 48.1348L63.5698 52.8364C65.7016 53.3141 67.2167 55.2065 67.2167 57.3913Z" fill="#E94444"/>
<path d="M67.2172 17.1736C67.2172 20.1627 64.4449 22.3824 61.5281 21.7277L56.9883 20.8177C59.9051 21.4707 62.6773 19.2529 62.6773 16.2617C62.6773 14.2791 61.4279 12.5373 59.6039 11.8744L63.5693 12.6177C65.7006 13.0957 67.2172 14.9879 67.2172 17.1736Z" fill="#D83131"/>
<path d="M67.2172 37.2798V37.2837C67.2172 40.2728 64.4449 42.4927 61.5281 41.8378L56.9883 40.9279C59.9051 41.5808 62.6773 39.363 62.6773 36.3718V36.3698C62.6773 34.3892 61.434 32.6495 59.6119 31.9845L63.5693 32.7257C65.7006 33.2038 67.2172 35.0962 67.2172 37.2798Z" fill="#D83131"/>
<path d="M67.2172 57.3902C67.2172 60.3814 64.4449 62.599 61.5281 61.9463L56.9883 61.0344C59.9051 61.6892 62.6773 59.4695 62.6773 56.4802C62.6773 54.4996 61.434 52.7619 59.6158 52.0951L63.5691 52.8363C65.7006 53.3142 67.2172 55.2066 67.2172 57.3902Z" fill="#D83131"/>
</g>
<defs>
<clipPath id="clip0">
<rect width="100" height="100" fill="white"/>
</clipPath>
</defs>
</svg>
