<svg width="100" height="100" viewBox="0 0 100 100" fill="none" xmlns="http://www.w3.org/2000/svg">
<g clip-path="url(#clip0)">
<path d="M35.7719 85.6909C55.5281 85.6909 71.5437 69.6752 71.5437 49.919C71.5437 30.1627 55.5281 14.1471 35.7719 14.1471C16.0156 14.1471 0 30.1627 0 49.919C0 69.6752 16.0156 85.6909 35.7719 85.6909Z" fill="#00C27A"/>
<path d="M71.5429 49.9193C71.5429 69.6742 55.5277 85.6916 35.7707 85.6916C32.7185 85.6916 29.7548 85.3086 26.9265 84.5889C28.1724 84.7219 29.4365 84.7885 30.7166 84.7885C50.4736 84.7885 66.4888 68.7732 66.4888 49.0162C66.4888 32.3115 55.042 18.284 39.5628 14.3467C57.5377 16.2398 71.5429 31.4426 71.5429 49.9193Z" fill="#08B865"/>
<path d="M37.8309 57.8985C37.8309 65.8799 42.1141 65.8799 42.1141 73.8612C42.1141 80.1125 39.4872 81.467 38.3481 85.5983C37.4985 85.6598 36.6385 85.6907 35.7725 85.6907C33.8249 85.6907 31.9141 85.5346 30.0508 85.235C31.2391 81.3829 33.7122 79.9256 33.7122 73.8612C33.7122 65.8797 29.429 65.8797 29.429 57.8985C29.429 49.917 33.7122 49.917 33.7122 41.9358C33.7122 33.9565 29.429 33.9565 29.429 25.975C29.429 19.7237 32.0559 18.3692 33.195 14.2401C34.0467 14.1786 34.9065 14.1477 35.7727 14.1477C37.7204 14.1477 39.6311 14.3038 41.4924 14.6034C40.3042 18.4536 37.8311 19.9106 37.8311 25.975C37.8311 33.9565 42.1143 33.9565 42.1143 41.9358C42.1139 49.917 37.8309 49.917 37.8309 57.8985Z" fill="#BBEC6C"/>
<path d="M57.389 57.8985C57.389 65.8799 61.6722 65.8799 61.6722 73.8612C61.6722 74.1176 61.6681 74.368 61.6599 74.6082C58.5896 77.8242 54.9285 80.4696 50.8505 82.368C52.0039 80.1823 53.2703 78.2018 53.2703 73.8612C53.2703 65.8797 48.9871 65.8797 48.9871 57.8985C48.9871 49.917 53.2703 49.917 53.2703 41.9358C53.2703 33.9565 48.9871 33.9565 48.9871 25.975C48.9871 21.7782 50.1712 19.7874 51.2959 17.6838C53.6478 18.8167 55.8582 20.202 57.8898 21.8049C57.5839 22.9358 57.389 24.2739 57.389 25.9752C57.389 33.9567 61.6722 33.9567 61.6722 41.936C61.6722 49.917 57.389 49.917 57.389 57.8985Z" fill="#BBEC6C"/>
<path d="M30.7165 84.7883C33.5591 84.7883 36.327 84.4557 38.9782 83.8287C38.7403 84.369 38.5267 84.9496 38.3472 85.5988C38.1354 85.6151 37.9218 85.6272 37.7081 85.6391C37.0599 85.6758 36.4229 85.6895 35.7728 85.6895C34.5618 85.6895 33.3661 85.6301 32.1661 85.51C31.6597 85.4594 31.1638 85.3973 30.6622 85.3244C30.5989 85.3153 30.0749 85.2908 30.0513 85.2317C30.0997 85.0785 30.1479 84.9293 30.2005 84.784C30.3718 84.7863 30.5452 84.7883 30.7165 84.7883Z" fill="#A2E62E"/>
<path d="M41.4921 14.6028C41.4638 14.6936 41.4356 14.7842 41.4054 14.8709C40.8005 14.6793 40.1878 14.5061 39.5688 14.3489C39.6112 14.3508 39.6556 14.3569 39.6979 14.3629C40.2772 14.4456 40.8513 14.4883 41.4257 14.5928C41.4478 14.5967 41.47 14.5989 41.4921 14.6028Z" fill="#A2E62E"/>
<path d="M50.4956 19.2075C50.7536 18.6854 51.0259 18.1876 51.296 17.6835C51.3437 17.6063 53.3118 18.736 53.4571 18.8184C54.8856 19.6301 56.2796 20.5622 57.5798 21.5622C57.6847 21.6428 57.7874 21.7235 57.8903 21.8042C57.6323 22.7557 57.4528 23.8565 57.4024 25.1952C55.3685 22.9169 53.0479 20.9008 50.4956 19.2075Z" fill="#A2E62E"/>
<path d="M61.6725 73.8616C61.6725 74.1157 61.6684 74.3657 61.6604 74.6075C61.6059 74.664 61.5535 74.7185 61.4971 74.7749C60.6742 75.5978 59.8432 76.413 58.9549 77.1677C58.6303 77.4435 58.2998 77.7126 57.965 77.9763C56.5705 79.0742 55.1102 80.0679 53.5762 80.9519C52.6912 81.462 51.782 81.9337 50.8506 82.3671C51.6813 80.7906 52.5723 79.323 53.0037 76.9986C56.0277 74.5874 58.6525 71.6964 60.7613 68.4386C61.2934 69.8197 61.6725 71.4868 61.6725 73.8616Z" fill="#A2E62E"/>
<path d="M18.2725 57.8985C18.2725 65.8799 22.5557 65.8799 22.5557 73.8612C22.5557 78.0602 21.3715 80.0489 20.2469 82.1545C17.895 81.0196 15.6846 79.6342 13.6528 78.0315C13.9586 76.9006 14.1536 75.5625 14.1536 73.8612C14.1536 65.8797 9.87036 65.8797 9.87036 57.8985C9.87036 49.917 14.1536 49.917 14.1536 41.9358C14.1536 33.9565 9.87036 33.9565 9.87036 25.975C9.87036 25.7205 9.87446 25.4742 9.88267 25.2342C12.9508 22.0162 16.6141 19.3707 20.6942 17.4703C19.5387 19.6561 18.2725 21.6365 18.2725 25.975C18.2725 33.9565 22.5557 33.9565 22.5557 41.9358C22.5557 49.917 18.2725 49.917 18.2725 57.8985Z" fill="#BBEC6C"/>
<path d="M82.8316 42.0412L58.7619 74.6601C58.1203 75.5297 58.2891 76.7513 59.1435 77.4129C59.1838 77.4439 59.2246 77.4756 59.2664 77.5076C70.4867 86.1377 85.4393 88.2398 98.6041 83.0379C98.6529 83.0185 98.7012 82.9994 98.7482 82.9806C99.752 82.5802 100.251 81.4525 99.874 80.4398L85.7309 42.449C85.2695 41.2093 83.6168 40.9771 82.8316 42.0412Z" fill="#00C27A"/>
<path d="M82.8317 42.0412L61.4844 70.9709L61.3797 71.7778L59.1723 74.8918C58.5307 75.7614 59.0303 75.9252 59.8848 76.5867C59.925 76.6178 59.9658 76.6494 60.0076 76.6815C61.7262 78.0033 63.541 79.2008 65.4379 80.2512C67.2957 81.2801 69.2321 82.1676 71.2276 82.8949C73.1908 83.6106 75.2112 84.1705 77.2639 84.5613C79.3067 84.9504 81.3815 85.1717 83.4604 85.2196C85.5563 85.2678 87.6559 85.1397 89.7305 84.8387C91.852 84.5309 93.9467 84.0426 95.9879 83.3875C96.5299 83.2137 97.068 83.028 97.602 82.8311C98.1127 82.6428 98.6893 82.4772 99.144 82.1793C99.752 81.7813 99.4108 80.7924 99.1862 80.2672L97.86 77.1637L98.2744 76.1426L85.7309 42.4485C85.2696 41.2094 83.6168 40.9772 82.8317 42.0412Z" fill="#E94444"/>
<path d="M98.6979 82.6634C98.6494 82.6835 98.6012 82.7016 98.5527 82.7218C97.2182 83.2499 95.7883 83.7015 94.4234 84.0806C95.2459 83.5825 95.7533 82.8571 95.4168 81.9157L81.6836 43.5973L82.8307 42.0409C83.617 40.9764 85.2701 41.2102 85.7316 42.4481L98.274 76.1419L98.0998 76.5679L99.4867 80.4307C99.8637 81.4427 99.6998 82.2641 98.6979 82.6634Z" fill="#D83131"/>
<path d="M74.5915 69.0453C74.5182 69.0453 74.4444 69.0398 74.37 69.0285C73.57 68.9072 73.02 68.1605 73.1413 67.3607L73.4911 65.0533C73.6122 64.2531 74.361 63.7029 75.1588 63.8246C75.9588 63.9459 76.5088 64.6926 76.3876 65.4924L76.0378 67.7998C75.928 68.5252 75.3034 69.0453 74.5915 69.0453Z" fill="#CC2121"/>
<path d="M85.9904 70.773C85.9172 70.773 85.8433 70.7675 85.7689 70.7562C84.9689 70.6349 84.4189 69.8882 84.5402 69.0884L84.89 66.781C85.0111 65.9808 85.7597 65.4304 86.5578 65.5523C87.3578 65.6736 87.9078 66.4203 87.7865 67.2201L87.4367 69.5275C87.3267 70.2531 86.7021 70.773 85.9904 70.773Z" fill="#CC2121"/>
<path d="M81.4699 62.1306C81.3966 62.1306 81.3228 62.1252 81.2484 62.1138C80.4484 61.9925 79.8984 61.2459 80.0197 60.4461L80.3695 58.1386C80.4906 57.3385 81.2394 56.7877 82.0373 56.9099C82.8373 57.0312 83.3873 57.7779 83.266 58.5777L82.9162 60.8851C82.8064 61.6105 82.1818 62.1306 81.4699 62.1306Z" fill="#CC2121"/>
<path d="M98.7486 82.9807C98.7017 82.999 98.6527 83.0192 98.6039 83.0373C85.4396 88.2404 70.4857 86.1383 59.2664 77.5072C59.2246 77.4764 59.183 77.4436 59.1429 77.4129C58.2886 76.7518 58.1197 75.5307 58.7617 74.6602L61.3306 71.1797L61.4845 70.9713C72.1617 78.5848 85.9111 80.5176 98.2734 76.1432L99.8736 80.4399C100.251 81.4533 99.7519 82.5807 98.7486 82.9807Z" fill="#00C27A"/>
<path d="M99.3821 82.5749C98.9317 83.0042 98.2749 83.1689 97.7048 83.3794C97.104 83.6011 96.4993 83.8068 95.8925 83.9984C95.4489 84.1374 95.0054 84.2685 94.5599 84.3915C95.3763 83.8935 95.7513 82.8532 95.4167 81.9159L93.812 77.4384C95.314 77.0956 96.8038 76.6642 98.2733 76.144L99.8741 80.4401C100.16 81.2081 99.9425 82.0407 99.3821 82.5749Z" fill="#08B865"/>
</g>
<defs>
<clipPath id="clip0">
<rect width="100" height="100" fill="white"/>
</clipPath>
</defs>
</svg>
