<svg width="100" height="100" viewBox="0 0 100 100" fill="none" xmlns="http://www.w3.org/2000/svg">
<g clip-path="url(#clip0)">
<path d="M73.9466 24.6665C73.9558 24.3534 73.9589 24.0388 73.9558 23.7225C73.832 10.7729 63.2783 0.175869 50.3293 0.00184515C36.9472 -0.177842 26.0429 10.6161 26.0429 23.9567C26.0429 24.1636 26.0455 24.3698 26.0507 24.5753C26.2212 31.2907 24.0496 37.8278 20.2335 43.3563C16.1916 49.2124 13.8332 56.3194 13.8584 63.9792C13.924 83.9981 30.4726 100.263 50.49 99.9964C70.2246 99.7341 86.1416 83.6548 86.1416 63.8579C86.1416 56.1397 83.7216 48.9872 79.5994 43.1167C75.8039 37.7116 73.7544 31.2684 73.9466 24.6665Z" fill="#BBEC6C"/>
<path d="M86.1409 63.8582C86.1409 83.6549 70.2255 99.7354 50.4892 99.9973C49.5409 100.009 48.5989 99.9852 47.6688 99.9268C66.5436 98.725 81.4786 83.035 81.4786 63.8582C81.4786 56.14 79.0589 48.9875 74.936 43.1172C71.1393 37.7121 69.0901 31.2701 69.2833 24.6672C69.2913 24.3531 69.2954 24.0391 69.2913 23.723C69.1745 11.4434 59.6788 1.27929 47.6567 0.113664C48.5345 0.029094 49.4263 -0.00918728 50.3302 0.00292209C63.2784 0.176164 73.8329 10.773 73.9558 23.7232C73.9599 24.0393 73.9558 24.3533 73.9456 24.6674C73.7544 31.2703 75.8036 37.7123 79.6003 43.1174C83.7212 48.9875 86.1409 56.14 86.1409 63.8582Z" fill="#A2E62E"/>
<path d="M50 82.1037C59.9901 82.1037 68.0887 74.0052 68.0887 64.0151C68.0887 54.025 59.9901 45.9264 50 45.9264C40.0099 45.9264 31.9114 54.025 31.9114 64.0151C31.9114 74.0052 40.0099 82.1037 50 82.1037Z" fill="#D77F4A"/>
<path d="M68.088 64.0144C68.088 74.0045 59.9902 82.1049 50.0001 82.1049C45.5076 82.1049 41.3949 80.4652 38.2332 77.7519C40.265 78.5412 42.4732 78.975 44.7845 78.975C54.7746 78.975 62.8724 70.8746 62.8724 60.8846C62.8724 55.3871 60.4214 50.4656 56.5515 47.1494C63.3038 49.7744 68.088 56.3355 68.088 64.0144Z" fill="#C86D36"/>
</g>
<defs>
<clipPath id="clip0">
<rect width="100" height="100" fill="white"/>
</clipPath>
</defs>
</svg>
