<svg width="100" height="100" viewBox="0 0 100 100" fill="none" xmlns="http://www.w3.org/2000/svg">
<g clip-path="url(#clip0)">
<path d="M80.4752 30.4264C78.9873 29.1139 77.4064 27.9443 75.7505 26.9111C75.3546 26.6641 74.5269 26.9379 74.1226 26.7064C66.8785 22.5572 58.7654 20.3691 50.3484 20.6459H49.6517C40.2297 20.3361 31.4976 22.7506 23.7578 28.0648C23.438 28.2844 22.2767 28.2309 21.9632 28.4613C21.1261 29.0769 20.3125 29.7316 19.5248 30.4264C9.55446 39.2213 4.61969 53.2447 6.49938 66.5334C9.48219 87.6191 29.7875 100.289 49.9843 99.9947H50.0156C70.2123 100.289 90.5177 87.6191 93.5004 66.5334C95.3802 53.2447 90.4455 39.2211 80.4752 30.4264Z" fill="#E94444"/>
<path d="M93.4995 66.5334C90.5171 87.6193 70.2124 100.288 50.0161 99.9951H49.9841C39.7835 100.144 29.5548 96.9845 21.5454 91.1041C28.9804 95.5888 37.8696 97.9607 46.7386 97.83H46.7708C66.9667 98.1252 87.2714 85.4543 90.2538 64.3703C92.1337 51.0808 87.1991 37.0562 77.2294 28.2617C76.3778 27.5105 75.4962 26.7996 74.5884 26.1267C76.669 27.3759 78.6433 28.8099 80.4749 30.4267C90.4446 39.2212 95.3792 53.2437 93.4995 66.5334Z" fill="#D83131"/>
<path d="M75.7535 26.9054C75.7455 26.8834 75.7375 26.8592 75.7273 26.8371C68.9531 22.4633 60.9277 20.1252 52.8857 19.9367C53.0551 16.467 53.4424 12.1123 53.8486 8.73103C54.0244 7.26755 54.2039 5.98611 54.3707 5.03923C54.4357 4.67048 54.4482 4.30369 54.4187 3.94509C54.2791 2.24763 53.1309 0.747435 51.4361 0.226732C51.4 0.214623 51.3619 0.204662 51.3256 0.192552C51.2486 0.168724 51.1715 0.147631 51.0945 0.128295C51.0779 0.124193 51.0615 0.120873 51.0449 0.116966C50.9848 0.102513 50.9246 0.0892321 50.8646 0.0775133C50.8432 0.0734118 50.8217 0.0698961 50.8002 0.0661852C50.7445 0.0562243 50.6889 0.0472399 50.6334 0.0396227C50.6111 0.0364977 50.5889 0.0339586 50.5666 0.0312243C50.5111 0.0245836 50.4557 0.0189196 50.4002 0.0144274C50.3791 0.0126696 50.3582 0.0111071 50.3371 0.00973989C50.2789 0.00583364 50.2209 0.00348989 50.1629 0.0021227C50.1453 0.00173208 50.1279 0.000950827 50.1104 0.000755514C50.0451 -2.57359e-05 49.9799 0.000950827 49.915 0.00309926C49.9051 0.00348989 49.8951 0.00348989 49.8853 0.00388051C49.7318 0.0103258 49.5799 0.0249743 49.4299 0.0478258C49.4221 0.0489977 49.4145 0.0505602 49.4068 0.0517321C49.3434 0.061693 49.2803 0.0730211 49.2176 0.0859118C49.1926 0.0909899 49.1678 0.0970446 49.143 0.102709C49.0986 0.11267 49.0545 0.122826 49.0105 0.134349C48.9775 0.142748 48.9449 0.152123 48.9123 0.161302C48.8785 0.170873 48.8449 0.180834 48.8115 0.191185C48.7715 0.203685 48.7316 0.216771 48.692 0.230248C48.6695 0.23806 48.6473 0.246068 48.625 0.254076C48.576 0.271849 48.5273 0.290209 48.4791 0.30974C48.4727 0.312279 48.4664 0.315013 48.46 0.317748C47.0725 0.886888 46.0082 2.17576 45.8279 3.81287C45.3137 8.48123 45.6395 15.4709 46.0561 19.9748C37.432 20.3793 28.89 23.2502 21.9551 28.4502C22.2082 28.922 22.6539 29.2957 23.2184 29.4383C26.002 30.1492 29.3197 30.1594 31.758 29.1771C30.1834 32.6275 28.8197 36.7728 29.1432 40.5888C29.2455 41.7959 30.4045 42.6133 31.5793 42.322C35.9797 41.2334 38.7834 37.2088 40.358 33.8527C41.1875 37.0883 44.0936 41.3621 46.2646 44.2381C47.532 45.915 50.0584 45.915 51.3238 44.2381C53.4949 41.3621 56.4029 37.0883 57.2305 33.8527C58.807 37.2088 61.6088 41.2336 66.0092 42.322C67.1842 42.6133 68.343 41.7959 68.4453 40.5888C68.7687 36.7728 67.407 32.6277 65.8305 29.1771C68.2686 30.1592 71.5865 30.1492 74.3701 29.4383C75.4824 29.1549 76.1371 27.9859 75.7535 26.9054Z" fill="#00C27A"/>
<path d="M74.3698 29.4384C73.6026 29.6353 72.7912 29.7779 71.9717 29.8601C71.9649 29.6468 71.9205 29.431 71.8385 29.2211C71.8381 29.2205 71.8375 29.2199 71.8371 29.2193C65.6791 25.2429 59.3653 24.4515 52.0672 23.9254C50.8467 23.8373 49.9234 22.7906 50.0049 21.5697C50.2037 18.5902 50.3133 8.36832 50.4799 7.42047C50.5461 7.05289 50.5582 6.68551 50.5281 6.32789C50.3516 4.16363 48.4592 2.38355 46.2723 2.38336C46.2623 2.38336 46.2522 2.38336 46.2422 2.38121C46.2395 2.38062 46.7447 1.59449 46.8045 1.52359C47.7553 0.397031 49.1047 -0.0982814 50.5662 0.0314061C51.8971 0.14957 53.158 0.97125 53.8373 2.11871C54.357 2.99684 54.5473 4.03121 54.3701 5.03824C54.2035 5.98629 54.0246 7.26754 53.8479 8.72965C53.4422 12.1119 53.0545 16.466 52.8858 19.9365C60.9274 20.1254 68.9528 22.463 75.7272 26.8373C75.7274 26.8377 75.7278 26.8379 75.728 26.8382C76.1641 27.9375 75.5055 29.1494 74.3698 29.4384Z" fill="#08B865"/>
</g>
<defs>
<clipPath id="clip0">
<rect width="100" height="100" fill="white"/>
</clipPath>
</defs>
</svg>
