<svg width="100" height="100" viewBox="0 0 100 100" fill="none" xmlns="http://www.w3.org/2000/svg">
<path d="M69.002 33.3011C66.8081 28.5417 65.6743 23.9763 65.3245 18.8184C65.2993 18.4454 65.9751 17.3149 65.962 16.9424C65.7657 11.4204 66.912 5.98147 69.9296 1.21172C70.2727 0.668948 69.8266 0 69.1235 0H49.9998H30.8761C30.173 0 29.7269 0.668948 30.0702 1.21192C32.0868 4.39943 33.2675 7.88577 33.7706 11.4961C33.8122 11.795 34.4011 12.9323 34.4337 13.2327C35.1822 20.1653 33.3388 27.5226 30.3359 34.0369C24.2505 47.2381 20.618 63.8489 35.9046 74.4893C39.4132 76.9315 43.0166 78.0007 47.4625 78.4821C49.2369 78.6741 50.9865 78.5415 52.7607 78.3493C57.2067 77.8681 61.1856 76.4063 64.6942 73.964C79.9806 63.3233 75.0872 46.5023 69.002 33.3011Z" fill="#C8EFFE"/>
<path d="M64.9626 74.7831C61.455 77.2252 57.1194 78.6061 52.6731 79.0885C51.1053 79.2575 49.5213 79.2774 47.9495 79.1467C48.1565 79.1307 48.3635 79.1106 48.5706 79.0885C53.0169 78.6061 57.3524 77.2252 60.862 74.7831C76.1486 64.1418 72.0339 46.3749 65.9474 33.1747C61.2419 22.9657 59.7925 10.7504 65.8267 1.2107C66.1704 0.667922 65.7241 0.000732422 65.0206 0.000732422H69.1232C69.8267 0.000732422 70.273 0.668118 69.9292 1.2107C63.895 10.7504 65.3442 22.9657 70.0497 33.1747C76.1345 46.3749 80.249 64.1418 64.9626 74.7831Z" fill="#99E6FC"/>
<path d="M62.7259 95.9507C62.5708 95.9212 62.4183 95.8903 62.2681 95.8583C56.9503 94.7243 53.1944 89.9538 53.1944 84.5165V76.7421H46.8056V84.5165C46.8056 89.9538 43.0497 94.7241 37.7319 95.8583C37.5817 95.8903 37.4292 95.9212 37.2741 95.9507C37.2741 95.9507 33.2249 96.5292 32.4536 99.9999H50.0001H67.5466C66.7751 96.529 62.7259 95.9507 62.7259 95.9507Z" fill="#C8EFFE"/>
<path d="M67.5457 99.9993H64.1809C63.7961 98.4547 62.3742 98.2067 60.2371 97.7219C59.9369 97.6538 59.6381 97.6356 59.3527 97.5752C57.4311 97.1793 55.9357 96.3209 54.3719 94.9079C51.4875 92.3028 49.8291 88.3411 49.8291 84.5159C49.8291 84.5079 49.8291 76.7415 49.8291 76.7415H53.1939V84.5159C53.1939 89.9532 56.9508 94.7249 62.2674 95.8586C62.4182 95.8909 62.5709 95.9209 62.7256 95.951C62.7256 95.951 66.7758 96.5297 67.5457 99.9993Z" fill="#99E6FC"/>
<path d="M64.9636 74.7829C61.454 77.2251 57.1179 78.607 52.6739 79.0868C50.8995 79.2796 49.0999 79.2796 47.3257 79.0868C42.8817 78.6072 38.5457 77.2253 35.036 74.7829C19.7507 64.1415 23.8642 46.375 29.9494 33.1742C33.0826 26.3775 34.7721 18.6901 33.769 11.4963C36.1655 12.2905 38.5342 13.2042 40.8618 14.0924C48.4251 16.9823 56.7138 19.6979 64.4632 17.3565C64.9704 17.2028 65.4708 17.026 65.9599 16.8286C66.139 22.3882 67.6814 28.0347 70.0503 33.1742C76.1353 46.375 80.2486 64.1415 64.9636 74.7829Z" fill="#BBEC6C"/>
<path d="M64.9627 74.7831C62.6591 76.385 59.9998 77.5307 57.1898 78.2665C56.6531 78.4051 56.1124 78.5298 55.5677 78.6403C55.2943 78.6946 55.021 78.7467 54.7456 78.795C54.0603 78.9135 53.3687 79.01 52.6732 79.0864C52.4521 79.1106 52.229 79.1305 52.0079 79.1507C51.3405 79.203 50.6692 79.2311 49.9999 79.2311C49.829 79.2311 49.6603 79.2292 49.4894 79.2251C49.3446 79.2231 49.198 79.219 49.0532 79.213C48.9829 79.211 48.9126 79.2069 48.8421 79.203C48.7155 79.1989 48.5888 79.1909 48.4622 79.1829C48.3054 79.1749 48.1487 79.1628 47.9919 79.1507C47.9778 79.1487 47.9638 79.1466 47.9497 79.1466C48.1567 79.1305 48.3638 79.1104 48.5708 79.0884C53.0171 78.6059 57.3527 77.2251 60.8623 74.7829C76.1488 64.1416 72.0342 46.3747 65.9476 33.1745C63.7365 28.3784 62.2451 23.1403 61.9093 17.9463C62.7656 17.8057 63.6179 17.6106 64.4621 17.3553C64.9707 17.2026 65.4711 17.0256 65.9595 16.8287C65.9615 16.9151 65.9656 17.0016 65.9697 17.0883C65.9937 17.5877 66.0207 18.1 66.0642 18.6069C66.3902 22.3875 67.2959 26.1725 68.6209 29.7352C69.0541 30.8999 69.5287 32.0444 70.05 33.1743C76.1346 46.3749 80.2491 64.1418 64.9627 74.7831Z" fill="#A2E62E"/>
</svg>
