<svg width="100" height="100" viewBox="0 0 100 100" fill="none" xmlns="http://www.w3.org/2000/svg">
<g clip-path="url(#clip0)">
<path d="M30.5098 41.3734C31.2022 39.3814 32.0613 37.4471 33.0828 35.6019C36.6586 29.142 42.2729 23.7779 49.1227 20.9258C56.1455 18.0016 63.6041 18.3752 70.782 20.4934C77.6377 22.5164 83.476 27.1672 87.5449 32.9803C91.9358 39.2533 94.3168 46.8531 94.4613 54.4975C94.8027 72.5338 84.601 90.3676 69.9903 97.1328C66.9604 98.5357 63.1994 99.3156 59.9754 99.8463C58.9887 100.009 57.2613 100.013 55.9686 99.9879C54.8531 99.9658 53.7498 99.7394 52.6975 99.3166C51.4779 98.8266 49.8602 98.1355 48.985 97.5908C46.125 95.8115 42.8379 93.5852 40.4266 91.0656C28.7975 78.9156 24.6817 58.1435 30.5098 41.3734Z" fill="#FE9738"/>
<path d="M69.9902 97.1325C66.9598 98.5364 63.2002 99.3155 59.9748 99.8458C58.9887 100.009 57.2615 100.012 55.9682 99.9884C55.6648 99.9823 55.3617 99.9622 55.0625 99.9241C55.3096 99.904 55.5344 99.878 55.7312 99.8458C58.9566 99.3155 62.7162 98.5364 65.7467 97.1325C80.3572 90.3665 90.5594 72.5327 90.218 54.4982C90.0734 46.8525 87.6916 39.253 83.3014 32.9812C79.2326 27.1671 73.3943 22.5159 66.5379 20.4935C63.6721 19.648 60.7619 19.0796 57.852 18.8909C62.1598 18.5937 66.5199 19.2364 70.7815 20.4935C77.6379 22.5157 83.476 27.1671 87.5449 32.9812C91.9352 39.253 94.317 46.8527 94.4615 54.4982C94.8029 72.5327 84.6006 90.3665 69.9902 97.1325Z" fill="#FE860A"/>
<path d="M64.624 20.8514C66.2607 19.9805 67.7379 18.7877 68.9843 17.4236C70.9318 15.2928 72.2334 12.6404 72.5484 9.76894C72.5832 9.45136 72.4271 9.14238 72.1506 8.98241C69.6843 7.55546 66.8195 7.02675 63.9855 7.30976C61.6816 7.53984 59.2937 8.19999 57.365 9.53124C54.2935 11.6514 51.8011 14.8115 51.0111 18.5314C50.8918 19.0934 50.5396 20.5805 51.1982 20.9391C51.9078 21.3254 52.6539 21.6441 53.4234 21.8908C57.0314 23.0473 61.2646 22.6393 64.624 20.8514Z" fill="#00C27A"/>
<path d="M72.5494 9.76912C72.2342 12.641 70.9328 15.292 68.9846 17.4228C67.7375 18.7885 66.2614 19.9814 64.6246 20.851C61.2647 22.6383 57.0313 23.048 53.4242 21.8912C52.6551 21.6441 51.908 21.3248 51.199 20.9392C50.9199 20.7867 50.7572 20.4853 50.7832 20.1701C50.8033 19.9211 50.8235 19.6619 50.8315 19.6017C50.8356 19.5736 50.8375 19.5474 50.8436 19.5193C54.3721 20.5457 58.4471 20.1078 61.7004 18.3746C63.3371 17.5051 64.8133 16.3121 66.0604 14.9484C67.8819 12.9562 69.1391 10.506 69.5508 7.849C70.4526 8.12615 71.324 8.50369 72.1516 8.98162C72.4268 9.14236 72.5834 9.45173 72.5494 9.76912Z" fill="#08B865"/>
<path d="M46.3979 22.9802C45.876 19.4072 45.1754 9.73861 45.8281 3.81322C46.1219 1.14525 48.7623 -0.601626 51.326 0.193491C51.3627 0.204819 51.3994 0.216147 51.4362 0.227476C53.4889 0.858335 54.7432 2.92474 54.3707 5.03978C53.7133 8.77201 52.86 17.6886 52.7994 22.5443C52.7774 24.3111 51.3492 25.7359 49.5822 25.7359C47.983 25.7359 46.6289 24.5624 46.3979 22.9802Z" fill="#D77F4A"/>
<path d="M54.3701 5.03866C53.7135 8.77206 52.8598 17.6871 52.7996 22.5432C52.7775 24.3105 51.3496 25.7344 49.5822 25.7344C48.839 25.7344 48.1463 25.4812 47.598 25.0494C48.341 24.467 48.8211 23.5613 48.8332 22.543C48.8933 17.6869 49.747 8.77186 50.4037 5.03847C50.7371 3.15272 49.7752 1.30507 48.1082 0.481631C49.0582 -0.0164161 50.1988 -0.157041 51.3256 0.192373C51.3617 0.204482 51.3998 0.214443 51.4361 0.226553C53.4885 0.857412 54.7435 2.92401 54.3701 5.03866Z" fill="#C86D36"/>
<path d="M69.49 41.3734C68.7976 39.3814 67.9385 37.4471 66.917 35.6019C63.3412 29.142 57.7269 23.7779 50.8771 20.9258C43.8543 18.0016 36.3957 18.3752 29.2178 20.4934C22.3621 22.5164 16.5238 27.1672 12.4549 32.9803C8.06405 39.2533 5.683 46.8531 5.53847 54.4975C5.19706 72.5338 15.3988 90.3676 30.0096 97.1328C33.0394 98.5357 36.8004 99.3156 40.0244 99.8463C41.0111 100.009 42.7385 100.013 44.0312 99.9879C45.1467 99.9658 46.25 99.7394 47.3023 99.3166C48.5219 98.8266 50.1396 98.1355 51.0148 97.5908C53.8748 95.8115 57.1619 93.5852 59.5732 91.0656C71.2021 78.9156 75.3182 58.1435 69.49 41.3734Z" fill="#FE9738"/>
<path d="M59.5744 91.0662C57.1625 93.5855 53.875 95.8119 51.0154 97.5904C50.1398 98.1357 48.5215 98.8256 47.3017 99.3162C46.2502 99.7385 45.1459 99.965 44.0318 99.9886C42.7379 100.014 41.0121 100.008 40.025 99.8461C39.0927 99.6916 38.1174 99.5197 37.1263 99.3144C38.0254 99.3633 39.0808 99.3613 39.9408 99.3437C41.0568 99.3203 42.1592 99.0955 43.2127 98.6713C44.4324 98.1806 46.0486 97.4908 46.9244 96.9455C49.784 95.1668 53.0715 92.9406 55.4834 90.4213C67.1129 78.2719 71.2271 57.499 65.3988 40.7291C61.4271 29.2951 52.4734 21.215 42.2787 18.8226C54.1154 19.7863 64.9943 28.4332 69.4896 41.374C75.3181 58.1441 71.2017 78.9148 59.5744 91.0662Z" fill="#FE860A"/>
</g>
<defs>
<clipPath id="clip0">
<rect width="100" height="100" fill="white"/>
</clipPath>
</defs>
</svg>
