<svg width="100" height="100" viewBox="0 0 100 100" fill="none" xmlns="http://www.w3.org/2000/svg">
<g clip-path="url(#clip0)">
<path d="M58.3826 28.6853C58.2515 20.5508 57.2654 6.39978 57.2654 6.39978H42.7343C42.7343 6.39978 41.7484 20.5508 41.6172 28.6853C41.5847 30.6961 40.9861 32.6556 39.8937 34.3439L36.4804 39.6191C35.3543 41.3595 34.7552 43.3885 34.7552 45.4613V94.717C34.7552 97.6345 37.1205 99.9996 40.0379 99.9996H59.9617C62.8793 99.9996 65.2443 97.6345 65.2443 94.717V45.4615C65.2443 43.3885 64.6453 41.3597 63.5191 39.6193L60.1058 34.3441C59.0136 32.6556 58.415 30.6963 58.3826 28.6853Z" fill="#F3F0F3"/>
<path d="M65.2443 45.4606V94.718C65.2443 97.635 62.8801 99.9992 59.9611 99.9992H55.5465C58.4635 99.9992 60.8297 97.635 60.8297 94.718V45.4606C60.8297 43.3879 60.2307 41.3594 59.1027 39.6186L55.6912 34.3434C54.5977 32.6547 53.9984 30.6967 53.9664 28.6863C53.8357 20.5504 52.8506 7.52148 52.8506 7.52148H57.2652C57.2652 7.52148 58.2523 20.5506 58.383 28.6863C58.4152 30.6967 59.0143 32.6547 60.1059 34.3434L63.5193 39.6186C64.6453 41.3596 65.2443 43.3879 65.2443 45.4606Z" fill="#E2DEE2"/>
<path d="M64.8064 45.4244V85.5754L65.2451 86.3994V94.718C65.2451 97.635 62.8808 99.9992 59.9619 99.9992H40.0394C37.1205 99.9992 34.7562 97.635 34.7562 94.718V86.3994L35.1097 85.6512V45.6518C35.1097 45.2967 34.7738 44.7518 34.8086 44.4004C34.9769 42.7014 35.5482 41.0612 36.481 39.6186L39.8945 34.3434C40.9861 32.6547 41.5851 30.6967 41.6174 28.6864C41.6455 26.9092 41.7158 24.9008 41.8064 22.8444H58.1947C58.2851 24.901 58.3554 26.9092 58.3838 28.6864C58.416 30.6967 59.015 32.6547 60.1066 34.3434L63.5201 39.6186C64.1609 40.6098 64.7527 41.7012 65.0388 42.8338C65.1367 43.2207 65.2017 43.6121 65.2318 44.0041C65.2383 44.0869 65.2449 44.3385 65.2449 44.3951C65.2451 44.3951 64.8064 45.0694 64.8064 45.4244Z" fill="#FEE45A"/>
<path d="M65.2443 94.718C65.2443 97.635 62.8801 99.9992 59.9611 99.9992H55.5465C58.4635 99.9992 60.8297 97.635 60.8297 94.718V45.4606C60.8297 43.3879 60.2307 41.3594 59.1027 39.6186L55.6912 34.3434C54.5977 32.6547 53.9984 30.6967 53.9664 28.6864C53.9383 26.9092 53.868 24.9008 53.7773 22.8444H58.1941C58.2002 22.9871 58.2062 23.1299 58.2123 23.2727C58.2365 23.8596 58.2605 24.4426 58.2826 25.0137C58.2826 25.052 58.375 28.1317 58.3832 28.6865C58.4154 30.6969 59.0145 32.6549 60.1061 34.3436L63.5195 39.6188C64.4447 41.0496 65.2443 42.6553 65.2445 44.3955L65.0322 44.7612L65.0006 86.0225L65.2443 86.3996V94.718Z" fill="#FEDF30"/>
<path d="M56.4761 0H52.6958L52.0667 0.298242L47.9275 0.254297L47.3042 0H43.5238C42.9351 0 42.3986 0.337305 42.1464 0.869141C41.6347 1.94883 40.7998 3.86973 40.397 5.67832C40.1861 6.62578 40.9187 7.52207 41.8894 7.52207H58.1103C59.081 7.52207 59.8138 6.62578 59.6027 5.67832C59.1999 3.86973 58.365 1.94883 57.8533 0.869141C57.6011 0.337305 57.0646 0 56.4761 0V0Z" fill="#00C27A"/>
<path d="M58.1097 7.52151H54.089C55.0599 7.52151 55.7918 6.62483 55.5806 5.67795C55.1785 3.87073 54.3443 1.94885 53.8316 0.869165C53.5803 0.336353 53.0435 0.000610352 52.4545 0.000610352H56.4752C57.0642 0.000610352 57.601 0.336353 57.8543 0.869165C58.3648 1.94866 59.1992 3.87053 59.6033 5.67795C59.8144 6.62483 59.0806 7.52151 58.1097 7.52151Z" fill="#08B865"/>
<path d="M34.7562 44.3953H65.2455V86.3994H34.7562V44.3953Z" fill="#F3F0F3"/>
<path d="M65.2443 44.3951V86.3993H60.8297V45.4606C60.8297 45.1028 60.8115 44.7469 60.7754 44.3951H65.2443Z" fill="#E2DEE2"/>
<path d="M34.7562 59.3689H65.2455V71.4255H34.7562V59.3689Z" fill="#BBEC6C"/>
<path d="M60.8279 59.3689H65.2447V71.4255H60.8279V59.3689Z" fill="#A2E62E"/>
<path d="M50 14.5342C48.5112 14.5342 47.3043 13.3273 47.3043 11.8385V0H52.6957V11.8385C52.6957 13.3271 51.4889 14.5342 50 14.5342Z" fill="#FEE97D"/>
<path d="M52.6958 0.000732422V11.8376C52.6958 13.3273 51.4896 14.5335 49.9999 14.5335C49.5255 14.5335 49.0773 14.4109 48.6912 14.1937C49.5173 13.7353 50.0783 12.8507 50.0783 11.8376V0.000732422H52.6958Z" fill="#FEE45A"/>
<path d="M50.0001 78.631C45.7823 78.631 42.3313 75.1801 42.3313 70.9625V59.8322C42.3313 55.6144 45.7823 52.1635 50.0001 52.1635C54.2178 52.1635 57.6688 55.6144 57.6688 59.8322V70.9625C57.6688 75.1803 54.2178 78.631 50.0001 78.631Z" fill="#00C27A"/>
<path d="M57.6694 59.8326V70.9619C57.6694 75.1797 54.2177 78.6314 49.9999 78.6314C49.2821 78.6314 48.5866 78.5309 47.9272 78.3459C51.1478 77.4352 53.5241 74.4619 53.5241 70.9619V59.8326C53.5241 57.7238 52.6616 55.8059 51.2706 54.4168C50.3538 53.498 49.2079 52.8105 47.9274 52.4486C48.5868 52.2637 49.2823 52.1631 50.0001 52.1631C52.1089 52.1631 54.0269 53.0256 55.4159 54.4166C56.8069 55.8059 57.6694 57.7238 57.6694 59.8326Z" fill="#08B865"/>
</g>
<defs>
<clipPath id="clip0">
<rect width="100" height="100" fill="white"/>
</clipPath>
</defs>
</svg>
