<svg width="100" height="100" viewBox="0 0 100 100" fill="none" xmlns="http://www.w3.org/2000/svg">
<g clip-path="url(#clip0)">
<path d="M50 100C47.4006 100 45.2933 97.8928 45.2933 95.2933V75.7299H54.7064V95.2935C54.7066 97.8928 52.5994 100 50 100Z" fill="#F4D7C8"/>
<path d="M54.7075 75.7308V95.2939C54.7075 97.8926 52.5985 99.9996 49.9999 99.9996C49.2753 99.9996 48.5892 99.8357 47.9761 99.5441C49.5628 98.7871 50.6599 97.1681 50.6599 95.2939V75.7308H54.7075Z" fill="#ECBBA3"/>
<path d="M67.6228 76.4182H32.3771C30.2781 76.4182 28.5765 74.7166 28.5765 72.6176V50.9455L29.2793 50.0836V26.2648L28.5765 25.4729V21.4234C28.5765 9.5916 38.1681 0 50 0C61.8318 0 71.4234 9.5916 71.4234 21.4234V25.4729L70.826 26.3559V50.1746L71.4234 50.9457V72.618C71.4234 74.7166 69.7219 76.4182 67.6228 76.4182Z" fill="#E94444"/>
<path d="M71.4229 21.4238V72.6184C71.4229 74.7172 69.7208 76.4193 67.622 76.4193H63.5741C65.6729 76.4193 67.3751 74.7172 67.3751 72.6184V21.4238C67.3751 15.508 64.9767 10.1527 61.1011 6.275C57.6706 2.84648 53.0843 0.573633 47.9761 0.0980469C48.6419 0.0332031 49.3179 0.000976562 49.9999 0.000976562C55.9157 0.000976562 61.271 2.39941 65.1487 6.275C69.0245 10.1527 71.4229 15.5078 71.4229 21.4238Z" fill="#D83131"/>
<path d="M28.5765 25.4727H71.4232V50.9453H28.5765V25.4727Z" fill="#FEE45A"/>
<path d="M67.3751 25.4727H71.4234V50.9453H67.3751V25.4727Z" fill="#FEDF30"/>
</g>
<defs>
<clipPath id="clip0">
<rect width="100" height="100" fill="white"/>
</clipPath>
</defs>
</svg>
