<svg width="100" height="100" viewBox="0 0 100 100" fill="none" xmlns="http://www.w3.org/2000/svg">
<g clip-path="url(#clip0)">
<path d="M49.9998 0.408614C49.9998 0.408614 23.8731 0.241816 1.60919 20.2975C-0.158392 21.8899 -0.519525 24.525 0.773639 26.5219L6.00137 34.5944L7.47501 34.9393L47.8475 97.052C49.2295 99.186 51.0774 98.9649 52.4592 96.8309L92.401 34.9393L93.998 34.5946L99.226 26.5217C100.519 24.5248 100.158 21.8897 98.3904 20.2973C76.1266 0.241816 49.9998 0.408614 49.9998 0.408614Z" fill="#FE9738"/>
<path d="M99.2255 26.5219L52.9425 97.9902C51.5619 100.125 48.4376 100.125 47.0568 97.9902L46.571 97.2404C47.7441 97.2847 48.9353 96.7445 49.657 95.6219L96.1476 23.166C97.0205 21.8074 97.1414 20.1547 96.589 18.7275C97.1916 19.2355 97.7923 19.7596 98.391 20.2977C100.159 21.89 100.519 24.5244 99.2255 26.5219Z" fill="#FE860A"/>
<path d="M49.9998 15.1188C49.9998 15.1188 25.5555 14.9627 6.00159 34.5945L10.8477 42.0777L11.6155 42.2947L47.8475 97.8213C49.2295 99.9553 51.0774 98.9648 52.4592 96.8309L87.3108 42.8268L89.152 42.0777L93.9979 34.5947C75.7707 14.0649 49.9998 15.1188 49.9998 15.1188Z" fill="#FEE45A"/>
<path d="M93.999 34.5946L52.9425 97.9903C51.5619 100.125 48.4376 100.125 47.0568 97.9903L46.571 97.2405C47.7441 97.2848 48.9353 96.7446 49.657 95.6219L90.8886 31.3616C91.9451 32.3754 92.9832 33.4516 93.999 34.5946Z" fill="#FEDF30"/>
<path d="M49.9998 24.7468C49.9998 24.7468 28.2479 24.608 10.8477 42.0777L47.0566 97.9912C48.4387 100.125 51.5611 100.125 52.9432 97.9912L89.1522 42.0777C73.4055 23.5263 49.9998 24.7468 49.9998 24.7468Z" fill="#FDB97E"/>
<path d="M89.1513 42.0785L52.9425 97.9902C51.5619 100.125 48.4376 100.125 47.0568 97.9902L46.571 97.2404C47.7441 97.2848 48.9353 96.7445 49.657 95.6219L86.1056 38.8154C87.1459 39.8291 88.1638 40.9156 89.1513 42.0785Z" fill="#FEA95C"/>
<path d="M32.9819 62.0415C32.9819 65.3006 31.3592 68.1811 28.876 69.9165L18.4371 53.7973C19.8803 52.9307 21.5694 52.4329 23.3754 52.4329C28.6805 52.4329 32.9819 56.7342 32.9819 62.0415Z" fill="#E94444"/>
<path d="M32.982 62.0414C32.982 65.3006 31.3593 68.1811 28.8761 69.9164L26.0986 65.6252C27.1609 64.0793 27.7837 62.2067 27.7837 60.1891C27.7837 57.0104 26.2398 54.1926 23.8634 52.4449C28.9427 52.699 32.982 56.8975 32.982 62.0414Z" fill="#D83131"/>
<path d="M70.8052 70.4083L60.3945 86.485C57.379 84.8624 55.3312 81.6798 55.3312 78.0175C55.3312 72.7124 59.6325 68.411 64.9398 68.411C67.147 68.4108 69.1827 69.1567 70.8052 70.4083Z" fill="#E94444"/>
<path d="M70.805 70.4082L60.3942 86.485C59.1606 85.8197 58.0903 84.8967 57.2538 83.784L66.9772 68.6285C68.3944 68.9348 69.6964 69.5537 70.805 70.4082Z" fill="#D83131"/>
<path d="M55.3316 52.4337C60.6375 52.4337 64.9387 48.1325 64.9387 42.8266C64.9387 37.5208 60.6375 33.2196 55.3316 33.2196C50.0258 33.2196 45.7246 37.5208 45.7246 42.8266C45.7246 48.1325 50.0258 52.4337 55.3316 52.4337Z" fill="#E94444"/>
<path d="M64.9396 42.8264C64.9396 48.1315 60.6382 52.4329 55.331 52.4329C51.4046 52.4329 48.0285 50.0766 46.5388 46.7005C48.0949 47.787 49.9855 48.4218 52.0253 48.4218C57.3304 48.4218 61.6318 44.1204 61.6318 38.8153C61.6318 37.4366 61.3416 36.1245 60.8175 34.9393C63.3089 36.6747 64.9396 39.5612 64.9396 42.8264Z" fill="#D83131"/>
<path d="M72.332 56.1724C71.8486 56.1724 71.3755 55.9334 71.096 55.4959L69.6439 53.2223C69.2085 52.5404 69.4081 51.6348 70.09 51.1992C70.7718 50.7643 71.6777 50.9637 72.113 51.6453L73.5652 53.9189C74.0005 54.6008 73.8009 55.5064 73.1191 55.942C72.8749 56.0978 72.6019 56.1724 72.332 56.1724Z" fill="#E57917"/>
<path d="M75.4128 44.1209C75.1476 44.1209 74.8793 44.049 74.6376 43.8978C73.9517 43.4689 73.7433 42.5652 74.1722 41.8791L75.6025 39.5916C76.0314 38.9057 76.9351 38.6971 77.6211 39.1262C78.307 39.5551 78.5154 40.4588 78.0865 41.1449L76.6562 43.4324C76.3785 43.8769 75.9011 44.1209 75.4128 44.1209Z" fill="#E57917"/>
<path d="M27.7829 41.8334C27.4054 41.8334 27.0282 41.6885 26.7415 41.3989C26.1726 40.8237 26.1774 39.8963 26.7526 39.3274L28.6704 37.4299C29.2454 36.861 30.1728 36.8654 30.7419 37.4408C31.3108 38.016 31.306 38.9434 30.7308 39.5123L28.813 41.4098C28.5276 41.6922 28.1552 41.8334 27.7829 41.8334Z" fill="#E57917"/>
<path d="M39.9388 48.0578C39.3543 48.0578 38.8021 47.7054 38.5752 47.1285L37.5879 44.6179C37.2918 43.8652 37.6621 43.0148 38.415 42.7187C39.1677 42.422 40.0181 42.7929 40.3144 43.5459L41.3017 46.0564C41.5978 46.8092 41.2275 47.6595 40.4746 47.9556C40.2986 48.025 40.1172 48.0578 39.9388 48.0578Z" fill="#E57917"/>
<path d="M47.8465 63.5055C47.5301 63.5055 47.2117 63.4037 46.9434 63.1932L44.8205 61.5285C44.184 61.0293 44.0727 60.1084 44.5719 59.4721C45.0713 58.8352 45.992 58.724 46.6285 59.2235L48.7514 60.8881C49.3879 61.3873 49.4992 62.3082 49 62.9445C48.7111 63.3131 48.2809 63.5055 47.8465 63.5055Z" fill="#E57917"/>
<path d="M60.2002 62.8936C59.879 62.8936 59.5555 62.7885 59.2852 62.5719C58.654 62.0661 58.5522 61.1442 59.0581 60.513L60.745 58.4077C61.2508 57.7764 62.1727 57.6743 62.8042 58.1805C63.4354 58.6864 63.5372 59.6083 63.0313 60.2395L61.3444 62.3448C61.0549 62.7057 60.6295 62.8936 60.2002 62.8936Z" fill="#E57917"/>
<path d="M48.9078 84.2604C48.5914 84.2604 48.273 84.1586 48.0046 83.9481L45.8818 82.2833C45.2453 81.7838 45.1339 80.8631 45.6332 80.2266C46.1326 79.5901 47.0533 79.4788 47.6898 79.9782L49.8126 81.643C50.4492 82.1424 50.5605 83.0631 50.0613 83.6997C49.7724 84.068 49.3423 84.2604 48.9078 84.2604Z" fill="#E57917"/>
<path d="M40.7802 73.1127C40.4702 73.1127 40.1575 73.0148 39.8923 72.8121C39.2493 72.3211 39.1261 71.4017 39.6171 70.7588L41.2544 68.6146C41.7454 67.9719 42.6648 67.8482 43.3077 68.3394C43.9507 68.8304 44.0739 69.7498 43.5829 70.3927L41.9456 72.5369C41.6573 72.9142 41.2212 73.1127 40.7802 73.1127Z" fill="#E57917"/>
</g>
<defs>
<clipPath id="clip0">
<rect width="100" height="100" fill="white"/>
</clipPath>
</defs>
</svg>
