<svg width="100" height="100" viewBox="0 0 100 100" fill="none" xmlns="http://www.w3.org/2000/svg">
<path d="M66.313 55.7183C66.7921 54.6738 67.039 53.5506 67.039 52.4158V32.3375C67.039 26.257 63.3244 20.9806 57.8822 18.3465C56.4599 17.658 55.5449 16.2304 55.5449 14.6504V7.14783H44.4558V14.6504C44.4558 16.2304 43.5408 17.6582 42.1185 18.3465C36.6763 20.9806 32.9617 26.257 32.9617 32.3375V52.4158C32.9617 53.5506 33.2085 54.6738 33.6876 55.7183L34.0343 56.4744C35.0746 58.7427 35.0658 61.3326 33.8939 63.5453C33.2806 64.7033 32.9617 65.9759 32.9617 67.2656V87.4326V93.7162C32.9617 97.1865 35.9998 99.9996 39.7474 99.9996C41.3857 99.9996 42.8874 99.4613 44.0595 98.5658C44.5371 98.201 45.2107 98.201 45.6882 98.5658C46.8605 99.4613 48.3621 99.9996 50.0003 99.9996C51.6386 99.9996 53.1404 99.4611 54.3124 98.5658C54.79 98.201 55.4636 98.201 55.9412 98.5658C57.1134 99.4613 58.615 99.9996 60.2533 99.9996C64.0009 99.9996 67.0388 97.1863 67.0388 93.7162V67.3957C67.0388 66.0781 66.7515 64.7658 66.1261 63.5822C64.9632 61.3812 64.8896 58.8215 65.9238 56.5666L66.313 55.7183Z" fill="#F3F0F3"/>
<path d="M65.9234 56.5658C64.89 58.8215 64.9625 61.3807 66.1266 63.582C66.7518 64.766 67.0393 66.0789 67.0393 67.3957V93.7172C67.0393 95.4521 66.2793 97.0223 65.051 98.1601C63.8227 99.2959 62.126 99.9996 60.2523 99.9996C59.5508 99.9996 58.8752 99.9012 58.24 99.7162C59.3016 99.4105 60.2523 98.8699 61.0203 98.1601C62.2467 97.0223 63.0064 95.4521 63.0064 93.7172V67.3955C63.0064 66.0787 62.7189 64.766 62.0938 63.5818C60.9318 61.3805 60.8574 58.8213 61.8928 56.5656L62.2809 55.7172C62.7594 54.6738 63.0066 53.55 63.0066 52.4162V32.3371C63.0066 29.7498 62.2742 27.2238 60.7689 25.1086C59.2955 23.0379 57.227 21.4656 55.0143 20.2549C53.8967 19.6434 52.8918 18.9521 52.2 17.8686C51.5756 16.8904 51.5137 15.7848 51.5137 14.6502V8.37793H55.5443V14.6502C55.5443 16.2303 56.459 17.6576 57.8824 18.3473C63.3244 20.9809 67.0395 26.258 67.0395 32.3373V52.4166C67.0395 53.5504 66.7922 54.6742 66.3117 55.7176L65.9234 56.5658Z" fill="#E2DEE2"/>
<path d="M65.9233 56.5664C64.889 58.8213 64.9628 61.3808 66.1251 63.5814C66.7499 64.7652 67.0372 66.0789 67.0372 67.3965V93.7166C67.0372 95.4513 66.2784 97.0213 65.0501 98.1584C63.8237 99.2955 62.1276 100 60.2532 100C58.6134 100 57.1134 99.4605 55.9394 98.566C55.462 98.2011 54.7886 98.2011 54.3112 98.566C53.7253 99.0123 53.0577 99.3713 52.33 99.6177C51.6022 99.8662 50.8183 100 49.9993 100C48.3614 100 46.8595 99.4605 45.6874 98.566C45.2101 98.2011 44.5366 98.2011 44.0593 98.566C42.8853 99.4605 41.3853 100 39.7454 100C35.9983 100 32.9614 97.1863 32.9614 93.7166V67.2664C32.9614 65.9759 33.2796 64.7029 33.8929 63.5445C35.0649 61.3324 35.0728 58.7418 34.0325 56.4752L33.6872 55.7183C33.2079 54.6744 32.9614 53.5508 32.9614 52.4156V32.3371C32.9614 28.2775 34.6167 24.5769 37.3372 21.7806H62.661C65.3817 24.5769 67.037 28.2775 67.037 32.3371V52.4156C67.037 53.5508 66.7905 54.6744 66.3112 55.7183L65.9233 56.5664Z" fill="#685E68"/>
<path d="M65.9235 56.5658C64.8442 58.926 64.9202 61.301 66.1245 63.5818C66.7497 64.7658 67.0372 66.0787 67.0372 67.3955V93.717C67.0372 94.692 66.7979 95.6168 66.3698 96.439C66.0827 96.9892 65.7133 97.4955 65.2762 97.9387C65.1362 98.0806 64.9737 98.2326 64.8159 98.367C63.6118 99.3801 62.0114 99.9994 60.2524 99.9994C59.7251 99.9994 59.1924 99.9443 58.6784 99.8285C58.5356 99.7963 58.3969 99.7601 58.2583 99.7199C58.2522 99.7199 58.2461 99.7179 58.2401 99.7158C59.3016 99.4101 60.2524 98.8695 61.0204 98.1597C62.2467 97.0219 63.0065 95.4517 63.0065 93.7168V67.3955C63.0065 66.0787 62.719 64.766 62.0938 63.5818C60.9319 61.3804 60.8575 58.8213 61.8928 56.5656L62.2809 55.7172C62.7594 54.6738 63.0067 53.55 63.0067 52.4162V32.3371C63.0067 29.7498 62.2749 27.2228 60.7692 25.1078C59.8504 23.8152 58.6985 22.7176 57.426 21.7806H62.661C62.677 21.7967 62.6911 21.8129 62.7053 21.8289C63.6616 22.9226 64.5448 23.9814 65.2424 25.2785C65.7456 26.214 66.1846 27.2845 66.4749 28.3002C66.8499 29.6127 67.0377 30.9709 67.0377 32.3369V52.4162C67.0377 53.3369 66.8749 54.2515 66.5573 55.122C66.3768 55.6156 66.1419 56.0883 65.9235 56.5658Z" fill="#554E56"/>
<path d="M58.2646 7.30371C58.2646 7.89668 57.7455 8.37754 57.105 8.37754H49.9994H42.8937C42.2533 8.37754 41.7341 7.89687 41.7341 7.30371V1.07383C41.7341 0.480859 42.2533 0 42.8937 0H57.1048C57.7453 0 58.2644 0.480664 58.2644 1.07383V7.30371H58.2646Z" fill="#E94444"/>
<path d="M58.2639 1.07417V7.30425C58.2639 7.89722 57.7452 8.37769 57.1059 8.37769H53.0852C53.7245 8.37769 54.2432 7.89722 54.2432 7.30425V1.07417C54.2432 0.481201 53.7245 0.000732422 53.0852 0.000732422H57.1059C57.7452 0.000732422 58.2639 0.481201 58.2639 1.07417Z" fill="#D83131"/>
<path d="M32.9607 32.792H67.0382V52.6313H32.9607V32.792Z" fill="#E94444"/>
<path d="M63.0176 32.792H67.0383V52.6313H63.0176V32.792Z" fill="#D83131"/>
</svg>
