<svg width="100" height="100" viewBox="0 0 100 100" fill="none" xmlns="http://www.w3.org/2000/svg">
<path d="M89.9266 99.9992L81.9403 95.9748L73.9538 99.9992L65.9686 95.9748L57.9831 99.9992L49.9977 95.9748L42.0127 99.9992L34.0286 95.9748L26.0436 99.9992L18.0584 95.9748L10.0735 99.9992V89.5847H89.9266V99.9992Z" fill="#CBC4CC"/>
<path d="M89.9266 90.4941V100L85.6406 97.8408V90.4941H89.9266Z" fill="#B5ADB6"/>
<path d="M89.9266 0.000732422L81.9403 4.02515L73.9538 0.000732422L65.9686 4.02515L57.9831 0.000732422L49.9977 4.02515L42.0127 0.000732422L34.0286 4.02515L26.0436 0.000732422L18.0584 4.02515L10.0735 0.000732422V10.149H89.9266V0.000732422Z" fill="#CBC4CC"/>
<path d="M89.9266 0V9.50586H85.6406V2.15918L89.9266 0Z" fill="#B5ADB6"/>
<path d="M84.2616 23.3688C84.2616 21.8664 84.7813 20.4104 85.7327 19.2475L88.4553 15.9197C89.4067 14.757 89.9264 13.301 89.9264 11.7986V9.50586H10.0735V11.7986C10.0735 13.301 10.5932 14.757 11.5446 15.9199L14.2672 19.2477C15.2186 20.4104 15.7383 21.8664 15.7383 23.3688V34.8744L16.0747 35.5818V50L16.0596 64.3088L15.7383 65.0078V76.6314C15.7383 78.1338 15.2186 79.5899 14.2672 80.7525L11.5446 84.0803C10.5932 85.243 10.0735 86.699 10.0735 88.2014V90.4941H89.9266V88.2014C89.9266 86.699 89.4069 85.243 88.4555 84.0801L85.7329 80.7523C84.7815 79.5896 84.2618 78.1336 84.2618 76.6312V65.0078L83.9047 64.0895L83.9155 50V35.5205L84.2616 34.8744V23.3688Z" fill="#E94444"/>
<path d="M84.2623 76.6313C84.2623 78.1344 84.7814 79.5893 85.7332 80.7524L88.4556 84.0805C89.4074 85.2436 89.9265 86.6985 89.9265 88.2016V90.4936H85.6445V88.2016C85.6445 86.6985 85.1234 85.2436 84.1716 84.0805L81.4492 80.7524C80.4994 79.5893 79.9783 78.1344 79.9783 76.6313V23.3694C79.9783 21.8663 80.4994 20.4094 81.4492 19.2483L84.1716 15.92C85.1234 14.7569 85.6445 13.3 85.6445 11.7989V9.50513H89.9265V11.7991C89.9265 13.3002 89.4074 14.7571 88.4556 15.9202L85.7332 19.2485C84.7814 20.4096 84.2623 21.8665 84.2623 23.3696V76.6313Z" fill="#D83131"/>
<path d="M15.7385 34.8741H84.2618V65.0077H15.7385V34.8741Z" fill="#F3F0F3"/>
<path d="M79.9783 34.8741H84.2617V65.0077H79.9783V34.8741Z" fill="#E2DEE2"/>
<path d="M50.8808 44.685C50.8773 44.6758 50.8738 44.6662 50.8699 44.6571C50.6785 44.1924 50.2302 43.8922 49.7277 43.8922C49.7271 43.8922 49.7265 43.8922 49.7261 43.8922C49.2228 43.8928 48.7746 44.1942 48.5841 44.66C48.581 44.6674 48.5781 44.675 48.5751 44.6828L44.7769 54.6555C44.5791 55.1746 44.8396 55.7559 45.3589 55.9537C45.8781 56.1508 46.4595 55.8909 46.6572 55.3715L47.3564 53.5358H52.0701L52.7619 55.3688C52.914 55.7717 53.2968 56.02 53.7033 56.0198C53.8212 56.0198 53.9413 55.9989 54.0583 55.9547C54.5781 55.7586 54.8406 55.1782 54.6443 54.6582L50.8808 44.685ZM48.123 51.5235L49.7242 47.3194L51.3107 51.5235H48.123Z" fill="#CBC4CC"/>
<path d="M41.3262 43.8623C40.7705 43.8678 40.3244 44.3225 40.3297 44.8783L40.3979 51.9157L35.1494 44.3158C34.8992 43.9535 34.4426 43.7959 34.0221 43.927C33.6018 44.058 33.3154 44.4471 33.3154 44.8875V55.0137C33.3154 55.5694 33.766 56.0198 34.3215 56.0198C34.877 56.0198 35.3275 55.5694 35.3275 55.0137V48.1151L40.3404 55.3741C40.6465 55.8162 41.1529 56.0057 41.6305 55.8561C42.1201 55.7032 42.4365 55.2383 42.4365 54.6619L42.3418 44.8586C42.3365 44.303 41.89 43.8582 41.3262 43.8623Z" fill="#CBC4CC"/>
<path d="M77.0464 54.2894L72.3388 49.7474L76.6696 45.7667C77.0788 45.3906 77.1056 44.7541 76.7296 44.3451C76.3532 43.9357 75.7169 43.9091 75.3079 44.2851L71.5536 47.7359V44.8984C71.5536 44.3427 71.1032 43.8923 70.5476 43.8923C69.9919 43.8923 69.5415 44.3427 69.5415 44.8984V55.0134C69.5415 55.5691 69.9919 56.0195 70.5476 56.0195C71.1032 56.0195 71.5536 55.5691 71.5536 55.0134V51.7861L75.6493 55.7376C75.8446 55.9259 76.0964 56.0197 76.3477 56.0197C76.6114 56.0197 76.8745 55.9167 77.0722 55.7121C77.4577 55.3123 77.4462 54.6753 77.0464 54.2894Z" fill="#CBC4CC"/>
<path d="M64.6983 52.9391C64.6022 53.0537 64.4981 53.1609 64.3893 53.258C63.8309 53.7555 63.122 54.0074 62.2827 54.0074C60.0487 54.0074 58.2313 52.1899 58.2313 49.9561C58.2313 47.7223 60.0489 45.9047 62.2827 45.9047C63.0946 45.9047 63.8778 46.1436 64.5472 46.5959C65.0071 46.9072 65.6331 46.7859 65.944 46.3256C66.2552 45.8652 66.1341 45.2398 65.6737 44.9287C64.6706 44.2508 63.4981 43.8926 62.2829 43.8926C58.9394 43.8926 56.2192 46.6127 56.2192 49.9563C56.2192 53.2998 58.9394 56.0199 62.2829 56.0199C63.6116 56.0199 64.803 55.5844 65.728 54.7606C65.9093 54.599 66.0813 54.4213 66.2397 54.2328C66.597 53.8072 66.5413 53.1727 66.1157 52.8154C65.6901 52.4578 65.0556 52.5133 64.6983 52.9391Z" fill="#CBC4CC"/>
<path d="M28.4036 49.0916C27.1192 48.618 25.9266 48.1012 25.6065 47.9606C25.3212 47.7465 25.1831 47.408 25.2356 47.0418C25.3038 46.5678 25.6722 46.186 26.2214 46.0205C27.7899 45.5485 29.2175 46.691 29.2434 46.7119C29.6688 47.0659 30.3003 47.0096 30.6569 46.5856C31.0145 46.1604 30.9595 45.5256 30.5341 45.1682C30.4429 45.0916 28.2723 43.3004 25.6411 44.0942C24.3421 44.4854 23.4235 45.5053 23.244 46.7559C22.8581 49.443 25.7577 50.2608 27.7075 50.9799C28.7737 51.3731 29.3173 51.9801 29.1985 52.6448C29.0788 53.3149 28.2901 54.0077 27.1774 54.0077C26.1003 54.0077 25.0614 53.5705 24.3981 52.8387C24.0251 52.427 23.3889 52.3955 22.977 52.7688C22.5653 53.1418 22.5339 53.778 22.9071 54.1899C23.9454 55.3358 25.5419 56.02 27.1776 56.02C29.1516 56.02 30.8721 54.7211 31.1798 52.9985C31.4128 51.6909 30.8061 49.978 28.4036 49.0916Z" fill="#CBC4CC"/>
</svg>
