<svg width="100" height="100" viewBox="0 0 100 100" fill="none" xmlns="http://www.w3.org/2000/svg">
<path d="M85.8969 3.26113C86.9072 1.91914 85.9498 0 84.2701 0H50H15.7297C14.05 0 13.0926 1.91914 14.1029 3.26113L43.7227 42.5996C45.2857 44.6756 46.1311 47.2037 46.1311 49.8023V81.2477C46.1311 87.833 41.5822 93.6105 35.1418 94.984C34.96 95.0229 34.775 95.0602 34.5873 95.0959C34.5873 95.0959 29.6832 95.7965 28.749 100H50H71.251C70.3168 95.7965 65.4127 95.0959 65.4127 95.0959C65.2459 95.0641 65.0812 95.0312 64.9191 94.9971C58.4525 93.6344 53.8688 87.8564 53.8688 81.2479V49.8025C53.8688 47.2039 54.7141 44.6758 56.2771 42.5998L85.8969 3.26113Z" fill="#DFF6FD"/>
<path d="M85.8969 3.26113C86.9072 1.91914 85.9498 0 84.2701 0H50H15.7297C14.05 0 13.0926 1.91914 14.1029 3.26113L17.5996 7.90527L18.7242 8.86914L44.3699 42.9299C45.1309 43.9404 45.7217 45.0582 46.1277 46.2391C46.1277 46.2391 45.6928 46.5977 45.7236 46.7053C46.0092 47.7045 46.1311 48.75 46.1311 49.8023V81.2477C46.1311 87.833 41.5822 93.6105 35.1418 94.984C34.96 95.0229 34.775 95.0602 34.5873 95.0959C34.5873 95.0959 29.6832 95.7965 28.749 100H50H71.251C70.3168 95.7965 65.4127 95.0959 65.4127 95.0959C65.2459 95.0641 65.0812 95.0312 64.9191 94.9971C58.4525 93.6344 53.8688 87.8564 53.8688 81.2479V49.8025C53.8688 48.75 54.0074 47.7092 54.2762 46.7053C54.2859 46.6691 54.135 46.524 54.1449 46.4881C54.5436 45.0531 55.2195 43.643 56.1268 42.4381L60.1424 37.1816L80.4445 10.2787L80.7947 10.0373L81.3 9.36621L85.8969 3.26113Z" fill="#C8EFFE"/>
<path d="M53.8687 49.8019V81.247C53.8687 87.856 58.4517 93.6339 64.9196 94.996C65.0806 95.0302 65.2456 95.0644 65.4126 95.0966C65.4126 95.0966 70.3175 95.7968 71.2511 99.9996H66.2396C65.7708 97.889 64.0718 97.4384 62.0261 97.024C58.0024 96.2087 54.8554 94.2716 52.4044 90.7777C50.4675 88.0168 49.4507 84.6123 49.4507 81.2472C49.4507 81.231 49.4507 49.8021 49.4507 49.8021C49.4507 47.2027 50.2956 44.6759 51.8589 42.5998L80.8856 3.26187C81.8956 1.92007 80.9399 0.000732422 79.2601 0.000732422H84.2696C85.9495 0.000732422 86.9071 1.92007 85.8972 3.26187L56.2769 42.5996C54.7136 44.6757 53.8687 47.2027 53.8687 49.8019Z" fill="#99E6FC"/>
<path d="M81.2993 9.36606L56.277 42.5989C55.3472 43.8336 54.6698 45.2305 54.2765 46.7051H45.7233L45.6327 46.3875C45.231 45.0307 44.5851 43.7454 43.7226 42.5989L17.6001 7.90415C26.0903 7.39516 34.7528 9.45668 43.0263 11.3666C53.5001 13.7836 64.9395 15.9272 75.1714 12.4016C77.3761 11.6422 79.4333 10.6092 81.2993 9.36606Z" fill="#BBEC6C"/>
<path d="M81.3002 9.36609C81.3002 9.36609 56.2804 42.595 56.2767 42.5999C55.4634 43.68 54.6107 45.3714 54.2771 46.7059H49.8591C50.2535 45.2313 50.9294 43.835 51.8589 42.5997L73.8242 12.8325C74.2769 12.6997 74.7255 12.5569 75.1722 12.402C77.3771 11.6415 79.4332 10.6093 81.3002 9.36609Z" fill="#A2E62E"/>
<path d="M50 35.3295C54.3886 35.3295 57.9463 31.7718 57.9463 27.3832C57.9463 22.9946 54.3886 19.4369 50 19.4369C45.6114 19.4369 42.0537 22.9946 42.0537 27.3832C42.0537 31.7718 45.6114 35.3295 50 35.3295Z" fill="#00C27A"/>
<path d="M57.9466 27.3839C57.9466 31.7718 54.3876 35.3287 49.9997 35.3287C47.6438 35.3287 45.5274 34.3046 44.0728 32.675C44.8011 32.8962 45.5757 33.015 46.3763 33.015C50.7661 33.015 54.3232 29.456 54.3232 25.0681C54.3232 23.0361 53.5606 21.1832 52.3073 19.7791C55.5706 20.7669 57.9466 23.7968 57.9466 27.3839Z" fill="#08B865"/>
<path d="M50.1573 32.098C49.4235 32.098 48.7797 31.5617 48.6672 30.8137C48.543 29.9896 49.1102 29.2211 49.9344 29.0969C50.6516 28.9889 51.3026 28.3146 51.3858 27.5943C51.4811 26.7664 52.2301 26.1717 53.0575 26.2684C53.8854 26.3639 54.4791 27.1123 54.3834 27.94C54.1428 30.0266 52.4608 31.7678 50.3838 32.0809C50.3078 32.0926 50.2321 32.098 50.1573 32.098Z" fill="#059B50"/>
</svg>
