<svg width="100" height="100" viewBox="0 0 100 100" fill="none" xmlns="http://www.w3.org/2000/svg">
<g clip-path="url(#clip0)">
<path d="M0.183976 87.5173C1.62148 83.4513 5.18085 76.5155 13.1275 74.4179C7.53124 68.3985 8.2287 60.6341 9.18632 56.429C9.58612 54.6731 11.3596 53.586 13.1035 54.0346C21.3379 56.1526 25.5283 60.596 27.5531 65.3163C29.5779 70.0366 31.893 75.1532 37.8039 78.2862L36.9283 81.3098L36.0527 84.3335C29.3859 83.8235 20.4678 89.8124 20.4578 89.819C16.224 92.7272 10.3076 94.244 2.21562 91.6343C0.501749 91.0815 -0.416219 89.2151 0.183976 87.5173Z" fill="#FE9738"/>
<path d="M37.2096 80.3394L36.9286 81.3089L36.0534 84.3339C29.3872 83.8242 20.4686 89.8119 20.4587 89.8179C16.2253 92.7265 10.3077 94.2441 2.21629 91.6345C0.502028 91.0806 -0.415159 89.2158 0.185036 87.5175C0.269411 87.2767 0.361599 87.0257 0.463943 86.7668C9.32625 89.4966 15.7214 88.1539 20.262 85.3937C20.2719 85.3878 29.8186 79.7253 37.2096 80.3394Z" fill="#FE860A"/>
<path d="M48.8421 96.7729C51.2563 96.9707 53.6954 96.9826 56.1353 96.808C56.369 96.7912 56.4942 96.4873 56.728 96.4672C59.0866 96.2639 61.5021 95.8545 63.8353 95.302C69.1003 94.0553 73.6442 92.1939 78.1024 89.3666C78.1948 89.308 78.7665 89.3314 78.8585 89.2723C81.1007 87.8279 83.2103 86.1977 85.1579 84.3963C97.2099 73.2502 102.375 57.0981 98.9739 41.1895C97.328 33.4895 93.7317 26.283 88.5745 20.3494C83.1493 14.1076 76.0724 9.38927 68.1091 6.7047C61.4132 4.44669 54.1552 8.04532 51.8979 14.741C49.7489 21.1152 52.9063 27.9986 58.9911 30.5928C59.0577 30.6211 59.3257 30.5879 59.3931 30.6152C59.636 30.7141 59.8099 30.7285 60.0618 30.8135C64.5312 32.3203 68.1872 35.0738 70.7368 38.7393C70.7788 38.7996 70.7491 39.057 70.7903 39.1176C72.289 41.3219 73.3714 43.8275 73.9509 46.5387C74.0835 47.1586 74.1872 47.7775 74.2626 48.3941C74.2681 48.4381 74.4056 48.6189 74.4106 48.6631C74.9329 53.1738 73.8849 57.4283 71.5214 61.2197C71.4925 61.266 71.3833 61.3051 71.354 61.3512C70.3843 62.8793 69.1907 64.3096 67.7839 65.6107C65.9769 67.2818 63.8368 68.6158 61.5239 69.5746C61.4061 69.6234 61.362 69.9848 61.2433 70.0316C57.4495 71.5303 53.3091 72.0078 49.3362 71.3426C49.2159 71.3225 48.9325 71.009 48.8128 70.9867C48.1821 70.8693 47.5585 70.7225 46.9448 70.5449C40.1573 68.583 33.0632 72.4951 31.1013 79.2832C29.139 86.0713 33.0515 93.1648 39.8395 95.1268C42.7671 95.9732 45.7845 96.5223 48.8421 96.7729Z" fill="#FDB97E"/>
<path d="M85.1579 84.3963C79.2766 89.8362 71.9198 93.7163 63.8846 95.6192C58.9065 96.7975 53.8221 97.1809 48.842 96.7733C45.785 96.5223 42.768 95.9723 39.8393 95.1272C39.1668 94.9325 38.5247 94.6897 37.9124 94.3985C40.1686 94.9424 42.4729 95.3098 44.8014 95.5005C49.6913 95.9018 54.6833 95.5245 59.5731 94.3682C67.4618 92.4995 74.686 88.6895 80.461 83.3481C92.296 72.4024 97.3665 56.5407 94.0284 40.9198C92.4126 33.3583 88.8796 26.2825 83.8153 20.4553C78.4879 14.327 71.5387 9.69225 63.7202 7.0567C62.7547 6.72955 61.777 6.52877 60.8036 6.44244C63.1321 5.83619 65.6592 5.87838 68.11 6.70338C76.0729 9.38912 83.1487 14.1083 88.5745 20.3489C93.7311 26.2825 97.3284 33.4887 98.9743 41.1887C99.3149 42.7823 99.5696 44.3782 99.7399 45.9711C99.746 46.027 99.6688 46.2102 99.6747 46.2661C100.499 54.244 99.2471 61.9157 96.0596 69.079C96.0434 69.1153 96.0739 69.2542 96.0577 69.2903C93.5508 74.8848 89.8838 80.0253 85.1579 84.3963Z" fill="#FEA95C"/>
<path d="M58.9915 30.5934C59.2973 30.7254 59.6127 30.8453 59.9333 30.953C64.4762 32.4828 68.2368 35.3629 70.7895 39.1172C77.61 36.0926 86.3506 31.4905 92.545 25.6395C91.351 23.7871 90.0241 22.0182 88.5733 20.3502C84.9116 16.1348 80.4954 12.6149 75.562 9.94885C71.8663 17.4489 66.3418 26.0631 58.9915 30.5934Z" fill="#FE9738"/>
<path d="M71.3525 61.3502C77.8057 64.3996 87.2109 68.1852 96.0488 69.3119C99.3002 62.0645 100.605 54.0562 99.7379 45.9727C92.2164 48.2037 82.5594 50.0479 74.2631 48.3943C74.8264 53.0063 73.802 57.4902 71.3525 61.3502Z" fill="#FE9738"/>
<path d="M92.5448 25.6387C91.5391 26.5881 90.4672 27.5055 89.3471 28.3867C87.7915 25.5606 85.9387 22.8988 83.8151 20.4559C81.0692 17.2985 77.8936 14.5363 74.3909 12.242C74.8004 11.4711 75.1918 10.7045 75.5631 9.94963C75.6227 9.82834 80.2202 12.8233 80.6356 13.1231C82.4811 14.4553 84.2379 15.885 85.8526 17.4809C86.7993 18.4166 87.7088 19.35 88.5745 20.3492C89.1956 21.0662 89.7956 21.8014 90.3727 22.5543C91.0071 23.3821 91.5848 24.1944 92.1596 25.0524C92.2897 25.2473 92.4182 25.442 92.5448 25.6387Z" fill="#FE860A"/>
<path d="M99.9638 52.6489C99.9017 54.1927 99.7622 55.7442 99.5403 57.2757C99.1143 60.2153 98.4331 62.962 97.4667 65.7546C97.1509 66.6669 96.8112 67.5161 96.445 68.4001C96.3186 68.7052 96.186 69.0083 96.0476 69.3114C94.4417 69.1067 92.8159 68.8135 91.1919 68.4522C94.1386 61.8481 95.4413 54.6038 94.9235 47.2571C96.5976 46.8616 98.2114 46.426 99.739 45.9725C99.8013 46.5485 99.8515 47.1247 99.8895 47.6989C99.9989 49.3454 100.03 50.993 99.9638 52.6489Z" fill="#FE860A"/>
<path d="M48.8123 70.9851C49.7509 76.9435 51.8976 87.7123 56.1351 96.806C58.7283 96.6228 61.3197 96.2253 63.8855 95.6185C69.2595 94.3453 74.3314 92.1894 78.8582 89.272C72.4527 84.4144 65.0203 77.4957 61.5234 69.573C57.5255 71.233 53.0121 71.7681 48.8123 70.9851Z" fill="#FE9738"/>
<path d="M78.859 89.272C78.562 89.4627 78.2608 89.6513 77.9596 89.8361C76.4725 90.7478 74.971 91.5531 73.3952 92.299C71.7071 93.0982 70.0182 93.7832 68.2383 94.3705C66.7883 94.849 65.3792 95.2674 63.8866 95.6191C62.7126 95.8957 61.5426 96.1205 60.3596 96.3177C59.9209 96.3908 59.4903 96.45 59.051 96.5103C58.1752 96.6308 57.2991 96.7273 56.4114 96.7853C56.319 96.7914 56.2268 96.7994 56.1344 96.8054C55.8815 96.2635 55.6366 95.7154 55.3977 95.1634C56.7948 94.9607 58.1877 94.6957 59.5729 94.3685C65.5305 92.9574 71.1088 90.4383 75.9706 86.9877C76.946 87.7926 77.9135 88.5554 78.859 89.272Z" fill="#FE860A"/>
<path d="M98.8892 31.7182C98.389 26.0695 94.639 19.067 91.1888 14.6439C86.2227 8.27714 78.7151 3.77578 70.6681 3.1082C67.6349 2.85664 64.0333 3.80429 62.2741 6.48144C60.3848 9.35664 61.7321 12.5656 62.4196 15.5822C62.9604 17.9555 63.1233 20.075 63.1233 22.5146C63.1233 25.1295 65.2431 27.2494 67.8597 27.2494C70.2015 27.2486 71.4823 24.9223 73.4772 24.1299C75.9958 23.1293 78.1788 25.0295 79.8128 26.842C82.7755 30.1285 84.2591 34.7586 87.7601 37.565C92.5108 41.374 99.4185 37.6941 98.8892 31.7182Z" fill="#F3F0F3"/>
<path d="M90.8605 39.0053C93.1669 37.8331 94.8128 35.3922 94.5439 32.3612C94.0441 26.7126 90.2945 19.7092 86.8439 15.2872C81.8779 8.91998 74.3705 4.41763 66.3234 3.75123C66.1869 3.73912 66.0503 3.73111 65.9138 3.7272C67.4333 3.16314 69.1236 2.98052 70.6671 3.10904C78.7144 3.77544 86.2238 8.27779 91.1898 14.645C94.6382 19.067 98.39 26.0706 98.8898 31.719C99.3091 36.4721 95.0236 39.7741 90.8605 39.0053Z" fill="#E2DEE2"/>
</g>
<defs>
<clipPath id="clip0">
<rect width="100" height="100" fill="white"/>
</clipPath>
</defs>
</svg>
