<svg width="100" height="100" viewBox="0 0 100 100" fill="none" xmlns="http://www.w3.org/2000/svg">
<path d="M23.7852 15.0172L29.4408 98.6852C29.4908 99.4256 30.0875 100 30.8066 100H69.1934C69.9125 100 70.5092 99.4256 70.5592 98.6852L76.2148 15.0172H23.7852Z" fill="#F3F0F3"/>
<path d="M76.2153 15.0173L70.5601 98.6843C70.5093 99.4263 69.9116 99.9996 69.194 99.9996H64.8032C65.5228 99.9996 66.1204 99.4263 66.1692 98.6843L71.8245 15.0173H76.2153Z" fill="#E2DEE2"/>
<path d="M50 36.1838H25.4826C24.5649 36.1838 23.8395 36.9618 23.9033 37.8772L26.6598 77.3604C26.7178 78.1899 27.4076 78.8333 28.2391 78.8333H50H71.7608C72.5924 78.8333 73.2822 78.1899 73.34 77.3604L76.0965 37.8772C76.1604 36.9616 75.435 36.1838 74.5172 36.1838H50Z" fill="#CBC4CC"/>
<path d="M76.0974 37.8765L73.341 77.3601C73.282 78.1896 72.5929 78.8339 71.7615 78.8339H67.5027C68.3341 78.8339 69.0232 78.1896 69.0822 77.3601L71.8386 37.8765C71.9017 36.9616 71.1759 36.1831 70.2591 36.1831H74.5179C75.4347 36.1831 76.1603 36.9616 76.0974 37.8765Z" fill="#B5ADB6"/>
<path d="M50.0001 67.4799C55.5071 67.4799 59.9714 63.0156 59.9714 57.5086C59.9714 52.0016 55.5071 47.5374 50.0001 47.5374C44.4931 47.5374 40.0288 52.0016 40.0288 57.5086C40.0288 63.0156 44.4931 67.4799 50.0001 67.4799Z" fill="#00C27A"/>
<path d="M59.9712 57.5095C59.9712 63.0164 55.5071 67.4806 50.0001 67.4806C47.3147 67.4806 44.8753 66.4195 43.0845 64.6915C44.0521 65.0066 45.0849 65.1753 46.1581 65.1753C51.6649 65.1753 56.1292 60.7113 56.1292 55.2042C56.1292 52.3806 54.9563 49.8316 53.0698 48.0203C57.0743 49.313 59.9712 53.0738 59.9712 57.5095Z" fill="#08B865"/>
<path d="M68.6968 0H31.3035C29.2919 0 27.5216 1.32734 26.9582 3.2584L25.9216 6.80977H74.0787L73.0422 3.2584C72.4785 1.32734 70.7084 0 68.6968 0Z" fill="#CBC4CC"/>
<path d="M74.0789 6.81045H69.6941L68.6593 3.25908C68.0943 1.32783 66.3236 0.000488281 64.3132 0.000488281H68.696C70.7085 0.000488281 72.4791 1.32783 73.0421 3.25908L74.0789 6.81045Z" fill="#B5ADB6"/>
<path d="M76.5389 6.34961H23.4612C22.1762 6.34961 20.9852 7.02852 20.336 8.1375C19.5397 9.49766 18.977 11.1412 18.6004 12.5279C18.1965 14.0148 19.3204 15.4773 20.8612 15.4773H79.1393C80.6799 15.4773 81.8038 14.0146 81.4 12.5279C81.0235 11.1412 80.4608 9.49766 79.6645 8.1375C79.0149 7.02852 77.8239 6.34961 76.5389 6.34961Z" fill="#00C27A"/>
<path d="M79.1385 15.4776H74.6723C76.2131 15.4776 77.3373 14.0139 76.9328 12.528C76.5568 11.1416 75.9936 9.49709 75.1988 8.13694C74.5482 7.02913 73.357 6.35022 72.0723 6.35022H76.5383C77.823 6.35022 79.0143 7.02913 79.6648 8.13694C80.4598 9.4969 81.0228 11.1414 81.3988 12.528C81.8035 14.0139 80.6793 15.4776 79.1385 15.4776Z" fill="#08B865"/>
</svg>
