<svg width="100" height="100" viewBox="0 0 100 100" fill="none" xmlns="http://www.w3.org/2000/svg">
<g clip-path="url(#clip0)">
<path d="M66.5072 7.48984H57.114V3.225C57.114 1.44375 58.5578 0 60.3388 0H63.2822C65.0632 0 66.5072 1.44375 66.5072 3.225V7.48984Z" fill="#CBC4CC"/>
<path d="M66.5061 3.22451V6.27451H62.5844V3.22451C62.5844 1.61045 61.3991 0.273535 59.8499 0.0370117C60.0096 0.012793 60.1735 0.000488281 60.3393 0.000488281H63.2821C65.0641 0.000488281 66.5061 1.44463 66.5061 3.22451Z" fill="#B5ADB6"/>
<path d="M69.7811 14.259H30.2187L25.8882 24.3122L26.6983 24.9278V88.9559L25.8882 89.9471L29.7626 98.9417C30.0394 99.584 30.6718 100 31.3712 100H68.6284C69.3278 100 69.9603 99.584 70.237 98.9417L74.1114 89.9471L73.6276 89.3885L74.1114 57.1297L73.6276 24.8342L74.1114 24.3122L69.7811 14.259Z" fill="#FE9738"/>
<path d="M74.1113 24.3124V89.9473L70.2381 98.9418C69.9609 99.5831 69.3279 99.9997 68.6281 99.9997H64.583C65.2828 99.9997 65.9158 99.5831 66.193 98.9418L70.0662 89.9473V24.3124L65.7359 14.2581H69.7811L74.1113 24.3124Z" fill="#FE860A"/>
<path d="M71.221 14.7179H28.7789C26.4474 14.7179 24.5574 12.8278 24.5574 10.4964C24.5574 8.16494 26.4474 6.2749 28.7789 6.2749H71.221C73.5525 6.2749 75.4425 8.16494 75.4425 10.4964C75.4425 12.8278 73.5525 14.7179 71.221 14.7179Z" fill="#F3F0F3"/>
<path d="M75.4422 10.4955C75.4422 11.6625 74.9709 12.7162 74.2065 13.4809C73.442 14.2434 72.3861 14.7166 71.2211 14.7166H67.1758C68.3408 14.7166 69.3965 14.2434 70.1611 13.4809C70.9256 12.7164 71.3969 11.6625 71.3969 10.4955C71.3969 8.16543 69.5078 6.27441 67.1758 6.27441H71.2209C73.5531 6.27441 75.4422 8.16562 75.4422 10.4955Z" fill="#E2DEE2"/>
<path d="M25.8884 24.3121H74.1117V89.9471H25.8884V24.3121Z" fill="#FDB97E"/>
<path d="M70.0664 24.3121H74.1115V89.9471H70.0664V24.3121Z" fill="#FEA95C"/>
<path d="M50 75.561C60.1795 75.561 68.4316 67.3089 68.4316 57.1294C68.4316 46.9499 60.1795 38.6978 50 38.6978C39.8205 38.6978 31.5684 46.9499 31.5684 57.1294C31.5684 67.3089 39.8205 75.561 50 75.561Z" fill="#FE7701"/>
<path d="M68.4318 57.1289C68.4318 67.3086 60.1796 75.5607 49.9999 75.5607C45.0568 75.5607 40.5646 73.6129 37.2537 70.4435C39.9134 71.9341 42.9796 72.7816 46.2419 72.7816C56.4216 72.7816 64.6738 64.5295 64.6738 54.3498C64.6738 49.1132 62.4894 44.3884 58.9841 41.031C64.6212 44.1841 68.4318 50.2115 68.4318 57.1289Z" fill="#F46700"/>
<path d="M58.3008 52.582L53.1301 55.4148C51.7211 56.1867 50 55.1671 50 53.5605V47.6615C50 46.3038 51.2604 45.3029 52.5853 45.5986C55.0705 46.1535 57.2602 47.4913 58.8818 49.3396C59.7713 50.3535 59.4838 51.9337 58.3008 52.582Z" fill="#FEDBBD"/>
<path d="M49.9999 47.6605V53.5595C49.9999 55.1662 48.2788 56.1857 46.8698 55.4138L41.6991 52.581C40.5161 51.933 40.2286 50.3525 41.1183 49.3386C42.7399 47.4904 44.9296 46.1525 47.4148 45.5976C48.7396 45.3019 49.9999 46.3029 49.9999 47.6605Z" fill="#FEDBBD"/>
<path d="M58.882 64.9207C57.2604 66.7691 55.0705 68.107 52.5854 68.6619C51.2604 68.9578 50 67.9566 50 66.599V60.6984C50 59.0916 51.7215 58.072 53.1305 58.8443L58.3016 61.6783C59.4844 62.3267 59.7717 63.9068 58.882 64.9207Z" fill="#FEDBBD"/>
<path d="M50 60.6985V66.5991C50 67.9567 48.7396 68.9577 47.4146 68.662C44.9293 68.1071 42.7396 66.7692 41.1179 64.9208C40.2285 63.9069 40.5158 62.3269 41.6986 61.6786L46.8697 58.8446C48.2785 58.0722 50 59.0917 50 60.6985Z" fill="#FEDBBD"/>
<path d="M58.4158 61.7411L53.3835 58.9833C51.9193 58.1808 51.9193 56.0773 53.3839 55.2749L58.3798 52.538C59.5341 51.9056 60.9699 52.4742 61.4007 53.7177C62.2113 56.0576 62.2107 58.3835 61.4218 60.6072C60.9882 61.8294 59.5533 62.3644 58.4158 61.7411Z" fill="#FEDBBD"/>
<path d="M41.5841 61.7411L46.6163 58.9833C48.0806 58.1808 48.0806 56.0773 46.6159 55.2749L41.62 52.538C40.4657 51.9056 39.03 52.4742 38.5991 53.7177C37.7886 56.0576 37.7892 58.3835 38.578 60.6072C39.0116 61.8294 40.4466 62.3644 41.5841 61.7411Z" fill="#FEDBBD"/>
<path d="M50 60.8875C52.0754 60.8875 53.758 59.205 53.758 57.1295C53.758 55.054 52.0754 53.3715 50 53.3715C47.9245 53.3715 46.2419 55.054 46.2419 57.1295C46.2419 59.205 47.9245 60.8875 50 60.8875Z" fill="#FE9738"/>
<path d="M53.7579 57.129C53.7579 59.2042 52.0751 60.887 49.9999 60.887C48.6671 60.887 47.496 60.1932 46.8306 59.1475C47.0429 59.186 47.2614 59.2061 47.4858 59.2061C49.561 59.2061 51.2438 57.5233 51.2438 55.4481C51.2438 54.7057 51.0274 54.012 50.6554 53.4296C52.4188 53.7391 53.7579 55.2782 53.7579 57.129Z" fill="#FE860A"/>
</g>
<defs>
<clipPath id="clip0">
<rect width="100" height="100" fill="white"/>
</clipPath>
</defs>
</svg>
