<svg width="100" height="100" viewBox="0 0 100 100" fill="none" xmlns="http://www.w3.org/2000/svg">
<g clip-path="url(#clip0)">
<path d="M86.7134 45.3531V78.6713C86.7134 83.6701 82.663 87.7225 77.6666 87.7225H66.0398V80.2481H76.5892C78.48 80.2481 80.0128 78.7145 80.0128 76.8227V47.2016C80.0128 45.3115 78.4802 43.7762 76.5892 43.7762H66.0398V36.3037H77.6685C82.6638 36.3039 86.7134 40.3553 86.7134 45.3531Z" fill="#62DBFB"/>
<path d="M86.7143 45.3528V78.6716C86.7143 83.6704 82.6637 87.7229 77.6672 87.7229H74.4609C79.4574 87.7229 83.5063 83.6704 83.5063 78.6716V45.3528C83.5063 40.3558 79.4574 36.3032 74.4627 36.3032H77.6689C82.6637 36.3032 86.7143 40.3558 86.7143 45.3528Z" fill="#01D0FB"/>
<path d="M61.9233 19.6659H18.9145L14.5485 26.1757C13.7252 27.403 13.2858 28.8477 13.2858 30.3259V84.6255C13.2858 89.4559 17.1996 93.3717 22.0278 93.3717H58.8098C63.6379 93.3717 67.5518 89.4559 67.5518 84.6255V30.3257C67.5518 28.8475 67.1121 27.4028 66.2891 26.1755L61.9233 19.6659Z" fill="#C8EFFE"/>
<path d="M67.5514 30.3261V84.6258C67.5514 89.4552 63.6379 93.3724 58.8108 93.3724H55.1627C59.9899 93.3724 63.9033 89.4552 63.9033 84.6258V30.3261C63.9033 28.847 63.4651 27.4035 62.6422 26.1756L58.2764 19.6654H61.9227L66.2885 26.1756C67.1131 27.4033 67.5514 28.8469 67.5514 30.3261Z" fill="#99E6FC"/>
<path d="M59.3331 92.9132H21.5048V97.5716C21.5048 98.912 22.5909 99.9988 23.9307 99.9988L56.9073 99.9993C58.2471 99.9993 59.3333 98.9126 59.3333 97.5722V92.9132H59.3331Z" fill="#62DBFB"/>
<path d="M59.3325 92.9143V97.5727C59.3325 98.9129 58.2477 100 56.9063 100H53.1442C54.4801 99.9965 55.5631 98.9112 55.5631 97.5727V92.9143H59.3325Z" fill="#01D0FB"/>
<path d="M51.2439 0.000976562C53.168 0.000976562 54.6301 1.73145 54.3098 3.62949L47.7209 42.6664L41.4434 42.6668L48.1779 2.5957C48.4295 1.09805 49.7258 0.000976562 51.2439 0.000976562Z" fill="#F3F0F3"/>
<path d="M54.3094 3.62832L47.7209 42.6664H44.4036L50.994 3.62832C51.2102 2.33672 50.6042 1.12383 49.5877 0.479102C50.0708 0.173828 50.6385 0 51.2446 0C53.168 0 54.6307 1.73027 54.3094 3.62832Z" fill="#E2DEE2"/>
<path d="M63.5092 19.6146H17.3285C15.2217 19.6146 13.5137 17.9066 13.5137 15.7998V15.798C13.5137 13.6912 15.2217 11.9832 17.3285 11.9832H63.5092C65.616 11.9832 67.324 13.6912 67.324 15.798V15.7998C67.324 17.9068 65.6162 19.6146 63.5092 19.6146Z" fill="#62DBFB"/>
<path d="M67.3232 15.7983C67.3232 16.8534 66.8975 17.8067 66.2064 18.4983C65.5172 19.1879 64.5641 19.6157 63.5096 19.6157H59.7012C60.7557 19.6157 61.7086 19.1879 62.398 18.4983C63.0893 17.8069 63.5148 16.8534 63.5148 15.7983C63.5148 13.6918 61.8084 11.9827 59.7012 11.9827H63.5096C65.6168 11.9827 67.3232 13.6917 67.3232 15.7983Z" fill="#01D0FB"/>
<path d="M67.5514 33.0955V84.6258C67.5514 89.4553 63.6379 93.3725 58.8108 93.3725H22.0274C17.2002 93.3725 13.2867 89.4553 13.2867 84.6258V30.3262C13.2867 30.2924 13.2867 30.2584 13.2885 30.2246C19.9629 30.4865 26.6 32.7801 32.9502 34.9277C41.1744 37.7096 50.1912 40.324 58.6184 38.0715C62.0383 37.157 65.1057 35.3908 67.5514 33.0955Z" fill="#FE93D3"/>
<path d="M67.5514 33.0956V84.6259C67.5514 89.4553 63.6379 93.3725 58.8108 93.3725H55.1627C59.9899 93.3725 63.9033 89.4553 63.9033 84.6259V35.8384C65.2285 35.0524 66.4524 34.1274 67.5514 33.0956Z" fill="#FE73C5"/>
<path d="M22.8373 46.7086C23.9531 46.7086 24.8576 45.8036 24.8576 44.6873C24.8576 43.571 23.9531 42.666 22.8373 42.666C21.7215 42.666 20.817 43.571 20.817 44.6873C20.817 45.8036 21.7215 46.7086 22.8373 46.7086Z" fill="#FE4FB7"/>
<path d="M30.1867 52.7727C31.3025 52.7727 32.207 51.8677 32.207 50.7514C32.207 49.6351 31.3025 48.7301 30.1867 48.7301C29.0709 48.7301 28.1664 49.6351 28.1664 50.7514C28.1664 51.8677 29.0709 52.7727 30.1867 52.7727Z" fill="#FE4FB7"/>
<path d="M54.1297 63.3915C55.2455 63.3915 56.15 62.4865 56.15 61.3702C56.15 60.2538 55.2455 59.3489 54.1297 59.3489C53.0139 59.3489 52.1094 60.2538 52.1094 61.3702C52.1094 62.4865 53.0139 63.3915 54.1297 63.3915Z" fill="#FE4FB7"/>
<path d="M37.1739 78.4138C38.2897 78.4138 39.1942 77.5088 39.1942 76.3925C39.1942 75.2762 38.2897 74.3712 37.1739 74.3712C36.0581 74.3712 35.1536 75.2762 35.1536 76.3925C35.1536 77.5088 36.0581 78.4138 37.1739 78.4138Z" fill="#FE4FB7"/>
<path d="M46.6026 50.7514C47.7184 50.7514 48.6229 49.8465 48.6229 48.7301C48.6229 47.6138 47.7184 46.7089 46.6026 46.7089C45.4868 46.7089 44.5823 47.6138 44.5823 48.7301C44.5823 49.8465 45.4868 50.7514 46.6026 50.7514Z" fill="#FE4FB7"/>
<path d="M41.2145 72.9796C42.3303 72.9796 43.2348 72.0746 43.2348 70.9583C43.2348 69.842 42.3303 68.937 41.2145 68.937C40.0987 68.937 39.1942 69.842 39.1942 70.9583C39.1942 72.0746 40.0987 72.9796 41.2145 72.9796Z" fill="#FE4FB7"/>
<path d="M58.1706 83.0976C59.2864 83.0976 60.1909 82.1927 60.1909 81.0763C60.1909 79.96 59.2864 79.0551 58.1706 79.0551C57.0548 79.0551 56.1503 79.96 56.1503 81.0763C56.1503 82.1927 57.0548 83.0976 58.1706 83.0976Z" fill="#FE4FB7"/>
<path d="M22.8373 69.8246C23.9531 69.8246 24.8576 68.9196 24.8576 67.8033C24.8576 66.687 23.9531 65.782 22.8373 65.782C21.7215 65.782 20.817 66.687 20.817 67.8033C20.817 68.9196 21.7215 69.8246 22.8373 69.8246Z" fill="#FE4FB7"/>
</g>
<defs>
<clipPath id="clip0">
<rect width="100" height="100" fill="white"/>
</clipPath>
</defs>
</svg>
