<svg width="100" height="100" viewBox="0 0 100 100" fill="none" xmlns="http://www.w3.org/2000/svg">
<g clip-path="url(#clip0)">
<path d="M86.7262 78.591C86.4315 78.8857 86.1661 79.1988 85.9286 79.5255L71.5229 65.1199L65.12 71.5228L79.5257 85.9285C79.1987 86.166 78.8858 86.4314 78.5911 86.7261C75.5546 89.7626 75.5546 94.6861 78.5911 97.7226C81.6276 100.759 86.551 100.759 89.5876 97.7226C91.1995 96.1107 91.9557 93.9669 91.8561 91.856C93.9671 91.9554 96.1106 91.1994 97.7227 89.5875C100.759 86.5509 100.759 81.6275 97.7227 78.591C94.686 75.5542 89.7628 75.5542 86.7262 78.591Z" fill="#F3F0F3"/>
<path d="M99.4726 86.9069C99.0976 85.8405 98.4847 84.8385 97.632 83.9856C94.5959 80.9475 89.6728 80.9475 86.6367 83.9856C86.6337 83.9885 86.6308 83.9914 86.6279 83.9944C86.158 84.4658 85.4013 84.4819 84.9306 84.0112L68.781 67.8615L71.5228 65.1198L85.9291 79.526C86.1669 79.1975 86.431 78.885 86.7253 78.5906C89.7634 75.5545 94.6865 75.5545 97.7226 78.5906C99.9707 80.8387 100.555 84.1207 99.4726 86.9069Z" fill="#E2DEE2"/>
<path d="M51.9995 3.50818L27.7782 27.7295L27.7296 27.7781L3.5083 51.9994C3.5083 51.9994 23.0519 74.2226 48.2731 76.6609C49.947 76.8226 51.6294 76.8953 53.3108 76.8728C56.9415 76.8244 60.4573 76.7095 64.0952 77.0457C65.0657 77.1353 66.0339 77.2494 66.9989 77.3853C68.9034 77.6537 70.7091 78.1496 72.4811 78.8842C72.4817 78.8836 78.8954 72.492 78.896 72.4916C78.1614 70.7197 77.6538 68.9035 77.3855 66.999C77.2495 66.034 77.1353 65.0658 77.0458 64.0953C76.7099 60.4574 76.8245 56.9416 76.8729 53.3109C76.8954 51.6295 76.8229 49.9468 76.661 48.273C74.2228 23.0517 51.9995 3.50818 51.9995 3.50818Z" fill="#D77F4A"/>
<path d="M78.8964 72.4914C78.8964 72.4914 77.1488 74.2295 76.1488 75.2295C75.8625 74.0601 74.9982 72.2959 74.6658 71.6922C73.5316 69.6318 72.9865 67.8336 72.6841 65.4808C72.549 64.4164 72.4683 63.3439 72.4201 62.2734C72.3273 60.215 72.3636 58.1547 72.3757 56.0965C72.4019 51.5605 72.4584 46.9258 71.4019 42.4865C70.7125 39.5894 69.7912 36.749 68.6783 33.9871C66.6138 28.8584 63.8984 23.9998 60.7554 19.4537C60.2595 18.7359 53.2197 9.89587 49.5203 5.98884L52 3.50916C52 3.50916 74.2222 23.0521 76.6617 48.2722C76.823 49.9474 76.8955 51.6289 76.8734 53.3101C76.825 56.941 76.7101 60.4568 77.0468 64.0957C77.1355 65.0654 77.2505 66.033 77.3855 66.9988C77.6535 68.9039 78.1626 70.7193 78.8964 72.4914Z" fill="#C86D36"/>
<path d="M41.1984 41.2044C54.6003 27.8025 59.4427 10.9162 52.0143 3.4877C44.5858 -3.94075 27.6995 0.901674 14.2976 14.3036C0.895748 27.7054 -3.94668 44.5918 3.48177 52.0202C10.9102 59.4487 27.7965 54.6062 41.1984 41.2044Z" fill="#E8AD8C"/>
<path d="M41.2063 41.2063C31.5255 50.8872 20.0263 56.1024 11.5874 55.4534C19.4618 54.5624 29.0419 49.5546 37.2993 41.2971C50.7036 27.8928 55.546 11.0048 48.1171 3.57586C46.0528 1.51141 43.2606 0.394413 40.0149 0.144608C44.9239 -0.411837 49.1716 0.632499 52.0243 3.48504C59.453 10.9139 54.6106 27.802 41.2063 41.2063Z" fill="#E19974"/>
<path d="M37.2783 37.2841C47.8689 26.6935 52.1874 13.8413 46.924 8.57782C41.6606 3.3144 28.8084 7.63293 18.2177 18.2235C7.62714 28.8141 3.3086 41.6664 8.57203 46.9298C13.8355 52.1932 26.6877 47.8747 37.2783 37.2841Z" fill="#9E5528"/>
<path d="M37.2854 37.2851C27.6893 46.8812 16.2363 51.3306 10.2529 48.1654C16.575 48.5423 25.6572 44.1374 33.4973 36.2972C44.0893 25.7052 48.4096 12.8511 43.1438 7.58743C42.6498 7.09348 42.0873 6.68215 41.4686 6.35559C43.6861 6.4886 45.567 7.20832 46.934 8.57512C52.1977 13.839 47.8773 26.6931 37.2854 37.2851Z" fill="#904D24"/>
<path d="M38.4674 22.8586C41.3663 19.6981 42.3824 15.9126 40.737 14.4034C39.0917 12.8942 35.4078 14.2328 32.5089 17.3933C29.61 20.5538 28.5939 24.3393 30.2392 25.8485C31.8846 27.3577 35.5685 26.0191 38.4674 22.8586Z" fill="#ECBBA3"/>
<path d="M38.4626 22.8506C35.5636 26.0096 31.8804 27.3502 30.2353 25.8402C29.7253 25.3725 29.4693 24.683 29.449 23.8625C31.213 23.6145 33.4044 22.3344 35.2712 20.2983C37.271 18.119 38.3738 15.6412 38.3255 13.8209C39.2992 13.6797 40.1439 13.8572 40.7287 14.3934C42.3757 15.9035 41.3595 19.6895 38.4626 22.8506Z" fill="#E8AD8C"/>
</g>
<defs>
<clipPath id="clip0">
<rect width="100" height="100" fill="white"/>
</clipPath>
</defs>
</svg>
