<svg width="100" height="100" viewBox="0 0 100 100" fill="none" xmlns="http://www.w3.org/2000/svg">
<g clip-path="url(#clip0)">
<path d="M49.996 99.9996C47.831 99.9996 46.0759 98.2445 46.0759 96.0795V39.2728H53.9162V96.0795C53.9162 98.2445 52.1611 99.9996 49.996 99.9996Z" fill="#F4D7C8"/>
<path d="M53.9167 39.2734V96.0793C53.9167 98.2449 52.1616 100 49.996 100C49.2755 100 48.6013 99.8068 48.0216 99.4666C49.187 98.7883 49.9698 97.5244 49.9698 96.0793V39.2734H53.9167Z" fill="#ECBBA3"/>
<path d="M71.0415 21.3259C71.0415 22.8558 70.8927 24.4384 70.5867 25.8769C70.5404 26.0945 70.7591 26.2204 70.7062 26.4353C70.6798 26.5427 70.6527 26.6497 70.6246 26.7564C68.2228 35.9042 59.8974 42.6521 49.9958 42.6521C38.2177 42.6521 28.6697 33.104 28.6697 21.3259C28.6697 18.24 29.3251 15.3073 30.5042 12.6593C30.5962 12.4527 30.9361 12.4253 31.0343 12.2222C34.4857 5.09348 41.5486 0.230591 49.9999 0.230591C61.7781 0.230591 71.0415 9.54778 71.0415 21.3259Z" fill="#E94444"/>
<path d="M71.0416 21.1801C71.0416 22.8049 70.9309 24.3565 70.5867 25.8772C70.5578 26.0047 70.7377 26.309 70.7064 26.4358C68.4172 35.7465 60.0131 42.653 49.9961 42.653C46.7939 42.653 43.7588 41.9485 41.0336 40.6824C42.692 41.099 44.4289 41.3184 46.2162 41.3184C57.9943 41.3184 67.5426 31.7701 67.5426 19.992C67.5426 11.416 62.2459 4.22288 54.9459 0.837524C64.2203 3.15198 71.0416 11.1891 71.0416 21.1801Z" fill="#D83131"/>
<path d="M49.9957 3.03407e-09C41.3031 0.000195316 33.826 5.20078 30.5052 12.6598C32.0529 13.8654 33.8222 14.7811 35.7121 15.3166C35.7187 15.3186 35.7254 15.3203 35.732 15.3223C36.9035 15.6514 37.7248 16.7021 37.7248 17.9189V27.0117C37.7248 29.677 39.8855 31.8377 42.5508 31.8377C45.2162 31.8377 47.3767 29.677 47.3767 27.0117V20.824C47.3767 18.8389 49.4525 17.5412 51.2402 18.4041C53.3615 19.4279 55.3619 20.7467 57.3039 22.0912C59.9244 23.9047 62.5931 25.8328 65.7049 26.5191C67.3654 26.8834 69.0781 26.817 70.7125 26.4004C71.1224 24.7271 71.3344 22.9773 71.3219 21.1748C71.2398 9.4293 61.7414 -0.000195309 49.9957 3.03407e-09V3.03407e-09Z" fill="#F3F0F3"/>
<path d="M71.33 21.3224C71.327 22.058 71.287 22.7898 71.2096 23.5203C71.13 24.2736 71.013 25.047 70.8534 25.7865C70.8091 25.9918 70.7628 26.197 70.7126 26.4004C69.33 26.7525 67.8928 26.8552 66.4778 26.656C67.1702 24.5588 67.5425 22.3187 67.5425 19.992C67.5425 11.416 62.4786 4.02126 55.1786 0.636108C55.96 0.998413 56.9106 1.12888 57.7243 1.44529C58.5618 1.77087 59.3784 2.14998 60.1676 2.57908C61.7317 3.42927 63.1882 4.47615 64.4934 5.6865C67.1167 8.11853 69.1126 11.2052 70.2401 14.601C70.5169 15.4342 70.7415 16.2847 70.9126 17.1459C71.1844 18.5136 71.3354 19.9219 71.33 21.3224Z" fill="#E2DEE2"/>
</g>
<defs>
<clipPath id="clip0">
<rect width="100" height="100" fill="white"/>
</clipPath>
</defs>
</svg>
