<svg width="100" height="100" viewBox="0 0 100 100" fill="none" xmlns="http://www.w3.org/2000/svg">
<g clip-path="url(#clip0)">
<path d="M71.6216 26.2203C62.5265 21.1693 59.248 9.70156 64.2988 0.606441C64.6144 0.0380816 65.3312 -0.166997 65.8996 0.148824L96.7777 17.2967C97.346 17.6123 97.5511 18.3291 97.2353 18.8975C92.1847 27.9926 80.7169 31.2711 71.6216 26.2203Z" fill="#00C27A"/>
<path d="M89.6563 26.3616C84.2026 29.2737 77.4294 29.445 71.6218 26.2196C67.5725 23.9715 64.6774 20.4528 63.1561 16.435C64.793 19.0965 67.1167 21.3846 70.0425 23.01C75.8501 26.2354 82.6233 26.0641 88.077 23.152C90.9294 21.629 93.4192 19.3577 95.2204 16.4309L96.777 17.2956C97.3468 17.6108 97.5508 18.3278 97.2356 18.8973C95.4094 22.1854 92.745 24.7124 89.6563 26.3616Z" fill="#08B865"/>
<path d="M74.4083 21.202C67.9214 17.5994 65.5829 9.42031 69.1854 2.9334L69.593 2.19922L93.0844 15.2449L92.6768 15.9791C89.0743 22.4662 80.8952 24.8045 74.4083 21.202Z" fill="#BBEC6C"/>
<path d="M74.4087 21.2028C70.8083 19.2045 68.4866 15.795 67.7482 12.0481C68.9253 14.2221 70.7169 16.1004 73.0386 17.3895C78.9837 20.6901 86.3472 19.004 90.3105 13.7047L93.0837 15.2446L92.6777 15.9788C89.0749 22.4661 80.8948 24.8038 74.4087 21.2028Z" fill="#A2E62E"/>
<path d="M79.3245 7.60388L69.2778 16.1484C69.8315 17.115 71.1728 18.6535 71.1063 18.559L80.1462 10.8722L78.3896 22.6529C78.3896 22.6529 78.8403 22.7521 79.4292 22.8211C80.0499 22.8937 80.8243 22.9351 81.4087 22.8844L83.354 9.83904L79.3245 7.60388Z" fill="#95D122"/>
<path d="M70.6214 15.2197H5.78272C3.77705 15.2197 2.27686 17.0613 2.68252 19.0256L11.0007 59.3006C12.7761 67.8967 13.6706 76.6512 13.6706 85.4287V89.0691L15.3228 90.5008V95.2334C15.3228 97.8654 17.4563 98.6555 20.0884 98.6555H56.3153C58.9474 98.6555 61.081 97.8654 61.081 95.2334V90.5008L62.7331 89.0691V85.4287C62.7331 76.6512 63.6276 67.8967 65.403 59.3006L73.7212 19.0256C74.1271 17.0613 72.6271 15.2197 70.6214 15.2197Z" fill="#C8EFFE"/>
<path d="M73.7222 19.0258L65.4033 59.3014C63.6271 67.8963 62.733 76.6521 62.733 85.4281V95.2332C62.733 97.8652 60.6003 99.9998 57.9683 99.9998H53.9226C56.5546 99.9998 58.6873 97.8652 58.6873 95.2332V85.4281C58.6873 76.6521 59.5814 67.8961 61.3576 59.3014L69.6765 19.0258C70.0812 17.0604 68.581 15.2197 66.5753 15.2197H70.621C72.6267 15.2197 74.1271 17.0604 73.7222 19.0258Z" fill="#99E6FC"/>
<path d="M59.5201 37.3894C51.8719 37.3894 24.5322 37.3894 16.884 37.3894C15.8697 37.3894 15.1254 38.3412 15.3697 39.3255C17.1455 46.4806 20.4674 60.924 21.0596 73.056C21.1654 75.2257 21.1172 77.3994 21.083 79.5726C21.0621 80.9105 22.1402 82.0064 23.4783 82.0064H52.926C54.2639 82.0064 55.3422 80.9105 55.3213 79.5726C55.2871 77.3994 55.2389 75.2257 55.3447 73.056C55.9367 60.924 59.2588 46.4806 61.0346 39.3255C61.2787 38.341 60.5344 37.3894 59.5201 37.3894Z" fill="#BBEC6C"/>
<path d="M61.0335 39.3248C59.2593 46.4796 55.9366 60.9246 55.3446 73.0556C55.2378 75.2265 55.2862 77.3994 55.3204 79.5722C55.3425 80.9113 54.2632 82.0068 52.9261 82.0068H48.6509C49.9901 82.0068 51.0675 80.9113 51.0474 79.5722C51.0132 77.3994 50.9647 75.2265 51.0716 73.0556C51.6636 60.9246 54.9843 46.4798 56.7605 39.3248C57.0042 38.3419 56.261 37.3894 55.246 37.3894H59.5212C60.5341 37.3894 61.279 38.3419 61.0335 39.3248Z" fill="#A2E62E"/>
<path d="M62.7332 89.0697V95.233C62.7332 97.8652 60.6008 99.9996 57.9686 99.9996H18.4365C15.8043 99.9996 13.6699 97.865 13.6699 95.233V89.0697H62.7332Z" fill="#62DBFB"/>
<path d="M62.7332 89.0692V95.2335C62.7332 97.8655 60.6006 100 57.9686 100H53.9229C56.5549 100 58.6875 97.8655 58.6875 95.2335V89.0692H62.7332Z" fill="#01D0FB"/>
<path d="M48.8629 64.0755L40.1563 72.7821C39.4063 73.5321 38.1903 73.5321 37.4403 72.7821L28.7336 64.0755C27.9836 63.3255 27.9836 62.1095 28.7336 61.3595L37.4403 52.6528C38.1903 51.9028 39.4063 51.9028 40.1563 52.6528L48.8629 61.3595C49.6129 62.1097 49.6129 63.3255 48.8629 64.0755Z" fill="#F3F0F3"/>
<path d="M48.8623 64.0753L40.157 72.7827C39.4056 73.5321 38.1916 73.5321 37.4402 72.7827L36.4333 71.7737L44.1298 64.0751C44.8793 63.3257 44.8793 62.1097 44.1298 61.3603L36.4333 53.6616L37.4402 52.6526C38.1916 51.9032 39.4056 51.9032 40.157 52.6526L48.8623 61.3601C49.6136 62.1099 49.6136 63.3259 48.8623 64.0753Z" fill="#E2DEE2"/>
<path d="M44.2209 37.4728L35.5142 46.1795C34.7642 46.9295 33.5482 46.9295 32.7982 46.1795L24.0916 37.4728C23.3416 36.7228 23.3416 35.5068 24.0916 34.7568L32.7982 26.0502C33.5482 25.3002 34.7642 25.3002 35.5142 26.0502L44.2209 34.7568C44.9709 35.5068 44.9709 36.7228 44.2209 37.4728Z" fill="#F3F0F3"/>
<path d="M44.2215 37.4727L35.5141 46.1801C34.7647 46.9295 33.5487 46.9295 32.7993 46.1801L31.7903 45.1713L39.4868 37.4727C40.2381 36.7233 40.2381 35.5073 39.4868 34.7578L31.7903 27.0592L32.7993 26.0502C33.5487 25.3008 34.7647 25.3008 35.5141 26.0502L44.2215 34.7576C44.9708 35.5073 44.9708 36.7235 44.2215 37.4727Z" fill="#E2DEE2"/>
</g>
<defs>
<clipPath id="clip0">
<rect width="100" height="100" fill="white"/>
</clipPath>
</defs>
</svg>
