<svg width="100" height="100" viewBox="0 0 100 100" fill="none" xmlns="http://www.w3.org/2000/svg">
<g clip-path="url(#clip0)">
<path d="M20.9058 17.1539C25.6427 17.1539 29.4828 13.3139 29.4828 8.57695C29.4828 3.84003 25.6427 0 20.9058 0C16.1689 0 12.3289 3.84003 12.3289 8.57695C12.3289 13.3139 16.1689 17.1539 20.9058 17.1539Z" fill="#E94444"/>
<path d="M29.4817 8.57734C29.4817 13.3139 25.6434 17.1541 20.9049 17.1541C18.1057 17.1541 15.6208 15.8129 14.054 13.7408C14.8495 13.9844 15.6932 14.1152 16.5672 14.1152C21.3038 14.1152 25.144 10.275 25.144 5.53848C25.144 3.59922 24.4997 1.81094 23.4163 0.375C26.9282 1.44648 29.4817 4.71484 29.4817 8.57734Z" fill="#D83131"/>
<path d="M87.2929 11.5583C88.2165 10.3316 87.3413 8.5769 85.8058 8.5769H54.4749H23.1441C21.6083 8.5769 20.7331 10.3314 21.6569 11.5583L48.736 47.5228C50.1651 49.4207 50.938 51.732 50.938 54.1078V82.856C50.938 88.8765 46.7794 94.1585 40.8913 95.4142C40.7251 95.4497 40.556 95.4837 40.3843 95.5165C40.3843 95.5165 35.9007 96.157 35.0468 100H54.4751H73.9034C73.0493 96.1572 68.5659 95.5165 68.5659 95.5165C68.4134 95.4874 68.263 95.4574 68.1148 95.4261C62.2028 94.1802 58.0122 88.898 58.0122 82.8562V54.1078C58.0122 51.732 58.7851 49.4207 60.2142 47.5228L87.2929 11.5583Z" fill="#DFF6FD"/>
<path d="M87.2929 11.5583C88.2165 10.3316 87.3413 8.5769 85.8058 8.5769H54.4749H23.1441C21.6083 8.5769 20.7331 10.3314 21.6569 11.5583L24.8528 15.8031L26.1698 16.7677L49.0458 47.0742C49.7499 48.0093 50.3441 48.9062 50.7155 50.0003C50.7927 50.2275 50.5032 51.0445 50.5653 51.2763C50.8112 52.1943 50.938 53.1458 50.938 54.1082V82.8564C50.938 88.8769 46.7794 94.1589 40.8913 95.4146C40.7251 95.4501 40.556 95.4841 40.3843 95.5169C40.3843 95.5169 35.9007 96.1574 35.0468 100.001H54.4751H73.9034C73.0493 96.1576 68.5659 95.5169 68.5659 95.5169C68.4134 95.4878 68.263 95.4578 68.1148 95.4265C62.2028 94.1806 58.0122 88.8984 58.0122 82.8566V54.1078C58.0122 53.0531 58.1646 52.0109 58.4591 51.0121C58.5071 50.8488 58.4257 50.4537 58.4814 50.2929C58.8523 49.2214 59.3989 48.1173 60.0898 47.1998L82.2368 17.907L82.9118 17.3769L87.2929 11.5583Z" fill="#C8EFFE"/>
<path d="M58.0117 54.1074V82.8555C58.0117 88.8975 62.2015 94.1801 68.1148 95.4252C68.2619 95.4565 68.4128 95.4877 68.5654 95.5172C68.5654 95.5172 73.0496 96.1572 73.9031 99.9996H69.3214C68.8929 98.0701 67.3396 97.6582 65.4693 97.2793C61.7908 96.534 58.9136 94.7631 56.6728 91.5688C54.9021 89.0448 53.9724 85.9323 53.9724 82.8557C53.9724 82.8408 53.9724 54.1076 53.9724 54.1076C53.9724 51.7313 54.7449 49.4211 56.174 47.5229L82.7115 11.5592C83.6347 10.3324 82.7611 8.57776 81.2253 8.57776H85.8052C87.341 8.57776 88.2165 10.3324 87.2931 11.5592L60.2134 47.5229C58.7841 49.4209 58.0117 51.7311 58.0117 54.1074Z" fill="#99E6FC"/>
<path d="M83.09 17.1396L60.2136 47.522C59.3636 48.6509 58.7443 49.9279 58.3847 51.2761L50.565 51.2769L50.4824 50.9857C50.115 49.7453 49.5246 48.5703 48.7361 47.522L24.8542 15.8031C32.6162 15.3377 40.5359 17.2224 48.0998 18.9687C57.6753 21.1785 68.1335 23.1382 77.4878 19.9148C79.5033 19.2205 81.3839 18.2761 83.09 17.1396Z" fill="#E94444"/>
<path d="M83.0907 17.1396C83.0907 17.1396 60.2573 47.4647 60.2135 47.5229C59.7282 48.1674 59.3065 48.8721 58.9774 49.6123C58.7758 50.0658 58.6022 50.5373 58.4586 51.0121C58.4329 51.0986 58.4071 51.1887 58.385 51.277H54.3459C54.7065 49.9287 55.3245 48.6523 56.1743 47.523L76.2559 20.3086C76.6698 20.1871 77.0799 20.0566 77.4883 19.915C79.5041 19.2197 81.3838 18.2762 83.0907 17.1396Z" fill="#D83131"/>
</g>
<defs>
<clipPath id="clip0">
<rect width="100" height="100" fill="white"/>
</clipPath>
</defs>
</svg>
