<svg width="100" height="100" viewBox="0 0 100 100" fill="none" xmlns="http://www.w3.org/2000/svg">
<g clip-path="url(#clip0)">
<path d="M27.332 26.3156L23.9023 4.81443C23.5566 2.64685 25.2312 0.68396 27.4261 0.68396C29.1818 0.68396 30.6765 1.96091 30.9507 3.6949L34.5279 26.3162L27.332 26.3156Z" fill="#F4D7C8"/>
<path d="M34.5285 26.3157H30.9791L27.4015 3.69458C27.2648 2.82642 26.8226 2.07466 26.1957 1.53794C26.0269 1.39517 25.8458 1.26665 25.6531 1.1561C26.1716 0.856689 26.7765 0.683838 27.4257 0.683838C28.3041 0.683838 29.116 1.00337 29.7431 1.53794C30.3722 2.07466 30.8144 2.82622 30.9511 3.69458L34.5285 26.3157Z" fill="#ECBBA3"/>
<path d="M72.5251 27.6734C72.1327 26.4555 70.9978 25.6318 69.7183 25.6318H16.6136C15.3339 25.6318 14.1991 26.4555 13.8068 27.6734C11.6612 34.3326 5.50265 56.1959 9.49367 77.0588C10.6821 83.2713 13.4347 89.0195 17.562 93.4635C19.5923 95.6496 22.1073 97.7459 25.0976 99.1463C26.3034 99.7109 27.6019 100 28.9126 100H57.4189C58.7296 100 60.0282 99.7111 61.2339 99.1463C64.2241 97.7459 66.739 95.6496 68.7695 93.4635C72.8968 89.0195 75.6493 83.2713 76.8378 77.0588C80.8292 56.1961 74.6706 34.3328 72.5251 27.6734Z" fill="#FE9738"/>
<path d="M76.8382 77.0586C75.6503 83.2711 72.8968 89.0193 68.7706 93.4633C66.7386 95.65 64.2243 97.7463 61.2335 99.1473C60.0276 99.7121 58.7292 99.9994 57.4188 99.9994H53.1157C54.4261 99.9994 55.7245 99.7119 56.9306 99.1473C59.9212 97.7465 62.4356 95.65 64.4655 93.4633C68.5938 89.0195 71.3454 83.2711 72.5352 77.0586C76.5249 56.1961 70.3665 34.3326 68.222 27.6738C67.828 26.4559 66.6944 25.6318 65.4142 25.6318H69.7173C70.9976 25.6318 72.1331 26.4559 72.5251 27.6738C74.6716 34.3326 80.8298 56.1961 76.8382 77.0586Z" fill="#FE860A"/>
<path d="M68.8045 74.1224L58.0637 62.817L68.8045 51.5093L77.459 60.6201C77.652 60.8252 77.891 60.9619 78.1443 61.0301C78.1242 59.6031 78.0719 58.1922 77.9897 56.8033L70.8828 49.3205L76.41 43.5019C76.1908 42.2699 75.9617 41.0842 75.7266 39.9465C75.5959 40.0187 75.4713 40.1133 75.3627 40.2279L68.8045 47.1318L58.0637 35.8263L67.2025 26.2051C67.3633 26.0363 67.4758 25.8414 67.5422 25.6322H63.5887L55.9834 33.6375L48.3801 25.6322H44.4266C44.493 25.8412 44.6055 26.0361 44.7662 26.2051L53.9051 35.8263L43.1643 47.1318L32.4256 35.8263L41.5645 26.2051C41.7252 26.0363 41.8379 25.8414 41.9041 25.6322H37.9486L30.3453 33.6375L22.742 25.6322H18.7887C18.8551 25.8412 18.9676 26.0361 19.1283 26.2051L28.2672 35.8263L17.5264 47.1318L10.9701 40.2279C10.8615 40.1135 10.7391 40.0209 10.6063 39.9465C10.3711 41.0842 10.14 42.2719 9.92285 43.5039L15.448 49.3205L8.34316 56.8011C8.2627 58.192 8.20859 59.6029 8.18848 61.0299C8.4418 60.9615 8.67891 60.8228 8.87383 60.6199L17.5264 51.5092L28.2672 62.8146L17.5264 74.1222L8.91016 65.05C8.71113 64.841 8.46797 64.7023 8.20664 64.634C8.24082 66.0529 8.31113 67.4799 8.42168 68.915L15.4482 76.3113L10.6064 81.4062C10.9502 82.4695 11.342 83.5125 11.7842 84.5297C11.8344 84.4894 11.8807 84.4433 11.9248 84.3949L17.5264 78.5L28.2672 89.8054L21.4617 96.9707C22.2777 97.5697 23.142 98.1263 24.0545 98.6187L30.3455 91.9941L37.9488 99.9994H41.9043C41.8379 99.7904 41.7254 99.5955 41.5646 99.4265L32.4258 89.8053L43.1666 78.4998L53.9053 89.8053L44.7664 99.4265C44.6057 99.5955 44.493 99.7904 44.4268 99.9994H48.3803L55.9857 91.9941L62.2787 98.6168C63.1912 98.1244 64.0555 97.5695 64.8715 96.9707L58.0641 89.8054L68.8049 78.5L74.4266 84.417C74.4647 84.4572 74.5049 84.4953 74.5471 84.5316C74.9873 83.5146 75.3812 82.4715 75.7248 81.4062L70.883 76.3111L77.9096 68.9148C78.0201 67.4799 78.0904 66.0508 78.1266 64.6318C77.8432 64.7062 77.592 64.8629 77.401 65.074L68.8045 74.1224ZM55.9853 38.015L66.724 49.3205L55.9853 60.6279L45.2445 49.3205L55.9853 38.015ZM19.6066 49.3207L30.3453 38.0152L41.0861 49.3207L30.3453 60.6261L19.6066 49.3207ZM30.3455 87.6168L19.6068 76.3113L30.3455 65.0037L41.0883 76.3113L30.3455 87.6168ZM32.4256 62.815L43.1643 51.5095L53.9051 62.8172L43.1664 74.1226L32.4256 62.815ZM55.9853 87.6168L45.2445 76.3113L55.9853 65.0058L66.724 76.3113L55.9853 87.6168Z" fill="#E57917"/>
<path d="M74.2373 27.1816C74.5408 29.3182 74.1006 31.5592 73.3408 33.551C72.4082 36.0031 70.7924 38.1455 68.6016 39.5887C68.3543 39.7516 68.0367 39.7535 67.7896 39.5928C67.2248 39.2289 66.6963 38.8189 66.21 38.3707C67.627 37.0461 68.7082 35.3859 69.4076 33.551C70.1674 31.5592 70.6055 29.3182 70.3041 27.1816C70.3035 27.1771 70.3027 27.1725 70.3021 27.168C70.2102 26.5227 70.7301 25.9539 71.3793 26.0123C71.8654 26.0561 72.3523 26.0727 72.8365 26.06C73.2305 26.05 73.6244 26.0238 74.0184 25.9775C74.1066 26.3775 74.181 26.7797 74.2373 27.1816Z" fill="#FEDF30"/>
<path d="M83.8864 15.1871C85.5243 14.3154 87.0027 13.1217 88.2503 11.7566C90.1991 9.624 91.5019 6.9697 91.8171 4.09607C91.8521 3.7781 91.6958 3.46892 91.4191 3.30877C88.9509 1.88084 86.0839 1.35154 83.2478 1.63474C80.9419 1.86502 78.5523 2.52576 76.6222 3.85798C73.5482 5.97986 71.0538 9.14256 70.2632 12.8658C70.1294 13.4957 69.7161 14.8748 70.4505 15.2748C71.1605 15.6615 71.9073 15.9804 72.6773 16.2273C76.2878 17.3847 80.5245 16.9763 83.8864 15.1871Z" fill="#00C27A"/>
<path d="M91.8179 4.09612C91.5023 6.97014 90.1999 9.62327 88.2503 11.7557C87.0023 13.1225 85.525 14.3162 83.8869 15.1865C80.5244 16.9754 76.2875 17.3854 72.6777 16.2276C71.908 15.9803 71.1603 15.6608 70.4507 15.2748C70.1714 15.1221 70.0086 14.8205 70.0347 14.5051C70.0548 14.2559 70.075 13.9965 70.083 13.9364C70.0871 13.9082 70.089 13.8821 70.0951 13.8539C73.6265 14.8811 77.7044 14.4428 80.9605 12.7082C82.5986 11.8379 84.0757 10.6442 85.324 9.27932C87.147 7.28557 88.405 4.83342 88.8171 2.17444C89.7195 2.45178 90.5919 2.82971 91.4199 3.30803C91.6953 3.46916 91.8521 3.77854 91.8179 4.09612Z" fill="#08B865"/>
<path d="M67.6524 0.123543C65.4612 1.56788 63.8457 3.71046 62.9117 6.16163C62.1524 8.1546 61.7131 10.3939 62.0157 12.531C62.0799 12.9849 62.1653 13.4376 62.2686 13.8872C61.3453 13.7103 60.4086 13.6284 59.4825 13.6521C57.7754 13.6956 56.067 14.07 54.4784 14.6804C51.9963 15.6341 49.8317 17.2831 48.3897 19.5192C48.2301 19.7665 48.2315 20.0855 48.3936 20.3312C49.8379 22.5224 51.9805 24.1378 54.4317 25.0718C56.4246 25.8312 58.6639 26.2704 60.801 25.9679C61.2549 25.9036 61.7076 25.8183 62.1573 25.715C61.9803 26.6382 61.8985 27.5749 61.9221 28.5011C61.9657 30.2081 62.3401 31.9165 62.9504 33.5052C63.9041 35.9872 65.5532 38.1519 67.7893 39.5939C68.0367 39.7534 68.3555 39.7521 68.6012 39.59C70.7924 38.1456 72.4078 36.003 73.3418 33.5519C74.1012 31.5589 74.5405 29.3196 74.2379 27.1825C74.1737 26.7286 74.0883 26.2759 73.985 25.8263C74.9082 26.0032 75.8449 26.0851 76.7711 26.0614C78.4781 26.0179 80.1865 25.6435 81.7752 25.0331C84.2572 24.0794 86.4219 22.4304 87.8639 20.1942C88.0235 19.947 88.0221 19.628 87.86 19.3823C86.4156 17.1911 84.2731 15.5757 81.8219 14.6417C79.8289 13.8823 77.5897 13.4431 75.4526 13.7456C74.9987 13.8099 74.5459 13.8952 74.0963 13.9985C74.2733 13.0753 74.3551 12.1386 74.3315 11.2124C74.2879 9.50538 73.9135 7.79698 73.3032 6.20831C72.3494 3.72628 70.7004 1.56163 68.4643 0.119637C68.217 -0.039738 67.8981 -0.0383708 67.6524 0.123543Z" fill="#FEE45A"/>
<path d="M66.1077 1.34249C66.584 0.894243 67.1006 0.486235 67.6534 0.122563C67.8985 -0.0403271 68.2161 -0.0403271 68.4653 0.118462C70.7003 1.56163 72.3503 3.72627 73.303 6.20831C73.9139 7.7962 74.288 9.50459 74.3321 11.2108C74.3522 12.045 74.2899 12.8851 74.1471 13.7171C73.2708 13.6206 72.3864 13.6226 71.5182 13.7452C71.5131 13.746 71.5083 13.7466 71.5034 13.7474C70.8585 13.8394 70.2903 13.3189 70.3489 12.67C70.3928 12.1831 70.4094 11.6956 70.3967 11.2108C70.3526 9.5044 69.9788 7.796 69.3676 6.20831C68.6542 4.35127 67.5528 2.67295 66.1077 1.34249Z" fill="#FEDF30"/>
<path d="M87.8645 20.1931C86.4213 22.43 84.2567 24.0783 81.7747 25.033C80.1868 25.642 78.4784 26.0177 76.7721 26.0601C76.0204 26.0802 75.2608 26.03 74.509 25.9134C75.6487 25.7466 76.7721 25.4431 77.8415 25.0332C80.3237 24.0785 82.4883 22.4304 83.9294 20.1933C84.0881 19.9461 84.0881 19.6265 83.9253 19.3814C82.4821 17.1906 80.3397 15.5748 77.8876 14.6421C76.951 14.2843 75.9581 13.999 74.9471 13.8261C75.1159 13.7961 75.2848 13.7699 75.4536 13.7457C77.5901 13.4421 79.8292 13.8824 81.8229 14.6421C84.2729 15.5748 86.4155 17.1906 87.8606 19.3814C88.0213 19.6263 88.0233 19.9461 87.8645 20.1931Z" fill="#FEDF30"/>
<path d="M68.1267 23.6697C70.2329 23.6697 71.9403 21.9623 71.9403 19.856C71.9403 17.7498 70.2329 16.0424 68.1267 16.0424C66.0204 16.0424 64.313 17.7498 64.313 19.856C64.313 21.9623 66.0204 23.6697 68.1267 23.6697Z" fill="#BBEC6C"/>
<path d="M71.9402 19.8556C71.9402 21.9621 70.2337 23.6703 68.1275 23.6703C66.799 23.6703 65.6312 22.991 64.948 21.9619C65.165 22.0021 65.3902 22.0222 65.6193 22.0222C67.7255 22.0222 69.432 20.3138 69.432 18.2076C69.432 17.4298 69.1988 16.7062 68.7968 16.1033C70.5835 16.4187 71.9402 17.9783 71.9402 19.8556Z" fill="#A2E62E"/>
</g>
<defs>
<clipPath id="clip0">
<rect width="100" height="100" fill="white"/>
</clipPath>
</defs>
</svg>
