<svg width="100" height="100" viewBox="0 0 100 100" fill="none" xmlns="http://www.w3.org/2000/svg">
<g clip-path="url(#clip0)">
<path d="M66.5072 7.60371H57.114V3.225C57.114 1.44375 58.5578 0 60.3388 0H63.2822C65.0632 0 66.5072 1.44375 66.5072 3.225V7.60371Z" fill="#CBC4CC"/>
<path d="M66.5061 3.22439V6.27439H62.5844V3.22439C62.5844 1.61033 61.3991 0.273413 59.8499 0.0368896C60.0096 0.0126709 60.1735 0.000366211 60.3393 0.000366211H63.2821C65.0641 0.000366211 66.5061 1.44451 66.5061 3.22439Z" fill="#B5ADB6"/>
<path d="M69.7812 14.259H30.2187L25.8882 24.3122V57.1295V89.9469L29.7626 98.9415C30.0394 99.5838 30.6718 100 31.3712 100H68.6284C69.3278 100 69.9603 99.5838 70.237 98.9415L74.1114 89.9469V57.1295V24.3122L69.7812 14.259Z" fill="#CBC4CC"/>
<path d="M74.1113 24.3124V89.9473L70.2381 98.9418C69.9609 99.5831 69.3279 99.9997 68.6281 99.9997H64.583C65.2828 99.9997 65.9158 99.5831 66.193 98.9418L70.0662 89.9473V24.3124L65.7359 14.2581H69.7811L74.1113 24.3124Z" fill="#B5ADB6"/>
<path d="M71.221 14.7178H28.7789C26.4474 14.7178 24.5574 12.8277 24.5574 10.4963C24.5574 8.16482 26.4474 6.27478 28.7789 6.27478H71.221C73.5525 6.27478 75.4425 8.16482 75.4425 10.4963C75.4425 12.8277 73.5525 14.7178 71.221 14.7178Z" fill="#F3F0F3"/>
<path d="M75.4422 10.4955C75.4422 11.6625 74.9709 12.7162 74.2065 13.4809C73.442 14.2434 72.3861 14.7166 71.2211 14.7166H67.1758C68.3408 14.7166 69.3965 14.2434 70.1611 13.4809C70.9256 12.7164 71.3969 11.6625 71.3969 10.4955C71.3969 8.16543 69.5078 6.27441 67.1758 6.27441H71.2209C73.5531 6.27441 75.4422 8.16562 75.4422 10.4955Z" fill="#E2DEE2"/>
<path d="M74.1115 89.9469H50.6546L49.556 89.2951L35.5951 89.2069L32.6638 89.9469H25.8884V24.3121H51.6914L52.2951 24.969L65.9025 25.0574L67.3361 24.3121H74.1115V89.9469Z" fill="#E94444"/>
<path d="M70.0664 24.3121H74.1115V89.9471H70.0664V24.3121Z" fill="#D83131"/>
<path d="M32.6638 89.9338C40.2351 87.274 44.3087 78.6316 45.2089 70.4687C46.1091 62.3058 44.6687 54.041 45.2226 45.8457C45.7333 38.29 47.9658 30.8627 51.6914 24.3256H67.3363C63.6109 30.8627 61.3783 38.29 60.8675 45.8457C60.2374 55.1681 60.8337 64.4752 60.0855 73.8023C59.5642 80.301 57.3374 87.5865 50.6548 89.9342H32.6638V89.9338Z" fill="#F3F0F3"/>
<path d="M67.3356 24.3245C63.61 30.8616 61.3791 38.2905 60.8674 45.8448C60.2383 55.1668 60.833 64.4749 60.0846 73.801C59.5649 80.3016 57.3379 87.587 50.6553 89.9333H45.2913C51.9739 87.587 55.643 80.3016 56.1649 73.801C56.9112 64.4749 56.3166 55.1668 56.9456 45.8448C57.4573 38.2905 59.6901 30.8614 63.4137 24.3245H67.3356Z" fill="#E2DEE2"/>
</g>
<defs>
<clipPath id="clip0">
<rect width="100" height="100" fill="white"/>
</clipPath>
</defs>
</svg>
