<svg width="100" height="100" viewBox="0 0 100 100" fill="none" xmlns="http://www.w3.org/2000/svg">
<g clip-path="url(#clip0)">
<path d="M53.8252 81.3865V81.4609C53.8252 87.9717 58.3217 93.6844 64.6896 95.041C64.8686 95.0793 65.0516 95.1174 65.2363 95.1516C65.2363 95.1516 70.0848 95.8451 71.0094 100H28.9906C29.9152 95.8451 34.7637 95.1516 34.7637 95.1516C34.9305 95.1215 35.0953 95.0873 35.2561 95.0531C41.648 93.7064 46.1748 87.9938 46.1748 81.4609V81.3865C46.1748 80.1383 45.7064 78.9463 44.9084 77.9855C44.9043 77.9795 44.9004 77.9756 44.8963 77.9715C44.7662 77.8289 44.9936 77.5117 44.8654 77.3641C37.0896 68.4029 32.8269 50.3703 30.5707 33.852C29.084 22.9549 28.4146 13.0064 28.1375 6.71562C28.1328 6.61016 27.8672 6.28828 27.8627 6.18516C27.7803 4.32578 27.734 2.82422 27.7059 1.76699C27.682 0.798047 28.46 0 29.4307 0H70.5691C71.54 0 72.318 0.798047 72.2938 1.7668C72.2375 3.9377 72.0967 7.97793 71.7611 13.1418C71.7545 13.2445 71.4633 13.6504 71.4564 13.7541C71.0764 19.5299 70.4352 26.3658 69.4143 33.8518C67.1207 50.642 62.9266 68.9588 54.9021 77.7549C54.898 77.759 55.0953 77.9793 55.0914 77.9854C54.2936 78.9463 53.8252 80.1383 53.8252 81.3865Z" fill="#C8EFFE"/>
<path d="M53.8251 81.3865V81.4609C53.8251 87.9717 58.3216 93.6844 64.6896 95.041C64.8685 95.0793 65.0515 95.1174 65.2363 95.1516C65.2363 95.1516 70.0847 95.8451 71.0093 100H67.2806C67.4011 100 66.5087 98.6592 66.3238 98.5064C65.6625 97.9637 64.9509 97.7365 64.1289 97.5457C63.188 97.3266 62.2152 97.2924 61.2685 97.0975C57.8976 96.408 55.2322 94.0141 53.2904 91.242C51.3083 88.4139 50.0964 84.9303 50.0964 81.4609V81.3865C50.0964 80.1383 50.5648 78.9463 51.3628 77.9855C51.3669 77.9795 51.3709 77.9756 51.375 77.9715C59.3992 69.1754 63.6927 50.6422 65.9863 33.852C67.0255 26.2316 67.6546 18.9713 68.0326 13.142C68.3683 7.97813 68.5089 3.93789 68.5652 1.76699C68.5892 0.798047 67.8113 0 66.8406 0H70.5693C71.5402 0 72.3181 0.798047 72.2939 1.7668C72.2377 3.9377 72.0968 7.97793 71.7613 13.1418C71.3834 18.9711 70.7543 26.2314 69.715 33.8518C67.4214 50.642 63.1279 69.175 55.1037 77.9713C55.0996 77.9754 55.0957 77.9793 55.0916 77.9854C54.2935 78.9463 53.8251 80.1383 53.8251 81.3865Z" fill="#99E6FC"/>
<path d="M69.7128 33.8519C68.6535 41.609 67.1681 49.7396 65.0857 57.1087H34.9162C33.9072 53.5468 33.0408 49.806 32.2929 46.0172C31.4949 41.9668 30.8335 37.8601 30.2849 33.8521H69.7128V33.8519Z" fill="#FEE45A"/>
<path d="M69.7128 33.852C69.6464 34.3364 69.578 34.8229 69.5099 35.3114C69.1073 38.1874 68.6358 41.0477 68.103 43.9106C67.7589 45.7596 67.3909 47.6041 66.9897 49.4416C66.4581 51.8762 65.8536 54.287 65.2022 56.6866C65.164 56.8272 65.1259 56.968 65.0856 57.1086H61.355C63.4394 49.7397 64.9249 41.6088 65.9862 33.8518H69.7128V33.852Z" fill="#FEDF30"/>
<path d="M65.0858 57.1086C62.6596 65.6877 59.4213 73.2376 55.1038 77.9713C53.8514 79.485 52.0946 80.2829 50.3096 80.3653H49.6905C47.9055 80.2829 46.1487 79.4848 44.8963 77.9713C40.5807 73.2395 37.3424 65.6897 34.9163 57.1086H65.0858Z" fill="#BBEC6C"/>
<path d="M65.0857 57.1086C65.0557 57.2151 65.0254 57.3237 64.9934 57.4303C64.6418 58.6661 64.2762 59.8555 63.8756 61.085C62.6381 64.8821 61.1699 68.5581 59.2344 72.0719C58.5963 73.2301 57.8982 74.379 57.1359 75.4626C56.3576 76.5688 55.4662 77.7247 54.4668 78.6415C53.3711 79.6463 51.8178 80.3655 50.3098 80.3655H50.2031C50.382 79.4952 50.7861 78.679 51.3629 77.9856C51.367 77.9795 51.3709 77.9756 51.375 77.9715C55.6926 73.2397 58.9289 65.6899 61.3551 57.1088H65.0857V57.1086Z" fill="#A2E62E"/>
<path d="M71.7614 13.142C71.3835 18.9713 70.7544 26.2317 69.7151 33.852H30.2851C28.7735 22.7723 28.1323 12.4485 27.8628 6.18518C32.9483 7.12991 37.9776 9.08167 42.838 10.9391C51.0491 14.0768 60.0525 17.0256 68.4667 14.485C69.6085 14.141 70.7101 13.6887 71.7614 13.142Z" fill="#FE9738"/>
<path d="M71.7613 13.142C71.3834 18.9713 70.7543 26.2316 69.715 33.8519H65.9863C66.9391 26.8709 67.5461 20.1894 67.932 14.6375C68.1109 14.5892 68.2898 14.539 68.4668 14.4847C69.6084 14.141 70.71 13.6886 71.7613 13.142Z" fill="#FE860A"/>
</g>
<defs>
<clipPath id="clip0">
<rect width="100" height="100" fill="white"/>
</clipPath>
</defs>
</svg>
