<svg width="100" height="100" viewBox="0 0 100 100" fill="none" xmlns="http://www.w3.org/2000/svg">
<g clip-path="url(#clip0)">
<path d="M50.0001 99.9998C47.4068 99.9998 45.3044 97.8975 45.3044 95.3041V75.7854H54.696V95.3041C54.6958 97.8975 52.5935 99.9998 50.0001 99.9998Z" fill="#F4D7C8"/>
<path d="M54.6969 75.7864V95.3045C54.6969 97.8973 52.5928 99.9993 50 99.9993C49.2772 99.9993 48.5926 99.8358 47.9807 99.545C49.5639 98.7897 50.6583 97.1745 50.6583 95.3045V75.7864H54.6969Z" fill="#ECBBA3"/>
<path d="M67.2923 75.2438L32.9691 75.534C30.8749 75.534 29.1772 73.8364 29.1772 71.7422L29.17 55.0771L28.6255 54.356V21.3743C28.6257 9.56959 38.1953 0 49.9998 0C61.8046 0 71.3742 9.56959 71.3742 21.3743V54.356L70.9699 55.2847L71.0839 71.4522C71.0841 73.5461 69.3865 75.2438 67.2923 75.2438Z" fill="#E94444"/>
<path d="M71.3743 21.3747V54.3542L70.7397 55.6077L70.7662 71.9941C70.7662 74.0881 69.068 75.7863 66.974 75.7863L63.5435 75.7854C65.6375 75.7854 67.3358 74.5461 67.3358 72.4521V21.3747C67.3358 15.4723 64.943 10.1293 61.076 6.26053C57.6533 2.83981 53.0777 0.57222 47.981 0.097608C48.6452 0.0329592 49.3196 0.000732422 50.0003 0.000732422C55.9027 0.000732422 61.2457 2.39352 65.1145 6.26053C68.9813 10.1293 71.3743 15.4723 71.3743 21.3747Z" fill="#D83131"/>
<path d="M71.3741 63.1089V72.4521C71.3741 74.5461 69.6758 76.2443 67.5819 76.2443H32.4182C30.3242 76.2443 28.626 74.5461 28.626 72.4521V63.1089H71.3741Z" fill="#00C27A"/>
<path d="M71.3741 63.1089V72.452C71.3741 74.546 69.6759 76.2442 67.5819 76.2442H63.5435C65.6374 76.2442 67.3356 74.546 67.3356 72.452V63.1089H71.3741Z" fill="#08B865"/>
<path d="M28.6257 54.3549H71.3744V63.1092H28.6257V54.3549Z" fill="#F3F0F3"/>
<path d="M67.3354 54.3549H71.3743V63.1091H67.3354V54.3549Z" fill="#E2DEE2"/>
<path d="M38.7473 19.0372C37.9383 19.0372 37.2825 18.3815 37.2825 17.5723V14.7473C37.2825 13.9381 37.9383 13.2825 38.7473 13.2825C39.5563 13.2825 40.2122 13.9381 40.2122 14.7473V17.5723C40.2122 18.3813 39.5563 19.0372 38.7473 19.0372Z" fill="#CC2121"/>
<path d="M50.0002 19.0372C49.1913 19.0372 48.5354 18.3815 48.5354 17.5723V14.7473C48.5354 13.9381 49.1913 13.2825 50.0002 13.2825C50.8092 13.2825 51.4651 13.9381 51.4651 14.7473V17.5723C51.4651 18.3813 50.8092 19.0372 50.0002 19.0372Z" fill="#CC2121"/>
<path d="M44.3735 30.0546C43.5646 30.0546 42.9087 29.399 42.9087 28.5898V25.7648C42.9087 24.9556 43.5646 24.2999 44.3735 24.2999C45.1825 24.2999 45.8384 24.9556 45.8384 25.7648V28.5898C45.8384 29.399 45.1827 30.0546 44.3735 30.0546Z" fill="#CC2121"/>
<path d="M55.6265 30.0546C54.8175 30.0546 54.1616 29.399 54.1616 28.5898V25.7648C54.1616 24.9556 54.8175 24.2999 55.6265 24.2999C56.4354 24.2999 57.0913 24.9556 57.0913 25.7648V28.5898C57.0913 29.399 56.4354 30.0546 55.6265 30.0546Z" fill="#CC2121"/>
<path d="M38.7473 41.0723C37.9383 41.0723 37.2825 40.4167 37.2825 39.6075V36.7825C37.2825 35.9733 37.9383 35.3176 38.7473 35.3176C39.5563 35.3176 40.2122 35.9733 40.2122 36.7825V39.6075C40.2122 40.4167 39.5563 41.0723 38.7473 41.0723Z" fill="#CC2121"/>
<path d="M50.0002 41.0723C49.1913 41.0723 48.5354 40.4167 48.5354 39.6075V36.7825C48.5354 35.9733 49.1913 35.3176 50.0002 35.3176C50.8092 35.3176 51.4651 35.9733 51.4651 36.7825V39.6075C51.4651 40.4167 50.8092 41.0723 50.0002 41.0723Z" fill="#CC2121"/>
<path d="M61.2527 41.0723C60.4437 41.0723 59.7878 40.4167 59.7878 39.6075V36.7825C59.7878 35.9733 60.4437 35.3176 61.2527 35.3176C62.0617 35.3176 62.7175 35.9733 62.7175 36.7825V39.6075C62.7175 40.4167 62.0617 41.0723 61.2527 41.0723Z" fill="#CC2121"/>
<path d="M61.2527 19.0372C60.4437 19.0372 59.7878 18.3815 59.7878 17.5723V14.7473C59.7878 13.9381 60.4437 13.2825 61.2527 13.2825C62.0617 13.2825 62.7175 13.9381 62.7175 14.7473V17.5723C62.7175 18.3813 62.0617 19.0372 61.2527 19.0372Z" fill="#CC2121"/>
</g>
<defs>
<clipPath id="clip0">
<rect width="100" height="100" fill="white"/>
</clipPath>
</defs>
</svg>
