<svg width="100" height="100" viewBox="0 0 100 100" fill="none" xmlns="http://www.w3.org/2000/svg">
<path d="M65.232 53.1671C68.0609 45.9579 73.5263 39.5263 73.5644 31.6521C73.5838 27.6464 72.7877 23.6366 71.209 19.8989H50H28.791C27.2123 23.6366 26.4162 27.6462 26.4355 31.6521C26.4736 39.5265 31.939 45.9579 34.7679 53.1671C34.9824 53.7134 35.1699 54.2718 35.3334 54.8399C35.351 54.9009 35.681 55.1626 35.698 55.2237C36.6224 58.5507 36.6605 62.0015 36.5164 65.536C36.5117 65.6503 36.2713 65.7636 36.2662 65.8776C36.1974 67.3923 36.084 68.8831 35.9693 70.3149C35.6318 74.5345 34.7824 85.3357 34.2058 92.6769C34.1933 92.8349 34.8306 92.9911 34.8185 93.1458C34.7039 94.6069 34.4306 95.9161 34.5168 96.989C34.6554 98.7175 35.564 99.5622 36.6513 99.3487L50 99.4595L63.3306 99.5149C64.9591 99.5149 65.7324 98.4759 65.6049 96.8523C65.5248 95.8323 65.5465 94.7321 65.4384 93.3575C65.4209 93.1325 65.8121 92.9071 65.7939 92.6751C65.2173 85.3341 64.3679 74.5339 64.0304 70.3148C63.916 68.8833 63.8025 67.3929 63.7338 65.8786C63.7298 65.7925 63.5011 65.6495 63.4974 65.5632C63.3511 62.0778 63.3832 58.5194 64.2613 55.2235C64.2968 55.0903 64.6287 54.971 64.6668 54.839C64.8302 54.2712 65.0177 53.7132 65.232 53.1671Z" fill="#FEE45A"/>
<path d="M66.1335 96.9893C66.2601 98.6133 64.9776 100 63.3478 100H59.4546C61.0827 100 62.3669 98.6133 62.2384 96.9893C61.7319 90.5254 60.5501 75.4832 60.138 70.3158C59.6958 64.8086 59.2718 58.4332 61.338 53.1674C64.1679 45.9578 69.6329 39.5262 69.671 31.6514C69.6911 27.6457 68.8931 23.6359 67.3153 19.8994H71.2085C72.7884 23.6359 73.5843 27.6455 73.5641 31.6514C73.5259 39.5262 68.061 45.9578 65.2331 53.1674C65.0186 53.7135 64.831 54.2715 64.6673 54.8393C64.6513 54.8949 64.4134 55.0314 64.3978 55.0875C63.4538 58.4711 63.3425 61.9711 63.4976 65.5635C63.5001 65.6223 63.7315 65.8195 63.7343 65.8783C63.8032 67.393 63.9167 68.8838 64.0311 70.3158C64.4431 75.4832 65.6249 90.5252 66.1335 96.9893Z" fill="#FEDF30"/>
<path d="M65.7939 92.6758H34.206L33.8675 96.9881C33.7401 98.6115 35.0232 99.9992 36.6515 99.9992H63.3483C64.9769 99.9992 66.2599 98.6115 66.1323 96.9881L65.7939 92.6758Z" fill="#FAC600"/>
<path d="M63.7335 65.8779H36.2664C36.4351 62.1716 36.3367 58.3226 35.3318 54.8396H64.6683C63.6632 58.3226 63.5648 62.1716 63.7335 65.8779Z" fill="#D77F4A"/>
<path d="M64.6683 54.8394C64.63 54.97 64.5919 55.1026 64.5578 55.2372C64.2769 56.344 64.0435 57.4907 63.9146 58.6501C63.8365 59.3536 63.7785 60.0595 63.7379 60.7663C63.6984 61.4522 63.6785 62.1392 63.6732 62.8261C63.6714 63.0442 63.6793 65.8776 63.7337 65.8776H59.8406C59.6718 62.1714 59.7703 58.3224 60.7732 54.8394H64.6683Z" fill="#C86D36"/>
<path d="M73.3863 13.7881C73.1805 9.72324 69.8811 6.41875 65.8166 6.20703C63.8572 6.10488 62.0416 6.70762 60.6006 7.78398C59.1881 3.27324 54.9764 0 50 0C45.0236 0 40.8119 3.27324 39.3994 7.78379C37.9576 6.70703 36.1412 6.1043 34.1809 6.20703C30.132 6.41914 26.8402 9.6998 26.6156 13.7479C26.4846 16.1074 27.3756 18.2604 28.8863 19.8047L39.9553 19.8213C41.7672 19.824 43.2346 21.2936 43.2346 23.1055V35.4002C43.2346 37.6365 45.0475 39.4496 47.284 39.4496C49.5203 39.4496 51.3334 37.6367 51.3334 35.4002V25.3299C51.3334 23.5143 52.8068 22.043 54.6225 22.0457C56.4344 22.0484 57.9018 23.518 57.9018 25.3299V29.2873C57.9018 31.5236 59.7146 33.3367 61.9512 33.3367C64.1875 33.3367 66.0006 31.5238 66.0006 29.2873V23.1492C66.0006 21.3336 67.474 19.8623 69.2897 19.865L71.0516 19.8676C72.591 18.3279 73.5066 16.1641 73.3863 13.7881Z" fill="#F3F0F3"/>
<path d="M71.0518 19.8672L69.2891 19.8653C67.4743 19.8633 66.0008 21.3344 66.0008 23.1495V29.2877C66.0008 30.4073 65.5487 31.4182 64.8151 32.1518C64.0815 32.8834 63.0684 33.3377 61.951 33.3377C60.9299 33.3377 59.9953 32.9579 59.2819 32.3329C59.6858 32.1379 60.0516 31.8747 60.3653 31.561C61.0989 30.8274 61.5512 29.8164 61.5512 28.6969V20.2575C61.5512 18.4405 63.0244 16.9713 64.8395 16.9733H64.8455C66.6932 16.9733 68.011 15.8674 68.6821 14.2178C69.2998 12.6995 68.6594 10.4702 67.7994 9.11371C67.284 8.30082 65.4586 6.11605 64.3231 6.26625C64.8094 6.20199 65.3078 6.18187 65.8164 6.20805C69.8825 6.41898 73.1807 9.72328 73.3877 13.7873C73.5059 16.1649 72.5914 18.3276 71.0518 19.8672Z" fill="#E2DEE2"/>
<path d="M50 71.3511C46.0119 71.3511 42.7789 68.1181 42.7789 64.13V55.7681C42.7789 51.78 46.0119 48.547 50 48.547C53.9881 48.547 57.2211 51.78 57.2211 55.7681V64.13C57.2211 68.1181 53.9881 71.3511 50 71.3511Z" fill="#00C27A"/>
<path d="M50 71.3511C46.0119 71.3511 42.7789 68.1181 42.7789 64.13V55.7681C42.7789 51.78 46.0119 48.547 50 48.547C53.9881 48.547 57.2211 51.78 57.2211 55.7681V64.13C57.2211 68.1181 53.9881 71.3511 50 71.3511Z" fill="#00C27A"/>
<path d="M57.2216 55.7679V64.1291C57.2216 68.1187 53.9876 71.3506 49.9999 71.3506C49.2945 71.3506 48.6111 71.25 47.9679 71.0611C50.9667 70.1828 53.1575 67.4131 53.1575 64.1289V55.7677C53.1575 53.774 52.3495 51.9691 51.0411 50.6627C50.197 49.8164 49.1458 49.1814 47.9681 48.8377C48.6113 48.6467 49.2947 48.5463 50.0001 48.5463C51.9939 48.5463 53.7987 49.3543 55.1052 50.6627C56.4136 51.9693 57.2216 53.7742 57.2216 55.7679Z" fill="#08B865"/>
</svg>
