<svg width="100" height="100" viewBox="0 0 100 100" fill="none" xmlns="http://www.w3.org/2000/svg">
<g clip-path="url(#clip0)">
<path d="M62.7315 95.9494C62.5948 95.9234 62.4599 95.8963 62.327 95.8684C56.9839 94.7443 53.196 89.9703 53.196 84.5102V70.8025C59.9384 69.4463 64.1999 64.6221 64.1999 57.4803V50.0012L65.0167 49.4285V1.24395C65.0167 0.557422 64.4602 0.000976562 63.7737 0.000976562H36.2263C35.5397 0.000976562 34.9833 0.557422 34.9833 1.24395V43.482L35.7778 45.4191L35.6261 58.2662C36.5618 65.5104 40.0616 69.4465 46.804 70.8027V84.5103C46.804 89.9705 43.0161 94.7445 37.6729 95.8686C37.5399 95.8965 37.4052 95.9236 37.2685 95.9496C37.2685 95.9496 33.2175 96.5283 32.4458 100.001H49.9999H67.5542C66.7825 96.5281 62.7315 95.9494 62.7315 95.9494Z" fill="#C8EFFE"/>
<path d="M67.5535 100H62.8057C61.3438 98.349 59.0412 98.0213 59.0412 98.0213C58.8844 97.9912 58.7336 97.9609 58.5826 97.9287C53.2617 96.7926 50 89.9494 50 84.5098V71.2777C50 70.3346 50.6133 69.5082 51.5123 69.2205C57.3982 67.3342 61.185 64.0725 61.185 57.4787V0H63.7729C64.4594 0 65.0158 0.556445 65.0158 1.24297V57.4787C65.0158 64.6215 59.9383 70.576 53.1955 71.9313V84.5098C53.1955 89.9494 56.9539 94.7213 62.2729 95.8555C62.4236 95.8877 62.5766 95.9197 62.7312 95.948C62.7312 95.948 66.7832 96.5271 67.5535 100Z" fill="#99E6FC"/>
<path d="M65.0156 49.427V57.4787C65.0156 65.623 58.4158 72.2229 50.2734 72.2229H49.7266C41.5842 72.2229 34.9844 65.6229 34.9844 57.4787V43.4805C36.4543 44.0215 37.9143 44.5824 39.3582 45.1334C47.5729 48.2727 56.5234 51.2348 65.0156 49.427Z" fill="#FFF9E2"/>
<path d="M65.0197 49.427C65.0197 53.7867 65.0178 56.801 65.0156 57.3982C64.9996 60.9455 63.7629 64.4406 61.4322 67.1131C60.5635 68.1105 59.5459 69.0215 58.4139 69.7715C55.9645 71.3943 53.2156 72.2229 50.2736 72.2229H50V71.2777C50 70.3346 50.6133 69.5082 51.5123 69.2205C57.3982 67.3342 61.185 64.0725 61.185 57.4787V49.9336C62.4699 49.8611 63.7469 49.6963 65.0158 49.4268C65.0178 49.427 65.0178 49.427 65.0197 49.427Z" fill="#FEF0AE"/>
</g>
<defs>
<clipPath id="clip0">
<rect width="100" height="100" fill="white"/>
</clipPath>
</defs>
</svg>
