<svg width="100" height="100" viewBox="0 0 100 100" fill="none" xmlns="http://www.w3.org/2000/svg">
<path d="M49.9995 100C72.4142 100 90.5849 81.8294 90.5849 59.4147C90.5849 37 72.4142 18.8293 49.9995 18.8293C27.5849 18.8293 9.41418 37 9.41418 59.4147C9.41418 81.8294 27.5849 100 49.9995 100Z" fill="#FE9738"/>
<path d="M90.5857 59.4153C90.5857 81.8297 72.414 99.9995 49.9996 99.9995C45.6967 99.9995 41.5506 99.3305 37.6595 98.0891C40.3836 98.6657 43.2078 98.969 46.1025 98.969C68.5168 98.969 86.6886 80.7973 86.6886 58.3829C86.6886 40.2713 74.8226 24.9301 58.4427 19.7092C76.8052 23.5942 90.5857 39.8957 90.5857 59.4153Z" fill="#FE860A"/>
<path d="M64.6273 20.8566C66.2644 19.9853 67.7419 18.7924 68.9888 17.4281C70.9366 15.2967 72.2386 12.6437 72.5536 9.77167C72.5884 9.45389 72.4323 9.14491 72.1558 8.98495C69.689 7.5576 66.8234 7.0287 63.9888 7.3119C61.6843 7.54198 59.2958 8.20233 57.3667 9.53397C54.2945 11.6547 51.8015 14.8156 51.0113 18.5365C50.8935 19.0914 50.429 20.5258 51.1984 20.9447C51.9081 21.3312 52.6544 21.65 53.424 21.8967C57.0327 23.0531 61.2671 22.6449 64.6273 20.8566Z" fill="#00C27A"/>
<path d="M72.5546 9.77151C72.2392 12.6442 70.9374 15.2957 68.989 17.427C67.7415 18.793 66.265 19.9862 64.6279 20.8561C61.2671 22.644 57.0326 23.0537 53.4247 21.8967C52.6554 21.6496 51.9081 21.3303 51.199 20.9446C50.9197 20.7918 50.757 20.4906 50.7831 20.1752C50.8033 19.9262 50.8234 19.667 50.8314 19.6067C50.8355 19.5785 50.8374 19.5524 50.8435 19.5242C54.373 20.5508 58.4488 20.1129 61.7031 18.3793C63.3402 17.5096 64.8167 16.3162 66.0642 14.9524C67.8863 12.9596 69.1437 10.5088 69.5556 7.8512C70.4575 8.12834 71.3294 8.50608 72.157 8.9842C72.432 9.14475 72.5886 9.45413 72.5546 9.77151Z" fill="#08B865"/>
<path d="M46.3965 22.9861C45.8744 19.4123 45.1738 9.74117 45.8265 3.81441C46.1205 1.14585 48.7615 -0.601413 51.3258 0.193704C51.3625 0.205032 51.3992 0.216361 51.4359 0.227689C53.4892 0.858743 54.7437 2.92574 54.3711 5.04117C53.7135 8.77437 52.86 17.6931 52.7994 22.5501C52.7773 24.3173 51.3488 25.7425 49.5814 25.7425C47.9822 25.7423 46.6277 24.5685 46.3965 22.9861Z" fill="#D77F4A"/>
<path d="M54.3709 5.04112C53.714 8.77549 52.8603 17.6927 52.8 22.5499C52.7779 24.3177 51.3496 25.7419 49.5818 25.7419C48.8384 25.7419 48.1455 25.4888 47.597 25.0569C48.3402 24.4743 48.8205 23.5685 48.8324 22.5499C48.8927 17.6927 49.7465 8.77549 50.4033 5.04112C50.7367 3.15479 49.7746 1.30674 48.1072 0.483111C49.0574 -0.0151312 50.1984 -0.155756 51.3254 0.193853C51.3615 0.205963 51.3998 0.215924 51.4359 0.228033C53.4888 0.858697 54.7445 2.92569 54.3709 5.04112Z" fill="#C86D36"/>
<path d="M49.5018 33.0175C47.4128 33.0175 45.3245 32.3363 43.7147 30.9664C43.0811 30.4273 43.0044 29.4765 43.5436 28.8425C44.0827 28.2091 45.0337 28.132 45.6674 28.6715C47.8116 30.4957 51.3909 30.4455 53.4833 28.5613C54.1012 28.0045 55.0538 28.0543 55.6112 28.6726C56.1678 29.291 56.118 30.2435 55.5001 30.8006C53.8612 32.2761 51.6811 33.0175 49.5018 33.0175Z" fill="#E57917"/>
</svg>
