<svg width="100" height="100" viewBox="0 0 100 100" fill="none" xmlns="http://www.w3.org/2000/svg">
<g clip-path="url(#clip0)">
<path d="M60.6479 91.9187H17.4895V97.2308C17.4895 98.7593 18.7286 99.9986 20.2573 99.9986L57.8803 99.9994C59.4088 99.9994 60.6481 98.7603 60.6481 97.2316V91.9187H60.6479Z" fill="#62DBFB"/>
<path d="M60.6473 91.9197V97.232C60.6473 98.7603 59.4096 100 57.8793 100H53.5872C55.1114 99.9959 56.3469 98.7582 56.3469 97.232V91.9197H60.6473Z" fill="#01D0FB"/>
<path d="M91.8866 37.6074V75.6019C91.8866 81.3023 87.2656 85.9236 81.565 85.9236H68.2999V77.4002H80.3357C82.4929 77.4002 84.2417 75.6513 84.2417 73.4941V39.7152C84.2417 37.5599 82.4931 35.8091 80.3357 35.8091H68.2999V27.2878H81.5671C87.2663 27.2878 91.8866 31.9082 91.8866 37.6074Z" fill="#62DBFB"/>
<path d="M91.8872 37.6073V75.6024C91.8872 81.303 87.2659 85.9243 81.5654 85.9243H77.9073C83.6079 85.9243 88.2273 81.303 88.2273 75.6024V37.6073C88.2273 31.9088 83.6079 27.2874 77.9095 27.2874H81.5675C87.2658 27.2875 91.8872 31.9088 91.8872 37.6073Z" fill="#01D0FB"/>
<path d="M63.6032 8.31458H14.5342L9.55317 15.7378C8.61392 17.1374 8.11255 18.7849 8.11255 20.4704V82.3915C8.11255 87.8999 12.578 92.3654 18.0864 92.3654H60.0512C65.5596 92.3654 70.025 87.8999 70.025 82.3915V20.4706C70.025 18.7851 69.5235 17.1376 68.5844 15.738L63.6032 8.31458Z" fill="#C8EFFE"/>
<path d="M70.0241 20.4714V82.3925C70.0241 87.8999 65.5593 92.3669 60.0519 92.3669H55.8898C61.3972 92.3669 65.862 87.8999 65.862 82.3925V20.4714C65.862 18.7846 65.362 17.1384 64.4232 15.7382L59.4421 8.31433H63.6021L68.5831 15.7382C69.5241 17.1384 70.0241 18.7844 70.0241 20.4714Z" fill="#99E6FC"/>
<path d="M70.0243 23.6293V82.3922C70.0243 87.8996 65.5595 92.3666 60.0521 92.3666H18.0857C12.5782 92.3666 8.1134 87.8996 8.1134 82.3922V20.4713C8.1134 20.4326 8.1134 20.3941 8.11536 20.3555C15.7302 20.6543 23.3025 23.2697 30.5474 25.7186C39.9304 28.8908 50.2177 31.8723 59.8324 29.3035C63.7345 28.2609 67.2339 26.2469 70.0243 23.6293Z" fill="#D77F4A"/>
<path d="M70.0241 23.6293V82.3922C70.0241 87.8996 65.5593 92.3666 60.0519 92.3666H55.8898C61.3972 92.3666 65.862 87.8996 65.862 82.3922V26.757C67.3739 25.8607 68.7702 24.806 70.0241 23.6293Z" fill="#C86D36"/>
<path d="M37.4441 59.6777L28.9908 68.131C28.2627 68.8592 27.082 68.8592 26.3539 68.131L17.9006 59.6777C17.1725 58.9496 17.1725 57.7689 17.9006 57.0408L26.3539 48.5875C27.082 47.8594 28.2627 47.8594 28.9908 48.5875L37.4441 57.0408C38.1725 57.7689 38.1725 58.9496 37.4441 59.6777Z" fill="#F3F0F3"/>
<path d="M60.2376 51.427L51.7843 59.8803C51.0562 60.6084 49.8755 60.6084 49.1474 59.8803L40.694 51.427C39.9659 50.6989 39.9659 49.5182 40.694 48.7901L49.1474 40.3367C49.8755 39.6086 51.0562 39.6086 51.7843 40.3367L60.2376 48.7901C60.9659 49.5182 60.9659 50.6987 60.2376 51.427Z" fill="#F3F0F3"/>
<path d="M37.445 59.6777L28.9907 68.132C28.2632 68.8595 27.0825 68.8595 26.355 68.132L25.3755 67.1525L32.8481 59.6779C33.5776 58.9503 33.5776 57.7697 32.8481 57.0421L25.3755 49.5675L26.355 48.588C27.0825 47.8605 28.2632 47.8605 28.9907 48.588L37.445 57.0423C38.1726 57.7695 38.1726 58.9501 37.445 59.6777Z" fill="#E2DEE2"/>
<path d="M60.2368 51.4266L51.7846 59.8809C51.0549 60.6085 49.8764 60.6085 49.1467 59.8809L48.1692 58.9014L55.6418 51.4268C56.3694 50.6993 56.3694 49.5186 55.6418 48.7909L48.1692 41.3163L49.1467 40.3368C49.8762 39.6093 51.0549 39.6093 51.7846 40.3368L60.2368 48.7911C60.9664 49.5184 60.9664 50.6991 60.2368 51.4266Z" fill="#E2DEE2"/>
<path d="M65.4137 8.70322H12.7237C10.3206 8.70322 8.37231 6.75498 8.37231 4.35186C8.37231 1.94873 10.3206 0.000488281 12.7237 0.000488281H65.4135C67.8167 0.000488281 69.7649 1.94873 69.7649 4.35186C69.7651 6.75498 67.8168 8.70322 65.4137 8.70322Z" fill="#62DBFB"/>
<path d="M69.7641 4.35098C69.7641 5.5541 69.2783 6.64141 68.4899 7.42988C67.7033 8.21641 66.616 8.7041 65.4131 8.7041H61.0682C62.2713 8.7041 63.3586 8.21641 64.1449 7.42988C64.9334 6.64141 65.4192 5.5541 65.4192 4.35098C65.4192 1.94902 63.4721 0 61.068 0H65.4129C67.8172 0 69.7641 1.94902 69.7641 4.35098Z" fill="#01D0FB"/>
</g>
<defs>
<clipPath id="clip0">
<rect width="100" height="100" fill="white"/>
</clipPath>
</defs>
</svg>
